<svg xmlns="http://www.w3.org/2000/svg" width="48" height="59.099" viewBox="0 0 48 59.099"><g transform="translate(-3 0.001)"><path d="M27,59.078a2.2,2.2,0,0,1-.591-.092A34.209,34.209,0,0,1,3,26.493V11.078A1.846,1.846,0,0,1,4.846,9.232,29.077,29.077,0,0,0,25.6.629,2.086,2.086,0,0,1,27,0h0a1.846,1.846,0,0,1,1.348.5A29.225,29.225,0,0,0,49.154,9.232,1.846,1.846,0,0,1,51,11.078V26.493A34.209,34.209,0,0,1,27.591,59.078a2.2,2.2,0,0,1-.591,0ZM6.692,12.924V26.549A30.517,30.517,0,0,0,27,55.275,30.517,30.517,0,0,0,47.308,26.493V12.924A32.714,32.714,0,0,1,27,4.395,32.769,32.769,0,0,1,6.692,12.924Z" transform="translate(0 0)" fill="#1890ff"/><path d="M14,10h6.7v5.33A1.374,1.374,0,0,1,19.33,16.7H15.374A1.374,1.374,0,0,1,14,15.33Z" transform="translate(9.648 8.705)" fill="#1890ff"/><path d="M31.49,32.464H14.4c-2.977-.009-5.387-2.037-5.4-4.542V13.542c.011-2.5,2.421-4.533,5.4-4.542H31.49c2.977.009,5.387,2.037,5.4,4.542v14.38C36.877,30.427,34.467,32.455,31.49,32.464ZM14.4,12.352a1.317,1.317,0,0,0-1.414,1.19v14.38a1.317,1.317,0,0,0,1.414,1.19H31.49a1.317,1.317,0,0,0,1.414-1.19V13.542a1.317,1.317,0,0,0-1.414-1.19Z" transform="translate(4.056 8.807)" fill="#1890ff"/></g></svg>