<svg xmlns="http://www.w3.org/2000/svg" width="63.778" height="35.875" viewBox="0 0 63.778 35.875"><g transform="translate(0 -7)"><path d="M27.875,22.11a5.979,5.979,0,0,1-3.308-1.016L14.82,14.6a1.993,1.993,0,0,1,2.192-3.308l9.766,6.5a1.993,1.993,0,0,0,2.192,0l9.766-6.5A1.993,1.993,0,0,1,40.929,14.6l-9.746,6.5a5.979,5.979,0,0,1-3.308,1.016Z" transform="translate(13.979 4.023)" fill="#1890ff"/><path d="M47.868,42.875H15.979A5.979,5.979,0,0,1,10,36.9V12.979A5.979,5.979,0,0,1,15.979,7H47.868a5.979,5.979,0,0,1,5.979,5.979V36.9a5.979,5.979,0,0,1-5.979,5.979ZM15.979,10.986a1.993,1.993,0,0,0-1.993,1.993V36.9a1.993,1.993,0,0,0,1.993,1.993H47.868A1.993,1.993,0,0,0,49.861,36.9V12.979a1.993,1.993,0,0,0-1.993-1.993Z" transform="translate(9.931 0)" fill="#1890ff"/><path d="M9.979,20.986H5.993a1.993,1.993,0,0,1,0-3.986H9.979a1.993,1.993,0,0,1,0,3.986Z" transform="translate(3.972 9.931)" fill="#1890ff"/><path d="M11.965,16.986H3.993a1.993,1.993,0,0,1,0-3.986h7.972a1.993,1.993,0,0,1,0,3.986Z" transform="translate(1.986 5.958)" fill="#1890ff"/><path d="M13.951,12.986H1.993A1.993,1.993,0,1,1,1.993,9H13.951a1.993,1.993,0,1,1,0,3.986Z" transform="translate(0 1.986)" fill="#1890ff"/></g></svg>