<svg xmlns="http://www.w3.org/2000/svg" width="48.433" height="50.05" viewBox="0 0 48.433 50.05"><g transform="translate(0 0.035)"><path d="M45.308,15.128v-.141a23.435,23.435,0,0,0-43.746,0v.141a23.013,23.013,0,0,0,0,16.67v.109a23.529,23.529,0,0,0,20.2,14.983h.109a1.562,1.562,0,0,0,1.562-1.562V43.766a1.562,1.562,0,0,0-.531-.906,26.107,26.107,0,0,1-7.046-10.03h6.015a1.562,1.562,0,1,0,0-3.125H14.858a25.185,25.185,0,0,1-.8-6.249,25.841,25.841,0,0,1,.781-6.249H32.028a25.841,25.841,0,0,1,.781,6.249,1.562,1.562,0,1,0,3.125,0,29.439,29.439,0,0,0-.671-6.244l7.483,0a20.139,20.139,0,0,1,1,6.249,1.562,1.562,0,0,0,3.125,0A23.06,23.06,0,0,0,45.308,15.128ZM18.748,43.25a20.436,20.436,0,0,1-13.3-10.421H12.5a28.888,28.888,0,0,0,6.249,10.39ZM4.14,29.7a19.764,19.764,0,0,1-1.016-6.249,20.139,20.139,0,0,1,1-6.249h7.484a29.45,29.45,0,0,0-.672,6.249,28.591,28.591,0,0,0,.7,6.249ZM12.5,14.081H5.437A20.311,20.311,0,0,1,18.748,3.707,28.529,28.529,0,0,0,12.5,14.081Zm3.359,0a26.185,26.185,0,0,1,7.577-10.5,26.185,26.185,0,0,1,7.593,10.5Zm18.514,0A28.528,28.528,0,0,0,28.122,3.707,20.311,20.311,0,0,1,41.434,14.081Z" transform="translate(0)" fill="#1890ff"/><path d="M22,19h6.249v4.687a1.562,1.562,0,0,1-1.562,1.562H23.562A1.562,1.562,0,0,1,22,23.687Z" transform="translate(12.372 10.704)" fill="#1890ff"/><path d="M34.186,39.873h-12.5A4.687,4.687,0,0,1,17,35.186v-12.5A4.687,4.687,0,0,1,21.687,18h12.5a4.687,4.687,0,0,1,4.687,4.687v12.5a4.687,4.687,0,0,1-4.687,4.687Zm-12.5-18.748a1.562,1.562,0,0,0-1.562,1.562v12.5a1.562,1.562,0,0,0,1.562,1.562h12.5a1.562,1.562,0,0,0,1.562-1.562v-12.5a1.562,1.562,0,0,0-1.562-1.562Z" transform="translate(9.56 10.142)" fill="#1890ff"/><path d="M24.125,29.125H22.562a1.562,1.562,0,1,1,0-3.125h1.562a1.562,1.562,0,0,1,0,3.125Z" transform="translate(11.809 14.641)" fill="#1890ff"/></g></svg>