<svg xmlns="http://www.w3.org/2000/svg" width="104" height="20.8" viewBox="0 0 104 20.8"><g transform="translate(0.005)"><path d="M26.761,8.74,30.8,4.7l4.041,4.041,2.349-2.351L30.8,0,24.41,6.391Z" transform="translate(-20.404)" fill="#1890ff"/><path d="M0,0H3.323V3.323H0Z" transform="translate(-0.005 10.4) rotate(-45)" fill="#1890ff"/><path d="M26.744,73.4l4.04,4.04L34.825,73.4l2.351,2.348,0,0-6.391,6.392-6.391-6.389,0,0Z" transform="translate(-20.387 -61.342)" fill="#1890ff"/><path d="M0,0H3.323V3.323H0Z" transform="translate(16.094 10.401) rotate(-45)" fill="#1890ff"/><path d="M53.551,51.165,51.167,48.78,49.4,50.543l-.2.2-.417.417,0,0,0,0,2.384,2.382,2.384-2.385,0,0Z" transform="translate(-40.77 -40.766)" fill="#1890ff"/><g transform="translate(24.461 4.856)"><path d="M148.37,30.68h5.112a3.879,3.879,0,0,1,2.878.986,2.546,2.546,0,0,1,.754,1.86v.031a2.738,2.738,0,0,1-.117.835,2.563,2.563,0,0,1-.314.657,2.426,2.426,0,0,1-.453.513,2.944,2.944,0,0,1-.557.378,3.723,3.723,0,0,1,1.506.986,2.524,2.524,0,0,1,.549,1.725v.031A2.865,2.865,0,0,1,157.438,40a2.582,2.582,0,0,1-.833.946,3.952,3.952,0,0,1-1.306.567,7.015,7.015,0,0,1-1.69.189H148.37Zm4.6,4.459a2.528,2.528,0,0,0,1.276-.276.953.953,0,0,0,.47-.89v-.031a.974.974,0,0,0-.409-.843,2.025,2.025,0,0,0-1.181-.291h-2.392v2.331Zm.646,4.444a2.333,2.333,0,0,0,1.265-.291,1,1,0,0,0,.457-.907v-.031a1.037,1.037,0,0,0-.425-.874,2.254,2.254,0,0,0-1.37-.329h-2.808v2.431Z" transform="translate(-148.37 -30.496)" fill="#1890ff"/><path d="M223.88,30.68h2.426V41.71H223.88Z" transform="translate(-211.475 -30.496)" fill="#1890ff"/><path d="M261,30.68h2.238l5.172,6.788V30.68h2.4V41.71h-2.065L263.4,34.7V41.71H261Z" transform="translate(-242.497 -30.496)" fill="#1890ff"/><path d="M341.348,30.2h2.234l4.726,11.109h-2.533l-1.009-2.474H340.1l-1.009,2.474H336.62Zm2.553,6.492-1.469-3.578-1.462,3.578Z" transform="translate(-305.694 -30.094)" fill="#1890ff"/><path d="M423.74,30.68h2.238l5.168,6.788V30.68h2.4V41.71h-2.065L426.135,34.7V41.71h-2.4Z" transform="translate(-378.501 -30.496)" fill="#1890ff"/><path d="M507.777,40.965a5.738,5.738,0,0,1-2.254-.44,5.449,5.449,0,0,1-2.978-3.01,5.839,5.839,0,0,1-.425-2.223v-.031a5.724,5.724,0,0,1,1.608-4.027,5.46,5.46,0,0,1,1.807-1.229,5.9,5.9,0,0,1,2.331-.448,7.308,7.308,0,0,1,1.41.126,5.858,5.858,0,0,1,1.16.347,5.011,5.011,0,0,1,.961.536,6.494,6.494,0,0,1,.821.693l-1.543,1.781a5.867,5.867,0,0,0-1.314-.915,3.363,3.363,0,0,0-1.5-.329,3.052,3.052,0,0,0-2.3,1.009,3.465,3.465,0,0,0-.664,1.1,3.757,3.757,0,0,0-.235,1.332v.031a3.813,3.813,0,0,0,.235,1.331,3.5,3.5,0,0,0,.657,1.1,3.033,3.033,0,0,0,2.3,1.025,3.371,3.371,0,0,0,1.6-.347,6.18,6.18,0,0,0,1.3-.946l1.544,1.561a7.875,7.875,0,0,1-.882.821,5.26,5.26,0,0,1-1,.623,5.185,5.185,0,0,1-1.189.393A7.083,7.083,0,0,1,507.777,40.965Z" transform="translate(-444.004 -29.557)" fill="#1890ff"/><path d="M581.47,30.68h8.3v2.159h-5.914v2.238h5.208v2.159h-5.2v2.316h5.988V41.71h-8.378Z" transform="translate(-510.319 -30.496)" fill="#1890ff"/></g></g></svg>