<svg xmlns="http://www.w3.org/2000/svg" xmlns:xlink="http://www.w3.org/1999/xlink" width="150" height="19" viewBox="0 0 150 19"><defs><clipPath id="a"><rect width="16" height="16" fill="none"/></clipPath></defs><text transform="translate(20 15)" fill="#fff" font-size="14" font-family="SegoeUIBlack, Segoe UI"><tspan x="0" y="0">1</tspan><tspan y="0" xml:space="preserve" font-family="SegoeUI, Segoe UI"> RUB = </tspan><tspan y="0">78,95</tspan><tspan y="0" xml:space="preserve" font-family="SegoeUI, Segoe UI"> USDT</tspan></text><g transform="translate(0 2)"><rect width="16" height="16" fill="none"/><g clip-path="url(#a)"><rect width="16" height="16" fill="none"/><path d="M11.625,12.437h-.938a.124.124,0,0,1-.125-.122,4.689,4.689,0,0,0-9.374,0,.124.124,0,0,1-.125.122H.125a.125.125,0,0,1-.049-.009A.141.141,0,0,1,.036,12.4a.115.115,0,0,1-.027-.042A.125.125,0,0,1,0,12.309,5.887,5.887,0,0,1,3.587,7.025L3.6,7.02l.006,0a3.876,3.876,0,1,1,4.538,0l.009,0,.009,0a5.872,5.872,0,0,1,3.587,5.286.125.125,0,0,1-.009.049.13.13,0,0,1-.027.042.141.141,0,0,1-.04.028A.129.129,0,0,1,11.625,12.437ZM5.875,1.187a2.689,2.689,0,1,0,1.9.788A2.67,2.67,0,0,0,5.875,1.187Z" transform="translate(2.125 1.781)" fill="#1890ff"/></g></g></svg>