<svg xmlns="http://www.w3.org/2000/svg" xmlns:xlink="http://www.w3.org/1999/xlink" width="1088" height="48" viewBox="0 0 1088 48"><defs><clipPath id="a"><rect width="14" height="14" fill="none"/></clipPath><clipPath id="b"><rect width="16" height="16" fill="none"/></clipPath></defs><g fill="#1890ff" stroke="rgba(255,255,255,0.47)" stroke-width="1" opacity="0.75"><rect width="1088" height="48" rx="24" stroke="none"/><rect x="0.5" y="0.5" width="1087" height="47" rx="23.5" fill="none"/></g><g transform="translate(16 14)"><g transform="translate(0 17) rotate(-90)"><rect width="14" height="14" fill="none"/><g clip-path="url(#a)"><rect width="14" height="14" fill="none"/><path d="M10.281,0H9.256A.22.22,0,0,0,9.08.09L5.2,5.444,1.311.09A.22.22,0,0,0,1.135,0H.11A.11.11,0,0,0,.021.174L4.841,6.82a.436.436,0,0,0,.707,0L10.369.174A.109.109,0,0,0,10.281,0Z" transform="translate(1.805 3.5)" fill="#fff"/></g></g><text transform="translate(24)" fill="#fff" font-size="14" font-family="SegoeUI-Semibold, Segoe UI" font-weight="600" opacity="0.5"><tspan x="0" y="15">Внимательно изучите инструкцию полностью</tspan></text></g><g transform="translate(1053 16)"><rect width="16" height="16" fill="none"/><g clip-path="url(#b)"><rect width="16" height="16" fill="none"/><path d="M13.5,12.25H.5a.5.5,0,0,1-.433-.75L6.568.25a.5.5,0,0,1,.866,0l6.5,11.25a.5.5,0,0,1-.433.75ZM7,1.873,1.691,11.064H12.31Z" transform="translate(1 1.875)" fill="#fc0000"/><path d="M10.619,9.191H0L5.309,0l5.309,9.19ZM5.309,6.767a.75.75,0,1,0,.525.214A.747.747,0,0,0,5.309,6.767Zm-.375-4.14a.125.125,0,0,0-.125.125V5.627a.125.125,0,0,0,.125.125h.75a.125.125,0,0,0,.125-.125V2.752a.125.125,0,0,0-.125-.125Z" transform="translate(2.691 3.748)" fill="none"/><path d="M.75,5.625a.75.75,0,1,1,.53-.22A.747.747,0,0,1,.75,5.625Zm.375-2.5H.375A.125.125,0,0,1,.25,3V.125A.125.125,0,0,1,.375,0h.75A.125.125,0,0,1,1.25.125V3A.125.125,0,0,1,1.125,3.125Z" transform="translate(7.25 6.375)" fill="#fc0000"/></g></g></svg>