<svg xmlns="http://www.w3.org/2000/svg" xmlns:xlink="http://www.w3.org/1999/xlink" width="18" height="18" viewBox="0 0 18 18"><defs><clipPath id="a"><rect width="18" height="18" fill="none"/></clipPath></defs><rect width="18" height="18" fill="none"/><g clip-path="url(#a)"><rect width="18" height="18" fill="none"/><path d="M3.707,14.064a2.111,2.111,0,0,1-1.48-.614L.357,11.58a1.213,1.213,0,0,1,0-1.719L2.375,7.849a1.2,1.2,0,0,1,.853-.357h.005a1.206,1.206,0,0,1,.858.357L5.665,9.426A7.145,7.145,0,0,0,7.9,7.9,7.1,7.1,0,0,0,9.42,5.665L7.845,4.088a1.215,1.215,0,0,1,0-1.719L9.861.357a1.209,1.209,0,0,1,1.716,0l1.872,1.87a2.092,2.092,0,0,1,.586,1.818,12.227,12.227,0,0,1-3.488,6.506,12.18,12.18,0,0,1-6.5,3.486A1.941,1.941,0,0,1,3.707,14.064ZM3.229,8.772,1.281,10.721l1.837,1.837A.836.836,0,0,0,3.7,12.8a.8.8,0,0,0,.133-.011A10.926,10.926,0,0,0,9.652,9.654a10.923,10.923,0,0,0,3.136-5.818.824.824,0,0,0-.234-.717L10.718,1.281,8.77,3.231l2.124,2.122-.14.379a8.461,8.461,0,0,1-5.022,5.024l-.38.14-.016-.016Z" transform="translate(1.969 1.969)" fill="#fff"/></g></svg>