<svg xmlns="http://www.w3.org/2000/svg" xmlns:xlink="http://www.w3.org/1999/xlink" width="24" height="24" viewBox="0 0 24 24"><defs><clipPath id="a"><rect width="24" height="24" fill="none"/></clipPath></defs><rect width="24" height="24" fill="none"/><g clip-path="url(#a)"><rect width="24" height="24" fill="none"/><path d="M18.563,15.75H17.156a.187.187,0,0,1-.187-.187V.187A.187.187,0,0,1,17.156,0h1.407a.187.187,0,0,1,.187.187V15.563A.187.187,0,0,1,18.563,15.75Zm-16.969,0H.187A.187.187,0,0,1,0,15.563V.187A.187.187,0,0,1,.187,0H1.594a.187.187,0,0,1,.187.187V15.563A.187.187,0,0,1,1.594,15.75Zm4.467-5.3a.166.166,0,0,1-.1-.036L2.969,8.053A.167.167,0,0,1,2.9,7.921a.172.172,0,0,1,.017-.074.168.168,0,0,1,.048-.058L5.96,5.426a.166.166,0,0,1,.1-.036.171.171,0,0,1,.171.17V7.031h6.281V5.468a.169.169,0,0,1,.026-.091.159.159,0,0,1,.069-.062.163.163,0,0,1,.073-.017H12.7a.171.171,0,0,1,.086.035l2.991,2.36a.17.17,0,0,1,0,.267l-2.989,2.363a.164.164,0,0,1-.1.036.175.175,0,0,1-.118-.047.166.166,0,0,1-.053-.122V8.718H6.232v1.563A.169.169,0,0,1,6.061,10.452Z" transform="translate(2.625 4.125)" fill="#fff"/></g></svg>