<svg xmlns="http://www.w3.org/2000/svg" width="111.014" height="23.18" viewBox="0 0 111.014 23.18"><path d="M45.294,23.18H2.7A2.7,2.7,0,0,1,0,20.48V2.7A2.7,2.7,0,0,1,2.7,0H45.294Z" fill="#1890ff"/><path d="M573.021,23.18H510V0h63.021a2.7,2.7,0,0,1,2.7,2.7V20.489A2.7,2.7,0,0,1,573.021,23.18Z" transform="translate(-464.706)" fill="#1890ff" opacity="0.7"/><g transform="translate(5.364 5.018)"><path d="M68.873,65.541a5.12,5.12,0,0,1-.364,2.1,2.872,2.872,0,0,1-.941,1.19,3.154,3.154,0,0,1-1.279.542,7.462,7.462,0,0,1-1.385.133H60.4V56.731h4.956a3.35,3.35,0,0,1,1.563.32,2.618,2.618,0,0,1,.968.835,3.132,3.132,0,0,1,.488,1.146,5.376,5.376,0,0,1,.115,1.234,2.838,2.838,0,0,1-.879,2.371,2.049,2.049,0,0,1,.915.959A4.486,4.486,0,0,1,68.873,65.541ZM66.1,60.31a2.115,2.115,0,0,0-.142-.9.571.571,0,0,0-.568-.293H62.825v2.549H65.16A.765.765,0,0,0,65.9,61.3,2.125,2.125,0,0,0,66.1,60.31Zm.337,5.249a3.056,3.056,0,0,0-.089-.844,1.39,1.39,0,0,0-.222-.488.618.618,0,0,0-.3-.231,1.006,1.006,0,0,0-.32-.053H62.825v3.064H65.3a1.036,1.036,0,0,0,.888-.337A1.9,1.9,0,0,0,66.439,65.559Zm12.149,3.952H70.471V56.731h7.975v2.478h-5.56v2.354H78V64.04H72.887v2.975h5.7Zm9.4-3.774q0,4.036-4.343,4.041a4.189,4.189,0,0,1-3.215-1.19,5.285,5.285,0,0,1-1.1-3.686h2.354a6.715,6.715,0,0,0,.124,1.012,2,2,0,0,0,.337.79,1.605,1.605,0,0,0,.622.515,2.269,2.269,0,0,0,.986.187,2.236,2.236,0,0,0,1.421-.364,1.787,1.787,0,0,0,.444-1.412,1.385,1.385,0,0,0-.178-.79,1.2,1.2,0,0,0-.551-.382,5.315,5.315,0,0,0-1.03-.249,12.364,12.364,0,0,1-1.377-.3,8.521,8.521,0,0,1-1.11-.4,2.741,2.741,0,0,1-.9-.631,2.805,2.805,0,0,1-.6-1.066,5.71,5.71,0,0,1-.213-1.723,4.141,4.141,0,0,1,.2-1.359,3.091,3.091,0,0,1,.515-.977,2.829,2.829,0,0,1,.737-.648,3.873,3.873,0,0,1,.861-.382,4.413,4.413,0,0,1,.879-.178c.293-.027.568-.044.808-.044a4.582,4.582,0,0,1,2.034.391A3.211,3.211,0,0,1,86.91,57.9a3.578,3.578,0,0,1,.586,1.4,8.431,8.431,0,0,1,.151,1.545H85.338c-.036-.213-.062-.453-.089-.71a1.883,1.883,0,0,0-.169-.675,1.111,1.111,0,0,0-.417-.453,1.791,1.791,0,0,0-.959-.2,3.23,3.23,0,0,0-.844.089,1.225,1.225,0,0,0-.515.266.911.911,0,0,0-.258.462,2.97,2.97,0,0,0-.071.675.919.919,0,0,0,.2.666,1.751,1.751,0,0,0,.764.346c.391.107.782.2,1.181.266s.782.16,1.155.258a4.85,4.85,0,0,1,1.039.4,2.7,2.7,0,0,1,.844.684,3.158,3.158,0,0,1,.568,1.119,5.481,5.481,0,0,1,.213,1.7ZM96.8,59.2H93.882V69.511H91.457V59.2H88.535V56.731h8.259V59.2Z" transform="translate(-60.4 -56.5)" fill="#1890ff"/></g><g transform="translate(48.145 4.991)"><path d="M551.39,64.539a9.34,9.34,0,0,1-.346,1.9,4.815,4.815,0,0,1-.773,1.572,3.591,3.591,0,0,1-1.323,1.075,4.434,4.434,0,0,1-1.972.4,5.148,5.148,0,0,1-2.265-.453,3.855,3.855,0,0,1-1.51-1.314,5.945,5.945,0,0,1-.835-2.131A14.071,14.071,0,0,1,542.1,62.7a11.939,11.939,0,0,1,.284-2.7,5.831,5.831,0,0,1,.879-2.052,4.081,4.081,0,0,1,1.51-1.3,4.895,4.895,0,0,1,2.185-.453,4.725,4.725,0,0,1,2.087.4,3.612,3.612,0,0,1,1.3,1.039,4.168,4.168,0,0,1,.693,1.457,11.722,11.722,0,0,1,.3,1.634h-2.291c-.053-.284-.115-.56-.186-.817a1.958,1.958,0,0,0-.3-.675,1.47,1.47,0,0,0-.551-.453,2.11,2.11,0,0,0-.932-.169,2.786,2.786,0,0,0-1.19.231,1.754,1.754,0,0,0-.782.746,4.085,4.085,0,0,0-.426,1.359,13.725,13.725,0,0,0-.124,2.078,9.6,9.6,0,0,0,.178,2.025,3.193,3.193,0,0,0,.5,1.208,1.587,1.587,0,0,0,.782.6,3.135,3.135,0,0,0,1.03.16,2.058,2.058,0,0,0,.924-.178,1.3,1.3,0,0,0,.542-.506,2.714,2.714,0,0,0,.311-.782c.08-.3.151-.639.231-1.021h2.345Zm9.725,4.7H558.7V63.722h-3.641v5.515h-2.416V56.458h2.416v4.769H558.7V56.458h2.416Zm10.187,0H568.77L568.1,66.6h-3.215l-.657,2.638h-2.442l3.5-12.78h2.4Zm-3.8-5.018-.995-4.112-1.021,4.112Zm10.9,5.018-3.695-7.78v7.78h-2.416V56.458h2.371l3.721,7.727V56.458h2.4v12.78H578.4Zm13.277,0h-1.963v-1.3a2.3,2.3,0,0,1-.533.755,2.7,2.7,0,0,1-.693.462,3.038,3.038,0,0,1-.782.231,4.816,4.816,0,0,1-.79.062,4.381,4.381,0,0,1-2.229-.515,4.01,4.01,0,0,1-1.439-1.421,6.345,6.345,0,0,1-.773-2.149,14.813,14.813,0,0,1-.231-2.664q0-6.5,4.885-6.5a4.844,4.844,0,0,1,2.043.391,3.748,3.748,0,0,1,1.359,1.039,4.1,4.1,0,0,1,.746,1.483,6.6,6.6,0,0,1,.231,1.723h-2.469a6.248,6.248,0,0,0-.053-.8,1.906,1.906,0,0,0-.24-.728,1.388,1.388,0,0,0-.577-.524,2.287,2.287,0,0,0-1.048-.2,2.529,2.529,0,0,0-1.128.222,1.788,1.788,0,0,0-.755.7,3.576,3.576,0,0,0-.426,1.243,10.8,10.8,0,0,0-.133,1.83,14.623,14.623,0,0,0,.115,2.016,3.791,3.791,0,0,0,.409,1.35,1.8,1.8,0,0,0,.773.755,2.738,2.738,0,0,0,1.226.24,2.449,2.449,0,0,0,.808-.133,1.732,1.732,0,0,0,.666-.417,1.979,1.979,0,0,0,.444-.728,2.953,2.953,0,0,0,.142-1.066h-2.274V62.239h4.707v7Zm9.618,0h-8.1V56.458h7.957v2.478h-5.542v2.354h5.1v2.478h-5.1v2.975h5.684Z" transform="translate(-542.1 -56.2)" fill="#363636"/></g></svg>