<svg xmlns="http://www.w3.org/2000/svg" width="15.5" height="21.5" viewBox="0 0 15.5 21.5"><g transform="translate(-4.25 -1.25)"><path d="M12,22.75A7.75,7.75,0,0,1,4.25,15V9a7.75,7.75,0,1,1,15.5,0v6A7.75,7.75,0,0,1,12,22.75Zm0-20A6.25,6.25,0,0,0,5.75,9v6a6.25,6.25,0,1,0,12.5,0V9A6.25,6.25,0,0,0,12,2.75Z"/><path d="M12,14.75a.75.75,0,0,1-.75-.75V6a.75.75,0,0,1,1.5,0v8A.75.75,0,0,1,12,14.75Z"/><path d="M12,14.75a.748.748,0,0,1-.53-.22l-3-3A.75.75,0,0,1,9.53,10.47L12,12.939l2.47-2.47A.75.75,0,0,1,15.53,11.53l-3,3A.748.748,0,0,1,12,14.75Z"/></g></svg>