<svg xmlns="http://www.w3.org/2000/svg" xmlns:xlink="http://www.w3.org/1999/xlink" width="1365.025" height="23.564" viewBox="0 0 1365.025 23.564"><defs><clipPath id="a"><rect x="-46" width="1365.025" height="23.564" fill="none"/></clipPath><clipPath id="b"><rect width="92" height="19.513" fill="#fff"/></clipPath><linearGradient id="d" x1="0.5" y1="1" x2="0.5" gradientUnits="objectBoundingBox"><stop offset="0" stop-color="#1c1c1c"/><stop offset="1" stop-color="#4b4b4b"/></linearGradient><linearGradient id="e" x1="0.5" y1="1" x2="0.5" gradientUnits="objectBoundingBox"><stop offset="0" stop-color="#bcbcbc"/><stop offset="1" stop-color="#f3f3f3"/></linearGradient><clipPath id="h"><rect width="137.025" height="23.564" fill="#fff"/></clipPath></defs><g transform="translate(46)" clip-path="url(#a)" style="isolation:isolate"><g transform="translate(712 -2268)"><g transform="translate(637 2270)"><g opacity="0.5" clip-path="url(#b)"><path d="M113.335,4.1c0-1.061.362-1.423,1.452-1.423H120.7V.188H114.23a3.268,3.268,0,0,0-3.268,3.268V6.176h-1.378a.39.39,0,0,0-.322.172L107.884,8.4a.167.167,0,0,0,.139.261h2.939v10.68h2.373V8.659h6.61V6.175h-6.61V4.1Z" transform="translate(-87.389 -0.152)" fill="#fff"/><path d="M186.467.188V19.339h2.373V.188Z" transform="translate(-151.084 -0.152)" fill="#fff"/><path d="M222.614,33.877c0,2.009-1.674,3.154-4.355,3.154-2.066,0-3.238-.837-3.238-2.373,0-1.368,1-1.76,2.875-1.76h2.848c.837,0,1.507-.14,1.871-.781v1.758Zm-3.8-9.269c-3.909,0-6.059,2.066-6.31,4.8h2.54c.251-1.48,1.48-2.317,3.8-2.317,2.484,0,3.769.977,3.769,2.568,0,.7-.335.95-1.172.95h-3.8c-3.713,0-5,1.536-5,4.048,0,2.987,2.066,4.746,5.416,4.746,2.233,0,3.853-.782,4.55-1.814v1.536h2.373V30c0-3.713-2.4-5.389-6.17-5.389Z" transform="translate(-172.183 -19.938)" fill="#fff"/><path d="M296.385,27.758V26.083h-2.373V40.321h2.373V32.2a3.294,3.294,0,0,1,3.629-3.629h2.233V26.083h-1.982c-1.926,0-3.183.559-3.88,1.675" transform="translate(-238.222 -21.134)" fill="#fff"/><path d="M346.671,27.092c2.735,0,4.02,1.2,4.188,3.629h-8.487c.195-2.457,1.591-3.629,4.3-3.629m0,9.827a4.072,4.072,0,0,1-4.3-3.909h10.916V31.755c0-5.221-2.484-7.147-6.617-7.147s-6.756,1.815-6.756,7.119,2.959,7.678,6.756,7.678c2.987,0,5.472-1.4,6.253-4.663h-2.6a3.541,3.541,0,0,1-3.658,2.178Z" transform="translate(-275.414 -19.938)" fill="#fff"/><path d="M417.981,33.09l5.5-7.007h-2.93L416.5,31.22l-4.075-5.136h-2.876l5.5,6.979-5.7,7.258h2.959l4.216-5.389,4.243,5.389h2.9Z" transform="translate(-331.677 -21.134)" fill="#fff"/><path d="M13.263,0H3.011A3,3,0,0,0,1.5.406,2.865,2.865,0,0,0,0,2.926V18.882a.63.63,0,0,0,1.158.343l2.908-4.469a.5.5,0,0,1,.419-.226H9.4a3.011,3.011,0,0,0-.047-6.022H2.907a.168.168,0,0,1-.14-.259l1.3-2a.5.5,0,0,1,.419-.226h8.778a3.012,3.012,0,1,0,0-6.024" fill="#fff"/></g></g><g transform="translate(-347 2270)"><g opacity="0.5" clip-path="url(#b)"><path d="M113.335,4.1c0-1.061.362-1.423,1.452-1.423H120.7V.188H114.23a3.268,3.268,0,0,0-3.268,3.268V6.176h-1.378a.39.39,0,0,0-.322.172L107.884,8.4a.167.167,0,0,0,.139.261h2.939v10.68h2.373V8.659h6.61V6.175h-6.61V4.1Z" transform="translate(-87.389 -0.152)" fill="#fff"/><path d="M186.467.188V19.339h2.373V.188Z" transform="translate(-151.084 -0.152)" fill="#fff"/><path d="M222.614,33.877c0,2.009-1.674,3.154-4.355,3.154-2.066,0-3.238-.837-3.238-2.373,0-1.368,1-1.76,2.875-1.76h2.848c.837,0,1.507-.14,1.871-.781v1.758Zm-3.8-9.269c-3.909,0-6.059,2.066-6.31,4.8h2.54c.251-1.48,1.48-2.317,3.8-2.317,2.484,0,3.769.977,3.769,2.568,0,.7-.335.95-1.172.95h-3.8c-3.713,0-5,1.536-5,4.048,0,2.987,2.066,4.746,5.416,4.746,2.233,0,3.853-.782,4.55-1.814v1.536h2.373V30c0-3.713-2.4-5.389-6.17-5.389Z" transform="translate(-172.183 -19.938)" fill="#fff"/><path d="M296.385,27.758V26.083h-2.373V40.321h2.373V32.2a3.294,3.294,0,0,1,3.629-3.629h2.233V26.083h-1.982c-1.926,0-3.183.559-3.88,1.675" transform="translate(-238.222 -21.134)" fill="#fff"/><path d="M346.671,27.092c2.735,0,4.02,1.2,4.188,3.629h-8.487c.195-2.457,1.591-3.629,4.3-3.629m0,9.827a4.072,4.072,0,0,1-4.3-3.909h10.916V31.755c0-5.221-2.484-7.147-6.617-7.147s-6.756,1.815-6.756,7.119,2.959,7.678,6.756,7.678c2.987,0,5.472-1.4,6.253-4.663h-2.6a3.541,3.541,0,0,1-3.658,2.178Z" transform="translate(-275.414 -19.938)" fill="#fff"/><path d="M417.981,33.09l5.5-7.007h-2.93L416.5,31.22l-4.075-5.136h-2.876l5.5,6.979-5.7,7.258h2.959l4.216-5.389,4.243,5.389h2.9Z" transform="translate(-331.677 -21.134)" fill="#fff"/><path d="M13.263,0H3.011A3,3,0,0,0,1.5.406,2.865,2.865,0,0,0,0,2.926V18.882a.63.63,0,0,0,1.158.343l2.908-4.469a.5.5,0,0,1,.419-.226H9.4a3.011,3.011,0,0,0-.047-6.022H2.907a.168.168,0,0,1-.14-.259l1.3-2a.5.5,0,0,1,.419-.226h8.778a3.012,3.012,0,1,0,0-6.024" fill="#fff"/></g></g><g transform="translate(829 2268)"><path d="M45.294,23.18H2.7A2.7,2.7,0,0,1,0,20.48V2.7A2.7,2.7,0,0,1,2.7,0H45.294Z" opacity="0.7" fill="url(#d)"/><path d="M573.021,23.18H510V0h63.021a2.7,2.7,0,0,1,2.7,2.7V20.489A2.7,2.7,0,0,1,573.021,23.18Z" transform="translate(-464.706)" opacity="0.7" fill="url(#e)"/><g transform="translate(5.364 5.018)" opacity="0.7"><path d="M68.873,65.541a5.12,5.12,0,0,1-.364,2.1,2.872,2.872,0,0,1-.941,1.19,3.154,3.154,0,0,1-1.279.542,7.462,7.462,0,0,1-1.385.133H60.4V56.731h4.956a3.35,3.35,0,0,1,1.563.32,2.618,2.618,0,0,1,.968.835,3.132,3.132,0,0,1,.488,1.146,5.376,5.376,0,0,1,.115,1.234,2.838,2.838,0,0,1-.879,2.371,2.049,2.049,0,0,1,.915.959A4.486,4.486,0,0,1,68.873,65.541ZM66.1,60.31a2.115,2.115,0,0,0-.142-.9.571.571,0,0,0-.568-.293H62.825v2.549H65.16A.765.765,0,0,0,65.9,61.3,2.125,2.125,0,0,0,66.1,60.31Zm.337,5.249a3.056,3.056,0,0,0-.089-.844,1.39,1.39,0,0,0-.222-.488.618.618,0,0,0-.3-.231,1.006,1.006,0,0,0-.32-.053H62.825v3.064H65.3a1.036,1.036,0,0,0,.888-.337A1.9,1.9,0,0,0,66.439,65.559Zm12.149,3.952H70.471V56.731h7.975v2.478h-5.56v2.354H78V64.04H72.887v2.975h5.7Zm9.4-3.774q0,4.036-4.343,4.041a4.189,4.189,0,0,1-3.215-1.19,5.285,5.285,0,0,1-1.1-3.686h2.354a6.715,6.715,0,0,0,.124,1.012,2,2,0,0,0,.337.79,1.605,1.605,0,0,0,.622.515,2.269,2.269,0,0,0,.986.187,2.236,2.236,0,0,0,1.421-.364,1.787,1.787,0,0,0,.444-1.412,1.385,1.385,0,0,0-.178-.79,1.2,1.2,0,0,0-.551-.382,5.315,5.315,0,0,0-1.03-.249,12.364,12.364,0,0,1-1.377-.3,8.521,8.521,0,0,1-1.11-.4,2.741,2.741,0,0,1-.9-.631,2.805,2.805,0,0,1-.6-1.066,5.71,5.71,0,0,1-.213-1.723,4.141,4.141,0,0,1,.2-1.359,3.091,3.091,0,0,1,.515-.977,2.829,2.829,0,0,1,.737-.648,3.873,3.873,0,0,1,.861-.382,4.413,4.413,0,0,1,.879-.178c.293-.027.568-.044.808-.044a4.582,4.582,0,0,1,2.034.391A3.211,3.211,0,0,1,86.91,57.9a3.578,3.578,0,0,1,.586,1.4,8.431,8.431,0,0,1,.151,1.545H85.338c-.036-.213-.062-.453-.089-.71a1.883,1.883,0,0,0-.169-.675,1.111,1.111,0,0,0-.417-.453,1.791,1.791,0,0,0-.959-.2,3.23,3.23,0,0,0-.844.089,1.225,1.225,0,0,0-.515.266.911.911,0,0,0-.258.462,2.97,2.97,0,0,0-.071.675.919.919,0,0,0,.2.666,1.751,1.751,0,0,0,.764.346c.391.107.782.2,1.181.266s.782.16,1.155.258a4.85,4.85,0,0,1,1.039.4,2.7,2.7,0,0,1,.844.684,3.158,3.158,0,0,1,.568,1.119,5.481,5.481,0,0,1,.213,1.7ZM96.8,59.2H93.882V69.511H91.457V59.2H88.535V56.731h8.259V59.2Z" transform="translate(-60.4 -56.5)" fill="#fff"/></g><g transform="translate(48.145 4.991)" opacity="0.7"><path d="M551.39,64.539a9.34,9.34,0,0,1-.346,1.9,4.815,4.815,0,0,1-.773,1.572,3.591,3.591,0,0,1-1.323,1.075,4.434,4.434,0,0,1-1.972.4,5.148,5.148,0,0,1-2.265-.453,3.855,3.855,0,0,1-1.51-1.314,5.945,5.945,0,0,1-.835-2.131A14.071,14.071,0,0,1,542.1,62.7a11.939,11.939,0,0,1,.284-2.7,5.831,5.831,0,0,1,.879-2.052,4.081,4.081,0,0,1,1.51-1.3,4.895,4.895,0,0,1,2.185-.453,4.725,4.725,0,0,1,2.087.4,3.612,3.612,0,0,1,1.3,1.039,4.168,4.168,0,0,1,.693,1.457,11.722,11.722,0,0,1,.3,1.634h-2.291c-.053-.284-.115-.56-.186-.817a1.958,1.958,0,0,0-.3-.675,1.47,1.47,0,0,0-.551-.453,2.11,2.11,0,0,0-.932-.169,2.786,2.786,0,0,0-1.19.231,1.754,1.754,0,0,0-.782.746,4.085,4.085,0,0,0-.426,1.359,13.725,13.725,0,0,0-.124,2.078,9.6,9.6,0,0,0,.178,2.025,3.193,3.193,0,0,0,.5,1.208,1.587,1.587,0,0,0,.782.6,3.135,3.135,0,0,0,1.03.16,2.058,2.058,0,0,0,.924-.178,1.3,1.3,0,0,0,.542-.506,2.714,2.714,0,0,0,.311-.782c.08-.3.151-.639.231-1.021h2.345Zm9.725,4.7H558.7V63.722h-3.641v5.515h-2.416V56.458h2.416v4.769H558.7V56.458h2.416Zm10.187,0H568.77L568.1,66.6h-3.215l-.657,2.638h-2.442l3.5-12.78h2.4Zm-3.8-5.018-.995-4.112-1.021,4.112Zm10.9,5.018-3.695-7.78v7.78h-2.416V56.458h2.371l3.721,7.727V56.458h2.4v12.78H578.4Zm13.277,0h-1.963v-1.3a2.3,2.3,0,0,1-.533.755,2.7,2.7,0,0,1-.693.462,3.038,3.038,0,0,1-.782.231,4.816,4.816,0,0,1-.79.062,4.381,4.381,0,0,1-2.229-.515,4.01,4.01,0,0,1-1.439-1.421,6.345,6.345,0,0,1-.773-2.149,14.813,14.813,0,0,1-.231-2.664q0-6.5,4.885-6.5a4.844,4.844,0,0,1,2.043.391,3.748,3.748,0,0,1,1.359,1.039,4.1,4.1,0,0,1,.746,1.483,6.6,6.6,0,0,1,.231,1.723h-2.469a6.248,6.248,0,0,0-.053-.8,1.906,1.906,0,0,0-.24-.728,1.388,1.388,0,0,0-.577-.524,2.287,2.287,0,0,0-1.048-.2,2.529,2.529,0,0,0-1.128.222,1.788,1.788,0,0,0-.755.7,3.576,3.576,0,0,0-.426,1.243,10.8,10.8,0,0,0-.133,1.83,14.623,14.623,0,0,0,.115,2.016,3.791,3.791,0,0,0,.409,1.35,1.8,1.8,0,0,0,.773.755,2.738,2.738,0,0,0,1.226.24,2.449,2.449,0,0,0,.808-.133,1.732,1.732,0,0,0,.666-.417,1.979,1.979,0,0,0,.444-.728,2.953,2.953,0,0,0,.142-1.066h-2.274V62.239h4.707v7Zm9.618,0h-8.1V56.458h7.957v2.478h-5.542v2.354h5.1v2.478h-5.1v2.975h5.684Z" transform="translate(-542.1 -56.2)" fill="#363636"/></g></g><g transform="translate(-155 2268)"><g opacity="0.5"><path d="M45.294,23.18H2.7A2.7,2.7,0,0,1,0,20.48V2.7A2.7,2.7,0,0,1,2.7,0H45.294Z" opacity="0.7" fill="url(#d)"/><path d="M573.021,23.18H510V0h63.021a2.7,2.7,0,0,1,2.7,2.7V20.489A2.7,2.7,0,0,1,573.021,23.18Z" transform="translate(-464.706)" opacity="0.7" fill="url(#e)"/><g transform="translate(5.364 5.018)" opacity="0.7"><path d="M68.873,65.541a5.12,5.12,0,0,1-.364,2.1,2.872,2.872,0,0,1-.941,1.19,3.154,3.154,0,0,1-1.279.542,7.462,7.462,0,0,1-1.385.133H60.4V56.731h4.956a3.35,3.35,0,0,1,1.563.32,2.618,2.618,0,0,1,.968.835,3.132,3.132,0,0,1,.488,1.146,5.376,5.376,0,0,1,.115,1.234,2.838,2.838,0,0,1-.879,2.371,2.049,2.049,0,0,1,.915.959A4.486,4.486,0,0,1,68.873,65.541ZM66.1,60.31a2.115,2.115,0,0,0-.142-.9.571.571,0,0,0-.568-.293H62.825v2.549H65.16A.765.765,0,0,0,65.9,61.3,2.125,2.125,0,0,0,66.1,60.31Zm.337,5.249a3.056,3.056,0,0,0-.089-.844,1.39,1.39,0,0,0-.222-.488.618.618,0,0,0-.3-.231,1.006,1.006,0,0,0-.32-.053H62.825v3.064H65.3a1.036,1.036,0,0,0,.888-.337A1.9,1.9,0,0,0,66.439,65.559Zm12.149,3.952H70.471V56.731h7.975v2.478h-5.56v2.354H78V64.04H72.887v2.975h5.7Zm9.4-3.774q0,4.036-4.343,4.041a4.189,4.189,0,0,1-3.215-1.19,5.285,5.285,0,0,1-1.1-3.686h2.354a6.715,6.715,0,0,0,.124,1.012,2,2,0,0,0,.337.79,1.605,1.605,0,0,0,.622.515,2.269,2.269,0,0,0,.986.187,2.236,2.236,0,0,0,1.421-.364,1.787,1.787,0,0,0,.444-1.412,1.385,1.385,0,0,0-.178-.79,1.2,1.2,0,0,0-.551-.382,5.315,5.315,0,0,0-1.03-.249,12.364,12.364,0,0,1-1.377-.3,8.521,8.521,0,0,1-1.11-.4,2.741,2.741,0,0,1-.9-.631,2.805,2.805,0,0,1-.6-1.066,5.71,5.71,0,0,1-.213-1.723,4.141,4.141,0,0,1,.2-1.359,3.091,3.091,0,0,1,.515-.977,2.829,2.829,0,0,1,.737-.648,3.873,3.873,0,0,1,.861-.382,4.413,4.413,0,0,1,.879-.178c.293-.027.568-.044.808-.044a4.582,4.582,0,0,1,2.034.391A3.211,3.211,0,0,1,86.91,57.9a3.578,3.578,0,0,1,.586,1.4,8.431,8.431,0,0,1,.151,1.545H85.338c-.036-.213-.062-.453-.089-.71a1.883,1.883,0,0,0-.169-.675,1.111,1.111,0,0,0-.417-.453,1.791,1.791,0,0,0-.959-.2,3.23,3.23,0,0,0-.844.089,1.225,1.225,0,0,0-.515.266.911.911,0,0,0-.258.462,2.97,2.97,0,0,0-.071.675.919.919,0,0,0,.2.666,1.751,1.751,0,0,0,.764.346c.391.107.782.2,1.181.266s.782.16,1.155.258a4.85,4.85,0,0,1,1.039.4,2.7,2.7,0,0,1,.844.684,3.158,3.158,0,0,1,.568,1.119,5.481,5.481,0,0,1,.213,1.7ZM96.8,59.2H93.882V69.511H91.457V59.2H88.535V56.731h8.259V59.2Z" transform="translate(-60.4 -56.5)" fill="#fff"/></g><g transform="translate(48.145 4.991)" opacity="0.7"><path d="M551.39,64.539a9.34,9.34,0,0,1-.346,1.9,4.815,4.815,0,0,1-.773,1.572,3.591,3.591,0,0,1-1.323,1.075,4.434,4.434,0,0,1-1.972.4,5.148,5.148,0,0,1-2.265-.453,3.855,3.855,0,0,1-1.51-1.314,5.945,5.945,0,0,1-.835-2.131A14.071,14.071,0,0,1,542.1,62.7a11.939,11.939,0,0,1,.284-2.7,5.831,5.831,0,0,1,.879-2.052,4.081,4.081,0,0,1,1.51-1.3,4.895,4.895,0,0,1,2.185-.453,4.725,4.725,0,0,1,2.087.4,3.612,3.612,0,0,1,1.3,1.039,4.168,4.168,0,0,1,.693,1.457,11.722,11.722,0,0,1,.3,1.634h-2.291c-.053-.284-.115-.56-.186-.817a1.958,1.958,0,0,0-.3-.675,1.47,1.47,0,0,0-.551-.453,2.11,2.11,0,0,0-.932-.169,2.786,2.786,0,0,0-1.19.231,1.754,1.754,0,0,0-.782.746,4.085,4.085,0,0,0-.426,1.359,13.725,13.725,0,0,0-.124,2.078,9.6,9.6,0,0,0,.178,2.025,3.193,3.193,0,0,0,.5,1.208,1.587,1.587,0,0,0,.782.6,3.135,3.135,0,0,0,1.03.16,2.058,2.058,0,0,0,.924-.178,1.3,1.3,0,0,0,.542-.506,2.714,2.714,0,0,0,.311-.782c.08-.3.151-.639.231-1.021h2.345Zm9.725,4.7H558.7V63.722h-3.641v5.515h-2.416V56.458h2.416v4.769H558.7V56.458h2.416Zm10.187,0H568.77L568.1,66.6h-3.215l-.657,2.638h-2.442l3.5-12.78h2.4Zm-3.8-5.018-.995-4.112-1.021,4.112Zm10.9,5.018-3.695-7.78v7.78h-2.416V56.458h2.371l3.721,7.727V56.458h2.4v12.78H578.4Zm13.277,0h-1.963v-1.3a2.3,2.3,0,0,1-.533.755,2.7,2.7,0,0,1-.693.462,3.038,3.038,0,0,1-.782.231,4.816,4.816,0,0,1-.79.062,4.381,4.381,0,0,1-2.229-.515,4.01,4.01,0,0,1-1.439-1.421,6.345,6.345,0,0,1-.773-2.149,14.813,14.813,0,0,1-.231-2.664q0-6.5,4.885-6.5a4.844,4.844,0,0,1,2.043.391,3.748,3.748,0,0,1,1.359,1.039,4.1,4.1,0,0,1,.746,1.483,6.6,6.6,0,0,1,.231,1.723h-2.469a6.248,6.248,0,0,0-.053-.8,1.906,1.906,0,0,0-.24-.728,1.388,1.388,0,0,0-.577-.524,2.287,2.287,0,0,0-1.048-.2,2.529,2.529,0,0,0-1.128.222,1.788,1.788,0,0,0-.755.7,3.576,3.576,0,0,0-.426,1.243,10.8,10.8,0,0,0-.133,1.83,14.623,14.623,0,0,0,.115,2.016,3.791,3.791,0,0,0,.409,1.35,1.8,1.8,0,0,0,.773.755,2.738,2.738,0,0,0,1.226.24,2.449,2.449,0,0,0,.808-.133,1.732,1.732,0,0,0,.666-.417,1.979,1.979,0,0,0,.444-.728,2.953,2.953,0,0,0,.142-1.066h-2.274V62.239h4.707v7Zm9.618,0h-8.1V56.458h7.957v2.478h-5.542v2.354h5.1v2.478h-5.1v2.975h5.684Z" transform="translate(-542.1 -56.2)" fill="#363636"/></g></g></g><g transform="translate(468.241 2271)"><g transform="translate(-491 -2268.721)" opacity="0.5"><path d="M0,0v16.85L16.93,0Z" transform="translate(491 2268.72)" fill="#92cfae"/><path d="M3,19.89H19.97V3Z" transform="translate(489.195 2266.916)" fill="#2a8288"/><path d="M60.355,8.644c1.952,0,3.027-.956,3.027-2.749v-.12c0-1.912-1.115-2.669-3.027-2.669H58.323V8.644ZM54.3,0h6.174c4.342,0,6.812,1.952,6.812,5.776V5.9c0,3.824-2.629,5.617-6.692,5.617H58.323v6.573H54.3Z" transform="translate(458.33 2268.721)" fill="#e7ebfd" fill-rule="evenodd"/><path d="M97.394,14.978c1.952,0,2.908-.876,2.908-2.51v-.12c0-1.633-1-2.51-3.027-2.51H95.044v5.1h2.35Zm.12,3.107H91.1V0h11.393V3.187H95.044L95,6.971h2.629c4.023,0,6.453,1.793,6.453,5.418v.12c0,3.505-2.231,5.577-6.573,5.577" transform="translate(436.19 2268.721)" fill="#e7ebfd" fill-rule="evenodd"/><path d="M131,.04h4.223V7.808L141.716,0h4.5l-7.369,8.565,7.728,9.521h-4.94l-6.413-8.126v8.126H131Z" transform="translate(412.184 2268.721)" fill="#e7ebfd" fill-rule="evenodd"/></g></g><g transform="translate(-515.759 2271)"><g transform="translate(-491 -2268.721)" opacity="0.5"><path d="M0,0v16.85L16.93,0Z" transform="translate(491 2268.72)" fill="#92cfae"/><path d="M3,19.89H19.97V3Z" transform="translate(489.195 2266.916)" fill="#2a8288"/><path d="M60.355,8.644c1.952,0,3.027-.956,3.027-2.749v-.12c0-1.912-1.115-2.669-3.027-2.669H58.323V8.644ZM54.3,0h6.174c4.342,0,6.812,1.952,6.812,5.776V5.9c0,3.824-2.629,5.617-6.692,5.617H58.323v6.573H54.3Z" transform="translate(458.33 2268.721)" fill="#e7ebfd" fill-rule="evenodd"/><path d="M97.394,14.978c1.952,0,2.908-.876,2.908-2.51v-.12c0-1.633-1-2.51-3.027-2.51H95.044v5.1h2.35Zm.12,3.107H91.1V0h11.393V3.187H95.044L95,6.971h2.629c4.023,0,6.453,1.793,6.453,5.418v.12c0,3.505-2.231,5.577-6.573,5.577" transform="translate(436.19 2268.721)" fill="#e7ebfd" fill-rule="evenodd"/><path d="M131,.04h4.223V7.808L141.716,0h4.5l-7.369,8.565,7.728,9.521h-4.94l-6.413-8.126v8.126H131Z" transform="translate(412.184 2268.721)" fill="#e7ebfd" fill-rule="evenodd"/></g></g><g transform="translate(1040 2268)"><g opacity="0.7"><g clip-path="url(#h)"><path d="M20.185,14.088a1.251,1.251,0,0,1-1.256.091,1.929,1.929,0,0,1-.731-1.735V9.864c0-1.233-.48-2.124-1.3-2.352-1.393-.411-2.443,1.3-2.831,1.941L11.6,13.4V8.54c-.023-1.119-.388-1.781-1.073-1.987-.457-.137-1.142-.069-1.8.936L3.22,16.3A9.742,9.742,0,0,1,2.1,11.782a9.58,9.58,0,0,1,9.5-9.636,9.58,9.58,0,0,1,9.5,9.636v.046a2.432,2.432,0,0,1-.913,2.261M23.2,11.782h0v-.046A11.719,11.719,0,0,0,11.6,0,11.7,11.7,0,0,0,0,11.782,11.715,11.715,0,0,0,11.6,23.564a11.4,11.4,0,0,0,7.878-3.151,1.067,1.067,0,0,0-1.439-1.576l-.023.023A9.383,9.383,0,0,1,4.5,18.244L9.453,10.3v3.676c0,1.758.685,2.329,1.256,2.489s1.439.046,2.375-1.439L15.8,10.618a2.527,2.527,0,0,1,.251-.365V12.49a3.947,3.947,0,0,0,1.8,3.608,3.318,3.318,0,0,0,3.4-.137A4.525,4.525,0,0,0,23.2,11.782M39.365,7.763a1.145,1.145,0,0,1,.525.891,1.009,1.009,0,0,1-.982,1,1.731,1.731,0,0,1-.365-.069,3.752,3.752,0,0,0-2.215-.754,3.319,3.319,0,0,0-3.265,3.539,3.313,3.313,0,0,0,3.265,3.516,3.546,3.546,0,0,0,2.466-1,1,1,0,0,1,.571-.183.926.926,0,0,1,.936.936.972.972,0,0,1-.457.8,5.42,5.42,0,1,1-3.494-9.59,5.161,5.161,0,0,1,3.014.913M44.8,10.047a3.792,3.792,0,0,1,3.722,3.836,3.884,3.884,0,0,1-3.722,3.9,3.928,3.928,0,0,1-3.882-3.9A3.869,3.869,0,0,1,44.8,10.047m-.023,5.845a1.823,1.823,0,0,0,1.644-1.987,1.715,1.715,0,0,0-1.644-1.872,1.747,1.747,0,0,0-1.758,1.872,1.877,1.877,0,0,0,1.758,1.987M49.8,16.6V11.211a1.053,1.053,0,0,1,1.05-1.073,1.067,1.067,0,0,1,1.05,1.073V16.6a1.067,1.067,0,0,1-1.05,1.073A1.082,1.082,0,0,1,49.8,16.6m-.16-8.494a1.229,1.229,0,0,1,1.21-1.256,1.247,1.247,0,0,1,1.233,1.256,1.222,1.222,0,1,1-2.443,0m6.279,5.571V16.6a1.051,1.051,0,1,1-2.1,0V10.96a.811.811,0,1,1,1.621,0,3.047,3.047,0,0,1,2.306-.913c2.1,0,3.037,1.576,3.037,3.379V16.6a1.051,1.051,0,1,1-2.1,0V13.677c0-.913-.114-1.69-1.439-1.69-.936,0-1.324.776-1.324,1.69M67.588,14.8a.68.68,0,0,1-.548-.274L64.6,11.874V16.6a1.051,1.051,0,1,1-2.1,0V7.238a.445.445,0,0,1,.388-.274.735.735,0,0,1,.457.274l3.9,4.384a.51.51,0,0,0,.343.206.561.561,0,0,0,.343-.206l3.9-4.384a.679.679,0,0,1,.457-.274.4.4,0,0,1,.388.274V16.6a1.053,1.053,0,0,1-1.05,1.073,1.067,1.067,0,0,1-1.05-1.073V11.874l-2.443,2.649a.843.843,0,0,1-.548.274m10.093,1.1a1.86,1.86,0,0,0,1.735-1.987,1.79,1.79,0,0,0-1.735-1.9,1.752,1.752,0,0,0-1.667,1.9,1.838,1.838,0,0,0,1.667,1.987m2.238.959-.046-.251a3.057,3.057,0,0,1-2.535,1.165,3.661,3.661,0,0,1-3.425-3.9,3.643,3.643,0,0,1,3.539-3.836A3.285,3.285,0,0,1,79.9,11.189l.046-.251a.8.8,0,0,1,.8-.822.833.833,0,0,1,.822.822v5.891a.819.819,0,0,1-.822.822.786.786,0,0,1-.822-.8m7.421-4.864h-.228c-1.324.068-1.576.822-1.576,1.69V16.6a1.051,1.051,0,1,1-2.1,0V10.96a.811.811,0,1,1,1.621,0,2.912,2.912,0,0,1,2.055-.913h.205a.985.985,0,0,1,.959.982.96.96,0,0,1-.936.959m8.106,4.11a1,1,0,0,1,.16.5,1.094,1.094,0,0,1-1.05,1.05,1.3,1.3,0,0,1-.936-.594L91.2,14.248v2.329a1.051,1.051,0,1,1-2.1,0V8.015a1.051,1.051,0,1,1,2.1,0v5.343l2.42-2.672a1.374,1.374,0,0,1,.913-.571,1.05,1.05,0,0,1,1,1.028.9.9,0,0,1-.137.48l-1.918,2.1Zm4.11-4.087c-.571,0-1.507.3-1.507,1.187h3.037c-.023-.891-.982-1.187-1.53-1.187m2.74,2.535H98.048c0,1.256,1.21,1.461,1.735,1.461a3.408,3.408,0,0,0,1.37-.274,1.034,1.034,0,0,1,.548-.16.863.863,0,0,1,.845.868.925.925,0,0,1-.457.754,3.773,3.773,0,0,1-2.283.594,3.54,3.54,0,0,1-3.882-3.813c0-2.1,1.073-3.927,3.585-3.927a3.457,3.457,0,0,1,3.608,3.676.833.833,0,0,1-.822.822m5.845,3.22h-.571c-1.6,0-2.535-.708-2.535-3.2v-2.58h-.548a.971.971,0,0,1,0-1.941h.548V8.06a1.053,1.053,0,0,1,1.05-1.073,1.067,1.067,0,0,1,1.05,1.073v1.987H108a.966.966,0,0,1,.936.982.993.993,0,0,1-.936.959h-.868v2.169c0,1.439.068,1.735.708,1.735h.3a.94.94,0,0,1,.936.936.956.956,0,0,1-.936.936m10.161-10a1.145,1.145,0,0,1,.525.891,1.009,1.009,0,0,1-.982,1,1.731,1.731,0,0,1-.365-.069,3.752,3.752,0,0,0-2.215-.754A3.319,3.319,0,0,0,112,12.376a3.313,3.313,0,0,0,3.265,3.516,3.546,3.546,0,0,0,2.466-1,1,1,0,0,1,.571-.183.926.926,0,0,1,.936.936.972.972,0,0,1-.457.8,5.42,5.42,0,1,1-3.494-9.59,5.111,5.111,0,0,1,3.014.913m5.32,8.129a1.86,1.86,0,0,0,1.735-1.987,1.79,1.79,0,0,0-1.735-1.9,1.739,1.739,0,0,0-1.667,1.9,1.854,1.854,0,0,0,1.667,1.987m2.238.959-.046-.251a3.057,3.057,0,0,1-2.535,1.165,3.661,3.661,0,0,1-3.425-3.9,3.643,3.643,0,0,1,3.539-3.836,3.285,3.285,0,0,1,2.443,1.165l.046-.251a.8.8,0,0,1,.8-.822.833.833,0,0,1,.822.822v5.891a.819.819,0,0,1-.822.822.786.786,0,0,1-.822-.8m7.375-.959a1.838,1.838,0,0,0,1.667-1.987,1.739,1.739,0,0,0-1.667-1.9,1.776,1.776,0,0,0-1.735,1.9,1.86,1.86,0,0,0,1.735,1.987M131.5,17.148V19.82a1.051,1.051,0,1,1-2.1,0V10.96a.819.819,0,0,1,.822-.822.84.84,0,0,1,.8.913,3.377,3.377,0,0,1,2.466-1,3.644,3.644,0,0,1,3.539,3.836,3.66,3.66,0,0,1-3.425,3.9,4.028,4.028,0,0,1-2.1-.639" fill="#fff"/></g></g></g><g transform="translate(56 2268)"><g opacity="0.5"><g clip-path="url(#h)"><path d="M20.185,14.088a1.251,1.251,0,0,1-1.256.091,1.929,1.929,0,0,1-.731-1.735V9.864c0-1.233-.48-2.124-1.3-2.352-1.393-.411-2.443,1.3-2.831,1.941L11.6,13.4V8.54c-.023-1.119-.388-1.781-1.073-1.987-.457-.137-1.142-.069-1.8.936L3.22,16.3A9.742,9.742,0,0,1,2.1,11.782a9.58,9.58,0,0,1,9.5-9.636,9.58,9.58,0,0,1,9.5,9.636v.046a2.432,2.432,0,0,1-.913,2.261M23.2,11.782h0v-.046A11.719,11.719,0,0,0,11.6,0,11.7,11.7,0,0,0,0,11.782,11.715,11.715,0,0,0,11.6,23.564a11.4,11.4,0,0,0,7.878-3.151,1.067,1.067,0,0,0-1.439-1.576l-.023.023A9.383,9.383,0,0,1,4.5,18.244L9.453,10.3v3.676c0,1.758.685,2.329,1.256,2.489s1.439.046,2.375-1.439L15.8,10.618a2.527,2.527,0,0,1,.251-.365V12.49a3.947,3.947,0,0,0,1.8,3.608,3.318,3.318,0,0,0,3.4-.137A4.525,4.525,0,0,0,23.2,11.782M39.365,7.763a1.145,1.145,0,0,1,.525.891,1.009,1.009,0,0,1-.982,1,1.731,1.731,0,0,1-.365-.069,3.752,3.752,0,0,0-2.215-.754,3.319,3.319,0,0,0-3.265,3.539,3.313,3.313,0,0,0,3.265,3.516,3.546,3.546,0,0,0,2.466-1,1,1,0,0,1,.571-.183.926.926,0,0,1,.936.936.972.972,0,0,1-.457.8,5.42,5.42,0,1,1-3.494-9.59,5.161,5.161,0,0,1,3.014.913M44.8,10.047a3.792,3.792,0,0,1,3.722,3.836,3.884,3.884,0,0,1-3.722,3.9,3.928,3.928,0,0,1-3.882-3.9A3.869,3.869,0,0,1,44.8,10.047m-.023,5.845a1.823,1.823,0,0,0,1.644-1.987,1.715,1.715,0,0,0-1.644-1.872,1.747,1.747,0,0,0-1.758,1.872,1.877,1.877,0,0,0,1.758,1.987M49.8,16.6V11.211a1.053,1.053,0,0,1,1.05-1.073,1.067,1.067,0,0,1,1.05,1.073V16.6a1.067,1.067,0,0,1-1.05,1.073A1.082,1.082,0,0,1,49.8,16.6m-.16-8.494a1.229,1.229,0,0,1,1.21-1.256,1.247,1.247,0,0,1,1.233,1.256,1.222,1.222,0,1,1-2.443,0m6.279,5.571V16.6a1.051,1.051,0,1,1-2.1,0V10.96a.811.811,0,1,1,1.621,0,3.047,3.047,0,0,1,2.306-.913c2.1,0,3.037,1.576,3.037,3.379V16.6a1.051,1.051,0,1,1-2.1,0V13.677c0-.913-.114-1.69-1.439-1.69-.936,0-1.324.776-1.324,1.69M67.588,14.8a.68.68,0,0,1-.548-.274L64.6,11.874V16.6a1.051,1.051,0,1,1-2.1,0V7.238a.445.445,0,0,1,.388-.274.735.735,0,0,1,.457.274l3.9,4.384a.51.51,0,0,0,.343.206.561.561,0,0,0,.343-.206l3.9-4.384a.679.679,0,0,1,.457-.274.4.4,0,0,1,.388.274V16.6a1.053,1.053,0,0,1-1.05,1.073,1.067,1.067,0,0,1-1.05-1.073V11.874l-2.443,2.649a.843.843,0,0,1-.548.274m10.093,1.1a1.86,1.86,0,0,0,1.735-1.987,1.79,1.79,0,0,0-1.735-1.9,1.752,1.752,0,0,0-1.667,1.9,1.838,1.838,0,0,0,1.667,1.987m2.238.959-.046-.251a3.057,3.057,0,0,1-2.535,1.165,3.661,3.661,0,0,1-3.425-3.9,3.643,3.643,0,0,1,3.539-3.836A3.285,3.285,0,0,1,79.9,11.189l.046-.251a.8.8,0,0,1,.8-.822.833.833,0,0,1,.822.822v5.891a.819.819,0,0,1-.822.822.786.786,0,0,1-.822-.8m7.421-4.864h-.228c-1.324.068-1.576.822-1.576,1.69V16.6a1.051,1.051,0,1,1-2.1,0V10.96a.811.811,0,1,1,1.621,0,2.912,2.912,0,0,1,2.055-.913h.205a.985.985,0,0,1,.959.982.96.96,0,0,1-.936.959m8.106,4.11a1,1,0,0,1,.16.5,1.094,1.094,0,0,1-1.05,1.05,1.3,1.3,0,0,1-.936-.594L91.2,14.248v2.329a1.051,1.051,0,1,1-2.1,0V8.015a1.051,1.051,0,1,1,2.1,0v5.343l2.42-2.672a1.374,1.374,0,0,1,.913-.571,1.05,1.05,0,0,1,1,1.028.9.9,0,0,1-.137.48l-1.918,2.1Zm4.11-4.087c-.571,0-1.507.3-1.507,1.187h3.037c-.023-.891-.982-1.187-1.53-1.187m2.74,2.535H98.048c0,1.256,1.21,1.461,1.735,1.461a3.408,3.408,0,0,0,1.37-.274,1.034,1.034,0,0,1,.548-.16.863.863,0,0,1,.845.868.925.925,0,0,1-.457.754,3.773,3.773,0,0,1-2.283.594,3.54,3.54,0,0,1-3.882-3.813c0-2.1,1.073-3.927,3.585-3.927a3.457,3.457,0,0,1,3.608,3.676.833.833,0,0,1-.822.822m5.845,3.22h-.571c-1.6,0-2.535-.708-2.535-3.2v-2.58h-.548a.971.971,0,0,1,0-1.941h.548V8.06a1.053,1.053,0,0,1,1.05-1.073,1.067,1.067,0,0,1,1.05,1.073v1.987H108a.966.966,0,0,1,.936.982.993.993,0,0,1-.936.959h-.868v2.169c0,1.439.068,1.735.708,1.735h.3a.94.94,0,0,1,.936.936.956.956,0,0,1-.936.936m10.161-10a1.145,1.145,0,0,1,.525.891,1.009,1.009,0,0,1-.982,1,1.731,1.731,0,0,1-.365-.069,3.752,3.752,0,0,0-2.215-.754A3.319,3.319,0,0,0,112,12.376a3.313,3.313,0,0,0,3.265,3.516,3.546,3.546,0,0,0,2.466-1,1,1,0,0,1,.571-.183.926.926,0,0,1,.936.936.972.972,0,0,1-.457.8,5.42,5.42,0,1,1-3.494-9.59,5.111,5.111,0,0,1,3.014.913m5.32,8.129a1.86,1.86,0,0,0,1.735-1.987,1.79,1.79,0,0,0-1.735-1.9,1.739,1.739,0,0,0-1.667,1.9,1.854,1.854,0,0,0,1.667,1.987m2.238.959-.046-.251a3.057,3.057,0,0,1-2.535,1.165,3.661,3.661,0,0,1-3.425-3.9,3.643,3.643,0,0,1,3.539-3.836,3.285,3.285,0,0,1,2.443,1.165l.046-.251a.8.8,0,0,1,.8-.822.833.833,0,0,1,.822.822v5.891a.819.819,0,0,1-.822.822.786.786,0,0,1-.822-.8m7.375-.959a1.838,1.838,0,0,0,1.667-1.987,1.739,1.739,0,0,0-1.667-1.9,1.776,1.776,0,0,0-1.735,1.9,1.86,1.86,0,0,0,1.735,1.987M131.5,17.148V19.82a1.051,1.051,0,1,1-2.1,0V10.96a.819.819,0,0,1,.822-.822.84.84,0,0,1,.8.913,3.377,3.377,0,0,1,2.466-1,3.644,3.644,0,0,1,3.539,3.836,3.66,3.66,0,0,1-3.425,3.9,4.028,4.028,0,0,1-2.1-.639" fill="#fff"/></g></g></g><g transform="translate(272 2269)"><g transform="translate(0.005)" opacity="0.5"><path d="M26.761,8.74,30.8,4.7l4.041,4.041,2.349-2.351L30.8,0,24.41,6.391Z" transform="translate(-20.404)" fill="#e7ebfd"/><path d="M0,0H3.323V3.323H0Z" transform="translate(-0.005 10.4) rotate(-45)" fill="#e7ebfd"/><path d="M26.744,73.4l4.04,4.04L34.825,73.4l2.351,2.348,0,0-6.391,6.392-6.391-6.389,0,0Z" transform="translate(-20.387 -61.342)" fill="#e7ebfd"/><path d="M0,0H3.323V3.323H0Z" transform="translate(16.094 10.401) rotate(-45)" fill="#e7ebfd"/><path d="M53.551,51.165,51.167,48.78,49.4,50.543l-.2.2-.417.417,0,0,0,0,2.384,2.382,2.384-2.385,0,0Z" transform="translate(-40.77 -40.766)" fill="#e7ebfd"/><g transform="translate(24.461 4.856)"><path d="M148.37,30.68h5.112a3.879,3.879,0,0,1,2.878.986,2.546,2.546,0,0,1,.754,1.86v.031a2.738,2.738,0,0,1-.117.835,2.563,2.563,0,0,1-.314.657,2.426,2.426,0,0,1-.453.513,2.944,2.944,0,0,1-.557.378,3.723,3.723,0,0,1,1.506.986,2.524,2.524,0,0,1,.549,1.725v.031A2.865,2.865,0,0,1,157.438,40a2.582,2.582,0,0,1-.833.946,3.952,3.952,0,0,1-1.306.567,7.015,7.015,0,0,1-1.69.189H148.37Zm4.6,4.459a2.528,2.528,0,0,0,1.276-.276.953.953,0,0,0,.47-.89v-.031a.974.974,0,0,0-.409-.843,2.025,2.025,0,0,0-1.181-.291h-2.392v2.331Zm.646,4.444a2.333,2.333,0,0,0,1.265-.291,1,1,0,0,0,.457-.907v-.031a1.037,1.037,0,0,0-.425-.874,2.254,2.254,0,0,0-1.37-.329h-2.808v2.431Z" transform="translate(-148.37 -30.496)" fill="#e7ebfd"/><path d="M223.88,30.68h2.426V41.71H223.88Z" transform="translate(-211.475 -30.496)" fill="#e7ebfd"/><path d="M261,30.68h2.238l5.172,6.788V30.68h2.4V41.71h-2.065L263.4,34.7V41.71H261Z" transform="translate(-242.497 -30.496)" fill="#e7ebfd"/><path d="M341.348,30.2h2.234l4.726,11.109h-2.533l-1.009-2.474H340.1l-1.009,2.474H336.62Zm2.553,6.492-1.469-3.578-1.462,3.578Z" transform="translate(-305.694 -30.094)" fill="#e7ebfd"/><path d="M423.74,30.68h2.238l5.168,6.788V30.68h2.4V41.71h-2.065L426.135,34.7V41.71h-2.4Z" transform="translate(-378.501 -30.496)" fill="#e7ebfd"/><path d="M507.777,40.965a5.738,5.738,0,0,1-2.254-.44,5.449,5.449,0,0,1-2.978-3.01,5.839,5.839,0,0,1-.425-2.223v-.031a5.724,5.724,0,0,1,1.608-4.027,5.46,5.46,0,0,1,1.807-1.229,5.9,5.9,0,0,1,2.331-.448,7.308,7.308,0,0,1,1.41.126,5.858,5.858,0,0,1,1.16.347,5.011,5.011,0,0,1,.961.536,6.494,6.494,0,0,1,.821.693l-1.543,1.781a5.867,5.867,0,0,0-1.314-.915,3.363,3.363,0,0,0-1.5-.329,3.052,3.052,0,0,0-2.3,1.009,3.465,3.465,0,0,0-.664,1.1,3.757,3.757,0,0,0-.235,1.332v.031a3.813,3.813,0,0,0,.235,1.331,3.5,3.5,0,0,0,.657,1.1,3.033,3.033,0,0,0,2.3,1.025,3.371,3.371,0,0,0,1.6-.347,6.18,6.18,0,0,0,1.3-.946l1.544,1.561a7.875,7.875,0,0,1-.882.821,5.26,5.26,0,0,1-1,.623,5.185,5.185,0,0,1-1.189.393A7.083,7.083,0,0,1,507.777,40.965Z" transform="translate(-444.004 -29.557)" fill="#e7ebfd"/><path d="M581.47,30.68h8.3v2.159h-5.914v2.238h5.208v2.159h-5.2v2.316h5.988V41.71h-8.378Z" transform="translate(-510.319 -30.496)" fill="#e7ebfd"/></g></g></g><g transform="translate(-712 2269)"><g transform="translate(0.005)" opacity="0.5"><path d="M26.761,8.74,30.8,4.7l4.041,4.041,2.349-2.351L30.8,0,24.41,6.391Z" transform="translate(-20.404)" fill="#e7ebfd"/><path d="M0,0H3.323V3.323H0Z" transform="translate(-0.005 10.4) rotate(-45)" fill="#e7ebfd"/><path d="M26.744,73.4l4.04,4.04L34.825,73.4l2.351,2.348,0,0-6.391,6.392-6.391-6.389,0,0Z" transform="translate(-20.387 -61.342)" fill="#e7ebfd"/><path d="M0,0H3.323V3.323H0Z" transform="translate(16.094 10.401) rotate(-45)" fill="#e7ebfd"/><path d="M53.551,51.165,51.167,48.78,49.4,50.543l-.2.2-.417.417,0,0,0,0,2.384,2.382,2.384-2.385,0,0Z" transform="translate(-40.77 -40.766)" fill="#e7ebfd"/><g transform="translate(24.461 4.856)"><path d="M148.37,30.68h5.112a3.879,3.879,0,0,1,2.878.986,2.546,2.546,0,0,1,.754,1.86v.031a2.738,2.738,0,0,1-.117.835,2.563,2.563,0,0,1-.314.657,2.426,2.426,0,0,1-.453.513,2.944,2.944,0,0,1-.557.378,3.723,3.723,0,0,1,1.506.986,2.524,2.524,0,0,1,.549,1.725v.031A2.865,2.865,0,0,1,157.438,40a2.582,2.582,0,0,1-.833.946,3.952,3.952,0,0,1-1.306.567,7.015,7.015,0,0,1-1.69.189H148.37Zm4.6,4.459a2.528,2.528,0,0,0,1.276-.276.953.953,0,0,0,.47-.89v-.031a.974.974,0,0,0-.409-.843,2.025,2.025,0,0,0-1.181-.291h-2.392v2.331Zm.646,4.444a2.333,2.333,0,0,0,1.265-.291,1,1,0,0,0,.457-.907v-.031a1.037,1.037,0,0,0-.425-.874,2.254,2.254,0,0,0-1.37-.329h-2.808v2.431Z" transform="translate(-148.37 -30.496)" fill="#e7ebfd"/><path d="M223.88,30.68h2.426V41.71H223.88Z" transform="translate(-211.475 -30.496)" fill="#e7ebfd"/><path d="M261,30.68h2.238l5.172,6.788V30.68h2.4V41.71h-2.065L263.4,34.7V41.71H261Z" transform="translate(-242.497 -30.496)" fill="#e7ebfd"/><path d="M341.348,30.2h2.234l4.726,11.109h-2.533l-1.009-2.474H340.1l-1.009,2.474H336.62Zm2.553,6.492-1.469-3.578-1.462,3.578Z" transform="translate(-305.694 -30.094)" fill="#e7ebfd"/><path d="M423.74,30.68h2.238l5.168,6.788V30.68h2.4V41.71h-2.065L426.135,34.7V41.71h-2.4Z" transform="translate(-378.501 -30.496)" fill="#e7ebfd"/><path d="M507.777,40.965a5.738,5.738,0,0,1-2.254-.44,5.449,5.449,0,0,1-2.978-3.01,5.839,5.839,0,0,1-.425-2.223v-.031a5.724,5.724,0,0,1,1.608-4.027,5.46,5.46,0,0,1,1.807-1.229,5.9,5.9,0,0,1,2.331-.448,7.308,7.308,0,0,1,1.41.126,5.858,5.858,0,0,1,1.16.347,5.011,5.011,0,0,1,.961.536,6.494,6.494,0,0,1,.821.693l-1.543,1.781a5.867,5.867,0,0,0-1.314-.915,3.363,3.363,0,0,0-1.5-.329,3.052,3.052,0,0,0-2.3,1.009,3.465,3.465,0,0,0-.664,1.1,3.757,3.757,0,0,0-.235,1.332v.031a3.813,3.813,0,0,0,.235,1.331,3.5,3.5,0,0,0,.657,1.1,3.033,3.033,0,0,0,2.3,1.025,3.371,3.371,0,0,0,1.6-.347,6.18,6.18,0,0,0,1.3-.946l1.544,1.561a7.875,7.875,0,0,1-.882.821,5.26,5.26,0,0,1-1,.623,5.185,5.185,0,0,1-1.189.393A7.083,7.083,0,0,1,507.777,40.965Z" transform="translate(-444.004 -29.557)" fill="#e7ebfd"/><path d="M581.47,30.68h8.3v2.159h-5.914v2.238h5.208v2.159h-5.2v2.316h5.988V41.71h-8.378Z" transform="translate(-510.319 -30.496)" fill="#e7ebfd"/></g></g></g></g></g></svg>