<svg xmlns="http://www.w3.org/2000/svg" xmlns:xlink="http://www.w3.org/1999/xlink" width="1227" height="328" viewBox="0 0 1227 328"><defs><clipPath id="a"><rect x="-139" width="1227" height="328" fill="none"/></clipPath></defs><g transform="translate(139)" clip-path="url(#a)" style="isolation:isolate"><g transform="translate(-139 -3184)"><g transform="translate(139 3184)"><circle cx="16" cy="16" r="16" fill="#bfbfbf"/><text transform="translate(45 7)" fill="#fff" font-size="12" font-family="SegoeUI, Segoe UI"><tspan x="0" y="13" xml:space="preserve">Han Solo    </tspan><tspan y="13" fill="#243c67">2 days ago</tspan></text><text transform="translate(45 31)" fill="#fff" font-size="14" font-family="SegoeUI, Segoe UI"><tspan x="0" y="15">Continually fashion strategic metrics through </tspan><tspan x="0" y="37">interdependent partnerships. Dramatically </tspan><tspan x="0" y="59">disseminate enterprise-wide initiatives vis-a-vis </tspan><tspan x="0" y="81">distributed alignments. Phosfluorescently </tspan><tspan x="0" y="103">leverage existing revolutionary alignments rather </tspan><tspan x="0" y="125">than client-centric process improvements. </tspan><tspan x="0" y="147">Continually fashion strategic metrics through </tspan><tspan x="0" y="169">interdependent partnerships. Dramatically </tspan><tspan x="0" y="191">disseminate enterprise-wide initiatives vis-a-vis </tspan><tspan x="0" y="213">distributed alignments. Phosfluorescently </tspan><tspan x="0" y="235">leverage existing revolutionary alignments rather </tspan><tspan x="0" y="257">than client-centric process improvements. </tspan></text></g><g transform="translate(507 3184)"><circle cx="16" cy="16" r="16" fill="#bfbfbf"/><text transform="translate(45 7)" fill="#fff" font-size="12" font-family="SegoeUI, Segoe UI"><tspan x="0" y="13" xml:space="preserve">Han Solo    </tspan><tspan y="13" fill="#243c67">2 days ago</tspan></text><text transform="translate(45 31)" fill="#fff" font-size="14" font-family="SegoeUI, Segoe UI"><tspan x="0" y="15">Continually fashion strategic metrics through </tspan><tspan x="0" y="37">interdependent partnerships. Dramatically </tspan><tspan x="0" y="59">disseminate enterprise-wide initiatives vis-a-vis </tspan><tspan x="0" y="81">distributed alignments. Phosfluorescently </tspan><tspan x="0" y="103">leverage existing revolutionary alignments rather </tspan><tspan x="0" y="125">than client-centric process improvements. </tspan><tspan x="0" y="147">Continually fashion strategic metrics through </tspan><tspan x="0" y="169">interdependent partnerships. Dramatically </tspan><tspan x="0" y="191">disseminate enterprise-wide initiatives vis-a-vis </tspan><tspan x="0" y="213">distributed alignments. Phosfluorescently </tspan><tspan x="0" y="235">leverage existing revolutionary alignments rather </tspan><tspan x="0" y="257">than client-centric process improvements. </tspan><tspan x="0" y="279">Continually fashion strategic metrics through </tspan></text></g><g transform="translate(875 3184)"><circle cx="16" cy="16" r="16" fill="#bfbfbf"/><text transform="translate(45 7)" fill="#fff" font-size="12" font-family="SegoeUI, Segoe UI"><tspan x="0" y="13" xml:space="preserve">Han Solo    </tspan><tspan y="13" fill="#243c67">2 days ago</tspan></text><text transform="translate(45 31)" fill="#fff" font-size="14" font-family="SegoeUI, Segoe UI"><tspan x="0" y="15">Continually fashion strategic metrics through </tspan><tspan x="0" y="37">interdependent partnerships. Dramatically </tspan><tspan x="0" y="59">disseminate enterprise-wide initiatives vis-a-vis </tspan><tspan x="0" y="81">distributed alignments. Phosfluorescently </tspan><tspan x="0" y="103">leverage existing revolutionary alignments rather </tspan><tspan x="0" y="125">than client-centric process improvements. </tspan><tspan x="0" y="147">Continually fashion strategic metrics through </tspan><tspan x="0" y="169">interdependent partnerships. Dramatically </tspan><tspan x="0" y="191">disseminate enterprise-wide initiatives vis-a-vis </tspan><tspan x="0" y="213">distributed alignments. Phosfluorescently </tspan><tspan x="0" y="235">leverage existing revolutionary alignments rather </tspan><tspan x="0" y="257">than client-centric process improvements. </tspan></text></g><g transform="translate(1243 3184)" opacity="0.5"><circle cx="16" cy="16" r="16" fill="#bfbfbf"/><text transform="translate(45 7)" fill="#fff" font-size="12" font-family="SegoeUI, Segoe UI"><tspan x="0" y="13" xml:space="preserve">Han Solo    </tspan><tspan y="13" fill="#243c67">2 days ago</tspan></text><text transform="translate(45 31)" fill="#fff" font-size="14" font-family="SegoeUI, Segoe UI"><tspan x="0" y="15">Continually fashion strategic metrics through </tspan><tspan x="0" y="37">interdependent partnerships. Dramatically </tspan><tspan x="0" y="59">disseminate enterprise-wide initiatives vis-a-vis </tspan><tspan x="0" y="81">distributed alignments. Phosfluorescently </tspan><tspan x="0" y="103">leverage existing revolutionary alignments rather </tspan><tspan x="0" y="125">than client-centric process improvements. </tspan><tspan x="0" y="147">Continually fashion strategic metrics through </tspan><tspan x="0" y="169">interdependent partnerships. Dramatically </tspan><tspan x="0" y="191">disseminate enterprise-wide initiatives vis-a-vis </tspan><tspan x="0" y="213">distributed alignments. Phosfluorescently </tspan><tspan x="0" y="235">leverage existing revolutionary alignments rather </tspan><tspan x="0" y="257">than client-centric process improvements. </tspan></text></g><g transform="translate(1600 3184)" opacity="0.5"><circle cx="16" cy="16" r="16" fill="#bfbfbf"/><text transform="translate(45 7)" fill="#fff" font-size="12" font-family="SegoeUI, Segoe UI"><tspan x="0" y="13" xml:space="preserve">Han Solo    </tspan><tspan y="13" fill="#243c67">2 days ago</tspan></text><text transform="translate(45 31)" fill="#fff" font-size="14" font-family="SegoeUI, Segoe UI"><tspan x="0" y="15">Continually fashion strategic metrics through </tspan><tspan x="0" y="37">interdependent partnerships. Dramatically </tspan><tspan x="0" y="59">disseminate enterprise-wide initiatives vis-a-vis </tspan><tspan x="0" y="81">distributed alignments. Phosfluorescently </tspan><tspan x="0" y="103">leverage existing revolutionary alignments rather </tspan><tspan x="0" y="125">than client-centric process improvements. </tspan><tspan x="0" y="147">Continually fashion strategic metrics through </tspan><tspan x="0" y="169">interdependent partnerships. Dramatically </tspan><tspan x="0" y="191">disseminate enterprise-wide initiatives vis-a-vis </tspan><tspan x="0" y="213">distributed alignments. Phosfluorescently </tspan><tspan x="0" y="235">leverage existing revolutionary alignments rather </tspan><tspan x="0" y="257">than client-centric process improvements. </tspan></text></g></g></g></svg>