<svg xmlns="http://www.w3.org/2000/svg" xmlns:xlink="http://www.w3.org/1999/xlink" width="425" height="56" viewBox="0 0 425 56"><defs><clipPath id="a"><rect width="14" height="14" transform="translate(0)" fill="none"/></clipPath></defs><g fill="#1890ff" stroke="#fff" stroke-width="1" opacity="0.4"><rect width="425" height="56" rx="28" stroke="none"/><rect x="0.5" y="0.5" width="424" height="55" rx="27.5" fill="none"/></g><g transform="translate(16 16)"><text transform="translate(32)" fill="#fff" font-size="16" font-family="SegoeUI-Bold, Segoe UI" font-weight="700"><tspan x="0" y="17">Сбербанк</tspan></text><g transform="translate(380 5)"><rect width="14" height="14" transform="translate(0)" fill="none"/><g clip-path="url(#a)"><rect width="14" height="14" transform="translate(0)" fill="none"/><path d="M10.281,0H9.256A.22.22,0,0,0,9.08.09L5.2,5.444,1.311.09A.22.22,0,0,0,1.135,0H.11A.11.11,0,0,0,.021.174L4.841,6.82a.436.436,0,0,0,.707,0L10.369.174A.109.109,0,0,0,10.281,0Z" transform="translate(1.805 3.5)" fill="#fff"/></g></g><circle cx="12" cy="12" r="12" fill="#fff"/></g></svg>