<svg xmlns="http://www.w3.org/2000/svg" xmlns:xlink="http://www.w3.org/1999/xlink" width="102" height="95" viewBox="0 0 102 95"><defs><clipPath id="a"><rect width="24" height="24" fill="none"/></clipPath></defs><path d="M50,0h52a0,0,0,0,1,0,0V95a0,0,0,0,1,0,0H0a0,0,0,0,1,0,0V50A50,50,0,0,1,50,0Z" fill="#1890ff"/><g transform="translate(40 31)"><rect width="24" height="24" fill="none"/><g clip-path="url(#a)"><rect width="24" height="24" fill="none"/><path d="M10.5,21h-.049a10.58,10.58,0,0,1-4.685-1.125H2.2a1.071,1.071,0,0,1-.762-.316,1.082,1.082,0,0,1-.316-.762V15.234A10.559,10.559,0,0,1,.8,6.45,10.479,10.479,0,0,1,10.453,0H10.5a10.505,10.505,0,0,1,7.4,17.965A10.373,10.373,0,0,1,14.55,20.2,10.513,10.513,0,0,1,10.5,21Zm-.04-19.219A8.7,8.7,0,0,0,1.781,10.54,8.756,8.756,0,0,0,2.8,14.6l.105.2v3.3h3.3l.2.105a8.74,8.74,0,0,0,4.057,1.02h.04a8.719,8.719,0,1,0,0-17.438Zm4.725,9.844a1.125,1.125,0,0,1-.8-1.921,1.126,1.126,0,0,1,1.591,0,1.125,1.125,0,0,1-.8,1.921Zm-4.687,0A1.125,1.125,0,0,1,9.7,9.7a1.126,1.126,0,0,1,1.591,0,1.125,1.125,0,0,1-.8,1.921Zm-4.688,0a1.132,1.132,0,0,1-.795-.329,1.125,1.125,0,1,1,1.59,0A1.133,1.133,0,0,1,5.812,11.625Z" transform="translate(1.5 1.5)" fill="#fff"/></g></g></svg>