<svg xmlns="http://www.w3.org/2000/svg" width="67.759" height="18.085" viewBox="0 0 67.759 18.085"><g transform="translate(-491 -2268.721)" opacity="0.5"><path d="M0,0v16.85L16.93,0Z" transform="translate(491 2268.72)" fill="#92cfae"/><path d="M3,19.89H19.97V3Z" transform="translate(489.195 2266.916)" fill="#2a8288"/><path d="M60.355,8.644c1.952,0,3.027-.956,3.027-2.749v-.12c0-1.912-1.115-2.669-3.027-2.669H58.323V8.644ZM54.3,0h6.174c4.342,0,6.812,1.952,6.812,5.776V5.9c0,3.824-2.629,5.617-6.692,5.617H58.323v6.573H54.3Z" transform="translate(458.33 2268.721)" fill="#e7ebfd" fill-rule="evenodd"/><path d="M97.394,14.978c1.952,0,2.908-.876,2.908-2.51v-.12c0-1.633-1-2.51-3.027-2.51H95.044v5.1h2.35Zm.12,3.107H91.1V0h11.393V3.187H95.044L95,6.971h2.629c4.023,0,6.453,1.793,6.453,5.418v.12c0,3.505-2.231,5.577-6.573,5.577" transform="translate(436.19 2268.721)" fill="#e7ebfd" fill-rule="evenodd"/><path d="M131,.04h4.223V7.808L141.716,0h4.5l-7.369,8.565,7.728,9.521h-4.94l-6.413-8.126v8.126H131Z" transform="translate(412.184 2268.721)" fill="#e7ebfd" fill-rule="evenodd"/></g></svg>