<svg xmlns="http://www.w3.org/2000/svg" xmlns:xlink="http://www.w3.org/1999/xlink" width="448" height="334" viewBox="0 0 448 334"><defs><clipPath id="a"><rect width="14" height="14" fill="none"/></clipPath><filter id="b" x="0" y="54" width="448" height="280" filterUnits="userSpaceOnUse"><feOffset dy="2" input="SourceAlpha"/><feGaussianBlur stdDeviation="4" result="c"/><feFlood flood-opacity="0.149"/><feComposite operator="in" in2="c"/><feComposite in="SourceGraphic"/></filter><clipPath id="d"><rect x="36" width="424" height="240" fill="none"/></clipPath><clipPath id="e"><rect width="12" height="12" fill="none"/></clipPath></defs><g transform="translate(12)"><g fill="#1890ff" stroke="#fff" stroke-width="1"><rect width="424" height="56" rx="10" stroke="none"/><rect x="0.5" y="0.5" width="423" height="55" rx="9.5" fill="none"/></g><g transform="translate(16 16)"><text transform="translate(32)" fill="#fff" font-size="16" font-family="SegoeUI-Bold, Segoe UI" font-weight="700"><tspan x="0" y="17">Сбербанк</tspan></text><g transform="translate(379 5)"><rect width="14" height="14" fill="none"/><g clip-path="url(#a)"><rect width="14" height="14" fill="none"/><path d="M10.281,0H9.256A.22.22,0,0,0,9.08.09L5.2,5.444,1.311.09A.22.22,0,0,0,1.135,0H.11A.11.11,0,0,0,.021.174L4.841,6.82a.436.436,0,0,0,.707,0L10.369.174A.109.109,0,0,0,10.281,0Z" transform="translate(1.805 3.5)" fill="#fff"/></g></g><circle cx="12" cy="12" r="12" fill="#fff"/></g><g transform="translate(0 64)"><g transform="matrix(1, 0, 0, 1, -12, -64)" filter="url(#b)"><path d="M3.007,0H420.993C422.654,0,424,1.686,424,3.765V252.235c0,2.079-1.346,3.765-3.007,3.765H3.007C1.346,256,0,254.314,0,252.235V3.765C0,1.686,1.346,0,3.007,0Z" transform="translate(12 64)" fill="#1890ff"/></g><g transform="translate(-36 8)" clip-path="url(#d)" style="isolation:isolate"><g transform="translate(36)"><rect width="424" height="48" fill="#1890ff"/><text transform="translate(48 15)" fill="#fff" font-size="14" font-family="SegoeUI, Segoe UI" opacity="0.7"><tspan x="0" y="15">Тинькоф</tspan></text><g transform="translate(16 13)" opacity="0.7"><circle cx="12" cy="12" r="12" fill="#bfbfbf"/><g transform="translate(6 6)"><rect width="12" height="12" fill="none"/><g clip-path="url(#e)"><rect width="12" height="12" fill="none"/><path d="M8.68,9.286h-.7A.092.092,0,0,1,7.886,9.2a3.5,3.5,0,0,0-7,0,.093.093,0,0,1-.093.091h-.7a.094.094,0,0,1-.036-.007.1.1,0,0,1-.03-.021.1.1,0,0,1-.02-.031A.093.093,0,0,1,0,9.191,4.373,4.373,0,0,1,1.284,6.185a4.358,4.358,0,0,1,1.394-.94l.006,0,.008,0a2.894,2.894,0,1,1,3.388,0l.007,0,.007,0A4.384,4.384,0,0,1,8.773,9.191a.093.093,0,0,1-.006.036.088.088,0,0,1-.02.031.09.09,0,0,1-.03.021A.093.093,0,0,1,8.68,9.286ZM4.387.887a2.008,2.008,0,1,0,1.418.588A1.992,1.992,0,0,0,4.387.887Z" transform="translate(1.587 1.33)" fill="#fff"/></g></g></g></g><g transform="translate(36 240)"><rect width="424" height="48" fill="#1890ff"/><text transform="translate(48 15)" fill="#fff" font-size="14" font-family="SegoeUI, Segoe UI" opacity="0.7"><tspan x="0" y="15">Тинькоф</tspan></text><g transform="translate(16 13)" opacity="0.7"><circle cx="12" cy="12" r="12" fill="#bfbfbf"/><g transform="translate(6 6)"><rect width="12" height="12" fill="none"/><g clip-path="url(#e)"><rect width="12" height="12" fill="none"/><path d="M8.68,9.286h-.7A.092.092,0,0,1,7.886,9.2a3.5,3.5,0,0,0-7,0,.093.093,0,0,1-.093.091h-.7a.094.094,0,0,1-.036-.007.1.1,0,0,1-.03-.021.1.1,0,0,1-.02-.031A.093.093,0,0,1,0,9.191,4.373,4.373,0,0,1,1.284,6.185a4.358,4.358,0,0,1,1.394-.94l.006,0,.008,0a2.894,2.894,0,1,1,3.388,0l.007,0,.007,0A4.384,4.384,0,0,1,8.773,9.191a.093.093,0,0,1-.006.036.088.088,0,0,1-.02.031.09.09,0,0,1-.03.021A.093.093,0,0,1,8.68,9.286ZM4.387.887a2.008,2.008,0,1,0,1.418.588A1.992,1.992,0,0,0,4.387.887Z" transform="translate(1.587 1.33)" fill="#fff"/></g></g></g></g><g transform="translate(36 96)"><rect width="424" height="48" fill="#1890ff"/><text transform="translate(48 15)" fill="#fff" font-size="14" font-family="SegoeUI, Segoe UI" opacity="0.7"><tspan x="0" y="15">Райффайзен</tspan></text><g transform="translate(16 13)" opacity="0.7"><circle cx="12" cy="12" r="12" fill="#bfbfbf"/><g transform="translate(6 6)"><rect width="12" height="12" fill="none"/><g clip-path="url(#e)"><rect width="12" height="12" fill="none"/><path d="M8.68,9.286h-.7A.092.092,0,0,1,7.886,9.2a3.5,3.5,0,0,0-7,0,.093.093,0,0,1-.093.091h-.7a.094.094,0,0,1-.036-.007.1.1,0,0,1-.03-.021.1.1,0,0,1-.02-.031A.093.093,0,0,1,0,9.191,4.373,4.373,0,0,1,1.284,6.185a4.358,4.358,0,0,1,1.394-.94l.006,0,.008,0a2.894,2.894,0,1,1,3.388,0l.007,0,.007,0A4.384,4.384,0,0,1,8.773,9.191a.093.093,0,0,1-.006.036.088.088,0,0,1-.02.031.09.09,0,0,1-.03.021A.093.093,0,0,1,8.68,9.286ZM4.387.887a2.008,2.008,0,1,0,1.418.588A1.992,1.992,0,0,0,4.387.887Z" transform="translate(1.587 1.33)" fill="#fff"/></g></g></g></g><g transform="translate(36 336)"><rect width="424" height="48" fill="#1890ff"/><text transform="translate(48 15)" fill="#fff" font-size="14" font-family="SegoeUI, Segoe UI" opacity="0.7"><tspan x="0" y="15">Райффайзен</tspan></text><g transform="translate(16 13)" opacity="0.7"><circle cx="12" cy="12" r="12" fill="#bfbfbf"/><g transform="translate(6 6)"><rect width="12" height="12" fill="none"/><g clip-path="url(#e)"><rect width="12" height="12" fill="none"/><path d="M8.68,9.286h-.7A.092.092,0,0,1,7.886,9.2a3.5,3.5,0,0,0-7,0,.093.093,0,0,1-.093.091h-.7a.094.094,0,0,1-.036-.007.1.1,0,0,1-.03-.021.1.1,0,0,1-.02-.031A.093.093,0,0,1,0,9.191,4.373,4.373,0,0,1,1.284,6.185a4.358,4.358,0,0,1,1.394-.94l.006,0,.008,0a2.894,2.894,0,1,1,3.388,0l.007,0,.007,0A4.384,4.384,0,0,1,8.773,9.191a.093.093,0,0,1-.006.036.088.088,0,0,1-.02.031.09.09,0,0,1-.03.021A.093.093,0,0,1,8.68,9.286ZM4.387.887a2.008,2.008,0,1,0,1.418.588A1.992,1.992,0,0,0,4.387.887Z" transform="translate(1.587 1.33)" fill="#fff"/></g></g></g></g><g transform="translate(36 192)"><rect width="424" height="48" fill="#1890ff"/><text transform="translate(48 15)" fill="#fff" font-size="14" font-family="SegoeUI, Segoe UI" opacity="0.7"><tspan x="0" y="15">ВТБ</tspan></text><g transform="translate(16 13)" opacity="0.7"><circle cx="12" cy="12" r="12" fill="#bfbfbf"/><g transform="translate(6 6)"><rect width="12" height="12" fill="none"/><g clip-path="url(#e)"><rect width="12" height="12" fill="none"/><path d="M8.68,9.286h-.7A.092.092,0,0,1,7.886,9.2a3.5,3.5,0,0,0-7,0,.093.093,0,0,1-.093.091h-.7a.094.094,0,0,1-.036-.007.1.1,0,0,1-.03-.021.1.1,0,0,1-.02-.031A.093.093,0,0,1,0,9.191,4.373,4.373,0,0,1,1.284,6.185a4.358,4.358,0,0,1,1.394-.94l.006,0,.008,0a2.894,2.894,0,1,1,3.388,0l.007,0,.007,0A4.384,4.384,0,0,1,8.773,9.191a.093.093,0,0,1-.006.036.088.088,0,0,1-.02.031.09.09,0,0,1-.03.021A.093.093,0,0,1,8.68,9.286ZM4.387.887a2.008,2.008,0,1,0,1.418.588A1.992,1.992,0,0,0,4.387.887Z" transform="translate(1.587 1.33)" fill="#fff"/></g></g></g></g><g transform="translate(36 432)"><rect width="424" height="48" fill="#1890ff"/><text transform="translate(48 15)" fill="#fff" font-size="14" font-family="SegoeUI, Segoe UI" opacity="0.7"><tspan x="0" y="15">ВТБ</tspan></text><g transform="translate(16 13)" opacity="0.7"><circle cx="12" cy="12" r="12" fill="#bfbfbf"/><g transform="translate(6 6)"><rect width="12" height="12" fill="none"/><g clip-path="url(#e)"><rect width="12" height="12" fill="none"/><path d="M8.68,9.286h-.7A.092.092,0,0,1,7.886,9.2a3.5,3.5,0,0,0-7,0,.093.093,0,0,1-.093.091h-.7a.094.094,0,0,1-.036-.007.1.1,0,0,1-.03-.021.1.1,0,0,1-.02-.031A.093.093,0,0,1,0,9.191,4.373,4.373,0,0,1,1.284,6.185a4.358,4.358,0,0,1,1.394-.94l.006,0,.008,0a2.894,2.894,0,1,1,3.388,0l.007,0,.007,0A4.384,4.384,0,0,1,8.773,9.191a.093.093,0,0,1-.006.036.088.088,0,0,1-.02.031.09.09,0,0,1-.03.021A.093.093,0,0,1,8.68,9.286ZM4.387.887a2.008,2.008,0,1,0,1.418.588A1.992,1.992,0,0,0,4.387.887Z" transform="translate(1.587 1.33)" fill="#fff"/></g></g></g></g><g transform="translate(36 48)"><rect width="424" height="48" fill="#1890ff"/><text transform="translate(48 15)" fill="#fff" font-size="14" font-family="SegoeUI, Segoe UI" opacity="0.7"><tspan x="0" y="15">Альфа-банк</tspan></text><g transform="translate(16 13)" opacity="0.7"><circle cx="12" cy="12" r="12" fill="#bfbfbf"/><g transform="translate(6 6)"><rect width="12" height="12" fill="none"/><g clip-path="url(#e)"><rect width="12" height="12" fill="none"/><path d="M8.68,9.286h-.7A.092.092,0,0,1,7.886,9.2a3.5,3.5,0,0,0-7,0,.093.093,0,0,1-.093.091h-.7a.094.094,0,0,1-.036-.007.1.1,0,0,1-.03-.021.1.1,0,0,1-.02-.031A.093.093,0,0,1,0,9.191,4.373,4.373,0,0,1,1.284,6.185a4.358,4.358,0,0,1,1.394-.94l.006,0,.008,0a2.894,2.894,0,1,1,3.388,0l.007,0,.007,0A4.384,4.384,0,0,1,8.773,9.191a.093.093,0,0,1-.006.036.088.088,0,0,1-.02.031.09.09,0,0,1-.03.021A.093.093,0,0,1,8.68,9.286ZM4.387.887a2.008,2.008,0,1,0,1.418.588A1.992,1.992,0,0,0,4.387.887Z" transform="translate(1.587 1.33)" fill="#fff"/></g></g></g></g><g transform="translate(36 288)"><rect width="424" height="48" fill="#1890ff"/><text transform="translate(48 15)" fill="#fff" font-size="14" font-family="SegoeUI, Segoe UI" opacity="0.7"><tspan x="0" y="15">Альфа-банк</tspan></text><g transform="translate(16 13)" opacity="0.7"><circle cx="12" cy="12" r="12" fill="#bfbfbf"/><g transform="translate(6 6)"><rect width="12" height="12" fill="none"/><g clip-path="url(#e)"><rect width="12" height="12" fill="none"/><path d="M8.68,9.286h-.7A.092.092,0,0,1,7.886,9.2a3.5,3.5,0,0,0-7,0,.093.093,0,0,1-.093.091h-.7a.094.094,0,0,1-.036-.007.1.1,0,0,1-.03-.021.1.1,0,0,1-.02-.031A.093.093,0,0,1,0,9.191,4.373,4.373,0,0,1,1.284,6.185a4.358,4.358,0,0,1,1.394-.94l.006,0,.008,0a2.894,2.894,0,1,1,3.388,0l.007,0,.007,0A4.384,4.384,0,0,1,8.773,9.191a.093.093,0,0,1-.006.036.088.088,0,0,1-.02.031.09.09,0,0,1-.03.021A.093.093,0,0,1,8.68,9.286ZM4.387.887a2.008,2.008,0,1,0,1.418.588A1.992,1.992,0,0,0,4.387.887Z" transform="translate(1.587 1.33)" fill="#fff"/></g></g></g></g><g transform="translate(36 144)"><rect width="424" height="48" fill="#1890ff"/><text transform="translate(48 15)" fill="#fff" font-size="14" font-family="SegoeUI, Segoe UI" opacity="0.7"><tspan x="0" y="15">ПСБ</tspan></text><g transform="translate(16 13)" opacity="0.7"><circle cx="12" cy="12" r="12" fill="#bfbfbf"/><g transform="translate(6 6)"><rect width="12" height="12" fill="none"/><g clip-path="url(#e)"><rect width="12" height="12" fill="none"/><path d="M8.68,9.286h-.7A.092.092,0,0,1,7.886,9.2a3.5,3.5,0,0,0-7,0,.093.093,0,0,1-.093.091h-.7a.094.094,0,0,1-.036-.007.1.1,0,0,1-.03-.021.1.1,0,0,1-.02-.031A.093.093,0,0,1,0,9.191,4.373,4.373,0,0,1,1.284,6.185a4.358,4.358,0,0,1,1.394-.94l.006,0,.008,0a2.894,2.894,0,1,1,3.388,0l.007,0,.007,0A4.384,4.384,0,0,1,8.773,9.191a.093.093,0,0,1-.006.036.088.088,0,0,1-.02.031.09.09,0,0,1-.03.021A.093.093,0,0,1,8.68,9.286ZM4.387.887a2.008,2.008,0,1,0,1.418.588A1.992,1.992,0,0,0,4.387.887Z" transform="translate(1.587 1.33)" fill="#fff"/></g></g></g></g><g transform="translate(36 384)"><rect width="424" height="48" fill="#1890ff"/><text transform="translate(48 15)" fill="#fff" font-size="14" font-family="SegoeUI, Segoe UI" opacity="0.7"><tspan x="0" y="15">ПСБ</tspan></text><g transform="translate(16 13)" opacity="0.7"><circle cx="12" cy="12" r="12" fill="#bfbfbf"/><g transform="translate(6 6)"><rect width="12" height="12" fill="none"/><g clip-path="url(#e)"><rect width="12" height="12" fill="none"/><path d="M8.68,9.286h-.7A.092.092,0,0,1,7.886,9.2a3.5,3.5,0,0,0-7,0,.093.093,0,0,1-.093.091h-.7a.094.094,0,0,1-.036-.007.1.1,0,0,1-.03-.021.1.1,0,0,1-.02-.031A.093.093,0,0,1,0,9.191,4.373,4.373,0,0,1,1.284,6.185a4.358,4.358,0,0,1,1.394-.94l.006,0,.008,0a2.894,2.894,0,1,1,3.388,0l.007,0,.007,0A4.384,4.384,0,0,1,8.773,9.191a.093.093,0,0,1-.006.036.088.088,0,0,1-.02.031.09.09,0,0,1-.03.021A.093.093,0,0,1,8.68,9.286ZM4.387.887a2.008,2.008,0,1,0,1.418.588A1.992,1.992,0,0,0,4.387.887Z" transform="translate(1.587 1.33)" fill="#fff"/></g></g></g></g></g></g></g></svg>