<svg xmlns="http://www.w3.org/2000/svg" xmlns:xlink="http://www.w3.org/1999/xlink" width="92" height="19.513" viewBox="0 0 92 19.513"><defs><clipPath id="a"><rect width="92" height="19.513" fill="#fff"/></clipPath></defs><g opacity="0.5" clip-path="url(#a)"><path d="M113.335,4.1c0-1.061.362-1.423,1.452-1.423H120.7V.188H114.23a3.268,3.268,0,0,0-3.268,3.268V6.176h-1.378a.39.39,0,0,0-.322.172L107.884,8.4a.167.167,0,0,0,.139.261h2.939v10.68h2.373V8.659h6.61V6.175h-6.61V4.1Z" transform="translate(-87.389 -0.152)" fill="#fff"/><path d="M186.467.188V19.339h2.373V.188Z" transform="translate(-151.084 -0.152)" fill="#fff"/><path d="M222.614,33.877c0,2.009-1.674,3.154-4.355,3.154-2.066,0-3.238-.837-3.238-2.373,0-1.368,1-1.76,2.875-1.76h2.848c.837,0,1.507-.14,1.871-.781v1.758Zm-3.8-9.269c-3.909,0-6.059,2.066-6.31,4.8h2.54c.251-1.48,1.48-2.317,3.8-2.317,2.484,0,3.769.977,3.769,2.568,0,.7-.335.95-1.172.95h-3.8c-3.713,0-5,1.536-5,4.048,0,2.987,2.066,4.746,5.416,4.746,2.233,0,3.853-.782,4.55-1.814v1.536h2.373V30c0-3.713-2.4-5.389-6.17-5.389Z" transform="translate(-172.183 -19.938)" fill="#fff"/><path d="M296.385,27.758V26.083h-2.373V40.321h2.373V32.2a3.294,3.294,0,0,1,3.629-3.629h2.233V26.083h-1.982c-1.926,0-3.183.559-3.88,1.675" transform="translate(-238.222 -21.134)" fill="#fff"/><path d="M346.671,27.092c2.735,0,4.02,1.2,4.188,3.629h-8.487c.195-2.457,1.591-3.629,4.3-3.629m0,9.827a4.072,4.072,0,0,1-4.3-3.909h10.916V31.755c0-5.221-2.484-7.147-6.617-7.147s-6.756,1.815-6.756,7.119,2.959,7.678,6.756,7.678c2.987,0,5.472-1.4,6.253-4.663h-2.6a3.541,3.541,0,0,1-3.658,2.178Z" transform="translate(-275.414 -19.938)" fill="#fff"/><path d="M417.981,33.09l5.5-7.007h-2.93L416.5,31.22l-4.075-5.136h-2.876l5.5,6.979-5.7,7.258h2.959l4.216-5.389,4.243,5.389h2.9Z" transform="translate(-331.677 -21.134)" fill="#fff"/><path d="M13.263,0H3.011A3,3,0,0,0,1.5.406,2.865,2.865,0,0,0,0,2.926V18.882a.63.63,0,0,0,1.158.343l2.908-4.469a.5.5,0,0,1,.419-.226H9.4a3.011,3.011,0,0,0-.047-6.022H2.907a.168.168,0,0,1-.14-.259l1.3-2a.5.5,0,0,1,.419-.226h8.778a3.012,3.012,0,1,0,0-6.024" fill="#fff"/></g></svg>