<svg xmlns="http://www.w3.org/2000/svg" xmlns:xlink="http://www.w3.org/1999/xlink" width="80" height="30.41" viewBox="0 0 80 30.41"><defs><clipPath id="a"><rect width="80" height="30.41" fill="#1890ff"/></clipPath></defs><g clip-path="url(#a)"><path d="M45.62,0l.588.074a5.314,5.314,0,0,1,1.111.2l.848.3a5.013,5.013,0,0,1,.865.463l.609.369c.191.116,1.281,1.05.982,1.076-.108.009-.352.027-.494.027l-10.89-.012-8.621.008L30.1,2.494c-.41-.017-.64.846-1.366.736a1.781,1.781,0,0,1-1.018-.492A1.214,1.214,0,0,1,27.8.964,1.269,1.269,0,0,1,29.176.612c.51.205.5.651,1.084.653l5.969.016a.245.245,0,0,0,.177-.184L36.4.594A2.689,2.689,0,0,1,36.467,0Z" transform="translate(-25.173)" fill="#1890ff"/><path d="M28.918,341.445h-.356l-.353-.125a1.541,1.541,0,0,1-.574-.4,1.21,1.21,0,0,1-.012-1.683,1.515,1.515,0,0,1,1.23-.5c.693.064.725.7,1.208.706l2.714.043,1.872.014,1.442-.046a.284.284,0,0,0,.248-.283l-.033-.764a.247.247,0,0,1,.177-.191l.571.02,2.983-.009,1.3-.005,3.548-.013,1.99-.009,3.255-.017.46.009c.31.006-.439.661-.482.7a6.516,6.516,0,0,1-.934.689l-.83.448a6.377,6.377,0,0,1-2.262.615l-5.528.021-2.255.018-2.987.026-2.049.009H30.122c-.564,0-.469.478-1.2.725" transform="translate(-25.097 -311.034)" fill="#1890ff"/><path d="M888.155,76.052v.176c-.159.269-.312.542-.472.861l-3.092,6.2-.678,1.369a8.791,8.791,0,0,1-.895,1.577,3.2,3.2,0,0,1-1.52,1.13,6.166,6.166,0,0,1-1.583.146c-.081,0-.208-.2-.208-.279V85.845c0-.086.116-.262.187-.262l.639,0c.519,0,1.038-.7,1.25-1.1l.425-.8a.83.83,0,0,0-.011-.572l-.908-1.8L879.1,76.98a9.794,9.794,0,0,1-.4-.9l1.844-.04a.676.676,0,0,1,.412.308l.865,1.778,1.5,3.026c.019.038.158.107.176.072l.613-1.235,1.388-2.782c.387-.775.359-1.173.937-1.167Z" transform="translate(-808.155 -69.929)" fill="#1890ff"/><path d="M1.962,147.877c-.467-.008-.276.526-.886.658a2.106,2.106,0,0,1-1-.086c-.2-.071.18-.069.105-.3a1.275,1.275,0,0,1-.078-.541A2.714,2.714,0,0,0,0,146.041c1.641-.412,1.382.588,2.013.589l3.8.005,2.288.047c.987.02,1.919.007,2.909-.039a.3.3,0,0,0,.233-.24l-.026-.77c0-.076.106-.227.178-.226l.631.007,13.166,0c.246,0,.573.01.748.022.261.018-.979,1.211-1.058,1.279a3.2,3.2,0,0,1-.633.4c-1.446.76-.9.765-2.842.771l-3.427.011-1.577.023-7.568,0-2.3-.025-3.969-.01Z" transform="translate(0 -133.733)" fill="#1890ff"/><path d="M40.558,196.033a.591.591,0,0,0-.451.212,1.233,1.233,0,0,1-1.37.448,1.292,1.292,0,0,1-.945-1.544,1.422,1.422,0,0,1,1.542-1.069c.713.065.59.732,1.4.732h5c.082,0,.241-.136.24-.219l-.01-.821,0-.138c0-.038.112-.039.16-.039l1.548-.01,8.766-.026a8.086,8.086,0,0,1,1.48.15,2.606,2.606,0,0,1,1.047.571,5.493,5.493,0,0,1,.533.371l.949.928c.045.044.435.464.147.464l-4.815,0-10.287-.006-2.777,0Z" transform="translate(-34.727 -178.018)" fill="#1890ff"/><path d="M73.393,99.122a1.231,1.231,0,0,1-1.435.306,1.391,1.391,0,0,1-.792-1.438,1.278,1.278,0,0,1,1.243-1.124c1.053-.062.912.7,1.5.694l.842,0,4.149-.01,2.356-.006h.549a.267.267,0,0,0,.172-.183l-.016-.8a.4.4,0,0,1,.043-.172.327.327,0,0,1,.2-.063l2.431-.031,5.395,0,1.884.031.782.019a.306.306,0,0,1,.207.265l-.136.941a4.16,4.16,0,0,1-.4,1.16.544.544,0,0,1-.381.171l-1.755-.059-3.857-.021-8.421.028-4.042.018a.7.7,0,0,0-.51.28" transform="translate(-65.442 -88.557)" fill="#1890ff"/><path d="M73.54,292.406c-.533,0-.578.516-1.037.662a1.4,1.4,0,0,1-1.4-.343,1.259,1.259,0,0,1-.3-1.474,1.482,1.482,0,0,1,1.5-.759c.763.08.613.652,1.149.651l1.882,0,4.334.033,1.739.038c.058,0,.147-.073.145-.121l-.052-1.176,1.188.023,9.076-.012.509-.007c.031,0,.108.021.119.044a5.18,5.18,0,0,1-.306,1.481c-.1.263-.2.467-.324.732a.517.517,0,0,1-.379.225l-2.863.015-3.561,0H74.2Z" transform="translate(-65.004 -266.637)" fill="#1890ff"/><path d="M113.848,51.049a1.329,1.329,0,0,1-2.305-.982,1.359,1.359,0,0,1,1.481-1.225c.82.059.768.642,1.316.686.442.036.845.057,1.284.055l2.526-.015.866-.035c.029,0,.112-.02.113-.044s0-.093,0-.126l-.031-.771a.31.31,0,0,1,.319-.283l2.707-.038h3.6l2.358.03.89.022a.6.6,0,0,1,.39.27c.136.293.937,2.179.428,2.205-.637.033-1.205.074-1.83.055l-1.87-.058-7.1,0-4.7.022a.615.615,0,0,0-.443.23" transform="translate(-102.584 -44.394)" fill="#1890ff"/><path d="M114.367,244.349c-.656.069-.451.668-1.349.716a1.4,1.4,0,0,1-1.275-.609,1.244,1.244,0,0,1,.1-1.541,1.549,1.549,0,0,1,1.314-.479c.73.087.61.659,1.126.68l1.231.05c.713.029,1.414.018,2.13,0l1.3-.037c.061,0,.169-.1.166-.161l-.037-.9c0-.064.124-.179.2-.178l1.406.016,6.492-.007,2.006-.012a.417.417,0,0,1,.411.271l.272.942a9.475,9.475,0,0,1,.194,1.128c.006.043-.09.147-.14.148l-.939.021-8.235-.02-2.086-.024Z" transform="translate(-102.568 -222.467)" fill="#1890ff"/><path d="M400.534,47.219a3.939,3.939,0,0,1,.211,3.491,2.8,2.8,0,0,1-2.724,1.487h-5.556l-1.816.032.019-.691,0-8.049-.021-1.715c.3.017.625.05.929.05l6.189,0a2.944,2.944,0,0,1,2.936,1.452,4.215,4.215,0,0,1,.273,2.44c-.161.974-.683,1.077-.442,1.5m-1.759-1.608a1.284,1.284,0,0,0-.025-1.358.982.982,0,0,0-.715-.337l-4.425-.005-.906-.033.023,1.857a.879.879,0,0,0,.047.235c.013.034.142.031.188.03l.826-.02,4.247-.006a1,1,0,0,0,.74-.363m-.056,4.2a1.253,1.253,0,0,0,.01-1.455,1.034,1.034,0,0,0-.687-.284l-4.255-.006-.83-.022c-.057,0-.226.026-.226.082l0,.2-.022,1.83.993-.024,4.246,0a1.109,1.109,0,0,0,.774-.312" transform="translate(-359.283 -38.421)" fill="#1890ff"/><path d="M669.673,237.9l-.654,1.739-.678,1.8-1.038,2.764-.351,1a.575.575,0,0,1-.431.309l-1.364-.031a.578.578,0,0,1-.367-.268l-.609-1.562-1.09-2.721c-.023-.059-.135-.039-.148-.006l-.773,1.945-.934,2.363a.635.635,0,0,1-.476.268l-1.333-.028a.5.5,0,0,1-.33-.236l-.2-.611-2.05-5.479-.426-1.076c-.024-.061.1-.19.154-.19l1.538-.008a.57.57,0,0,1,.444.337l.282.829,1.257,3.36c.019.05.128.048.148,0l1.269-3.18.385-.979a.6.6,0,0,1,.5-.366l1.3,0a.573.573,0,0,1,.432.34l.494,1.3,1.142,2.848.059.145c.011.026.1-.082.122-.129l.976-2.615.553-1.524a.571.571,0,0,1,.5-.368Z" transform="translate(-603.713 -218.769)" fill="#1890ff"/><path d="M397.859,207.5l.929-.022c.062,0,.179.123.179.192l0,1.769c0,.061-.116.188-.173.186l-.981-.028-3.9-.007-.935-.029a.344.344,0,0,0-.269.267l.026,1.111.019,2.5a.6.6,0,0,1-.047.238c-.039.056-.2.083-.279.082l-1.779-.024.005-.755,0-8.493-.016-1.133.972.031h8.4l.807-.028c.044,0,.164.008.169.041s.014.127.014.171l.021,1.656a.325.325,0,0,1-.257.263l-.932-.027-6.1,0-.913-.038c-.038,0-.108.136-.108.177l.009,1.666c0,.1.162.276.255.273l.843-.022Z" transform="translate(-359.282 -187.021)" fill="#1890ff"/><path d="M679,83.444a2.075,2.075,0,0,1-2.257-1.412,3.69,3.69,0,0,1-.073-1.752A2.01,2.01,0,0,1,678.8,78.7l2.67.007.848,0-.234-.8-.8-.187-2.743.011-1.617.031,0-2.021.818.044,2.572-.008c1.156,0,2.708.013,3.392,1.035a3.178,3.178,0,0,1,.494,1.713l.01,3.813.021.977c.006.276-.654.122-1.172.122Zm3.324-1.855.01-.912c.019,0-.114-.115-.166-.115l-2.357.021-.9.007c-.21,0-.4.288-.38.508a.489.489,0,0,0,.46.451l1.688-.01Z" transform="translate(-622.269 -69.667)" fill="#1890ff"/><path d="M570.142,242.381c-.384,1.3-1.536,1.617-2.747,1.624l-1.6.01a4.513,4.513,0,0,1-1.526-.21,2.416,2.416,0,0,1-1.557-2.491v-2.4a2.689,2.689,0,0,1,1.031-2.392,2.751,2.751,0,0,1,1.431-.435h2.664a2.877,2.877,0,0,1,1.32.365,2.544,2.544,0,0,1,1.151,2.373v2.317a4.48,4.48,0,0,1-.169,1.242m-2.687-.277a1.211,1.211,0,0,0,.735-.271,1.146,1.146,0,0,0,.188-.687v-2.329c0-.182-.083-.547-.232-.638a1.578,1.578,0,0,0-.73-.206l-1.82,0a.851.851,0,0,0-.962.844l0,2.42a.849.849,0,0,0,.9.875Z" transform="translate(-517.533 -217.128)" fill="#1890ff"/><path d="M574.36,79.313a3.313,3.313,0,0,0-.065-.609c-.126-.686-1.206-.577-1.7-.582L570.52,78.1l.033.818.009,3.993.02.8c0,.051-.142.152-.2.152l-1.521-.008a.3.3,0,0,1-.255-.318V76.523a.355.355,0,0,1,.342-.355l3.649.007a10.825,10.825,0,0,1,1.726.143,2.352,2.352,0,0,1,1.921,2.382l.016,2.256.012,2.66a1.425,1.425,0,0,1-.015.171c-.008.048-.143.071-.208.071l-1.45.009c-.1,0-.268-.132-.267-.225l.019-1.091Z" transform="translate(-522.953 -70.052)" fill="#1890ff"/><path d="M787.964,78.08l-2.208-.017a1.057,1.057,0,0,0-.184.023c-.052.014-.065.157-.064.228l.013,2.43.015,2.89c0,.069-.083.18-.13.18l-1.568-.006c-.1,0-.27-.135-.266-.227l.04-.989,0-5.22-.033-1.006a.311.311,0,0,1,.232-.246l3.484.011a10.258,10.258,0,0,1,2.059.161,2.186,2.186,0,0,1,1.677,1.477,10.617,10.617,0,0,1,.255,1.267l-1.65.049a.413.413,0,0,1-.4-.375c-.1-.643-.668-.626-1.272-.63" transform="translate(-720.657 -70.009)" fill="#1890ff"/><path d="M528.012,213.6c0,.077,0,.219-.028.229a.979.979,0,0,1-.217.031h-1.628c-.051,0-.085-.157-.084-.209l.01-.823v-8.491l0-.851,1.778,0c.046,0,.174.088.172.131l-.042,1.16,0,7.426Z" transform="translate(-483.817 -187.145)" fill="#1890ff"/><path d="M534.137,83.474a.361.361,0,0,1-.267.232l-1.725,0,.035-.97,0-5.485-.036-1a.5.5,0,0,1,.031-.182.346.346,0,0,1,.221-.077l1.472-.009a.352.352,0,0,1,.254.26l-.019.824,0,5.485c0,.295.016.5.038.916" transform="translate(-489.416 -69.888)" fill="#1890ff"/><path d="M534.124,43.922l-1.975-.005.02-1.944,1.955-.028Z" transform="translate(-489.422 -38.577)" fill="#1890ff"/></g></svg>