<svg xmlns="http://www.w3.org/2000/svg" xmlns:xlink="http://www.w3.org/1999/xlink" width="137.025" height="23.564" viewBox="0 0 137.025 23.564"><defs><clipPath id="a"><rect width="137.025" height="23.564" fill="#fff"/></clipPath></defs><g opacity="0.7"><g clip-path="url(#a)"><path d="M20.185,14.088a1.251,1.251,0,0,1-1.256.091,1.929,1.929,0,0,1-.731-1.735V9.864c0-1.233-.48-2.124-1.3-2.352-1.393-.411-2.443,1.3-2.831,1.941L11.6,13.4V8.54c-.023-1.119-.388-1.781-1.073-1.987-.457-.137-1.142-.069-1.8.936L3.22,16.3A9.742,9.742,0,0,1,2.1,11.782a9.58,9.58,0,0,1,9.5-9.636,9.58,9.58,0,0,1,9.5,9.636v.046a2.432,2.432,0,0,1-.913,2.261M23.2,11.782h0v-.046A11.719,11.719,0,0,0,11.6,0,11.7,11.7,0,0,0,0,11.782,11.715,11.715,0,0,0,11.6,23.564a11.4,11.4,0,0,0,7.878-3.151,1.067,1.067,0,0,0-1.439-1.576l-.023.023A9.383,9.383,0,0,1,4.5,18.244L9.453,10.3v3.676c0,1.758.685,2.329,1.256,2.489s1.439.046,2.375-1.439L15.8,10.618a2.527,2.527,0,0,1,.251-.365V12.49a3.947,3.947,0,0,0,1.8,3.608,3.318,3.318,0,0,0,3.4-.137A4.525,4.525,0,0,0,23.2,11.782M39.365,7.763a1.145,1.145,0,0,1,.525.891,1.009,1.009,0,0,1-.982,1,1.731,1.731,0,0,1-.365-.069,3.752,3.752,0,0,0-2.215-.754,3.319,3.319,0,0,0-3.265,3.539,3.313,3.313,0,0,0,3.265,3.516,3.546,3.546,0,0,0,2.466-1,1,1,0,0,1,.571-.183.926.926,0,0,1,.936.936.972.972,0,0,1-.457.8,5.42,5.42,0,1,1-3.494-9.59,5.161,5.161,0,0,1,3.014.913M44.8,10.047a3.792,3.792,0,0,1,3.722,3.836,3.884,3.884,0,0,1-3.722,3.9,3.928,3.928,0,0,1-3.882-3.9A3.869,3.869,0,0,1,44.8,10.047m-.023,5.845a1.823,1.823,0,0,0,1.644-1.987,1.715,1.715,0,0,0-1.644-1.872,1.747,1.747,0,0,0-1.758,1.872,1.877,1.877,0,0,0,1.758,1.987M49.8,16.6V11.211a1.053,1.053,0,0,1,1.05-1.073,1.067,1.067,0,0,1,1.05,1.073V16.6a1.067,1.067,0,0,1-1.05,1.073A1.082,1.082,0,0,1,49.8,16.6m-.16-8.494a1.229,1.229,0,0,1,1.21-1.256,1.247,1.247,0,0,1,1.233,1.256,1.222,1.222,0,1,1-2.443,0m6.279,5.571V16.6a1.051,1.051,0,1,1-2.1,0V10.96a.811.811,0,1,1,1.621,0,3.047,3.047,0,0,1,2.306-.913c2.1,0,3.037,1.576,3.037,3.379V16.6a1.051,1.051,0,1,1-2.1,0V13.677c0-.913-.114-1.69-1.439-1.69-.936,0-1.324.776-1.324,1.69M67.588,14.8a.68.68,0,0,1-.548-.274L64.6,11.874V16.6a1.051,1.051,0,1,1-2.1,0V7.238a.445.445,0,0,1,.388-.274.735.735,0,0,1,.457.274l3.9,4.384a.51.51,0,0,0,.343.206.561.561,0,0,0,.343-.206l3.9-4.384a.679.679,0,0,1,.457-.274.4.4,0,0,1,.388.274V16.6a1.053,1.053,0,0,1-1.05,1.073,1.067,1.067,0,0,1-1.05-1.073V11.874l-2.443,2.649a.843.843,0,0,1-.548.274m10.093,1.1a1.86,1.86,0,0,0,1.735-1.987,1.79,1.79,0,0,0-1.735-1.9,1.752,1.752,0,0,0-1.667,1.9,1.838,1.838,0,0,0,1.667,1.987m2.238.959-.046-.251a3.057,3.057,0,0,1-2.535,1.165,3.661,3.661,0,0,1-3.425-3.9,3.643,3.643,0,0,1,3.539-3.836A3.285,3.285,0,0,1,79.9,11.189l.046-.251a.8.8,0,0,1,.8-.822.833.833,0,0,1,.822.822v5.891a.819.819,0,0,1-.822.822.786.786,0,0,1-.822-.8m7.421-4.864h-.228c-1.324.068-1.576.822-1.576,1.69V16.6a1.051,1.051,0,1,1-2.1,0V10.96a.811.811,0,1,1,1.621,0,2.912,2.912,0,0,1,2.055-.913h.205a.985.985,0,0,1,.959.982.96.96,0,0,1-.936.959m8.106,4.11a1,1,0,0,1,.16.5,1.094,1.094,0,0,1-1.05,1.05,1.3,1.3,0,0,1-.936-.594L91.2,14.248v2.329a1.051,1.051,0,1,1-2.1,0V8.015a1.051,1.051,0,1,1,2.1,0v5.343l2.42-2.672a1.374,1.374,0,0,1,.913-.571,1.05,1.05,0,0,1,1,1.028.9.9,0,0,1-.137.48l-1.918,2.1Zm4.11-4.087c-.571,0-1.507.3-1.507,1.187h3.037c-.023-.891-.982-1.187-1.53-1.187m2.74,2.535H98.048c0,1.256,1.21,1.461,1.735,1.461a3.408,3.408,0,0,0,1.37-.274,1.034,1.034,0,0,1,.548-.16.863.863,0,0,1,.845.868.925.925,0,0,1-.457.754,3.773,3.773,0,0,1-2.283.594,3.54,3.54,0,0,1-3.882-3.813c0-2.1,1.073-3.927,3.585-3.927a3.457,3.457,0,0,1,3.608,3.676.833.833,0,0,1-.822.822m5.845,3.22h-.571c-1.6,0-2.535-.708-2.535-3.2v-2.58h-.548a.971.971,0,0,1,0-1.941h.548V8.06a1.053,1.053,0,0,1,1.05-1.073,1.067,1.067,0,0,1,1.05,1.073v1.987H108a.966.966,0,0,1,.936.982.993.993,0,0,1-.936.959h-.868v2.169c0,1.439.068,1.735.708,1.735h.3a.94.94,0,0,1,.936.936.956.956,0,0,1-.936.936m10.161-10a1.145,1.145,0,0,1,.525.891,1.009,1.009,0,0,1-.982,1,1.731,1.731,0,0,1-.365-.069,3.752,3.752,0,0,0-2.215-.754A3.319,3.319,0,0,0,112,12.376a3.313,3.313,0,0,0,3.265,3.516,3.546,3.546,0,0,0,2.466-1,1,1,0,0,1,.571-.183.926.926,0,0,1,.936.936.972.972,0,0,1-.457.8,5.42,5.42,0,1,1-3.494-9.59,5.111,5.111,0,0,1,3.014.913m5.32,8.129a1.86,1.86,0,0,0,1.735-1.987,1.79,1.79,0,0,0-1.735-1.9,1.739,1.739,0,0,0-1.667,1.9,1.854,1.854,0,0,0,1.667,1.987m2.238.959-.046-.251a3.057,3.057,0,0,1-2.535,1.165,3.661,3.661,0,0,1-3.425-3.9,3.643,3.643,0,0,1,3.539-3.836,3.285,3.285,0,0,1,2.443,1.165l.046-.251a.8.8,0,0,1,.8-.822.833.833,0,0,1,.822.822v5.891a.819.819,0,0,1-.822.822.786.786,0,0,1-.822-.8m7.375-.959a1.838,1.838,0,0,0,1.667-1.987,1.739,1.739,0,0,0-1.667-1.9,1.776,1.776,0,0,0-1.735,1.9,1.86,1.86,0,0,0,1.735,1.987M131.5,17.148V19.82a1.051,1.051,0,1,1-2.1,0V10.96a.819.819,0,0,1,.822-.822.84.84,0,0,1,.8.913,3.377,3.377,0,0,1,2.466-1,3.644,3.644,0,0,1,3.539,3.836,3.66,3.66,0,0,1-3.425,3.9,4.028,4.028,0,0,1-2.1-.639" fill="#fff"/></g></g></svg>