<svg xmlns="http://www.w3.org/2000/svg" xmlns:xlink="http://www.w3.org/1999/xlink" width="352" height="432" viewBox="0 0 352 432"><defs><clipPath id="a"><rect width="242.506" height="237.538" fill="none"/></clipPath><clipPath id="c"><rect width="122.43" height="102.354" fill="none"/></clipPath></defs><g stroke="#1890ff" stroke-width="1"><rect width="352" height="432" rx="30" stroke="none"/><rect x="0.5" y="0.5" width="351" height="431" rx="29.5" fill="none"/></g><g transform="translate(55 32)"><g clip-path="url(#a)"><g clip-path="url(#a)"><path d="M138.691,392.41c-10.337,5.968-10.357,15.632-.044,21.586s27.052,5.943,37.389-.025,10.357-15.632.044-21.586l-18.716,10.806Z" transform="translate(-60.366 -180.917)" opacity="0.2"/><path d="M145.349,381.775l18.672,10.781,18.716-10.806c-10.312-5.954-27.052-5.943-37.389.025" transform="translate(-67.016 -173.958)" fill="#f5f5f5"/><path d="M349.177,113.16c0,4-2.815,5.618-6.288,3.613A13.883,13.883,0,0,1,336.6,105.9c0-4,2.815-5.618,6.287-3.614a13.882,13.882,0,0,1,6.288,10.874" transform="translate(-155.197 -46.764)" fill="#1890ff"/><path d="M391.089,133.281,371.8,122.144a4.337,4.337,0,0,1-1.811-3.46c0-1.333.811-1.946,1.811-1.369l19.291,11.138a4.336,4.336,0,0,1,1.811,3.46c0,1.333-.811,1.947-1.811,1.369m-9.928,1.512h0a4.339,4.339,0,0,0-1.811-3.46l-7.553-4.36c-1-.577-1.811.036-1.811,1.369a4.339,4.339,0,0,0,1.811,3.46l7.553,4.36c1,.578,1.811-.036,1.811-1.369" transform="translate(-170.59 -53.99)" fill="#d1d8dc"/><path d="M161.257,27.538c0-7.884-7.807-18.783-17.438-24.343S126.381-.482,126.381,7.4s7.807,18.783,17.438,24.343c.354.2.7.377,1.048.562,2.357,4.839,6.31,8.786,10.129,9.934a31.769,31.769,0,0,1-1.223-3.541,26.128,26.128,0,0,1-.759-3.809c4.943.334,8.243-2.236,8.243-7.354" transform="translate(-58.271 0)" fill="#1890ff"/><path d="M150.862,28.783a3.712,3.712,0,0,1-1.682-2.909c0-1.07.753-1.5,1.682-.966a3.713,3.713,0,0,1,1.681,2.909c0,1.07-.753,1.5-1.681.966m9.2,3.377a3.713,3.713,0,0,0-1.682-2.909c-.929-.536-1.681-.1-1.681.967a3.713,3.713,0,0,0,1.681,2.908c.929.537,1.682.1,1.682-.966m-15.046-8.687a3.713,3.713,0,0,0-1.682-2.909c-.929-.536-1.682-.1-1.682.967a3.715,3.715,0,0,0,1.682,2.909c.929.536,1.682.1,1.682-.967" transform="translate(-65.314 -9.375)" fill="#fff"/><path d="M14.273,187.411a12.6,12.6,0,0,0-2.431-.58,8.8,8.8,0,0,0-.3-.831l-3.469,0c-.109.255-.21.533-.3.831a12.664,12.664,0,0,0-2.433.584c-.431-.174-.843-.329-1.231-.464l-2.455,1.417c.235.224.5.462.8.711a4.221,4.221,0,0,0-1.011,1.4c-.517.053-1,.112-1.44.175l0,2c.441.062.922.12,1.439.173a4.183,4.183,0,0,0,1.006,1.4c-.3.249-.571.487-.807.711l2.45,1.415c.389-.136.8-.292,1.233-.466a12.619,12.619,0,0,0,2.431.58,8.662,8.662,0,0,0,.3.831l3.469,0a8.6,8.6,0,0,0,.3-.831,12.657,12.657,0,0,0,2.434-.584c.431.174.842.329,1.231.464l2.455-1.417c-.235-.224-.5-.462-.8-.711a4.221,4.221,0,0,0,1.011-1.4c.517-.053,1-.112,1.439-.175l0-2c-.441-.062-.922-.12-1.439-.173a4.183,4.183,0,0,0-1.006-1.4c.3-.249.571-.487.806-.711l-2.449-1.414q-.584.2-1.233.465m-1.337,6.058a6.946,6.946,0,0,1-6.286,0c-1.734-1-1.731-2.626.008-3.629a6.948,6.948,0,0,1,6.286,0c1.733,1,1.73,2.626-.008,3.629" transform="translate(0 -85.759)" fill="#d1d8dc"/><path d="M39.935,352.574c-3.611-2.085-3.618-5.474-.016-7.554A14.48,14.48,0,0,1,53,345.029c3.611,2.085,3.618,5.473.016,7.554a14.48,14.48,0,0,1-13.083-.009m9.991-5.768a7.661,7.661,0,0,0-6.922,0c-1.906,1.1-1.9,2.893.009,4a7.66,7.66,0,0,0,6.921,0c1.906-1.1,1.9-2.893-.008-4" transform="translate(-17.162 -158.361)" fill="#d1d8dc" opacity="0.4"/><path d="M419.845,321.334l-5.531,6.278,8.644,4.991L410.9,331.492l-5.531,6.278-1.925-6.965-12.063-1.111,10.873-3.194-1.924-6.965,8.644,4.991Z" transform="translate(-180.452 -147.329)" fill="#d1d8dc" opacity="0.6"/><path d="M93.532,288.426l90.155-52.051,17.551,10.132-90.156,52.051Z" transform="translate(-43.125 -108.985)" opacity="0.2"/><path d="M228.177,112.3l17.591-10.157,17.55,10.133-17.591,10.156Z" transform="translate(-105.206 -47.096)" fill="#f5f5f5"/><path d="M278.333,120.946,260.741,131.1v43.164l17.592-10.157Z" transform="translate(-120.22 -55.765)" fill="#d1d8dc"/><path d="M228.177,120.99l17.55,10.132v43.165l-17.55-10.133Z" transform="translate(-105.206 -55.785)" fill="#e5e8eb"/><path d="M183.295,166.482l17.592-10.156,17.55,10.132-17.591,10.156Z" transform="translate(-84.512 -72.077)" fill="#f5f5f5"/><path d="M233.451,175.127,215.86,185.283v27.93l17.591-10.156Z" transform="translate(-99.527 -80.746)" fill="#d1d8dc"/><path d="M183.295,175.171l17.55,10.132v27.93L183.295,203.1Z" transform="translate(-84.512 -80.766)" fill="#e5e8eb"/><path d="M138.413,159.415,156,149.258l17.55,10.133-17.591,10.156Z" transform="translate(-63.818 -68.818)" fill="#f5f5f5"/><path d="M188.57,168.06l-17.591,10.156v45.7l17.591-10.157Z" transform="translate(-78.833 -77.487)" fill="#d1d8dc"/><path d="M138.413,168.1l17.55,10.132v45.7l-17.55-10.132Z" transform="translate(-63.818 -77.508)" fill="#e5e8eb"/><path d="M93.532,227.73l17.591-10.156,17.55,10.132-17.591,10.156Z" transform="translate(-43.125 -100.317)" fill="#f5f5f5"/><path d="M143.688,236.375,126.1,246.531v22.852l17.592-10.157Z" transform="translate(-58.139 -108.985)" fill="#d1d8dc"/><path d="M93.532,236.419l17.55,10.132V269.4L93.532,259.27Z" transform="translate(-43.125 -109.006)" fill="#e5e8eb"/><path d="M196.142,53.121l-5.036-27.377L190,25.164l-25.629,9.672,6.537,3.775-8.373,14.8c-4.441,7.63-8.881,15.26-17.762,20.388-17.765,10.256-17.765-10.007-35.53.249s-17.765,30.521-35.531,40.777c0,0,.733,2.116,0,2.539L91.3,127.518c17.765-10.257,17.765-30.521,35.53-40.778s17.765,10.007,35.53-.25c8.881-5.127,13.322-12.757,17.763-20.387l9.454-16.713,5.456,3.15Z" transform="translate(-33.986 -11.602)" fill="#1890ff"/><g transform="translate(39.726 13.561)" style="mix-blend-mode:multiply;isolation:isolate"><g clip-path="url(#c)"><path d="M196.143,53.12l-1.106-.58h0L190,25.163h0l1.106.58ZM188.5,48.766l-8.373,14.8c-4.441,7.63-8.882,15.259-17.763,20.387-17.765,10.256-17.765-10.007-35.53.25s-17.765,30.521-35.53,40.777L73.713,114.822s.733,2.115,0,2.539L91.3,127.517C109.069,117.26,109.069,97,126.834,86.739s17.765,10.007,35.53-.249c8.882-5.128,13.322-12.758,17.763-20.387l9.454-16.713,1.1.632Z" transform="translate(-73.713 -25.163)" fill="#bbc1c5"/></g></g><path d="M170.62,114.529q.327.179.654.362l17.587,10.154c4.389,2.462,8.652,5.139,17.041.729L188.31,115.618c-8.8,4.628-13.061,1.452-17.69-1.089" transform="translate(-78.668 -52.806)" fill="#1890ff"/><path d="M257.635,319.916c-12.179-7.031-12.159-18.441.054-25.488s31.969-7.064,44.145-.032,12.154,18.44-.049,25.491-31.973,7.058-44.151.029" transform="translate(-114.583 -133.31)" opacity="0.2"/><path d="M248.516,248.488V238.016a.036.036,0,0,1,0-.015v-.013c.022-4.607,3.076-9.211,9.175-12.729,12.2-7.048,31.969-7.064,44.145-.032,6.1,3.52,9.138,8.141,9.115,12.761h0v10.5h0c-.019,4.6-3.074,9.212-9.168,12.727-12.209,7.047-31.971,7.061-44.152.03-6.1-3.521-9.134-8.138-9.115-12.757" transform="translate(-114.582 -101.419)" fill="#10bf1c"/><path d="M257.635,250.747c-12.179-7.031-12.159-18.441.054-25.488s31.969-7.064,44.145-.032,12.154,18.44-.049,25.491-31.973,7.058-44.151.029" transform="translate(-114.583 -101.419)" fill="#50ff44"/><path d="M240.378,224.075V213.6a.036.036,0,0,1,0-.015v-.013c.022-4.607,3.076-9.211,9.175-12.729,12.2-7.048,31.969-7.064,44.145-.032,6.1,3.52,9.138,8.141,9.115,12.761h0v10.5h0c-.019,4.6-3.073,9.212-9.168,12.727-12.209,7.047-31.97,7.061-44.152.03-6.1-3.521-9.134-8.137-9.115-12.757" transform="translate(-110.83 -90.162)" fill="#10bf1c"/><path d="M249.5,226.334c-12.179-7.031-12.159-18.441.054-25.488s31.969-7.064,44.145-.032,12.154,18.439-.049,25.491-31.973,7.058-44.151.029" transform="translate(-110.831 -90.162)" fill="#50ff44"/><path d="M248.516,199.663V189.191a.032.032,0,0,1,0-.015v-.013c.022-4.607,3.076-9.211,9.175-12.728,12.2-7.048,31.969-7.064,44.145-.032,6.1,3.521,9.138,8.141,9.115,12.761h0v10.5h0c-.019,4.6-3.074,9.212-9.168,12.727-12.209,7.047-31.971,7.061-44.152.03-6.1-3.521-9.134-8.138-9.115-12.758" transform="translate(-114.582 -78.907)" fill="#10bf1c"/><path d="M257.635,201.922c-12.179-7.031-12.159-18.441.054-25.488s31.969-7.064,44.145-.032,12.154,18.44-.049,25.491-31.973,7.058-44.151.029" transform="translate(-114.583 -78.907)" fill="#50ff44"/><path d="M268.513,202.514c-9.459-5.463-9.443-14.332.043-19.809s24.846-5.484,34.309-.023,9.443,14.335-.042,19.809-24.846,5.488-34.311.024" transform="translate(-120.538 -82.343)" fill="#8fff5e"/><path d="M307.692,192.43a.874.874,0,1,0-.875-1.513l-1.683.971a11.2,11.2,0,0,0-9.729.221,3.72,3.72,0,0,0-2.054,2.6c-.189,1.247.4,2.564,1.854,4.132,1.068,1.187,1.536,2.077,1.434,2.722-.073.457-.48.9-1.21,1.323a9.507,9.507,0,0,1-8.455-.007,2,2,0,0,1-.009-3.876.874.874,0,0,0-.876-1.513,4.1,4.1,0,0,0-2.365,3.447,3.587,3.587,0,0,0,1.24,2.6l-.94.544a.874.874,0,1,0,.876,1.513l1.681-.973a10.677,10.677,0,0,0,4.632,1.015,10.358,10.358,0,0,0,5.09-1.235,3.728,3.728,0,0,0,2.063-2.564c.255-1.6-.939-3.141-1.868-4.175-1.04-1.124-1.517-2.031-1.417-2.693.072-.473.475-.926,1.2-1.344a9.5,9.5,0,0,1,8.46,0,2,2,0,0,1,.009,3.874.874.874,0,1,0,.875,1.514,4.1,4.1,0,0,0,2.365-3.446,3.589,3.589,0,0,0-1.238-2.6Z" transform="translate(-130.753 -87.971)" fill="#4bfb1c"/><path d="M307.692,184.293a.874.874,0,1,0-.875-1.513l-1.683.971a11.2,11.2,0,0,0-9.729.221,3.72,3.72,0,0,0-2.054,2.6c-.189,1.247.4,2.564,1.854,4.133,1.068,1.187,1.536,2.077,1.434,2.722-.073.458-.48.9-1.21,1.324a9.507,9.507,0,0,1-8.455-.007,2,2,0,0,1-.009-3.876.874.874,0,0,0-.876-1.513,4.1,4.1,0,0,0-2.365,3.447,3.588,3.588,0,0,0,1.24,2.6l-.94.544a.875.875,0,1,0,.876,1.514l1.681-.973a10.676,10.676,0,0,0,4.632,1.015,10.364,10.364,0,0,0,5.09-1.235,3.728,3.728,0,0,0,2.063-2.564c.255-1.6-.939-3.142-1.868-4.175-1.04-1.124-1.517-2.031-1.417-2.693.072-.473.475-.926,1.2-1.344a9.5,9.5,0,0,1,8.46,0,2,2,0,0,1,.009,3.874.874.874,0,1,0,.875,1.514,4.1,4.1,0,0,0,2.365-3.446,3.589,3.589,0,0,0-1.238-2.6Z" transform="translate(-130.753 -84.219)" fill="#fff"/><path d="M310.478,190.568c0,4.434-2.955,8.579-8.317,11.672-10.837,6.26-28.451,6.272-39.266.027-5.332-3.078-8.268-7.208-8.268-11.626,0-4.434,2.955-8.58,8.317-11.676,10.837-6.255,28.451-6.267,39.264-.027,5.332,3.081,8.27,7.21,8.27,11.628Zm-47.035,10.751h0c10.513,6.068,27.637,6.058,38.17-.027,5.008-2.891,7.766-6.7,7.769-10.724v0c0-4.01-2.743-7.8-7.722-10.679-10.511-6.065-27.633-6.053-38.168.027-5.008,2.893-7.766,6.7-7.769,10.728,0,4.01,2.743,7.8,7.72,10.677" transform="translate(-117.401 -80.349)" fill="#10bf1c"/><path d="M310.478,182.43c0,4.433-2.955,8.579-8.317,11.672-10.837,6.26-28.451,6.272-39.266.027-5.332-3.078-8.268-7.208-8.268-11.626,0-4.433,2.955-8.58,8.317-11.676,10.837-6.255,28.451-6.267,39.264-.026,5.332,3.08,8.27,7.209,8.27,11.628Zm-47.035,10.75h0c10.513,6.068,27.637,6.058,38.17-.027,5.008-2.89,7.766-6.7,7.769-10.723v0c0-4.011-2.743-7.8-7.722-10.679-10.511-6.065-27.633-6.053-38.168.026-5.008,2.893-7.766,6.7-7.769,10.728s2.743,7.8,7.72,10.677" transform="translate(-117.401 -76.596)" fill="#fff"/><path d="M211.016,334.686l-9.056,5.229,30.715,17.733,9.056-5.228Z" transform="translate(-93.118 -154.314)" opacity="0.2"/><path d="M205.044,222.343l-9.069,5.236a.037.037,0,0,0-.013,0l-.012.007c-3.979,2.322-6.439,7.27-6.436,14.31,0,14.093,9.866,31.218,22.044,38.246,6.1,3.52,11.619,3.844,15.609,1.514l0,0,9.093-5.25v0c3.977-2.319,6.441-7.268,6.437-14.3,0-14.1-9.87-31.218-22.049-38.252-6.1-3.522-11.614-3.841-15.606-1.516" transform="translate(-87.379 -101.829)" fill="#10bf1c"/><path d="M211.559,233.6c-12.178-7.032-22.05-1.309-22.045,12.791s9.866,31.218,22.044,38.247,22.047,1.305,22.052-12.788-9.874-31.218-22.051-38.25" transform="translate(-87.379 -106.32)" fill="#50ff44"/><path d="M215.758,244.727c-9.46-5.46-17.133-1.012-17.134,9.942s7.674,24.259,17.135,29.724,17.136,1.01,17.134-9.941-7.67-24.261-17.135-29.726" transform="translate(-91.58 -111.76)" fill="#8fff5e"/><path d="M226.267,270.977c-3-2.783-4.392-5.147-4.393-7.442a2,2,0,0,1,3.361-1.929,9.508,9.508,0,0,1,4.234,7.325.875.875,0,0,0,1.75,0,11.188,11.188,0,0,0-4.672-8.539v-1.943a.875.875,0,0,0-1.75,0v1.085a3.579,3.579,0,0,0-2.869.227,4.105,4.105,0,0,0-1.8,3.774c0,2.815,1.576,5.587,4.949,8.719,3.083,2.906,4.4,5.131,4.4,7.442a2,2,0,0,1-3.36,1.927,9.514,9.514,0,0,1-4.235-7.326.875.875,0,0,0-1.75,0,11.194,11.194,0,0,0,4.675,8.538v1.947a.875.875,0,0,0,1.75,0v-1.071a4.3,4.3,0,0,0,1.216.188,3.27,3.27,0,0,0,1.652-.432,4.1,4.1,0,0,0,1.8-3.771c0-3.591-2.642-6.544-4.952-8.719" transform="translate(-101.492 -118.76)" fill="#4bfb1c"/><path d="M219.219,275.045c-3-2.783-4.392-5.147-4.393-7.442a2,2,0,0,1,3.361-1.929A9.51,9.51,0,0,1,222.422,273a.875.875,0,0,0,1.749,0,11.186,11.186,0,0,0-4.672-8.539v-1.944a.875.875,0,0,0-1.75,0V263.6a3.577,3.577,0,0,0-2.869.228,4.1,4.1,0,0,0-1.8,3.774c0,2.816,1.576,5.588,4.949,8.719,3.083,2.906,4.4,5.131,4.4,7.442a2,2,0,0,1-3.36,1.927,9.513,9.513,0,0,1-4.236-7.326.875.875,0,0,0-1.75,0,11.192,11.192,0,0,0,4.674,8.538l0,1.947a.875.875,0,1,0,1.749,0v-1.071a4.3,4.3,0,0,0,1.216.188,3.27,3.27,0,0,0,1.652-.432,4.1,4.1,0,0,0,1.8-3.77c0-3.591-2.642-6.544-4.952-8.72" transform="translate(-98.243 -120.635)" fill="#fff"/><path d="M227.339,285.85c-3.826,2.209-8.871,1.73-14.2-1.347-10.811-6.245-19.608-21.5-19.609-34.017,0-6.191,2.115-10.822,5.954-13.04s8.87-1.732,14.2,1.347c10.816,6.244,19.613,21.5,19.61,34.019,0,6.19-2.112,10.82-5.95,13.038h0m-27.312-47.455c-3.485,2.015-5.4,6.308-5.406,12.091,0,12.164,8.552,27,19.061,33.068,4.979,2.874,9.636,3.352,13.109,1.347h0c3.484-2.014,5.4-6.307,5.4-12.089,0-12.164-8.55-27-19.061-33.07-4.978-2.872-9.633-3.352-13.107-1.346" transform="translate(-89.229 -108.848)" fill="#10bf1c"/><path d="M220.292,289.918c-3.826,2.21-8.872,1.73-14.205-1.347-10.811-6.244-19.608-21.5-19.608-34.017,0-6.191,2.115-10.822,5.954-13.04s8.87-1.732,14.2,1.347c10.816,6.244,19.613,21.5,19.61,34.018,0,6.19-2.112,10.82-5.95,13.038h0M192.98,242.463c-3.485,2.015-5.4,6.308-5.406,12.091,0,12.164,8.552,27,19.06,33.068,4.98,2.874,9.636,3.353,13.109,1.347h0c3.484-2.014,5.4-6.307,5.4-12.089,0-12.164-8.55-27-19.062-33.07-4.978-2.872-9.633-3.352-13.106-1.346" transform="translate(-85.979 -110.724)" fill="#fff"/></g></g></g></svg>