<svg xmlns="http://www.w3.org/2000/svg" xmlns:xlink="http://www.w3.org/1999/xlink" width="94" height="89" viewBox="0 0 94 89"><defs><clipPath id="a"><rect width="24" height="24" fill="none"/></clipPath></defs><g fill="#1890ff" opacity="0.8"><path d="M50,0H94V89H0V50A50,50,0,0,1,50,0Z" stroke="none"/><path d="M 50 1 C 43.38460159301758 1 36.96761322021484 2.29541015625 30.92729949951172 4.850250244140625 C 25.09252166748047 7.318153381347656 19.85216522216797 10.85137176513672 15.35176086425781 15.35176086425781 C 10.85137176513672 19.85216522216797 7.318153381347656 25.09252548217773 4.850250244140625 30.92729949951172 C 2.29541015625 36.96761322021484 1 43.38460159301758 1 50 L 1 88 L 93 88 L 93 1 L 50 1 M 50 0 L 94 0 L 94 89 L 0 89 L 0 50 C 0 22.38576507568359 22.38576507568359 0 50 0 Z" stroke="none" fill="rgba(245,245,245,0.45)"/></g><g transform="translate(36 31)"><rect width="24" height="24" fill="none"/><g clip-path="url(#a)"><rect width="24" height="24" fill="none"/><path d="M10.5,21h-.049a10.58,10.58,0,0,1-4.685-1.125H2.2a1.071,1.071,0,0,1-.762-.316,1.082,1.082,0,0,1-.316-.762V15.234A10.559,10.559,0,0,1,.8,6.45,10.479,10.479,0,0,1,10.453,0H10.5a10.505,10.505,0,0,1,7.4,17.965A10.373,10.373,0,0,1,14.55,20.2,10.513,10.513,0,0,1,10.5,21Zm-.04-19.219A8.7,8.7,0,0,0,1.781,10.54,8.756,8.756,0,0,0,2.8,14.6l.105.2v3.3h3.3l.2.105a8.74,8.74,0,0,0,4.057,1.02h.04a8.719,8.719,0,1,0,0-17.438Zm4.725,9.844a1.125,1.125,0,0,1-.8-1.921,1.126,1.126,0,0,1,1.591,0,1.125,1.125,0,0,1-.8,1.921Zm-4.687,0A1.125,1.125,0,0,1,9.7,9.7a1.126,1.126,0,0,1,1.591,0,1.125,1.125,0,0,1-.8,1.921Zm-4.688,0a1.132,1.132,0,0,1-.795-.329,1.125,1.125,0,1,1,1.59,0A1.133,1.133,0,0,1,5.812,11.625Z" transform="translate(1.5 1.5)" fill="#fff"/></g></g></svg>