<svg xmlns="http://www.w3.org/2000/svg" xmlns:xlink="http://www.w3.org/1999/xlink" width="178.256" height="167.467" viewBox="0 0 178.256 167.467"><defs><clipPath id="a"><rect width="178.256" height="167.467" fill="none"/></clipPath></defs><g clip-path="url(#a)"><path d="M27.281,117.143c1.923-1.11,1.92-2.911-.009-4.024a7.7,7.7,0,0,0-6.969,0c-1.922,1.109-1.919,2.911.008,4.024a7.7,7.7,0,0,0,6.97,0" transform="translate(-10.688 -63.62)" fill="#d1d8dc" opacity="0.2"/><path d="M28.494,84.389a5.668,5.668,0,1,1-5.668-5.668,5.668,5.668,0,0,1,5.668,5.668" transform="translate(-9.722 -44.603)" fill="#e5e8eb"/><path d="M378.976,264.117c4.338-2.5,4.331-6.568-.02-9.078a17.374,17.374,0,0,0-15.722-.011c-4.337,2.5-4.329,6.567.017,9.079a17.383,17.383,0,0,0,15.725.01" transform="translate(-203.968 -143.437)" fill="#d1d8dc" opacity="0.2"/><path d="M382.223,216.4v-3.74c-.008-1.641-1.1-3.28-3.268-4.533a17.371,17.371,0,0,0-15.722-.011c-2.172,1.254-3.254,2.9-3.247,4.545h0V216.4h0c.007,1.64,1.095,3.281,3.265,4.533a17.379,17.379,0,0,0,15.725.011c2.172-1.254,3.254-2.9,3.247-4.543" transform="translate(-203.968 -116.857)" fill="#10bf1c"/><path d="M378.976,217.206c4.338-2.5,4.331-6.568-.02-9.078a17.371,17.371,0,0,0-15.722-.011c-4.337,2.5-4.329,6.567.017,9.078a17.382,17.382,0,0,0,15.725.01" transform="translate(-203.968 -116.857)" fill="#50ff44"/><path d="M376.251,219.723a10.247,10.247,0,0,1-5-1.195,3.341,3.341,0,0,1-.011-6.278,11.057,11.057,0,0,1,9.99.007,3.339,3.339,0,0,1,.012,6.276,10.217,10.217,0,0,1-4.987,1.19m-.033-7.793a9.28,9.28,0,0,0-4.542,1.085,2.483,2.483,0,0,0,.011,4.749,10.073,10.073,0,0,0,9.11.005,2.482,2.482,0,0,0-.012-4.747,9.328,9.328,0,0,0-4.567-1.092" transform="translate(-209.1 -119.587)" fill="#10bf1c"/><path d="M376.251,211.585a10.247,10.247,0,0,1-5-1.2,3.341,3.341,0,0,1-.011-6.278,11.056,11.056,0,0,1,9.99.007,3.339,3.339,0,0,1,.012,6.276,10.213,10.213,0,0,1-4.987,1.19m-.033-7.794a9.276,9.276,0,0,0-4.542,1.085,2.483,2.483,0,0,0,.011,4.749,10.072,10.072,0,0,0,9.11.005,2.482,2.482,0,0,0-.012-4.747,9.333,9.333,0,0,0-4.567-1.092" transform="translate(-209.1 -114.976)" fill="#fff"/><path d="M179.955,352.19c1.021,2.217.032,4.679-2.984,6.421a17.825,17.825,0,0,1-11.122,1.723l-2.535,5.441c7.09,1.089,14.972.027,20.542-3.189s7.409-7.767,5.524-11.86Z" transform="translate(-92.533 -198.721)" fill="#e5e8eb" opacity="0.1"/><path d="M148.3,337.346c4.5-2.6,11.791-2.6,16.282-.011a6.952,6.952,0,0,1,2.965,2.98l9.425-1.464a12.87,12.87,0,0,0-5.489-5.5c-8.293-4.788-21.755-4.779-30.068.02Z" transform="translate(-80.127 -186.845)" fill="#d1d8dc" opacity="0.2"/><path d="M140.118,351.459c-4.491-2.593-4.483-6.8.019-9.4l-6.885-3.975c-8.313,4.8-8.328,12.572-.035,17.359a27.543,27.543,0,0,0,9.525,3.169l2.536-5.441a14.917,14.917,0,0,1-5.16-1.712" transform="translate(-71.962 -191.559)" fill="#f5f5f5" opacity="0.3"/><path d="M174.5,9.437c0,3.217-2.264,4.518-5.056,2.906A11.163,11.163,0,0,1,164.391,3.6c0-3.217,2.264-4.518,5.056-2.906A11.163,11.163,0,0,1,174.5,9.437" transform="translate(-93.144 0)" fill="#10bf1c"/><path d="M236.146,41.043l-32.216-18.6a3.488,3.488,0,0,1-1.456-2.782c0-1.072.652-1.565,1.456-1.1l32.216,18.6a3.488,3.488,0,0,1,1.457,2.783c0,1.072-.652,1.565-1.457,1.1m-7.983,1.216h0a3.487,3.487,0,0,0-1.457-2.782L203.93,26.327c-.8-.464-1.456.029-1.456,1.1a3.489,3.489,0,0,0,1.456,2.783l22.776,13.15c.8.464,1.457-.029,1.457-1.1m4.251,8.28L204.16,34.226c-.931-.537-1.686-.1-1.686.969a3.722,3.722,0,0,0,1.686,2.915l28.254,16.312c.931.538,1.685.1,1.685-.968a3.721,3.721,0,0,0-1.685-2.915" transform="translate(-114.722 -10.417)" fill="#e5e8eb" opacity="0.2"/><path d="M2.182,274.47c-2.9-1.677-2.91-4.4-.012-6.075a11.645,11.645,0,0,1,10.521.007c2.9,1.676,2.909,4.4.012,6.074a11.643,11.643,0,0,1-10.521-.007m8.034-4.639a6.16,6.16,0,0,0-5.566,0c-1.533.885-1.53,2.327.007,3.214a6.161,6.161,0,0,0,5.566,0c1.533-.885,1.53-2.327-.007-3.214" transform="translate(0 -151.364)" fill="#d1d8dc" opacity="0.2"/><path d="M186.281,98.607l-78.35-45.235c-2.286-1.32-4.355-1.448-5.855-.589h0l-6.041,3.488.007.011c-1.539.845-2.5,2.7-2.5,5.376v44.088c0,5.273,3.71,11.689,8.287,14.331l78.35,45.235c2.243,1.3,4.271,1.43,5.763.623l.009.015,6.243-3.6,0-.009c1.468-.875,2.379-2.7,2.379-5.31V112.938c0-5.273-3.71-11.689-8.287-14.331" transform="translate(-53 -29.598)" fill="#e5e8eb"/><path d="M180.177,106.736,101.827,61.5c-4.577-2.642-8.287-.511-8.287,4.762v44.088c0,5.272,3.71,11.688,8.287,14.331l78.35,45.235c4.577,2.642,8.287.511,8.287-4.762V121.068c0-5.272-3.71-11.689-8.287-14.331" transform="translate(-53 -34.204)" fill="#f5f5f5"/><path d="M188.465,121.047c-.01-5.261-3.7-11.65-8.266-14.3l-.019-.013L101.83,61.5l-.019-.009c-4.562-2.622-8.256-.5-8.266,4.75a17.977,17.977,0,0,0,4.143,10.568h0l-.016.015L135.145,123.7c3.236,4.048,8.483,7.078,11.72,6.766l37.575-3.616-.016-.029h0c2.406-.267,4.035-2.323,4.041-5.779" transform="translate(-53.003 -34.206)" fill="#a9dfff"/><path d="M189.54,98.607,111.19,53.372c-2.286-1.32-4.355-1.448-5.854-.589h0l-6.041,3.488.007.011c1.494-.82,3.533-.687,5.787.614l78.35,45.236c4.577,2.642,8.287,9.058,8.287,14.331l6.1-3.523c0-5.273-3.71-11.689-8.287-14.331" transform="translate(-56.26 -29.598)" fill="#1890ff"/><path d="M279.149,270.2,267,263.186a3.487,3.487,0,0,1-1.456-2.782c0-1.072.652-1.565,1.456-1.1l12.149,7.015a3.486,3.486,0,0,1,1.457,2.782c0,1.072-.652,1.565-1.457,1.1m-3.459,3.828h0a3.487,3.487,0,0,0-1.456-2.782L267,267.069c-.8-.464-1.456.029-1.456,1.1A3.488,3.488,0,0,0,267,270.953l7.234,4.176c.8.464,1.456-.029,1.456-1.1" transform="translate(-150.457 -146.822)" fill="#d1d8dc"/><path d="M193,286.954l-71.154-41.081c-1.079-.623-.944-1.711.3-2.43a4.676,4.676,0,0,1,4.207-.174l71.154,41.081c1.078.622.943,1.71-.3,2.429a4.676,4.676,0,0,1-4.207.174" transform="translate(-68.627 -137.598)" fill="#d1d8dc" opacity="0.2"/><path d="M62.073,242.9l-9.153,5.284,31.044,17.923,9.153-5.284Z" transform="translate(-29.985 -137.63)" fill="#d1d8dc" opacity="0.2"/><path d="M72.557,144.895c-5.342-3.084-10.178-3.385-13.683-1.38h0l-9.163,5.29h0c-3.515,2.011-5.691,6.341-5.691,12.514,0,12.327,8.674,27.328,19.374,33.505,5.342,3.084,10.178,3.385,13.683,1.38h0l.013-.007.007,0,9.143-5.279h0c3.515-2.011,5.691-6.341,5.691-12.514,0-12.327-8.674-27.328-19.374-33.505" transform="translate(-24.942 -80.595)" fill="#10bf1c"/><path d="M82.769,190.6c0,12.327-8.674,17.311-19.374,11.134S44.02,180.56,44.02,168.233s8.674-17.311,19.374-11.134S82.769,178.278,82.769,190.6" transform="translate(-24.942 -87.51)" fill="#50ff44"/><path d="M63.606,200.364c2.69,4.982,6.567,9.393,10.886,11.886s8.2,2.561,10.886.684A26.768,26.768,0,0,0,76.61,199.1c2.527.445,4.352-1.241,4.352-4.5a14.285,14.285,0,0,0-6.47-11.189c-3.573-2.063-6.47-.4-6.47,3.718a14.411,14.411,0,0,0,4.353,9.524c-4.116-1.492-7.444-.011-8.768,3.706" transform="translate(-36.039 -103.422)" fill="#fff"/><path d="M68.523,203.837c-8.519-4.919-15.451-16.906-15.451-26.72s6.932-13.8,15.451-8.879,15.451,16.906,15.451,26.72-6.931,13.8-15.451,8.879m0-34.72c-8.1-4.676-14.687-.889-14.687,8.44s6.589,20.724,14.687,25.4,14.687.889,14.687-8.44-6.589-20.724-14.687-25.4" transform="translate(-30.071 -94.129)" fill="#fff"/></g></svg>