<svg xmlns="http://www.w3.org/2000/svg" xmlns:xlink="http://www.w3.org/1999/xlink" width="1366" height="784" viewBox="0 0 1366 784"><defs><clipPath id="a"><rect width="16" height="16" fill="#fff"/></clipPath><clipPath id="c"><rect width="24" height="24" fill="none"/></clipPath><clipPath id="d"><rect width="14" height="14" transform="translate(0)" fill="none"/></clipPath><clipPath id="e"><rect width="14" height="14" fill="none"/></clipPath></defs><g transform="translate(0 -832)"><rect width="1366" height="784" transform="translate(0 832)" fill="#243c67"/><g transform="translate(0 32)"><path d="M30,0H1058a30,30,0,0,1,30,30V538a30,30,0,0,1-30,30H30A30,30,0,0,1,0,538V30A30,30,0,0,1,30,0Z" transform="translate(139 896)" fill="#fff" opacity="0.1"/><g transform="translate(728 1136)"><g fill="none" stroke="#fff" stroke-width="1" opacity="0.4"><rect width="424" height="56" rx="28" stroke="none"/><rect x="0.5" y="0.5" width="423" height="55" rx="27.5" fill="none"/></g><g transform="translate(16 18)" opacity="0.8"><text fill="#fff" font-size="16" font-family="SegoeUIBlack, Segoe UI"><tspan x="0" y="17">78 950</tspan></text></g></g><g transform="translate(251 1344)"><path d="M24.518,0H841.482C855.023,0,866,11.864,866,26.5S855.023,53,841.482,53H24.518C10.977,53,0,41.136,0,26.5S10.977,0,24.518,0Z" transform="translate(0)" fill="#1890ff" opacity="0.1"/><text transform="translate(433 32)" fill="#fff" font-size="16" font-family="SegoeUI, Segoe UI" opacity="0.7"><tspan x="-56.211" y="0">Получить офер</tspan></text></g><text transform="translate(216 967)" fill="#e7ebfd" font-size="24" font-family="SegoeUI-Bold, Segoe UI" font-weight="700"><tspan x="0" y="0">Отправляете</tspan></text><text transform="translate(728 967)" fill="#e7ebfd" font-size="24" font-family="SegoeUI-Bold, Segoe UI" font-weight="700"><tspan x="0" y="0">Получаете</tspan></text><g transform="translate(216 1136)"><g fill="none" stroke="#fff" stroke-width="1" opacity="0.4"><rect width="424" height="56" rx="28" stroke="none"/><rect x="0.5" y="0.5" width="423" height="55" rx="27.5" fill="none"/></g><g transform="translate(16 18)" opacity="0.8"><text fill="#fff" font-size="16" font-family="SegoeUIBlack, Segoe UI"><tspan x="0" y="17">100 000</tspan></text></g></g><g transform="translate(216 1224)"><g fill="none" stroke="#fff" stroke-width="1" opacity="0.4"><rect width="424" height="56" rx="28" stroke="none"/><rect x="0.5" y="0.5" width="423" height="55" rx="27.5" fill="none"/></g><g transform="translate(16 18)" opacity="0.8"><text fill="#fff" font-size="16" font-family="SegoeUIBlack, Segoe UI"><tspan x="0" y="17">78,95</tspan></text></g></g><g transform="translate(220 1200)" opacity="0.7"><g transform="translate(0 5)" fill="#ff4d4f" stroke="#fff" stroke-width="1"><circle cx="4" cy="4" r="4" stroke="none"/><circle cx="4" cy="4" r="3.5" fill="none"/></g><text transform="translate(14)" fill="#fff" font-size="12" font-family="SegoeUI, Segoe UI"><tspan x="0" y="13">Сумма должна быть больше </tspan><tspan y="13" font-family="SegoeUIBlack, Segoe UI">15 000 000 </tspan><tspan y="13">RUB</tspan></text></g><g transform="translate(732 1200)" opacity="0.7"><g transform="translate(0 5)" fill="#ff4d4f" stroke="#fff" stroke-width="1"><circle cx="4" cy="4" r="4" stroke="none"/><circle cx="4" cy="4" r="3.5" fill="none"/></g><text transform="translate(14)" fill="#fff" font-size="12" font-family="SegoeUI, Segoe UI"><tspan x="0" y="13">Сумма должна быть больше </tspan><tspan y="13" font-family="SegoeUIBlack, Segoe UI">200 000</tspan><tspan y="13" xml:space="preserve"> USDT</tspan></text></g><g transform="translate(220 1288)" opacity="0.7"><g transform="translate(0 5)" fill="#ff4d4f" stroke="#fff" stroke-width="1"><circle cx="4" cy="4" r="4" stroke="none"/><circle cx="4" cy="4" r="3.5" fill="none"/></g><text transform="translate(14)" fill="#fff" font-size="12" font-family="SegoeUI, Segoe UI"><tspan x="0" y="13">Сумма должна быть больше </tspan><tspan y="13" font-family="SegoeUIBlack, Segoe UI">15 000 000</tspan><tspan y="13" xml:space="preserve"> RUB</tspan></text></g><g transform="translate(728 1232)"><text transform="translate(20 15)" fill="#fff" font-size="14" font-family="SegoeUIBlack, Segoe UI" opacity="0.8"><tspan x="0" y="0">1</tspan><tspan y="0" xml:space="preserve" font-family="SegoeUI, Segoe UI"> RUB = </tspan><tspan y="0">78,95</tspan><tspan y="0" xml:space="preserve" font-family="SegoeUI, Segoe UI"> USDT</tspan></text><g transform="translate(0 2)"><rect width="16" height="16" fill="none"/><g clip-path="url(#a)"><rect width="16" height="16" fill="none"/><path d="M11.625,12.437h-.938a.124.124,0,0,1-.125-.122,4.689,4.689,0,0,0-9.374,0,.124.124,0,0,1-.125.122H.125a.125.125,0,0,1-.049-.009A.141.141,0,0,1,.036,12.4a.115.115,0,0,1-.027-.042A.125.125,0,0,1,0,12.309,5.887,5.887,0,0,1,3.587,7.025L3.6,7.02l.006,0a3.876,3.876,0,1,1,4.538,0l.009,0,.009,0a5.872,5.872,0,0,1,3.587,5.286.125.125,0,0,1-.009.049.13.13,0,0,1-.027.042.141.141,0,0,1-.04.028A.129.129,0,0,1,11.625,12.437ZM5.875,1.187a2.689,2.689,0,1,0,1.9.788A2.67,2.67,0,0,0,5.875,1.187Z" transform="translate(2.125 1.781)" fill="#fff"/></g></g></g><g transform="translate(728 1261)"><text transform="translate(20 15)" fill="#fff" font-size="14" font-family="SegoeUI, Segoe UI" opacity="0.8"><tspan x="0" y="0">Резерв: </tspan><tspan y="0" font-family="SegoeUIBlack, Segoe UI">12 564,55</tspan><tspan y="0" xml:space="preserve"> USDT</tspan></text><g transform="translate(0 2)"><rect width="16" height="16" fill="none"/><g clip-path="url(#a)"><rect width="16" height="16" fill="none"/><path d="M11.625,12.437h-.938a.124.124,0,0,1-.125-.122,4.689,4.689,0,0,0-9.374,0,.124.124,0,0,1-.125.122H.125a.125.125,0,0,1-.049-.009A.141.141,0,0,1,.036,12.4a.115.115,0,0,1-.027-.042A.125.125,0,0,1,0,12.309,5.887,5.887,0,0,1,3.587,7.025L3.6,7.02l.006,0a3.876,3.876,0,1,1,4.538,0l.009,0,.009,0a5.872,5.872,0,0,1,3.587,5.286.125.125,0,0,1-.009.049.13.13,0,0,1-.027.042.141.141,0,0,1-.04.028A.129.129,0,0,1,11.625,12.437ZM5.875,1.187a2.689,2.689,0,1,0,1.9.788A2.67,2.67,0,0,0,5.875,1.187Z" transform="translate(2.125 1.781)" fill="#fff"/></g></g></g><g transform="translate(671 1077)"><rect width="24" height="24" fill="none"/><g clip-path="url(#c)"><rect width="24" height="24" fill="none"/><path d="M18.563,15.75H17.156a.187.187,0,0,1-.187-.187V.187A.187.187,0,0,1,17.156,0h1.407a.187.187,0,0,1,.187.187V15.563A.187.187,0,0,1,18.563,15.75Zm-16.969,0H.187A.187.187,0,0,1,0,15.563V.187A.187.187,0,0,1,.187,0H1.594a.187.187,0,0,1,.187.187V15.563A.187.187,0,0,1,1.594,15.75Zm4.467-5.3a.166.166,0,0,1-.1-.036L2.969,8.053A.167.167,0,0,1,2.9,7.921a.172.172,0,0,1,.017-.074.168.168,0,0,1,.048-.058L5.96,5.426a.166.166,0,0,1,.1-.036.171.171,0,0,1,.171.17V7.031h6.281V5.468a.169.169,0,0,1,.026-.091.159.159,0,0,1,.069-.062.163.163,0,0,1,.073-.017H12.7a.171.171,0,0,1,.086.035l2.991,2.36a.17.17,0,0,1,0,.267l-2.989,2.363a.164.164,0,0,1-.1.036.175.175,0,0,1-.118-.047.166.166,0,0,1-.053-.122V8.718H6.232v1.563A.169.169,0,0,1,6.061,10.452Z" transform="translate(2.625 4.125)" fill="#fff"/></g></g><g transform="translate(216 1064)"><g fill="none" stroke="#fff" stroke-width="1" opacity="0.4"><rect width="425" height="56" rx="28" stroke="none"/><rect x="0.5" y="0.5" width="424" height="55" rx="27.5" fill="none"/></g><g transform="translate(16 16)"><text transform="translate(32)" fill="#fff" font-size="16" font-family="SegoeUI-Bold, Segoe UI" font-weight="700"><tspan x="0" y="17">Сбербанк</tspan></text><g transform="translate(380 5)"><rect width="14" height="14" transform="translate(0)" fill="none"/><g clip-path="url(#d)"><rect width="14" height="14" transform="translate(0)" fill="none"/><path d="M10.281,0H9.256A.22.22,0,0,0,9.08.09L5.2,5.444,1.311.09A.22.22,0,0,0,1.135,0H.11A.11.11,0,0,0,.021.174L4.841,6.82a.436.436,0,0,0,.707,0L10.369.174A.109.109,0,0,0,10.281,0Z" transform="translate(1.805 3.5)" fill="#fff"/></g></g><circle cx="12" cy="12" r="12" fill="#06af47"/></g></g><g transform="translate(728 1064)"><g fill="none" stroke="#fff" stroke-width="1" opacity="0.4"><rect width="424" height="56" rx="28" stroke="none"/><rect x="0.5" y="0.5" width="423" height="55" rx="27.5" fill="none"/></g><g transform="translate(16 16)"><text transform="translate(32)" fill="#fff" font-size="16" font-family="SegoeUI-Bold, Segoe UI" font-weight="700"><tspan x="0" y="17">USDT </tspan><tspan y="17" font-family="SegoeUI, Segoe UI" font-weight="400">Tether TRC-20</tspan></text><g transform="translate(379 5)"><rect width="14" height="14" fill="none"/><g clip-path="url(#e)"><rect width="14" height="14" fill="none"/><path d="M10.281,0H9.256A.22.22,0,0,0,9.08.09L5.2,5.444,1.311.09A.22.22,0,0,0,1.135,0H.11A.11.11,0,0,0,.021.174L4.841,6.82a.436.436,0,0,0,.707,0L10.369.174A.109.109,0,0,0,10.281,0Z" transform="translate(1.805 3.5)" fill="#fff"/></g></g><circle cx="12" cy="12" r="12" fill="#07ce98"/></g></g><g transform="translate(215 1026)"><g fill="none" stroke="#1890ff" stroke-width="1"><rect width="126" height="22" rx="10" stroke="none"/><rect x="0.5" y="0.5" width="125" height="21" rx="9.5" fill="none"/></g><text transform="translate(8 16)" fill="#fff" font-size="14" font-family="SegoeUI, Segoe UI"><tspan x="0" y="0">Cashless payment</tspan></text></g><g transform="translate(728 1026)"><g fill="none" stroke="#1890ff" stroke-width="1"><rect width="126" height="22" rx="10" stroke="none"/><rect x="0.5" y="0.5" width="125" height="21" rx="9.5" fill="none"/></g><text transform="translate(8 16)" fill="#fff" font-size="14" font-family="SegoeUI, Segoe UI"><tspan x="0" y="0">Cashless payment</tspan></text></g><g transform="translate(350 1026)"><g fill="none" stroke="#e7ebfd" stroke-width="1" opacity="0.3"><rect width="58" height="22" rx="10" stroke="none"/><rect x="0.5" y="0.5" width="57" height="21" rx="9.5" fill="none"/></g><text transform="translate(8 16)" fill="#fff" font-size="14" font-family="SegoeUI, Segoe UI" opacity="0.7"><tspan x="0" y="0">Crypto</tspan></text></g><g transform="translate(862 1026)"><g fill="none" stroke="#e7ebfd" stroke-width="1" opacity="0.3"><rect width="58" height="22" rx="10" stroke="none"/><rect x="0.5" y="0.5" width="57" height="21" rx="9.5" fill="none"/></g><text transform="translate(8 16)" fill="#fff" font-size="14" font-family="SegoeUI, Segoe UI" opacity="0.7"><tspan x="0" y="0">Crypto</tspan></text></g><g transform="translate(416 1026)"><g fill="none" stroke="#e7ebfd" stroke-width="1" opacity="0.3"><rect width="54" height="22" rx="10" stroke="none"/><rect x="0.5" y="0.5" width="53" height="21" rx="9.5" fill="none"/></g><text transform="translate(8 16)" fill="#fff" font-size="14" font-family="SegoeUI, Segoe UI" opacity="0.7"><tspan x="0" y="0">Stable</tspan></text></g><g transform="translate(928 1026)"><g fill="none" stroke="#e7ebfd" stroke-width="1" opacity="0.3"><rect width="54" height="22" rx="10" stroke="none"/><rect x="0.5" y="0.5" width="53" height="21" rx="9.5" fill="none"/></g><text transform="translate(8 16)" fill="#fff" font-size="14" font-family="SegoeUI, Segoe UI" opacity="0.7"><tspan x="0" y="0">Stable</tspan></text></g></g></g></svg>