<svg xmlns="http://www.w3.org/2000/svg" xmlns:xlink="http://www.w3.org/1999/xlink" width="1213.274" height="694.716" viewBox="0 0 1213.274 694.716"><defs><clipPath id="a"><rect width="1213.274" height="694.716" fill="#1890ff"/></clipPath></defs><g transform="translate(0 0.002)" opacity="0.1"><g transform="translate(0 -0.002)" clip-path="url(#a)"><path d="M1990.746,183.071c-3.36-2.535-6.806-3.438-10.531-2.327-3.047-2.613-5.5-5.469-8.585-7.223-9.046-5.139-18.482-9.515-28.683-11.919-6.233-1.467-12.536-2.413-18.856-.7.165,2.986,4.236,4.211,1.875,7.744a39.982,39.982,0,0,0-5.156-2.422c-3.108-.973-.278-3.742-1.6-5.33-9.4,3.776-18.978,1.493-28.284,2.084-3.577-7.952-6.39-9.628-14.567-8.708-1.936.217-3.811.937-5.738,1.059-2.353.148-5.07.625-7.015-.313a112.442,112.442,0,0,1-13.769-8.125c-3.837-2.578-9.593-2.214-12.744,1.623v-4.249a.986.986,0,0,0-.919-.98c-4.822-.338-9.436-.753-14.065-.883-1.615-.043-3.82.227-4.74,1.259-1.024,1.145-.894,3.325-1.042,4.028-2.839,1.111-5.1,2.005-8.482,3.342-4.291-.426-9.7-.959-15.419-1.523a3.4,3.4,0,0,0-3.439,1.989c-.574,1.28-1.165,2.6-1.759,3.926-3.394-1.736-10.548.165-6.632-7.44-1.545-1.276-3.03-2.5-4.436-3.655,1.05-5.053.712-6.19-3.455-7.379a74.855,74.855,0,0,0-10.73-1.806c-1.415-.191-3.377-.565-4.219.165-1.068.911-1.259,2.865-1.893,4.532-5.374.1-10.852,1.215-15.088-3.56a3.862,3.862,0,0,0-2.439-.721c-8.812-.451-17.632-.955-26.175,2.057-2.092.738-4.2,1.45-6.3,2.18,5.044-5.435,9.879-10.713,16.885-13.074,2.683-.911,3.664-2.83,2.457-5.634a7.988,7.988,0,0,0-3.88-4.593c-5.687-2.986-11.321-3.907-17.537-1.675-1.406-4.653-4.8-3.2-7.917-2.413.2-1.146.356-2.067.582-3.369a1.11,1.11,0,0,0-1.406-1.259c-5.782,1.658-12.571-.929-14.645,7.544-1.048-.117-2.041-.225-3.031-.334a1.508,1.508,0,0,0-1.661,1.3c-.052.4-.107.817-.17,1.281-4.922.478-9.931.695-14.854,1.493-8,1.285-15.436,4.323-22.745,7.753-4.679,2.2-4.818,2.109-4.418,8.255-6.051,1.068-12.171,2.153-18.439,3.273a1.6,1.6,0,0,0-1.259,2.031c1.675,5.739,6.954,7.189,11.346,9.628-4.045-.669-7.97-.443-11.677-3.09-3.13-2.234-6.6.133-10.275,1.023a.544.544,0,0,0-.258.9c1.087,1.146,1.947,2.049,3.1,3.264h-2.917a1.32,1.32,0,0,0-.967,2.218c.678.731,1.321,1.418,2.052,2.2-6.65-.817-7.18-1.267-6.989-6.425a9.378,9.378,0,0,0-.565-4.727.837.837,0,0,0-1.564.293c-.317,3.157-3.852,4.6-4.764,7.23a35.626,35.626,0,0,1,2.717,12.988c0,.833.087,2.248.486,2.388,3.977,1.415,2.492,4.93,2.622,7.43.26,4.967-4.123,7.284-7.214,10.088-2.2,2-4.723.538-7.8-.781,7.484.182,9.107-5.009,10.9-9.723a5.044,5.044,0,0,0-.7-4.506,8.715,8.715,0,0,1-1.875-8.49c.251-.947.312-2.439-.243-3.022-2.951-3.134-1.571-6.32-.634-9.653a8.674,8.674,0,0,0,.131-2.858,2.171,2.171,0,0,0-1.524-1.939c-1.577-.487-2.926-.9-4.284-1.314,1.059-3.039,1.059-3.039-3.62-3.143-2.518,4.523-3.291,10.045-8.135,13.213-1.137.746-2.509,3.4-2.292,3.6,3.1,2.882-.608,6.294,1.441,8.526q3.438,2.89,6.875,5.8l-.7,1.2a61.8,61.8,0,0,1-6.216-2.421c-5.825-3-11.841-5.209-18.482-5.643-1.736-.113-3.394-1.372-5.1-2.066-1.789-.721-3.525-2.431-6.007-.521,2.969,2.379,5.573,4.463,8.377,6.711-1.1,1.354-1.762,2.161-2.066,2.526-2.3-.53-4.237-1.459-6.068-1.276-2.083.2-4.028,1.484-6.094,2.117s-4.314-1.762-6.45.695c-2.327,2.683-2.9-2.292-5.157-1.475-6.719,2.414-14.324,3.255-18.725,10.634a1.464,1.464,0,0,1-2.418.152,4.791,4.791,0,0,1-2.451-1.54,1.461,1.461,0,0,1-.652-2.457l2.057-2.032a1.494,1.494,0,0,0,.044-2.049,6.256,6.256,0,0,0-5.7-1.883,1.484,1.484,0,0,0-1.259,1.033c-1.25,4.21,1.944,8.247,1.085,12.605a1.468,1.468,0,0,1-1.945,1.06l-3.819-1.4a3.733,3.733,0,0,0-3.681.582c-2.578,2.145-6.832,3.134-4.454,8.933-3.125-.408-5.834-.764-8.768-1.146a1.781,1.781,0,0,0-1.649,2.847l.017.018c.652.843,1.356,1.643,2.017,2.468l-.7.976c-2.719-1.03-6.22-1.348-7.969-3.262-2.083-2.274-2.674-5.912-4.306-9.932-.582-.485-2.144-1.779-3.707-3.081,2.639.027,4.775.973,7,1.606a77.346,77.346,0,0,0,10.036,2.387c3.327.473,6.031-.221,8.112-2.218a5.01,5.01,0,0,0-1.029-7.913c-10.969-6.387-22.5-11.314-35.974-11.6l1.532-1.434a2.051,2.051,0,0,0-.518-3.345,15.6,15.6,0,0,0-4.391-1.6,62.615,62.615,0,0,0-10.3-.278c-2.6.053-5.365-.1-7.752.738-5.409,1.893-10.956,3.8-15.87,6.685-8.629,5.061-15.14,12.744-20.4,20.983a57.441,57.441,0,0,1-14.081,14.68c-4.488,3.438-9.384,6.346-14.706,9.9.938,5.313,1.676,10.522,2.8,15.652.946,4.245,2.917,5.808,6.65,5.313a20.89,20.89,0,0,0,6.016-2.179c2.274-1.094,4.419-2.466,6.954-3.916,1.267,2.918,2.24,5.47,3.464,7.892,1.207,2.4,2.665,4.679,4.046,7.067-1.234.592-2.222,1.065-3.031,1.438a3,3,0,0,0-1.733,2.423,21.787,21.787,0,0,0-.174,3.021.809.809,0,0,0,1.558.268,2.209,2.209,0,0,1,.932-1.247c2.179-.929,4.644-1.19,6.884-2.031,2.057-.773,3.968-1.962,7.257-3.646.573-2.4.877-6.389,2.5-9.74,1.4-2.887,3.806-5.29,6.142-8.05a2.293,2.293,0,0,0,.252-2.6,8.327,8.327,0,0,0-2.462-3.192c-3.42-2.092-2.96-4.774-2.135-7.822,1.2-4.488,4.115-7.423,8.126-9.506,2.535-1.319,4.74-2.743,4.7-6.294a6.481,6.481,0,0,1,5.33-6.554c3.152-.591,6.459.347,8.039,4.531-3.906,3.464-7.96,6.927-11.815,10.591a5.705,5.705,0,0,0-1.814,3.785c.182,3.62.86,7.205,1.294,10.427,6.346,5.468,13.1,3.715,19.706,1.415a11.754,11.754,0,0,1,1.736-.469,6.887,6.887,0,0,1,.816-.122,6.3,6.3,0,0,1,1.276-.026c.156.008.312.026.469.043h.009a3.609,3.609,0,0,1,.408.078,4.491,4.491,0,0,1,.747.2,1.8,1.8,0,0,1,.226.078,6.954,6.954,0,0,1,.694.3c.087.053.174.1.26.148.165.1.338.2.5.312s.339.234.5.364.329.278.494.426h.009c-.087.095-.182.191-.278.287-.147.147-.286.286-.434.417s-.286.252-.434.372a5.382,5.382,0,0,1-.59.443c-.208.139-.408.269-.616.391s-.417.225-.634.329-.426.191-.642.278q-.417.156-.834.286c-.16.051-.32.093-.488.135-.481.12-.967.218-1.458.29-.218.032-.442.063-.667.079-.3.035-.6.061-.912.078s-.616.044-.929.052l-.946.026c-.321.009-.642.009-.963.017-3.056.026-6.06,1.815-9.159,2.518-2.6.589-1.617,2.566-1.979,4.058l-.809,1.116c-3.29,1.71-5.972,4.245-5.608,8.038.582,6.147-3.629,9.055-7.041,12.683-7.683-4.87-12.753,1.181-19.038,3.689-2.04-1.71-4.158-3.6-8.091-2.274-.078.026-.156.051-.234.069-4.02,1.267-3.3-3.591-3.3-3.591l1.792-.863s.6-3.246.833-4.983a5.428,5.428,0,0,1-3.29.156c.594-.716,1.481-1.726,2.242-2.614a.674.674,0,0,0-.37-1.1l-1.941-.421c.1-.977.2-1.9.314-2.971a1.014,1.014,0,0,0-1.446-1.017c-2.58,1.24-4.708,2.264-6.7,3.215-2.413,5.6,3.863,10.435.573,16.121a72.6,72.6,0,0,0-7.153,2.023c-2.049.782-4.844,1.562-5.687,3.195-2.335,4.488-5.191,7.83-10.261,9.159-.99.26-1.658,1.823-2.448,2.8-3.42,4.211-6.78,5.409-10.635,3.837-.3-.121-.738.061-1.372.13.156,1.4.3,2.752.46,4.124-3.664.382-6.988.737-10.322,1.094-.165.477-.339.946-.512,1.424,1.094.973,2.031,2.413,3.317,2.856,8.629,2.951,11.3,10.713,9.141,17.962-.842,2.856-2.275,4.453-5.548,4.176-4.506-.374-9.141.06-13.543-.79-3.542-.686-5.8.373-7.457,2.2,0,4.775.877,9.237-.208,13.17a23.412,23.412,0,0,0,.79,15.843c2.24,0,4.61-.6,6.372.173s2.917,2.935,3.8,3.9c4.054-.746,7.371-1.458,10.722-1.953,3.637-.538,10.513-6.069,10.374-9.437-.313-7.344,4.228-10.913,9.7-13.891a4.761,4.761,0,0,0,2.934-4.462c.278-4.454,2.691-6.615,6.624-5.018,4.436,1.8,7.387.382,10.583-2.17a23.963,23.963,0,0,1,3.811-2.11c3,.7,5.1,1.788,6.233,5.035.772,2.214,3.212,3.985,5.191,5.608,3.5,2.865,7.379,5.269,10.791,8.23,4.454,3.872,4.662,6.928,1.4,11.45-3.195.225-8.247.721-8.247.721l-.287,1.224s2.857,2.18,5.645,3.994a1.491,1.491,0,0,0,2.264-.911c.443-1.894.868-3.43,3.16-4.2,1.814-.616,2.848-3.542,4.158-5.322-.825-2.092-1.554-3.959-2.752-7,1.354.356,2.457.643,3.412.895l.842-1.45a38.072,38.072,0,0,0-8.508-6.98c-4.454-2.483-6.311-6.963-9.48-10.383-1.45-1.554-1.485-4.827.868-6.945,2.656,1.605,6.381,2.543,7.318,4.688,2.413,5.564,7.692,7.248,11.815,10.461,2.656,2.074,5.469,3.759,3.594,7.874-.26.573.339,1.606.686,2.361,1.988,4.349,3.941,8.716,6.068,13a16.735,16.735,0,0,0,2.969,3.985c1.589,1.649,3.629,1.658,5.044,0,1.3-1.528,2.023-3.56,2.995-5.374.764-1.432.694-2.379-.59-3.846-1.8-2.049-2.787-4.8-3.776-6.615,3.4-1.337,6.094-2.4,9.072-3.568,1.259.365,2.865.816,4.488,1.277h.009c1.293-.426,2.578-1.042,3.915-1.511.278-.1.555-.191.842-.269.07-.018.13-.035.191-.052a.817.817,0,0,1,.2-.052,5.37,5.37,0,0,1,.981-.122.309.309,0,0,1-.061-.087c-1.285-1.988-1.528-5.392-1.059-7.614a3.018,3.018,0,0,1,.087-.416,30.773,30.773,0,0,1,3.064-8.325c2.135-3.481,4.966-6.529,7.058-9.185,7.735-1.424,8.872,3.62,10.782,8.039a1.442,1.442,0,0,0,1.9.738c1.6-.7,6.079-.885,7.615-1.553a.942.942,0,0,0,.19-1.615c-1.52-1.146-5.989-2.735-7.753-4.064,5.035-1.58,9.6-3,15.028-4.705-1.849,3.23-3.325,5.8-4.818,8.4a1.661,1.661,0,0,0,.3,2.04c4.8,4.41,12.8,5.66,15.348,12.987-3.516,4.636-8.29,5.825-14.984,3.785a54.839,54.839,0,0,1-6.042-2.318c-4.462-1.962-8.82-1.831-12.891.833l-5.2,3.724a12.337,12.337,0,0,1-5.061,2.162,21.453,21.453,0,0,1-7.657-.243,1.845,1.845,0,0,0-2.205,1.7c-.13,3.542,2.561,6.459,3.1,9.836.92,5.843,5.982,6.043,8.925,7.6,2.752-.937,5.582-2.691,6.354-2.031,4.037,3.447,7.892,3.585,12.354,1.146.963-.53,2.465-.078,4.766-.078-1.771,7.1-3.308,13.49-4.975,19.854-.963,3.664-3.55,5.573-7.257,5.027-4.922-.712-9.706-1.242-14.5.695-.79.312-2.022-.46-3.039-.747-2.7-.772-5.469-1.362-8.065-2.379-3.716-1.458-7.283-3.281-10.956-4.861a10.681,10.681,0,0,0-4.141-1.242c-4.566.121-6.6,2.439-6.928,7.44-.269,4.123-2.517,6.624-4.627,4.905-4.6-3.742-12.267-1.936-15.14-8.751-.469-1.111-3-1.962-4.549-1.918-5.209.156-8.612-2.136-10.782-6.91,1.441-2.683,3.1-5.183,1.537-8.864-1.7-3.985-1.259-4.107-5.018-3.69a67.267,67.267,0,0,1-10.331.356c-9.932-.434-19.559.052-27.971,6.338a9.549,9.549,0,0,1-5.348,1.84c-4.21,0-8.429-.547-11.615-.789-2.882,3.307-4.94,6.858-8,8.889a13.681,13.681,0,0,0-6.346,11.433c-.182,7.049-4.254,11.025-9.61,13.377a15.588,15.588,0,0,0-6.676,5.817c-2.118,3.012-5.391,8.064-7.145,11.3-1.823,3.359-3.481,6.814-5.018,10.313-.478,1.111-.8,3.125-.191,3.724,2.665,2.682,1.346,6.05,2.1,9.011a19.48,19.48,0,0,1-3.933,17.883c.877,2.084,2.379,3.924,2.179,5.556-.451,3.637,1.363,5.66,3.542,8.1,4.419,4.931,9.732,9.211,11.876,15.965.59,1.875,2.483,3.507,4.115,4.844,3.177,2.6,6.737,4.758,9.879,7.4,4.089,3.421,8.2,4.141,13.178,1.92,2.656-1.181,6.433-2.579,8.612-1.554,4.341,2.04,7.77,1.016,11.407-.573,2.231-.964,4.514-1.806,6.832-2.544,7.032-2.24,10.131-2.006,12.77,3.316,1.7,3.421,4.219,4.063,7.414,3.8,1.9-.156,3.785-.6,6.381-1.025,1.485,1.911,4.41,3.968,4.523,6.173.243,4.844-.018,10.14-1.815,14.533-2.179,5.339.269,8,3.82,12.675.79,1.033,1.58,2.084,2.422,3.073,3.681,4.314,5.852,9.324,7.935,14.576,2.587,6.528,1.485,13.569,3.829,20.071.547,1.51-.3,3.864-1.163,5.478-5.738,10.843-8.577,21.643-.477,32.667a10.982,10.982,0,0,1,1.094,2.353c2.5,5.964,4.974,11.729,5.044,18.587a27.88,27.88,0,0,0,4.367,14.758c3.542,5.148,5.408,10.747,7.665,16.3,1.112,2.734,2.145,5.139,1,8.594-1.537,4.653,4.028,9.558,8.412,8.6a93.15,93.15,0,0,1,15.765-2.517c5.834-.252,10.7-2.2,14.4-6.4,3.412-3.855,6.225-8.256,9.237-12.467.868-1.215,1.189-3.047,2.3-3.845,4.983-3.56,6.363-8.534,6.189-14.22-.078-2.519,1.111-3.881,3.316-4.958,5.747-2.821,6.823-4.922,5.773-11.129-.391-2.327-1.606-4.54-1.85-6.867-.2-1.988-.2-4.54.868-6.016,3.542-4.9,7.405-9.558,13-12.466a15.664,15.664,0,0,0,5.1-4.714c1.719-2.379,2.943-22.233,1.5-24.811-2.891-5.183-4.08-10.765-5.625-16.408-1.5-5.478-.426-9.662,1.918-14.012a79.872,79.872,0,0,1,19.186-23.552c7.075-5.9,11.529-13.282,15.062-21.677a56.791,56.791,0,0,1,2.951-6.129c2.579-4.575,4.323-9.228,3.993-14.315a2.388,2.388,0,0,0-2.917-2.144c-6.016,1.345-11.911,2.691-17.823,3.959-4.019.86-7.691-2.092-8.282-6.364a7.2,7.2,0,0,0-1.354-3.828,60.211,60.211,0,0,0-8.169-7.379,15.979,15.979,0,0,1-6.424-8.161,17.289,17.289,0,0,0-3.976-6.286,14.446,14.446,0,0,1-4.315-8.958c-.434-4.532-1.111-8.977-5.2-12.085-1.093-.825-1.588-2.535-2.179-3.915q-4.063-9.559-8-19.178c-.1-.243.208-.659.356-1.058.946.461,1.867.911,2.769,1.354.521-.755,1-1.449,1.693-2.474,1.571,2.648,2.743,4.713,4,6.728,2.509,4.046,4.445,8.708,7.77,11.92,4.193,4.045,6,8.673,7.11,14.046.355,1.728,1.692,3.334,2.821,4.8.764.99,2.474,1.432,2.882,2.474,2.656,6.762,7.683,12.561,8.109,20.236a12.445,12.445,0,0,0,.277,2.2c1.441,6.407,3.447,7.778,9.272,5.252,9.124-3.95,19.42-5.842,26.1-14.341.7-.894,2.361-.981,3.508-1.58,1.3-.66,2.491-1.536,3.785-2.222,5.877-3.1,8.36-9.012,11.676-14.2.712-1.111,1.354-2.275,1.988-3.507a6.933,6.933,0,0,0-2.292-8.968c-1.441-.964-2.83-1.919-4.167-2.934a13.2,13.2,0,0,1-3.247-3.776c-.113-.2-.217-.4-.321-.608a3.14,3.14,0,0,0-4.948-.842c-6.138,5.669-5.7,4.228-11.468,3.586-5.139-7.345-10.721-14.368-13.873-22.746,3.429-2.848,5.738-2.848,8.187-.061,2.856,3.255,5.756,6.485,8.351,9.94,2.309,3.056,5.261,3.629,8.638,2.961a48.882,48.882,0,0,0,5.7-1.875c1.857,3.55,3.255,7.491,7.917,7.8,6.867.46,13.638,2.613,20.635,1.059a46.235,46.235,0,0,1,6.233-.564c3.377,4.132,5.964,8.672,11.928,9.688l-1.8,1.111a1.969,1.969,0,0,0-.443,2.969c1.814,2.084,3.212,3.941,5.061,4.671,1.9.755,4.662-.668,6.824-1.086.695,4.984,1.146,9.94,2.135,14.793a128.668,128.668,0,0,0,3.855,14.359c2.3,6.963,4.878,13.847,7.457,20.714.746,2.014,1.537,4.2,2.96,5.7.833.886,3.88,1.276,4.314.685,2.257-3.029,4.939-6.25,5.7-9.792,1.268-5.842,1.3-11.98,1.615-18.005a7.056,7.056,0,0,1,2.6-5.512c4.02-3.568,7.648-7.579,11.433-11.407,1.823-1.832,3.325-4.367,5.521-5.357a9.152,9.152,0,0,0,5.573-7.579c5.278-1.311,10.122-2.509,14.489-3.594,3.143,4.315,6.32,8.6,9.4,12.962a9.386,9.386,0,0,1,1.606,3.472c.633,3.165,1.119,6.362,1.694,9.94a1.49,1.49,0,0,0,2.006,1.152c2.226-.862,4.374-1.693,6.526-2.524,5.3,6.45,7.171,20.532,4.671,35.064,5.027,2.726,7.579,7.206,8.525,12.58,1.273,7.211,3.905,13.3,10.335,16.965a2.058,2.058,0,0,0,3.046-2.2,41.129,41.129,0,0,1-1.018-6.533,10.87,10.87,0,0,0-4.523-8.769,21.381,21.381,0,0,1-7.709-11.754c-.391-1.441-.981-3.819-1.823-3.985-6.051-1.2-2.7-4.671-1.814-7.232,1.015-2.934,2.6-5.677,4.5-9.7,1.319,1.762,2.135,2.995,3.108,4.1,2.631,2.987,4.818,6.945,8.135,8.595,2.617,1.3,3.881,2.669,3.931,5.137a1.309,1.309,0,0,0,2.1,1.022c3.781-2.91,7.041-5.341,10.051-8.043a10.513,10.513,0,0,0,2.6-5.122c1.068-4.28,1.328-8.716-.9-12.692a147.875,147.875,0,0,0-8.916-14.185c-3.012-4.159-4.019-6.719-1.753-10,2.682-3.9,5.617-7.952,11.772-6.294.407.878.848,1.816,1.378,2.951a.838.838,0,0,0,1.57-.138c.284-1.069.53-2,.785-2.951,6.051-.7,11.025-3.733,16.451-5.443,7.371-2.326,12.952-8.343,16.824-15.4,1.545-2.8,3.3-5.513,4.645-8.412,1.224-2.657,2.648-5.5,2.744-8.291.052-1.372-2.752-2.8-4.176-4.3a5.5,5.5,0,0,1-.729-1.8c1.2-.113,2.2-.209,4.28-.4-3.4-6.285-6.6-12.18-10.062-18.561a43.945,43.945,0,0,1,4.306-5.738c1.841-1.84,4.176-3.177,6.606-4.965-2.561-1.163-4.453-2.613-6.415-2.735-1.936-.122-3.95,1.12-5.816,1.719q-3.164-3.437-5.886-6.389c2.431-2.379,4.575-4.393,6.615-6.52,1.9-2,3.933-3.29,7.206-2.014-1.7,2.517-4.089,4.844-1.276,8.039,1.554-.668,3.091-1.415,4.7-2a23.22,23.22,0,0,1,4.87-1.4c2.743-.347,4.705.486,4.532,3.837a48.509,48.509,0,0,0,.234,4.974c1.641.842,3.152,1.615,3.629,1.859,2.934,4.765-1.719,9.784,2.656,13.7,3.177-1.458,6.094-2.787,8.855-4.054,1.224-8.759-4.2-14.523-8.031-20.653,2.422-4.166,6.077-6.71,8.056-10.991,2.657-5.747,6.763-6.31,12.2-3.324,1.207-1.025,2.6-2.049,3.8-3.256,7.631-7.578,12.371-17.18,18.057-26.113a9.261,9.261,0,0,0,.99-4.341c.252-4.749.338-9.506.486-14.255.59-.069,1.189-.139,1.78-.2.851,3.229,2.127,6.432,2.439,9.714.556,5.8.5,11.651.756,17.476.009.347.469.668.885,1.215a15.025,15.025,0,0,1,1.823-1.45l.017-.009a2.221,2.221,0,0,0,1.081-2.2,41.5,41.5,0,0,1-.62-8.116c.051-.658,1.459-1.214,2.794-1.783a1.694,1.694,0,0,0,.933-2.127c-2.071-5.754-7.018-10.721-4.769-17.733.322-1-.651-2.466-1.172-3.646-.217-.487-.842-.79-1.345-1.233-1.024,1.449-1.954,2.761-2.848,4.028a15.9,15.9,0,0,1-2.17-1.007c-3.325-2.344-6.138-6.728-11-2.535a1.139,1.139,0,0,1-1.815-.451c-1.3-3.325-4.827-2.379-7.562-3.343,2.536-2.943,4.723-5.313,6.711-7.839,2.951-3.733,5.668-7.657,8.655-11.355,2.813-3.473,6.32-6.5,10.973-5.956,3.151.364,5.964.955,9.237.13,1.84-.468,3.872,1.624,6.138-.92.972-1.095,5.5-.877,6.589.356,3.837,4.323,7.9,2.917,12.171,1.693.356-.1.617-.539,1.241-1.111-.651-.79-1.267-1.546-1.944-2.37a94.543,94.543,0,0,1,5.643-8.43c2.665-3.212,6.259-3.333,9.888-2.153.894,2.171,1.684,4.089,2.344,5.695,7.414-.347,7.726-8.846,13.916-10.912-.165,2.6.53,5.5-.607,6.9-2.917,3.577-6.676,6.459-10.044,9.688-1.51,1.45-2.865,3.065-4.3,4.592-1.6,1.7-2.926,3.864-4.853,5-5.573,3.3-6.815,8.864-6.042,14.081a100.624,100.624,0,0,0,3.551,14.349,4.267,4.267,0,0,0,7.856.755,31.994,31.994,0,0,0,1.823-3.932c1.024-2.691,1.676-4.653,4.879-5.027,2.718-.33,3.386-2.3,2.778-4.809-.252-1.016-.434-2.049-.729-3.49.854-.384,1.691-.759,2.5-1.125a4.955,4.955,0,0,0,2.408-6.695c-.966-1.974-1.939-3.966-3.027-6.166.547-5.634,5.5-8.23,10.808-10.564.338.26.773.581,1.276.955a2.129,2.129,0,0,0,2.656-.069c2.441-2.1,4.978-2.719,7.627-.674a2.188,2.188,0,0,0,2.813-.078c3.8-3.425,7.127-6.987,11.184-9.206a46.417,46.417,0,0,1,10.774-3.733,5.023,5.023,0,0,0,3.316-7.05c-.894-1.719-2.44-3.116-5.461-3.784,4.914-1.312,9.654-1.884,9.037-8.022-.052-.564,1.345-1.267,2.066-1.911a8.287,8.287,0,0,1,1.45,2.44,4.522,4.522,0,0,1-.33,2.031c4.584,1.528,8.838,2.439,12.588,4.332,4.15,2.092,5.938,2.11,7.2-2.292a8.271,8.271,0,0,1,3.047-4.792,2.379,2.379,0,0,0,.043-3.829m-457.73,129c-.2.766-.388,1.488-.595,2.275a1.689,1.689,0,0,0,2.14,2.041c.6-.19,1.195-.377,1.84-.583.851,1.536,1.762,3.185,2.943,5.33l-2.563,1a2.5,2.5,0,0,0-1.521,2.916c1.068,4.46,2.1,8.783,3.051,12.749-4.3,4.228-8.065,4.67-12.241,1.51a76.211,76.211,0,0,0-6.633-4.011c.4-2.283.33-5,1.372-7.179,1.9-3.985.573-6.962-1.563-10.236a63.99,63.99,0,0,1-5.426-10.183c-2.257-5.409-.434-8.751,4.176-12.37,5.148-4.046,10.313-4.68,16.156-2.865,2.021,1.668,4.827,6.91,5.191,9.315-2.784,1.419-9.551.861-12.352,2.3A2.028,2.028,0,0,0,1525.9,306c.214,3.859,3.194,5.422,7.117,6.079" transform="translate(-778.417 -65.718)" fill="#1890ff"/><path d="M443.513,568.771a73.7,73.7,0,0,1-9.428-6.563c-3.116-2.561-6.285-4.827-10.487-4.21-5.131.738-9.254-1.129-13.074-4.245a22.829,22.829,0,0,0-11.676-4.931c-.807,1.459-1.5,2.691-2.657,4.758v-6.693c-5.66-3.325-6.12,5.313-11.546,3.837,3.351-2.822,6.225-5.252,9.141-7.7-1.258-3.334-2.691-6.485-3.655-9.767-2.57-8.794-9.332-12.145-17.476-13a15.646,15.646,0,0,1-11.051-5.816,61.262,61.262,0,0,0-7.154-6.476c-.938-.808-2.543-1.181-3-2.153-1.849-3.889-5.46-5.036-8.594-6.381-8.733,4.766-14.507-.356-20.462-4.68a1.47,1.47,0,0,0-2.136.434c-.729,1.294-1.345,1.372-4.149,1.711l.243-1.077a1.476,1.476,0,0,0-1.988-1.693c-3.412,1.363-6.658,2.474-9.176,4.5-3.368,2.718-5.643,6.8-8.508,10.417a3.786,3.786,0,0,1-1.415-.642c-3.056-3.013-6.268-4.263-10.539-2.179-1.129.547-3.464-.2-4.627-1.138-4.358-3.481-6.606-8-5.1-13.725a37.935,37.935,0,0,1,2.266-6.754c1.129-2.352.339-4.054-.929-5.981-1.849-2.8-4.775-2.691-7.475-2.882-3.577-.26-7.179-.069-11.112-.069,2.031-7.952,3.906-15.27,5.782-22.614-8.265-1.641-10.9-.365-12.449,5.591-.755,2.891-1.042,6.12-4.94,6.78-4.341.738-8.82,1.693-11.876-2.648-4.288-6.094-8.421-12.275-7.223-20.47a46.335,46.335,0,0,0,.234-10.8A14.219,14.219,0,0,1,244.7,416.631c2.483.608,4.957,1.233,7.37,1.832,2.752-6.06,9.159-7.744,14.211-4.063.972.7,1.988,1.823,3.03,1.875,5.408.287,6.216.712,7.431,5.183.5,1.884.695,3.855,1.3,5.7,1.155,3.481,2.535,6.867,6.381,8.673,2.561-2.96,2.084-6.156,1.155-9.263-1.25-4.141-2.891-8.169-4.132-12.31-1.337-4.445-.92-8.491,3.091-11.7,4.2-3.36,8.16-7.032,12.3-10.479a8.943,8.943,0,0,0,3.317-6.719c.564-8.421,1.4-8.03,6.242-17.658,2.821-5.608,7.631-6.38,11.858-9.054.382-4.5.122-9.506,5.582-11.833,3.863-1.65,7.761-3.2,11.685-4.818-1.476,4.992-1.476,4.992,1.719,6.138,4.227-2.292,7.752-4.158,11.242-6.1a46.1,46.1,0,0,0,6.528-4c.695-.565.835-1.816,1.364-3.76a.511.511,0,0,0-.756-.572c-3.1,1.86-5.17,3.1-7.245,4.346l-.083-.109c-4.921,1.291-6.434.579-8.091-3.63-.851-2.162-1.771-4.306-2.4-5.86,1.111-1.562,3.23-3.195,3.116-4.671-.182-2.569-2.917-2.925-5.13-2.63a40.81,40.81,0,0,0-6.841,1.693,22.913,22.913,0,0,0-3.5,1.789c4.21-5.279,8.881-9.48,16.147-8.942a93.076,93.076,0,0,0,12.345.027,12.68,12.68,0,0,0,6.06-1.71c3.516-2.327,6.684-5.174,10.643-8.334.564-2.1-.147-4.236-2.057-7.171-2.578-3.976-6.355-5.921-9.793-8.013-3.993-2.439-6.12-5.565-8.1-9.462-2.362-4.68-5.122-9.164-8.167-14.319a1.67,1.67,0,0,0-2.956.149,28.443,28.443,0,0,1-2.368,4.5c-.877,1.267-2.352,2.734-3.733,2.943-5.3.79-10.253-4.045-10.018-9.393.061-1.258.217-2.509.261-2.978-3.533-2.448-6.511-4.419-9.393-6.528-2.7-1.98-5.755-3.681-8.933-2.552a5.992,5.992,0,0,1-4.714-.191l-.051-.019a3.674,3.674,0,0,0-4.916,3.891c.686,5.543,1.064,10.725-1.613,15.591,7.1,7.234,7.074,11.215-1.568,17.654a7.7,7.7,0,0,0-2.815,8.327,44.726,44.726,0,0,1,1.354,5.766c.234,1.546-.729,4.115-1.945,4.8-1.1.616-3.742-.2-4.9-1.259a11.034,11.034,0,0,1-3.889-9.732,26.649,26.649,0,0,0,.1-3.59,3.536,3.536,0,0,0-3.15-3.44c-7.287-.792-13.4-4.1-19.125-8.4a9.555,9.555,0,0,0-4.705-2.049c-4.375-.3-7.37-1.884-8.221-6.52a2.756,2.756,0,0,0-1.554-1.884c-4.636-1.025-4.045-4.523-3.446-7.622a25,25,0,0,1,6.129-11.885c3.672-4.176,8.334-6.407,13.03-8.855,1.4-.72,2.414-2.161,3.6-3.273-2.717-2.457,1.007-2.483,1.51-3.707.347-.859,1.563-1.38,2.387-2.049l-.017-.018c.1-1.207.191-2.413.312-3.958,3.472.26,6.841,1.259,9.784.53,2.626-.653,4.88-2.779,7.511-4.606a1.112,1.112,0,0,0,.414-1.31c-.916-2.392-1.723-4.509-2.777-7.271.766-.5,1.885-1.218,3.414-2.206a.975.975,0,0,0-.1-1.694c-2.49-1.218-4.36-2.132-6.587-3.228,5.348-2.769,10.791,2.3,15.583-1.962l12.157,11.878a.884.884,0,0,0,1.237,0c.634-.624,1.472-.826,1.242.32-.807,4.046,2.683,2.8,4.289,4.106-2.118,3.6-4.2,7.136-6.181,10.513-3.188,3.171-9.694-1.114-12.3,5.064a1.09,1.09,0,0,0,.938,1.512c2.258.137,4.227.484,5.761-.178,4.887-2.1,8.542.018,11.407,3.195,5.139,5.73,11.919,7.918,18.83,10.036a1.467,1.467,0,0,0,1.411-2.44c-1.534-1.479-2.826-2.727-4.11-3.966l.451-.7q3.114,1.234,6.244,2.467a2.211,2.211,0,0,0,2.888-1.234c1.244-3.333.658-6.493-2.369-7.884-4.271-1.953-3.629-5.426-5.27-8.421,1.146-.243,2-.712,2.361-.46,2.1,1.452,4.143,2.971,6.287,4.571a3.464,3.464,0,0,0,4.653-.464l3.745-4.188a2.966,2.966,0,0,0-1.41-4.828,9.374,9.374,0,0,1-3.707-1.742c-3.273-2.891-7.283-4.175-10.86-6.337-1.4-.851-2.735-1.8-4.1-2.7,1.467-1.823-.287-4.367,1.38-6.147-2.3-1.893-4.349-4.679-6.98-5.435a20.076,20.076,0,0,1-7.475-3.62c-3.117-2.674-6.2-3.411-9.758-2.066-1.024-1.667-1.918-2.882-2.552-4.219-2.978-6.338-7.483-10.279-14.923-9.732-3.6.261-7.258,1.094-10.783.712-5.808-.634-8.178,2.387-9.332,7.11-1.111,2.587,5.486,3.368,1.406,6.719-4.35-8.094-4.619-9.123.016-14.418a.791.791,0,0,0-.56-1.313c-5.247-.2-10.165,0-13.432,5.226-3.751,5.981.278,10.166,2.865,14.784,1.363-.581,2.274-.972,2.4-1.025,1.155,1.615,1.971,3.759,2.83,3.777,3.629.061,6.824,3.742,10.713,1.337.052-.035.521.608.617.712-1.606,1.953-4.445,3.8-4.5,5.747-.147,4.679-3.994,7.076-5.356,10.86-.156.443-.886.686-1.658,1.233-.972-1.84-1.823-3.473-2.6-4.957,1.25-1.346,2.17-2.327,3.221-3.455-2.743-2.136-4.21-5.947-7.361-3.542-2.058-1.979-3.82-3.707-5.634-5.391-.668-.625-1.641-.99-2.17-1.7-2.631-3.49-4.931-7.24-7.8-10.513-1.962-2.249-4.21-1.589-5.591,1.276-1.849,3.837-2.891,7.735.1,11.5-1.736-.417-3.464-.824-4.922-1.181-1.849,2.422-3.568,4.671-5.261,6.876,1.276.721,2.83,1.589,4.688,2.631-4.662,2.474-15.652,3.933-19.62,1.146-4.479-3.151-8.6-1.1-12.866-1.4l.019-.012s-.014.009-.012.009l5.532-2.3c-1.372-.819-2.376-1.417-3.394-2,2.624-2.441,5.189-.094,7.106.778,3.1,1.412,5.8,1.147,9.093.385a.984.984,0,0,0,.691-1.319c-.822-2.134-1-4.124.818-5.623a.969.969,0,0,0-.044-1.536c-3.638-2.519-8.356-2.526-10-7.806-1.322-4.246-2.06-8.068-.759-12.106a.979.979,0,0,0-.8-1.259c-5.616-.858-9.542.893-11.246,4.77a.952.952,0,0,1-1.1.525c-2.475-.64-5.128-2.75-7.212.353a.977.977,0,0,1-1.445.165c-.645-.559-1.281-1.1-1.629-.957-3.258,1.361-5.053-1.946-7.757-2.168-.778-.064-1.962-.339-2.208-.867-1.56-3.351-4.653-4.2-7.748-5.128-3.76-1.13-7.514-2.282-12.05-3.662a.947.947,0,0,0-.538-.008L143.8,181.04a.975.975,0,0,0-.673.69l-3.207,12.2a.966.966,0,0,0,.349,1.007l6.9,5.337a.971.971,0,0,0,.815.182c1.828-.424,3.895-.923,5.975-1.36a3.54,3.54,0,0,0,3.186-3.354c.6-3.427.875-4.033,3.6-4.807a.976.976,0,0,1,1.192,1.257c-.382,1.1-.342,2.584-.174,6.672a.976.976,0,0,0,.676.891l3.448,1.1a.974.974,0,0,1,.252,1.735l-.028.019a.977.977,0,0,0,.165,1.709c3.63,1.519,7.666.542,11.693,1.12a.978.978,0,0,1-.12,1.946c-6.649.136-7.964.471-9.739,2.27a.982.982,0,0,0,.4,1.62c1.865.595,3.556,1.117,5.211,1.739,1.529.575,3.46.977,4.365,2.123a5.712,5.712,0,0,0,6.305,2.177c5.027-1.1,10.03-2.294,15.044-3.451l-.138.122.125-.111-5.5,4.173,3.394.16c-3.989,2.09-3.989,2.092-4.162,6.353-5.027-5.244-11.59-.773-17.475-3.021.512-1.042,1.007-2.04,1.788-3.62-2.1-.842-4.02-2.214-5.973-2.266-6.251-.165-11.755-2.578-17.276-5.035-2.613-1.155-4.992-2.275-8-.695-1.32.695-4.5.633-4.862-.087-2.162-4.254-3-.052-4.6.547-1.068-1.485-2.179-3.021-3.177-4.4-2.8.243-5.382.078-7.709.755-2.665.781-5.009,2.579-7.657,3.438-6.528,2.127-12.979,6.034-20.01,1.042-2.717-1.927-5.573-4.054-9.488-2.578-.877.33-2.309-.964-3.533-1.389-2.04-.695-4.115-1.823-6.172-1.832a108.691,108.691,0,0,1-34.855-6.033c-3.333-1.137-7.2-2.752-11.147-.695-4.54,2.344-9.558,3.855-13.838,6.555A99.491,99.491,0,0,0,9.8,212.187a5.348,5.348,0,0,0,.28,8.528q5.76,4.065,11.876,8.366c-2.978,1.658-5.773,2.414-8.212-.138-1.893-1.988-3.7-1.841-5.816-.816-2.171,1.059-4.341,2.127-6.885,3.377A1.854,1.854,0,0,0,.7,234.619L3.546,236.9a1.412,1.412,0,0,1,.381,1.734l-.009.017A1.866,1.866,0,0,0,5.811,241c5.938-.27,11.355-.521,16.842-.773-.417,4.072-3.308,5.608-7.136,6.719a27.007,27.007,0,0,0-8.9,4.21c-1.849,1.424-2.682,4.167-3.811,6.06.642,2.613,1.224,5.018,1.849,7.553,2.006.252,4.384.555,6.78.859v4c1.493.147,3.846-.182,4.184.495,2.248,4.523,6.181,2.6,9.515,2.891,1.432.121,2.865.217,5.383.4-1.111,2.248-1.546,4.159-2.717,5.3C22.635,283.755,17.591,289,10.516,291.56a5.745,5.745,0,0,0-2.522,1.376c-.8.936.589,2.18,1.483,1.329.914-.87,1.7-1.559,2.42-1.49,4.063.408,6.155-1.936,8.351-4.575a8.781,8.781,0,0,1,2.144-1.328c5.747-3.707,11.572-7.318,17.172-11.242,1.111-.781,1.78-2.744,1.927-4.228.408-4.366,2.344-6.138,7.761-6.242l-1.016,2.622a2.015,2.015,0,0,0,2.474,2.648c3.342-1.042,6.051-2.361,7.8-5.938,1.953-4,4.471-3.768,7.978-.321a2.924,2.924,0,0,0,1.45.755c4.2.816,8.412,1.546,12.614,2.37,1.467.278,3.247.3,4.288,1.172,5.747,4.723,13.5,7.119,17.033,14.481.391.807,1.5,1.276,2.743,2.283.425-2.014.7-3.334.981-4.653.66-.009.539-.009,1.189-.009.438,2.031.876,4.054,1.349,6.28a4.484,4.484,0,0,0,1.71,2.668c2.175,1.616,4.555,3.384,6.838,5.089-.686,10.279,7.952,14.74,12.866,21.747H126.9a1.31,1.31,0,0,0-.781,2.361c3.238,2.439,5.981,4.488,8.673,6.607,1.207.955,3.16,1.727,1.545,4.037-.486.694.043,2.057,0,3.108-.3,6.893-.452,13.812-.964,20.7a44.886,44.886,0,0,0,3.36,20.14,83.692,83.692,0,0,0,5.834,12.128c1.936,3.238,4.063,7.726,7.058,8.69,6.224,2,8.1,6.337,10.14,11.529a39.473,39.473,0,0,0,6.676,11.633c2.587,2.926,2.37,4.974-.165,7.822,1.693,1.2,3.16,2.049,4.41,3.142,1.415,1.251,3.716,2.666,3.777,4.089.182,4.766,3.325,6.841,6.468,8.977a.918.918,0,0,0,1.345-1.155c-2.214-4.714-4.888-9.2-6.572-14.038-2.153-6.172-8.56-10.27-8.395-17.892,2.422-.208,4.3-.5,5.365,2.3,1.423,3.75,3.281,7.344,4.783,11.069,1.389,3.446,6.3,4.341,6.138,8.733a1.692,1.692,0,0,0,.989,1.545c4.332,2.144,5.738,7.257,9.159,10.261a16.343,16.343,0,0,1,5.608,13.968c-.2,2.8.521,5.217,3.03,6.711,6.3,3.724,12.614,7.414,18.995,10.982a30.868,30.868,0,0,0,6.025,2.388c1.18.365,2.847.825,3.7.287,4.645-2.943,8.134-.391,10.852,2.63a25.3,25.3,0,0,0,13.812,7.935c2.917.66,5.122,2.005,6.328,4.931,1.129,2.752,2.6,5.365,3.846,8.074.651,1.424,4.236,3.9,6.19,4.375.625.156,1.632,1.233,1.528,1.476-.7,1.58-.018,2.205,1.328,2.813,1.469.671,2.922,1.382,4.245,2.041a4.827,4.827,0,0,0,5.651-1.018,4.871,4.871,0,0,1,2.154-1.544c.894-.234,2.587,1.6,3.507,2.813a12.583,12.583,0,0,1,2.335,10.47,25.917,25.917,0,0,0-.434,6.45c.3,5.174-1.823,9.255-5.426,12.658a21.679,21.679,0,0,0-7.058,17.7c1.267.477,2.24.842,3.637,1.372-1.172,2.031-2.17,3.646-3.056,5.321-2.483,4.723-1.858,7.848,2.066,11.824a13.454,13.454,0,0,1,2.526,3.69c3.889,8.221,8.03,16.347,11.4,24.785a28.3,28.3,0,0,0,12.44,14.394,34.355,34.355,0,0,1,9.289,7.865,17,17,0,0,1,3.152,8.924c.3,4.254-.495,8.595-.894,12.9-1.3,13.942-4.375,27.737-3.568,41.878a10.966,10.966,0,0,1-.634,3.82c-1.867,5.964-3.829,11.9-5.7,17.866a14.428,14.428,0,0,0-.495,3.177c-.416,6.2-.833,12.4-1.137,18.6-.061,1.172-.009,2.987.7,3.481,5.461,3.785,1.606,7.9,1.345,12.883l-2.187-3.368a52.9,52.9,0,0,0-2.969,5.9c-2.353,6.71-3.664,13.447.1,20.166a5.257,5.257,0,0,1,.234,2.526,24.579,24.579,0,0,0,4.054,13.361l.009.008h.009c3.256,2.7,4.037,8.464,9.836,8.134.113,0,.33.686.382,1.068.617,4.263,4.072,4.966,7.162,4.705,4.671-.4,9.263-1.727,13.89-2.665a4.056,4.056,0,0,0-2.457-2.092c-3.2-.8-6.468-1.571-7.943-4.957-2.084-4.783-4.515-9.974-2.4-14.975,1.866-4.419,5.313-8.265,8.447-12.041,3.012-3.62,3.2-3.646-.9-6.546-3.976-2.8-3.672-6.807.651-8.89,1.129-.539,2.231-1.128,3.212-1.623.417-4.722-.564-9.627,4.6-11.633-1.5-2.24-2.778-4.133-4-5.965,2.969-.495,6.172-.087,7.4-1.45,1.658-1.867,1.8-5.078,2.648-7.909,3.594-.929,7.188-1.693,10.678-2.8,6.823-2.17,8.751-6.138,6.233-12.883-.252-.686-.547-1.363-.868-2.031a2.625,2.625,0,0,1,2.935-3.707.153.153,0,0,1,.06.008,11.112,11.112,0,0,0,12.823-6.372c.816-1.754.972-3.829,1.875-5.522,1.649-3.1,3.03-6.78,5.617-8.863,5.322-4.3,8.126-9.115,7.588-16.077-.183-2.414.26-5.921,1.84-7.241,4.471-3.759,9.124-7.709,15.322-8.5,4.375-.556,7.761-2.109,8.994-6.884a73.382,73.382,0,0,1,3.611-11.1,37.424,37.424,0,0,0,2.917-20.879,9.273,9.273,0,0,1,1.033-6.085c3.942-5.842,8.386-11.338,12.51-17.059,3.985-5.53,2.5-15.14-2.448-18.057M348.377,338.038h0l0,0ZM197.308,218.214h0l-.029.016Z" transform="translate(0 -108.898)" fill="#1890ff"/><path d="M964.449,100.631c-2.04-.8-3.316-1.293-4.592-1.805a9.453,9.453,0,0,1-2.752-1.233,3.207,3.207,0,0,1-1.094-2.344,6.259,6.259,0,0,1,1.025-2.283.742.742,0,0,1,1.033-.252c2.839,1.875,3.707,6.945,8.855,4.349a.72.72,0,0,0,.356-.86c-.582-1.936-1.233-3.915-1.719-5.929-.486-2.04-.816-4.106-1.2-6.19a.741.741,0,0,1,.582-.86l1.181-.278a.735.735,0,0,0,.365-1.224c-.53-.556-1.05-1.1-1.6-1.675a.734.734,0,0,1,.686-1.224c2.326.495,4.392.651,5.321-2.127.886-2.639,2.769-3.768,5.278-4.523a.741.741,0,0,0,.382-1.137c-.825-1.137-1.563-2.161-2.466-3.412a.737.737,0,0,1,.9-1.1c1.085.495,1.979.9,2.8,1.276a.728.728,0,0,0,1.025-.764c-.782-5.513.972-11.112-.7-17.328a.743.743,0,0,0-.582-.53c-2.466-.451-5.191-.954-8.256-1.51a.742.742,0,0,1-.33-1.3,3.355,3.355,0,0,0,1.311-1.545c2.2-8.3,2.778-9.341,8.76-13.3a.773.773,0,0,0,.33-.521c.521-2.908,4.323-1.719,5.122-3.559,1.345-3.09,4.037-3.6,6.528-4.757,2.031-.938,3.993-2.023,6.207-3.186a.749.749,0,0,0,.122-1.233,11.951,11.951,0,0,0-9.584-2.517c-7.214.894-14.376,2.118-20.931,3.125a.735.735,0,0,1-.764-.382c-.868-1.693-1.441-3.62-2.734-4.506-1.945-1.345-4.037-.894-5.07,1.927-.2.556-3.116.782-3.16.642-1.406-4.332-4.974-2.465-7.587-2.526a69.252,69.252,0,0,0-6.963.278.741.741,0,0,1-.226-1.458c7.6-1.875,15.783.035,23.362-2.683a.744.744,0,0,0,.052-1.371,88.537,88.537,0,0,0-16.277-5.869A117.354,117.354,0,0,0,927.536.241c-6.459-.33-13.161-.53-19.4.824-5.851,1.267-12.519.66-17.449,5.235a.727.727,0,0,1-.825.121c-5.843-2.856-11.112-.79-16.607,1.389a.738.738,0,0,0-.365,1.042c.486.877.92,1.667,1.467,2.657a.743.743,0,0,1-.868,1.068c-2.587-.816-4.523-1.45-6.494-1.953a10.774,10.774,0,0,0-3.611-.278c-4.8.434-9.593,3.247-14.385-.208-.53-.382-1.684-.13-2.466.1-5.7,1.684-11.381,3.438-17.232,5.217a.744.744,0,0,0-.521.7V20.39a.738.738,0,0,1-.773.729c-7.466-.3-13.6,2.214-19.559,7.518a.747.747,0,0,0,.478,1.3,15.392,15.392,0,0,0,2.379-.052c2.518-.339,5.252-.278,6.016,2.43.773,2.744-1.241,4.437-3.507,5.626a11.541,11.541,0,0,1-2.865,1.033c-3.4.729-6.815,1.363-10.209,2.118-2.865.633-5.894.981-8.508,3.793a.755.755,0,0,0,.113,1.12c2.856,2.04,5.539,3.95,8.212,5.86a.739.739,0,0,1-.139,1.276l-.243.1a.736.736,0,0,0,.122,1.389c.4.1.773.191,1.129.278a.736.736,0,0,1,.3,1.276.032.032,0,0,0-.018.009.739.739,0,0,0-.017,1.12c3.49,2.951,6.91,3.967,11.763,3.4,5.929-.695,12.215.625,18.2,1.806,2.769.547,6.277,2.2,7.587,4.445C844,75.117,851.583,82.01,851.609,92.332a.736.736,0,0,0,.721.747c5.165.052,6.737.269,8.924,2.092a.735.735,0,0,1-.669,1.267c-2.083-.547-4.011-1.085-4.818-.374-1.58,1.4-1.754,4.384-2.188,6.164a.763.763,0,0,0,.139.651c4.245,5.287,7.8.469,11.72-.061a.742.742,0,0,1,.807.851c-.243,1.658-.46,3.195-.686,4.722a.746.746,0,0,1-.616.617c-4.558.72-6.745,2.414-6.936,5.894a14.482,14.482,0,0,0,.946,6.208,142.675,142.675,0,0,0,6.294,12.961c1.624,2.969,4.106,5.513,5.469,8.586,2.466,5.556,5.391,10.1,12.267,10.426a9.765,9.765,0,0,1,4.176,1.684c8.308,5,8.49,4.931,10.912-4.766.147-.6.9-1.276.755-1.693-1.224-3.386,1.181-5.634,3.082-7.162,3.768-3,2.422-7.145,3.438-11.017a.734.734,0,0,1,.321-.434c2.439-1.536,5.026-4.228,7.718-4.349,6.294-.295,10.392-3.308,13.812-7.969,2.335-3.177,5.669-4.41,9.324-5.2,5.825-1.259,11.8-2.153,17.4-4.089,3.551-1.224,6.676-3.664,10.652-6.155a.733.733,0,0,0-.121-1.3m3.976-44.492a.085.085,0,0,1,.043-.034c.018-.009.026-.018.044-.018a4.417,4.417,0,0,1,.764-.33,3.6,3.6,0,0,1,.373-.1c.121-.026.243-.051.364-.069.1-.017.182-.026.278-.035.052,0,.113-.009.165-.009,1.484-.078,2.865.512,4.4.512a4.733,4.733,0,0,0,.851-.069q-.052.417-.1.807c-.069.6-.139,1.154-.208,1.71-.018.174-.043.347-.061.53-.061.469-.113.947-.173,1.432-.035.252-.061.495-.1.755-.009.087-.026.183-.035.269-.043.356-.087.729-.139,1.12-.009.087-.018.174-.035.269-.061.5-.122,1.033-.191,1.606-.382-.434-.746-.842-1.085-1.233-1.372-1.554-2.492-2.822-3.542-4.019-.39-.443-.773-.877-1.154-1.3-.2-.225-.4-.452-.6-.686a.729.729,0,0,1,.139-1.1" transform="translate(-483.146 0.002)" fill="#1890ff"/><path d="M2650.844,1320.124c-3.682-4.933-7.48-9.749-9.833-15.551a9.236,9.236,0,0,0-4.521-5.087c-3.355-1.747-5.462-4.706-6.673-8.941-1.8-6.289-1.619-13.875-8.553-17.974-.96-.568-.941-2.773-1.4-4.214q-.376-1.187-.754-2.374a2.775,2.775,0,0,0-5.4.547l-.01.095c-.46,4.3-.476,8.683-1.3,12.909a18.233,18.233,0,0,1-1.828,5.6,4.035,4.035,0,0,1-5.926,1.108c-3.291-2.5-6.38-4.865-9.518-7.163-4.089-3-4.757-4.5-3.141-8.859a25.419,25.419,0,0,1,1.316-2.876,2.7,2.7,0,0,0-1.678-3.85l-9.136-2.491a.06.06,0,0,0-.034,0,42.319,42.319,0,0,1-5.433,1.959c-3.224.665-6.246,1.355-7.775,4.83a58.983,58.983,0,0,1-3.246,5.722.061.061,0,0,1-.027.024c-3.7,1.639-5.7-1.152-8.522-3.108a2.6,2.6,0,0,0-3.191.22c-2.176,1.914-4.411,3.817-6.458,5.9-2.3,2.34-3.857,5.947-6.566,7.171a4.878,4.878,0,0,0-3.258,3.846c-1.576,5.4-4.243,9.379-10.47,11.034-6.485,1.723-12.966,3.7-17.811,9.621-2.837,3.468-4.415,5.935-2.861,10.177.714,1.95,1.774,5.175.9,6.051-3.04,3.05-.873,5.695-.2,8.405,1.987,7.959,4.386,15.825,6.1,23.838.479,2.232-.952,4.836-1.3,7.3-.219,1.538-.669,3.541.053,4.621a7.562,7.562,0,0,0,10.775,1.547,21.359,21.359,0,0,1,14.435-4.866c2.551.075,4.695-.464,6.179-2.736,2.358-3.611,6.161-4.517,10.04-5.261,3.818-.732,7.651-1.4,11.442-2.253a12.142,12.142,0,0,1,9.231,1.671,23.332,23.332,0,0,1,9.787,11.063,1.931,1.931,0,0,0,3.242.417l3.251-3.946a.063.063,0,0,1,.108.031c.311,1.909-.439,3.292-.767,4.769a4.582,4.582,0,0,0,.062,1.793,1.072,1.072,0,0,0,1.549.759l1.769-.923a.06.06,0,0,1,.082.028c1.44,3.132,3.133,6.007,4.1,9.109,2.3,7.392,12.469,13.367,19.79,11.223.954-.279,1.688-1.259,2.581-1.823.265-.168.725-.026,1.111-.026l.079.115a4.517,4.517,0,0,0,6.418,1.047l7.225-5.4a5.084,5.084,0,0,0,1.972-3.382c.92-6.573,4.5-13,8.307-19.494,6.846-11.674,10.373-24.252,7.425-37.943a10.575,10.575,0,0,0-1.743-4.01" transform="translate(-1528.781 -769.221)" fill="#1890ff"/><path d="M601.643,45.234c.379.5,1.084,1.39.975,1.513-1.705,1.924-.128,2.954,1.207,3.375,5.039,1.592,9.642,5.74,15.536,2.889a1.877,1.877,0,0,1,1.708.161c2.561,2.621,5.7,1.432,8.616,1.343,3.152-.1,5.474,1.055,7.8,3.651a.692.692,0,0,1-.738,1.12c-3.96-1.355-6.835-4.517-10.9-3.249a.7.7,0,0,0-.42.965l1.071,2.183a.7.7,0,0,1-.161.83c-8.182,7.192-16.578,4.491-25.475,1.2a.689.689,0,0,1,.051-1.316l2.648-.321a.687.687,0,0,0,.6-.741v-.014a.686.686,0,0,0-.746-.625l-6.01.542a.688.688,0,0,0-.627.7c.2,5.235,2.674,8.016,7.852,8.82,1.871.291,3.589,1.566,5.329,2.474a.684.684,0,0,1,.376.624c-.056,1.677-.392,3.192.124,4.318.644,1.406,2.13,3.369,3.325,3.423,6.128.273,12.311-.5,18.346,1.2a.688.688,0,0,0,.6-.122c3.177-2.42,6.718-.292,9.967-.256,6.344.071,6.553.5,8.988-5.4a.7.7,0,0,0-.191-.8c-3.737-3.09-8.046-3.273-12.724-2.656A105.406,105.406,0,0,1,624.139,72c-2.982-.025-6.016-.718-7.068-4.128a.7.7,0,0,1,.719-.889c3.393.277,6.664.686,9.93.651,3.608-.039,7.211-.869,10.816-.862,3.412.006,6.821.658,10.233,1.008,5.214.534,5.975-.016,7.414-5.377.262-.974.123-2.571.691-2.863,3.782-1.941,4.124-5.917,5.562-9.254a.7.7,0,0,1,.579-.411l2.083-.17.434-2.379-3.055-1.449a.69.69,0,0,1-.023-1.234c.788-.41,1.409-.743,1.7-.557,4.679,2.955,8.464-.069,11.932-2.153,5.654-3.4,10.717-7.764,16.283-11.323,3.8-2.43,8.067-4.118,12.046-6.282,1.02-.555,2.631-2.115,2.464-2.438-2.03-3.942,3.033-.262,2.332-2.969-1.571-1.743-3.561-3.417-6.781-2.945a15.651,15.651,0,0,1-3.813-.282c-8.792-.941-17.579-1.927-26.377-2.8a16.854,16.854,0,0,0-3.85.444c-3.563.5-7.12,1.04-10.687,1.505-3.375.44-6.991.186-10.088,1.344-4.991,1.866-9.7,3.946-15.281,3.862C629.2,20,625.882,21.41,623,22.862c-.67.337-.907,1.785-2.462,1.3-4.349-1.343-7.286,1.193-10.334,3.648a.686.686,0,0,0,.48,1.22l2.255-.17a.687.687,0,0,1,.739.757l-.232,1.539a.689.689,0,0,0,.516.767l8.33,2.11a.671.671,0,0,1,.512.726l-.443,2.478a.686.686,0,0,0,.81.792,7.477,7.477,0,0,0,2.152-.645c.957-.521,1.667-2.067,2.526-2.1,5.052-.2,10.19-.685,15.341,1.534a.7.7,0,0,1,.029,1.264c-5.144,2.589-9.872-2.336-14.606-.76a.711.711,0,0,0-.387.318C627,39.809,628.715,41,630.093,43a.688.688,0,0,1-.908.991L604.812,29.826a.682.682,0,0,0-.781.066c-2.014,1.663-4.868,3.541-4.628,4.109,1.3,3.07-.172,3.212-2.5,3.294a.688.688,0,0,0-.522,1.106c1.915,2.482,3.595,4.653,5.261,6.835" transform="translate(-363.71 -7.848)" fill="#1890ff"/><path d="M2737.662,1158.987c-1.866-1.8-3.608-3.757-5.612-5.391a74.336,74.336,0,0,0-31.8-15.085,1.061,1.061,0,0,0-1.076.42l-5.2,7.218a1.05,1.05,0,0,1-1.685.021c-1.664-2.174-3.158-3.732-3.792-5.585-2.031-5.936-4.617-7.443-10.766-5.489a1.065,1.065,0,0,0-.726.982c-.152,4.173,2.694,4.834,5.94,5.615a1.046,1.046,0,0,1-.126,2.056l-.051.006a1.038,1.038,0,0,0-.885,1.336l.987,2.613a1.047,1.047,0,0,0,1.223.648c1.286-.312,2.5-.744,3.431-.4a67.065,67.065,0,0,1,10.577,4.757c3.917,2.266,7.182,4.9,8.229,10.124.507,2.529-1.66,3.5-2.281,5.127a1.048,1.048,0,0,0,1.173,1.4c3.058-.563,5.772-.409,8.595,1.831,1.93,1.53,4.958,1.676,7.644,2.277a1.059,1.059,0,0,0,1.134-.467c.539-.866.907-1.443,1.247-2.035,2.814-4.9,6.25-5.469,10.263-1.643,1.252,1.192,2.441,2.46,3.57,3.77,3.2,3.709,7.46,4.18,11.847,4.532.138-.717.286-.995.2-1.122-3.527-5.408-11.338-7.978-10.709-16.189.031-.4-.892-.872-1.359-1.323" transform="translate(-1632.995 -691.925)" fill="#1890ff"/><path d="M2474.5,1093.319a1.162,1.162,0,0,0,.729.555l16.646,4.175a1.2,1.2,0,0,0,1.041-.228c2.965-2.376,6.45-8.843,7.1-15.123.26-2.519.985-4.242,2.952-4.731a1.179,1.179,0,0,0,.854-1.481c-1.039-3.446-1.939-6.293-2.708-9.175-.911-3.416,3.331-4.774,3.609-7.293a1.171,1.171,0,0,0-.338-.926l-6.947-7.158a1.181,1.181,0,0,0-1.369-.233c-.4.2-.667.323-.739.521-2.487,6.824-10.02,9.2-13.41,15.219a1.375,1.375,0,0,1-1.056.645c-3.681-.609-4.632,2.4-6.193,4.71a1.177,1.177,0,0,1-1.668.268l-1.9-1.4a1.185,1.185,0,0,0-1.6.19c-2.748,3.281-2.039,7.1-.983,10.29,1.323,3.994,3.931,7.562,5.987,11.171" transform="translate(-1505.242 -641.471)" fill="#1890ff"/><path d="M1885.62,1276.942l-.023.027c-3.5,4.1-4.984,9.813-10.891,12.032-6.971,2.618-8.339,5.751-6.62,12.956.889,3.726,1.331,7.531-.928,10.664-3.641,5.049-2.732,10.139-1.348,15.491.737,2.85,1.458,5.536,4.922,6.024a7.678,7.678,0,0,0,8.237-3.955,28.718,28.718,0,0,0,2.341-6.691c2.775-10.2,5-20.587,8.365-30.588,1.82-5.407,1.35-10.172-.3-15.322a2.164,2.164,0,0,0-3.756-.639" transform="translate(-1137.42 -778.441)" fill="#1890ff"/><path d="M1543.855,81.475a3.918,3.918,0,0,1,2.019,1.886,16.574,16.574,0,0,0,11.044,9.892,1.5,1.5,0,0,0,1.785-.731l5.536-10.75a1.5,1.5,0,0,1,1.779-.738c3.553,1.114,4.146,2.05,4.413,6.688a1.5,1.5,0,0,0,1.343,1.408c3.111.281,5.966-.641,9.134-2.11a1.489,1.489,0,0,0,.211-2.582l-11.576-7.84a1.486,1.486,0,0,1,1.338-2.629l.042.018c5.982,2.56,14.126,2,18.231-3.584a1.469,1.469,0,0,0-.389-2.092c-5.511-3.5-12.273-1.15-18.176-3.136-2.531-.852-5.728.273-8.569.778a1.481,1.481,0,0,0-1.179,1.148c-.111.508-.212.973-.308,1.416a1.487,1.487,0,0,1-2.121,1.006c-4.468-2.236-5.014-2.224-6.029.051a1.476,1.476,0,0,1-1.28.892c-5.376.175-10.733-1.824-15.843,1.108a1.507,1.507,0,0,0-.516,2.15c2.5,3.711,5.238,6.385,9.11,7.749" transform="translate(-936.053 -39.569)" fill="#1890ff"/><path d="M3015.237,1610.707a5.465,5.465,0,0,1-.841.284c-1.553.373-2.5,1.053-5.269-1.312-.919,1.529-2.171,5.105-3.629,6.929-2.136,2.682-4.159,5.886-7.015,7.457-5.469,3.013-8.109,7.952-11.433,12.727,2.691,1.91,4.957,3.525,7.31,5.192,5.087-.452,7.726-3.872,9.6-8.334a12.032,12.032,0,0,1,3-4.783c4.954-3.964,7.318-10.8,9.124-17.424a.622.622,0,0,0-.844-.735" transform="translate(-1822.127 -981.918)" fill="#1890ff"/><path d="M3074.8,1544.838c-3.5,1.64-5.689.268-7.866-2.95-1.51-2.24-3.265-4.141-4.341-6.788-.5-1.22-3.495-2.574-3.495-2.574l-1.612,1.209s7.315,11.421,1.07,18.047a.771.771,0,0,0,.189,1.2c2.526,1.4,4.81,2.837,4.429,6.148-.173.1-.339.191-.5.295-.348.209-.7.434-1.042.643v.008c.527,1.561,1.027,3.691,1.649,5.64a.774.774,0,0,0,1.367.2c2.324-3.256,4.18-5.849,6.022-8.449.729-1.016,1.216-2.362,2.188-3.021,3.379-2.3,3.62-5.341,3.047-9.034a.777.777,0,0,0-1.1-.579" transform="translate(-1865.095 -934.854)" fill="#1890ff"/><path d="M1379.747,433.069a19,19,0,0,1,2.673,2.413c.628.917,1.176,2.93,1.476,2.877,4.32-.766,4.367,2.245,5.462,4.791a1.455,1.455,0,0,1-.864,1.982l-3,.966a1.169,1.169,0,0,0-.622,1.725c1.211,2.068.334,3.495-1.106,4.733a1.143,1.143,0,0,0,.28,1.905l3.1,1.4-4.531,4.8a.787.787,0,0,0,.682,1.321l22.012-3.208c1.015-2.734,1.947-4.456,2.231-6.278.2-1.277-.415-3.845-.789-3.868-4.208-.262-4.533-4.064-6.345-6.484-3.158-4.219-6.362-8.4-9.807-12.944l1.206-3.8a1.716,1.716,0,0,0-1.255-2.193l-3.9-.885,1.174-2.478a1.1,1.1,0,0,0-.984-1.572c-.045,0-.089,0-.133,0-3.65-.132-6.2,2.164-7.877,4.743-.806,1.24.674,3.869.883,5.893a31.984,31.984,0,0,1,.038,4.167" transform="translate(-840.95 -255.141)" fill="#1890ff"/><path d="M1896.117,163.87l14.193,5.9a1.118,1.118,0,0,0,1.326-.365l.01-.013a1.117,1.117,0,0,0,.042-1.274,26.041,26.041,0,0,0-1.665-2.4c-4.429-5.388-4.741-9.466-.507-14.906a55.247,55.247,0,0,1,7.64-7.776,58.414,58.414,0,0,1,21.8-12.33c2.679-.78,5.977-1.51,5.957-5.974-3.727-1.414-6.9-1.624-10.081,1.439-2.854,2.746-6.21,4.6-10.54,2.9a4.955,4.955,0,0,0-3.748.288c-4.43,2.474-8.825,5.045-13.035,7.872-5.161,3.466-7.059,9.393-10.156,14.392-1.185,1.912-2.272,3.884-3.435,6.02a4.45,4.45,0,0,0,2.2,6.236" transform="translate(-1154.976 -75.478)" fill="#1890ff"/><path d="M2381.247,1100.794l-.253-.132a.949.949,0,0,0-1.349.577l-.306,1.049a.95.95,0,0,1-1.649.325c-2.321-2.852-4.15-5.083-5.933-7.346a2.466,2.466,0,0,1-.651-1.684c.981-4-2.448-5.209-4.575-7.014-4.766-4.028-10.209-7.353-14.55-11.781a13.857,13.857,0,0,0-6.782-3.885,2.5,2.5,0,0,0-2.366,4.182q.177.183.362.355c8.569,7.908,14.351,17.727,20.141,27.7,4.08,7.031,8.523,14.458,17.873,15.423a.958.958,0,0,0,1.063-.976q-.25-8-.513-15.984a.946.946,0,0,0-.511-.81" transform="translate(-1428.705 -653.208)" fill="#1890ff"/><path d="M2679.239,657.314c-3.681,1.918-5.348,4.644-7.475,7.214-4.54,1.345-9.185,2.6-13.057,5.07a13.789,13.789,0,0,0-2.078,1.609,1.2,1.2,0,0,0,.847,2.063,1.235,1.235,0,0,0,.259-.029c1.641-.358,2.806-.6,4.2-.909l6.4-2.127c.962,1.041,1.785,1.932,2.575,2.788a2.024,2.024,0,0,0,3.088-.133,7.9,7.9,0,0,1,2.948-2.767,94.279,94.279,0,0,1,9.119-2.9,6.65,6.65,0,0,0,4.748-5.151c.839-4.345,1.563-8.2,2.472-12.009,1.129-4.775,1.458-9.315-1.918-13.525-3.551.3-5.765,1.406-5.114,5.625,1.016,6.537-1.484,12.31-7.014,15.184" transform="translate(-1620.343 -388.273)" fill="#1890ff"/><path d="M2672.267,735.669c3.417-1.272,3.939-1.824,3.779-4.714a1.506,1.506,0,0,0-1.975-1.348l-3.289,1.094a1.507,1.507,0,0,0-.989,1.759l.479,2.133a1.507,1.507,0,0,0,2,1.076" transform="translate(-1628.574 -445.019)" fill="#1890ff"/><path d="M2650.414,748.051c3.669-.025,3.195-3.414,4.435-5.438,1.958-3.2-.7-3.745-1.368-6.254l-.138-1.1a1.617,1.617,0,0,0-2.71-.976c-3.854,3.632-3.476,8.38-.218,13.768" transform="translate(-1615.215 -447.65)" fill="#1890ff"/><path d="M1266.945,319.555a15.782,15.782,0,0,1-1.442-1.289c-3.325-3.777-6.736-6.974-12.27-3.663-.985.589-2.56.1-3.817.345-2.611.5-5.192,1.158-7.82,1.759-1.515-4.03-3.756-4.706-7.39-1.783a1.94,1.94,0,0,0,.764,3.4l.042.01a1.927,1.927,0,0,1,1.413,1.38l1.751,6.534a1.963,1.963,0,0,0,1.621,1.416c4.851.746,9.415,4.538,14.769.9,4.21-2.861,11.855-.941,12.378-9.006" transform="translate(-752.435 -191.009)" fill="#1890ff"/><path d="M422.916,146.448l-2.153,3.353a1.22,1.22,0,0,0,1.308,1.847l.937-.225a1.217,1.217,0,0,1,1.42.749l1.354,3.523a1.232,1.232,0,0,0,1.224.784l6.225-.406A1.22,1.22,0,0,1,434.3,158l-.064.089a1.22,1.22,0,0,0,1.031,1.931c2.71-.077,4.873.053,6.18-.942,3.94-3,8.377-2.889,12.747-3.485,3.129-.427,5.512-1.395,5.062-5.165a2.907,2.907,0,0,0-.711-1.233,1.231,1.231,0,0,0-1.124-.482l-3.3.4a1.219,1.219,0,0,1-1.069-.419l-3.527-4.1a1.233,1.233,0,0,0-1.422-.322l-3.361,1.471a1.216,1.216,0,0,0-.705,1.346l.666,3.467a1.221,1.221,0,0,1-1.854,1.257c-1.648-1.044-2.848-1.815-4.1-2.489-4.445-2.389-8.372-6.7-14.182-4.277l-1.648,1.4" transform="translate(-256.549 -87.947)" fill="#1890ff"/><path d="M2218.776,57.2l4.526.655a1.223,1.223,0,0,1,1.031,1.406l0,.026a1.223,1.223,0,0,0,1.194,1.413c6.719.149,12.939,4.672,19.886,2.9a2.345,2.345,0,0,0,1.71-2.7c-.651-3.453-2.035-6.206-6.195-7.24-1.283-.319-2.381-1.739-3.371-2.829-4.276-4.71-9.4-4.635-14.833-2.7a4.683,4.683,0,0,0-2.492,1.76,54.89,54.89,0,0,0-2.417,5.64,1.23,1.23,0,0,0,.963,1.667" transform="translate(-1352.832 -28.602)" fill="#1890ff"/><path d="M2568.852,1145.86a.73.73,0,0,0,.788.38l.233-.048a.721.721,0,0,0,.576-.707v-10.628a.722.722,0,0,1,1.348-.357l5.976,10.357a.732.732,0,0,0,.822.334c2.094-.535,2.87-1.557,2.19-3.6-1.286-3.866-2.509-7.754-3.757-11.64a.711.711,0,0,1,.239-.785l.613-.481a.721.721,0,0,0-.53-1.284c-7,.843-6.614-.492-7.805-7.064a.724.724,0,0,1,.712-.847c2.046-.009,3.98-.041,5.913.014,2.99.086,5.984.407,8.962.286.418-.017.818-.488,1.349-1.174a.723.723,0,0,0-.749-1.145c-4.08,1.054-4.867.874-10.76-.472-4.765-1.089-6.722.286-7.589,5.141-.693,3.882-1.527,7.74-2.442,12.3a.728.728,0,0,0,.16.617c1.194,1.377,2.735,3.254,1.875,6.356-.337,1.217,1.04,2.909,1.879,4.451" transform="translate(-1564.626 -681.164)" fill="#1890ff"/><path d="M933.688,513.927c-5.417,4.451-7.448,10.46-9.552,16.89a2.357,2.357,0,0,0,1.987,3.072l13.313,1.442c-1.019,5.055,2.429,3.008,4.263,3.789,2.22-9.015-1.775-14.371-11.431-15.9.493-2.94,4.174-5.3,1.42-9.291" transform="translate(-563.66 -313.499)" fill="#1890ff"/><path d="M549.226,196.542l-1.755-.762a1.2,1.2,0,0,0-1.561,1.635c2.508,4.832,7.65,5.666,10.874,8.15a1.233,1.233,0,0,0,.964.248c2.076-.367,3.841-.711,5.619-.964,2.624-.374,4.416-3.354,3.068-5.61a9.133,9.133,0,0,0-2.428-2.3,1.194,1.194,0,0,1-.462-.948v-4.924a1.2,1.2,0,0,0-.93-1.169c-2.248-.514-4.049-1.139-5.8-1.018a29.457,29.457,0,0,0-6.153,1.5,1.2,1.2,0,0,0-.8,1.509l.994,3.2a1.2,1.2,0,0,1-1.627,1.459" transform="translate(-332.927 -115.208)" fill="#1890ff"/><path d="M1349.716,484.646a2.9,2.9,0,0,0,2.931,4.069,12.438,12.438,0,0,0,1.689-.283c1.426-.353,2.663-1.657,4.076-1.844,3.663-.483,4.368-2.689,4.447-5.883a23.334,23.334,0,0,1,1.186-5.348,2.86,2.86,0,0,0-.74-2.755c-2.679-2.734-5.484-3.053-8.588-.794-6.422,4.675-6.842,5.881-3.9,10.368Z" transform="translate(-822.942 -286.891)" fill="#1890ff"/><path d="M2635.9,145.244c5.452-.073,10.905-1.527,16.3-2.667.723-.153,1.622-2.053,1.478-3a3.836,3.836,0,0,0-2.36-2.411,15.428,15.428,0,0,0-4.186-.365.7.7,0,0,0-.707.748l.005.073-2.072.581-1.034-2.036a.7.7,0,0,0-1.3.145l-.57,2.235a.7.7,0,0,1-1.1.381c-3.1-2.4-5.907-5.533-10.36-2.674a.71.71,0,0,0-.32.615c.156,4.647,1.688,8.434,6.225,8.373" transform="translate(-1604.126 -82.421)" fill="#1890ff"/><path d="M2478.963,1209.387l.006-.014a.952.952,0,0,0-.3-1.127,22.014,22.014,0,0,0-3.1-2.219c-4.827-2.553-9.506-5.747-15.47-4.219-.321.087-.746-.4-1.155-.521q-5.483-1.523-10.965-3.015a.951.951,0,0,0-1.1.5c-.21.428-.415.847-.612,1.251a.947.947,0,0,0,.112,1.014,13.748,13.748,0,0,0,10.171,5.261c2.77.209,5.46,1.242,8.23,1.7,4.38.732,8.782,1.317,13.179,1.953a.948.948,0,0,0,1.007-.564" transform="translate(-1492.183 -730.936)" fill="#1890ff"/><path d="M2576.55,921.248a.7.7,0,0,0-.754-.39l-4.2.762a.7.7,0,0,0-.544.5c-2.263,7.859-1.881,14.217,1.65,23.933a.7.7,0,0,0,1.285.055c.952-1.956,2.777-2.5,4.913-3.078a.69.69,0,0,0,.319-1.153c-.582-.549-1.258-.843-1.808-1.291-2.4-1.956-3.625-4.809-1.485-7.146,3.75-4.093,2.606-7.916.619-12.188" transform="translate(-1567.504 -561.723)" fill="#1890ff"/><path d="M535.608,146.048c.243,5.832,1.826,6.828,9.5,6.079.606,5.04,4.662,3.148,7.409,3.363,3.247.255,4.825-1.9,3.62-4.923-.979-2.455-2.79-4.578-3.923-6.362-3.538.943-6.857.871-8.586,2.494-3.289,3.085-5.341-1.753-8.02-.651" transform="translate(-326.726 -87.966)" fill="#1890ff"/><path d="M2794.749,1622.776a3.454,3.454,0,0,0-3.6,4.635,72.827,72.827,0,0,0,3.168,7.669c1.789,3.529,7.156,3.515,8.118-.118.917-3.467,3.072-7.249.634-11.3l-8.317-.884" transform="translate(-1702.49 -989.895)" fill="#1890ff"/><path d="M2604.206,1016.437a.667.667,0,0,0-.225-.287,1.1,1.1,0,0,0-1.714.638,3.035,3.035,0,0,1-1.9,2.173,1.117,1.117,0,0,0-.654.881c-.2,1.518-.835,2.6-2.884,2.6-1.259,0-2.952-.018-3.672.729a6.023,6.023,0,0,0-1.181,2.724,1.132,1.132,0,0,0,1.286,1.4l1.945-.336a1.131,1.131,0,0,1,1.283.822,17.88,17.88,0,0,0,1.537,4.571c.99,1.658,2.7,3.03,4.853,1.667,1.372-.877,3.1-1.892,3.611-3.247a11,11,0,0,0,.13-5.652,63.536,63.536,0,0,0-2.413-8.69" transform="translate(-1581.103 -619.728)" fill="#1890ff"/><path d="M605.416,199.522a2.7,2.7,0,0,0,2.474.143c3.445-2.2,7.24-4.016,10.39-7.829a2.39,2.39,0,0,0-1.531-3.913c-3.621-.435-6.73-.831-9.851-.977-2.852-.132-4.024,1.709-4.284,4.563-.292,3.21.192,5.99,2.8,8.012" transform="translate(-367.554 -114.034)" fill="#1890ff"/><path d="M735.194,878.229a1.637,1.637,0,0,0,1.138-2.809,5.6,5.6,0,0,0-1.339-1.005c-5.661-2.825-11.359-5.587-17.134-8.17a19.813,19.813,0,0,0-6.651-1.7,11.472,11.472,0,0,0-6.146.978.988.988,0,0,0,.75,1.815c4.245-1.179,8.317,1.213,12.247,3.388,3.072,1.7,6.962,2.512,8.6,6.346a2.785,2.785,0,0,0,2.117,1.1c1.964.085,3.933.078,6.422.065" transform="translate(-429.776 -527.348)" fill="#1890ff"/><path d="M382.578,140.483l5.259-1.021a1.354,1.354,0,0,1,1.613,1.245l0,.038a1.362,1.362,0,0,0,2.166,1.008l6.344-4.678,1.859-2.578.52-1.6a1.366,1.366,0,0,0-1.087-1.771c-6.833-1.053-13.037,1.414-17.987,7.157a1.357,1.357,0,0,0,1.31,2.2" transform="translate(-232.379 -79.844)" fill="#1890ff"/><path d="M2750.737,599.652c-4.579.186-8.069-2.2-11.245-5.4a1.114,1.114,0,0,0-1.881.523c-.994,4.254-1.921,8.161-2.754,12.086a.211.211,0,0,0,0,.107l.456,1.547a.217.217,0,0,0,.35.1c3.664-3.071,6.132,1.665,9.093,1.92l7.208-8.371a1.518,1.518,0,0,0-1.232-2.5" transform="translate(-1668.284 -362.292)" fill="#1890ff"/><path d="M686.757,336.37c3.688,2.326,6.851.476,9.632-1.167a2.06,2.06,0,0,1,1.654-.194,2.066,2.066,0,0,0,2.255-3.219c-3.259-4.353-6.982-7.741-13.177-7.2,0,0-.445.724-.438.727.544.423,1.609.99,1.539,1.242-.7,2.531-1.523,5.031-2.308,7.445a2.053,2.053,0,0,0,.844,2.37" transform="translate(-418.351 -197.965)" fill="#1890ff"/><path d="M2300.512,89.456a50.534,50.534,0,0,0,11.159-2.871,2.471,2.471,0,0,0,.739-4.238c-2.816-2.221-6.4-2.017-9.426-2.815a2.474,2.474,0,0,0-2.925,1.436l-2.11,5.081a2.469,2.469,0,0,0,2.562,3.408" transform="translate(-1401.652 -48.463)" fill="#1890ff"/><path d="M528.048,104.5c.859.437,2.532-.85,3.5-.478a9.772,9.772,0,0,1,4.346,3.063c2.369,3.311,4.909,2.108,7.884,1.187-.794-5.953-5.856-6.678-9.573-8.467-3.18-1.53-6.78-4.395-10.891-.207,1.2.621,2.466.932,3.175,1.735.765.867.728,2.746,1.557,3.168" transform="translate(-319.227 -59.424)" fill="#1890ff"/><path d="M2192.822,1016.456a21.084,21.084,0,0,0,.069,16.059c3.489-1.2,6.942-1.813,6.04-5.864a17.772,17.772,0,0,0-6.109-10.2" transform="translate(-1336.692 -620.046)" fill="#1890ff"/><path d="M802.146,897.8a2.355,2.355,0,0,0-1.691,2.71l.464,2.429a2.35,2.35,0,0,0,2.6,1.894l6.377-.8a2.353,2.353,0,0,0,1.177-4.172c-3.135-2.485-5.618-2.961-8.924-2.063" transform="translate(-488.259 -547.411)" fill="#1890ff"/><path d="M464.15,116.484c.485-.741-.321-2.328-.534-3.518.863-.251,1.875-.527,2.868-.859.113-.037.122-.388.27-.917-4.2-2.591-7.872-1.2-11.257,1.118-.121,2.256-.224,4.194-.357,6.679,4.036.7,7.4-.045,9.01-2.5" transform="translate(-277.639 -66.974)" fill="#1890ff"/><path d="M2843.833,1172.887c4.607,3.173,6.436,3.069,10.587.267,2.616-1.766,4.011-4.226,3.124-7.057-1.109-3.535-4.4-4.31-8.721-4.958l6.474,5.088c-1.816,6.21-7.364,4.943-11.464,6.659" transform="translate(-1734.763 -708.305)" fill="#1890ff"/><path d="M2582.235,993.637c1.593,3.942,2.933,7.262,4.163,10.305a.665.665,0,0,0,.559.408c2.1.182,3.874.333,5.574.479a.658.658,0,0,0,.681-.859c-.264-.811-.528-1.62-.8-2.436a.675.675,0,0,0-.545-.448c-3.821-.587-1.662-3.722-1.4-5.2a.661.661,0,0,0-.446-.732c-2.714-.927-4.622-1.581-6.963-2.385a.66.66,0,0,0-.828.868" transform="translate(-1575.156 -605.575)" fill="#1890ff"/><path d="M1527.057,649.43a2.976,2.976,0,0,0,4.361,2.013c.967-.577,1.017-1.321.895-3.164-.247-3.717-.779-7.416-1.268-11.134a1.635,1.635,0,0,0-2.979-.724c-.537.938.059,2.265,1.548,5.582-2.847,2.147-3.146,4.7-2.556,7.427" transform="translate(-931.365 -387.772)" fill="#1890ff"/><path d="M610.229,166.125c-2.182-4.446-2.4-8.343-6.741-9.754-2.536,1.491-4.2,3.74-3.159,6.411,1.483,3.791,5.169,2.9,9.9,3.343" transform="translate(-366.013 -95.387)" fill="#1890ff"/><path d="M1835.827,56.39c4.724,3.308,7.1,3.338,11.458-.3a1.245,1.245,0,0,0-.727-2.2c-3.766-.212-7.067-.539-10.341.28a1.243,1.243,0,0,0-.39,2.217" transform="translate(-1119.548 -32.724)" fill="#1890ff"/><path d="M2566.895,842.577c-3.112,3.436-3.725,6.139-2.025,10.089a1.3,1.3,0,0,0,2.445-.165c.86-3.147,1.921-5.992,1.823-9.084a1.3,1.3,0,0,0-2.242-.84" transform="translate(-1564.026 -513.724)" fill="#1890ff"/><path d="M2459.535,905.374c5.207.262,5.269.209,7.744-7.036-7.3-.387-8.378.667-7.744,7.036" transform="translate(-1500.244 -547.951)" fill="#1890ff"/><path d="M1906.647,47.987a4.169,4.169,0,0,0,1.319-.331c1.977-.9,5.107-.477,6.156-3.428a1.066,1.066,0,0,0-.872-1.4l-5.842-.768a.81.81,0,0,0-.894.986c.467,1.959.534,2.843-.344,3.456a.8.8,0,0,0,.477,1.484" transform="translate(-1162.555 -25.652)" fill="#1890ff"/><path d="M595.227,114.754c-3.89-2.735-6.525-6-11.189-4.09,2.1,6.19,2.1,6.19,11.189,4.09" transform="translate(-356.268 -67.156)" fill="#1890ff"/><path d="M2667.039,174.391a.7.7,0,0,0-.666.674c-.033,1.143-.216,2.44.26,2.762,2.419,1.633,4.933,3.494,8.093,2.467a.7.7,0,0,0,.472-.881c-1.251-3.687-3.974-5.157-8.159-5.022" transform="translate(-1626.473 -106.374)" fill="#1890ff"/><path d="M1933,56.144l5.531-1.164a1.449,1.449,0,0,0,1.019-2.015l-.888-1.949a1.456,1.456,0,0,0-1.334-.851c-2.778.032-4.435,1.521-5.868,3.823a1.444,1.444,0,0,0,1.54,2.155" transform="translate(-1178.074 -30.6)" fill="#1890ff"/><path d="M2613.5,1229.165l10-6.87-.385-1.566c-2.425-.333-4.323-.158-6.088,2.419-1.144,1.67-3.632,2.373-4.678,5.157a.755.755,0,0,0,1.147.86" transform="translate(-1593.531 -744.577)" fill="#1890ff"/><path d="M2554.766,1224.24c4.61.434,9.211.9,13.83,1.077a3.326,3.326,0,0,0,1.883-.876.627.627,0,0,0-.187-1.105c-5.354-1.568-10.852.421-16.922-1.074.964,1.4,1.155,1.963,1.4,1.979" transform="translate(-1557.577 -745.589)" fill="#1890ff"/><path d="M770.786,290.82a.926.926,0,0,0-.423-1.244c-.919-.446-1.84-.888-2.778-1.342a.929.929,0,0,0-1.166.311c-1.016,1.485-1.908,2.787-2.877,4.2a.918.918,0,0,0,.538,1.416c3.418.748,5.376-.69,6.706-3.342" transform="translate(-465.668 -175.768)" fill="#1890ff"/><path d="M2713.593,150.4c2.584,1.585,5.187,2.992,8.365,1.911a.7.7,0,0,0-.029-1.341c-1.633-.426-3.266-.854-4.912-1.228-.972-.221-1.947-.424-2.924-.621a.7.7,0,0,0-.5,1.279" transform="translate(-1655.112 -90.954)" fill="#1890ff"/><path d="M3022.359,229.442a.965.965,0,0,0,.641-1.661c-2.334-2.216-4.535-3.321-7.462-2.7a.962.962,0,0,0-.353,1.71,10.986,10.986,0,0,0,7.174,2.653" transform="translate(-1839.052 -137.196)" fill="#1890ff"/><path d="M101.276,432.939l-2.6,3.692.878,1.119c2.927-1.124,4.5-1.932,5-3.2.781-1.964-2.068-3.345-3.283-1.615" transform="translate(-60.196 -263.615)" fill="#1890ff"/><path d="M2610.807,990.679a.666.666,0,0,0-1.055.442c-.381,2.825-.715,5.331-1.055,7.8a.658.658,0,0,0,.654.748c.783,0,1.564-.007,2.351-.012a.659.659,0,0,0,.656-.643c.023-1.109.036-2.221.115-3.32.13-1.8.294-3.6-1.666-5.012" transform="translate(-1591.324 -604.243)" fill="#1890ff"/><path d="M2553.845,1014.405c2.514-2.128,3.006-2.983,3.192-5.5a.5.5,0,0,0-.929-.295l-3.021,5.159a.5.5,0,0,0,.758.636" transform="translate(-1557.361 -615.11)" fill="#1890ff"/><path d="M2646.715,1115.7a.99.99,0,0,0,1.127.355l1.139-.4a1,1,0,0,0,.585-1.337l-1.306-2.975a.991.991,0,0,0-1.529-.379c-1.945,1.606-1.156,3.157-.016,4.731" transform="translate(-1613.808 -677.564)" fill="#1890ff"/><path d="M1967.114,50.514c2.147-.335,4.193-.564,5.179-.666a.654.654,0,0,0,.585-.682l-.031-.7a.653.653,0,0,0-.667-.627,12.5,12.5,0,0,0-5.462,1.443.657.657,0,0,0,.4,1.235" transform="translate(-1199.495 -29.179)" fill="#1890ff"/><path d="M2677.521,1256.681a.778.778,0,0,0,.652,1.328l4.392-.625a.782.782,0,0,0,.278-1.451,4.071,4.071,0,0,0-5.322.748" transform="translate(-1633.164 -765.72)" fill="#1890ff"/><path d="M2205.1,47.345l1.83-.349a1.176,1.176,0,0,0,.052-2.3,3.22,3.22,0,0,0-2.824.571,1.173,1.173,0,0,0,.942,2.076" transform="translate(-1344.272 -27.201)" fill="#1890ff"/><path d="M1879.166,262.022l2.845-1.126c-2.365-1.34-3.442-1.937-4.3-1.371-1.4.925-.106,3.114,1.452,2.5" transform="translate(-1145.057 -158.181)" fill="#1890ff"/><path d="M2927.518,1213.774a.4.4,0,0,0-.633.295c-.1,1.6.033,3.076,2.485,3.084.306.006.612-.482.918-.9a.4.4,0,0,0-.09-.564c-.9-.634-1.785-1.268-2.68-1.911" transform="translate(-1785.411 -740.366)" fill="#1890ff"/><path d="M2599.722,979.025l-3.576-4.073a.263.263,0,0,0-.456.119c-.619,3.741,1.7,3.97,3.786,4.378a.258.258,0,0,0,.245-.424" transform="translate(-1583.332 -594.674)" fill="#1890ff"/><path d="M2707.892,1194.61l-.643.5a.708.708,0,0,0-.08,1.043l1.909,2.031,1.355-1.062-1.511-2.342a.708.708,0,0,0-1.031-.173" transform="translate(-1651.28 -728.63)" fill="#1890ff"/><path d="M882.513,537.43q-.01.5-.022.992l4.221,1.167.283-1.41a15.649,15.649,0,0,0-2.661-1.109,4.727,4.727,0,0,0-1.822.36" transform="translate(-538.327 -327.6)" fill="#1890ff"/><path d="M2537.1,1220.524a.589.589,0,0,0-.672.44l-.042.169a.589.589,0,0,0,.382.706l3.077,1.036a.589.589,0,0,0,.763-.43q.076-.328.151-.655a.589.589,0,0,0-.472-.718l-3.186-.549" transform="translate(-1547.207 -744.524)" fill="#1890ff"/><path d="M2602.892,1223.3l4.611-1.7c.5-.183.867-.632.8-.971-.04-.216-.081-.432-.121-.649-.061-.328-.507-.416-.983-.187l-4.516,2.177c-.432.209-.725.6-.678.9l.026.17c.047.3.417.414.858.252" transform="translate(-1587.245 -744.007)" fill="#1890ff"/><path d="M2653.9,1173.761a1.032,1.032,0,0,0-1.012.5l-.053.163c-.094.292.186.558.652.612l4.882.56c.527.06,1.059-.175,1.155-.505l.183-.634c.094-.321-.266-.6-.794-.609l-5.013-.089" transform="translate(-1618.244 -716.003)" fill="#1890ff"/><path d="M2913.677,409.459c-1.893-.624-2.463.822-3.185,1.794-.126.17.17.655.382,1.366l2.945-1.618a.845.845,0,0,0-.142-1.541" transform="translate(-1775.407 -249.681)" fill="#1890ff"/><path d="M750.412,913.144l-.264,1.232c2.1.562,4.192,1.092,6.289,1.633a.638.638,0,0,0,.794-.554c.02-.189.039-.379.058-.567a.64.64,0,0,0-.53-.694c-2.123-.359-4.231-.718-6.347-1.05" transform="translate(-457.597 -557.025)" fill="#1890ff"/><path d="M2916.883,1207.461a.406.406,0,0,0-.6.267c-.431,2.114-.1,3.113,1.938,2.761.594-.1,1.185-.234,1.777-.372a.4.4,0,0,0,.115-.734c-1.029-.608-2.078-1.236-3.225-1.922" transform="translate(-1778.855 -736.526)" fill="#1890ff"/><path d="M639.517,130.359l2.556-.42a.718.718,0,0,0-.17-1.425l-2.58.2a.718.718,0,0,0-.66.791l.023.225a.718.718,0,0,0,.831.635" transform="translate(-389.587 -78.392)" fill="#1890ff"/><path d="M2895.8,1192.515l-.452.5s1.5,1.906,2.518,3a.417.417,0,0,0,.6.014l.288-.279a.418.418,0,0,0,.009-.593Z" transform="translate(-1766.186 -727.444)" fill="#1890ff"/><path d="M852.672,914.183l3.216-.25-.095-1.392c-1.161-.221-2.624-1.549-3.121,1.642" transform="translate(-520.137 -556.375)" fill="#1890ff"/></g></g></svg>