<svg xmlns="http://www.w3.org/2000/svg" xmlns:xlink="http://www.w3.org/1999/xlink" width="200" height="76.026" viewBox="0 0 200 76.026"><defs><clipPath id="a"><rect width="200" height="76.026" fill="#fff"/></clipPath></defs><g clip-path="url(#a)"><path d="M72.994,0l1.469.186A13.286,13.286,0,0,1,77.241.7l2.119.762a12.533,12.533,0,0,1,2.163,1.158l1.522.923c.477.289,3.2,2.626,2.455,2.689-.27.023-.879.068-1.236.068L57.04,6.267l-21.552.021-1.283-.054c-1.025-.043-1.6,2.115-3.416,1.84a4.452,4.452,0,0,1-2.544-1.23,3.036,3.036,0,0,1,.186-4.434,3.171,3.171,0,0,1,3.453-.88c1.275.513,1.248,1.628,2.711,1.632l14.922.04a.613.613,0,0,0,.443-.459l-.021-1.256A6.725,6.725,0,0,1,50.111,0Z" transform="translate(-21.877)" fill="#fff"/><path d="M31.363,346.33h-.889l-.883-.311a3.853,3.853,0,0,1-1.436-.988,3.024,3.024,0,0,1-.03-4.208,3.786,3.786,0,0,1,3.076-1.247c1.733.161,1.811,1.747,3.019,1.766l6.785.107,4.68.034,3.605-.114a.71.71,0,0,0,.62-.708l-.082-1.911a.617.617,0,0,1,.444-.478l1.428.05,7.456-.024,3.241-.013,8.871-.032,4.976-.023,8.137-.041,1.151.024c.774.016-1.1,1.652-1.2,1.738a16.294,16.294,0,0,1-2.335,1.722l-2.074,1.12a15.942,15.942,0,0,1-5.656,1.537l-13.819.053-5.638.046-7.467.065-5.123.023H34.373c-1.409,0-1.172,1.195-3.009,1.813" transform="translate(-21.811 -270.304)" fill="#fff"/><path d="M902.326,76.08v.439c-.4.672-.781,1.355-1.179,2.151l-7.729,15.488-1.7,3.423a21.972,21.972,0,0,1-2.237,3.942,7.99,7.99,0,0,1-3.8,2.826,15.417,15.417,0,0,1-3.958.365c-.2,0-.52-.5-.52-.7v-3.455c0-.215.291-.655.468-.655l1.6-.005c1.3,0,2.595-1.753,3.126-2.754l1.064-2a2.076,2.076,0,0,0-.027-1.431l-2.27-4.49L879.7,78.4a24.507,24.507,0,0,1-.991-2.261l4.609-.1a1.69,1.69,0,0,1,1.031.769l2.162,4.446,3.762,7.564c.048.095.4.269.44.179l1.534-3.087,3.471-6.956c.967-1.938.9-2.934,2.344-2.918Z" transform="translate(-702.326 -60.772)" fill="#fff"/><path d="M4.906,151.581c-1.168-.02-.69,1.316-2.214,1.645A5.264,5.264,0,0,1,.2,153.011c-.5-.178.449-.172.263-.748a3.187,3.187,0,0,1-.194-1.352c.123-1.226.375-2.8-.272-3.92,4.1-1.03,3.455,1.471,5.033,1.473l9.5.013,5.72.118c2.468.051,4.8.017,7.273-.1a.742.742,0,0,0,.582-.6l-.065-1.924c-.006-.19.266-.568.444-.566l1.579.018,32.915-.007c.616,0,1.432.025,1.871.056.654.045-2.448,3.027-2.646,3.2a8,8,0,0,1-1.583,1c-3.616,1.9-2.259,1.912-7.105,1.927l-8.569.028-3.943.057-18.92,0-5.755-.062-9.922-.024Z" transform="translate(0 -116.22)" fill="#fff"/><path d="M44.757,199.742a1.479,1.479,0,0,0-1.127.529,3.083,3.083,0,0,1-3.425,1.12,3.23,3.23,0,0,1-2.363-3.86,3.554,3.554,0,0,1,3.856-2.673c1.782.164,1.475,1.829,3.491,1.83l10.658,0,1.839,0c.2,0,.6-.34.6-.548l-.024-2.053,0-.344c0-.1.279-.1.4-.1l3.87-.025,21.915-.064a20.221,20.221,0,0,1,3.7.374,6.515,6.515,0,0,1,2.617,1.428,13.727,13.727,0,0,1,1.333.928l2.372,2.321c.111.109,1.087,1.16.368,1.159l-12.038-.01-25.718-.015-6.943,0Z" transform="translate(-30.18 -154.707)" fill="#fff"/><path d="M76.749,103.372a3.078,3.078,0,0,1-3.588.764,3.478,3.478,0,0,1-1.98-3.594,3.2,3.2,0,0,1,3.107-2.809c2.634-.155,2.28,1.739,3.755,1.735l2.105-.006,10.373-.025,5.891-.015,1.372,0a.667.667,0,0,0,.431-.457l-.04-2.008a1.012,1.012,0,0,1,.108-.429.817.817,0,0,1,.49-.158l6.078-.076,13.486-.009,4.709.078,1.954.047a.764.764,0,0,1,.518.663l-.341,2.351a10.4,10.4,0,0,1-1.012,2.9,1.36,1.36,0,0,1-.953.428l-4.387-.147-9.642-.052-21.052.071-10.106.046a1.739,1.739,0,0,0-1.275.7" transform="translate(-56.872 -76.96)" fill="#fff"/><path d="M77.831,296.144c-1.332-.012-1.445,1.289-2.593,1.656a3.5,3.5,0,0,1-3.5-.857,3.148,3.148,0,0,1-.748-3.684,3.7,3.7,0,0,1,3.76-1.9c1.908.2,1.533,1.63,2.872,1.627l4.705-.009,10.835.083,4.348.1c.146,0,.367-.181.362-.3l-.129-2.94,2.969.058,22.69-.03,1.271-.017c.079,0,.269.054.3.111.192.4-.532,3.068-.764,3.7-.241.658-.51,1.167-.811,1.83a1.291,1.291,0,0,1-.948.563l-7.157.038-8.9-.01h-26.9Z" transform="translate(-56.492 -231.721)" fill="#fff"/><path d="M117.312,55.217a3.323,3.323,0,0,1-5.763-2.455,3.4,3.4,0,0,1,3.7-3.063c2.051.147,1.92,1.605,3.289,1.716,1.1.089,2.113.143,3.21.136l6.314-.038,2.164-.087c.072,0,.279-.049.283-.11s.011-.232.008-.314l-.079-1.927a.774.774,0,0,1,.8-.707l6.767-.1,9.01,0,5.9.076,2.226.054a1.492,1.492,0,0,1,.974.674c.341.732,2.342,5.447,1.071,5.513-1.593.084-3.013.185-4.575.136l-4.676-.144-17.752,0-11.761.056a1.538,1.538,0,0,0-1.109.576" transform="translate(-89.15 -38.581)" fill="#fff"/><path d="M118.634,248.04c-1.64.173-1.128,1.67-3.372,1.79a3.494,3.494,0,0,1-3.187-1.523,3.11,3.11,0,0,1,.245-3.852,3.872,3.872,0,0,1,3.285-1.2c1.824.217,1.524,1.649,2.816,1.7l3.077.124c1.782.072,3.535.045,5.324-.007l3.239-.093c.153,0,.422-.258.416-.4l-.092-2.239c-.007-.16.311-.446.5-.444l3.515.04,16.229-.017,5.016-.029a1.042,1.042,0,0,1,1.027.678l.681,2.355a23.7,23.7,0,0,1,.485,2.819c.016.107-.224.367-.35.37l-2.346.052-20.588-.05-5.214-.059Z" transform="translate(-89.137 -193.335)" fill="#fff"/><path d="M415.36,55.386c1.691,2.963,1.558,5.553.527,8.727-1.314,2.686-3.9,3.717-6.809,3.718l-13.89,0-4.54.079.047-1.727.006-20.122-.053-4.287c.746.042,1.563.125,2.321.125l15.471.01c2.95,0,6.059.753,7.341,3.629a10.537,10.537,0,0,1,.683,6.1c-.4,2.436-1.707,2.693-1.106,3.746m-4.4-4.019a3.209,3.209,0,0,0-.062-3.4,2.456,2.456,0,0,0-1.788-.841l-11.063-.013-2.264-.083.057,4.643a2.2,2.2,0,0,0,.117.589c.034.085.355.078.469.075l2.065-.05,10.618-.016a2.5,2.5,0,0,0,1.85-.909m-.14,10.49a3.132,3.132,0,0,0,.026-3.637,2.584,2.584,0,0,0-1.717-.71l-10.639-.015-2.076-.056c-.143,0-.564.066-.566.2l-.006.488-.054,4.576,2.482-.059,10.615-.01a2.771,2.771,0,0,0,1.934-.779" transform="translate(-312.234 -33.39)" fill="#fff"/><path d="M689.555,237.943l-1.635,4.348-1.7,4.511-2.6,6.909-.878,2.5a1.438,1.438,0,0,1-1.078.772l-3.411-.077a1.444,1.444,0,0,1-.916-.67l-1.522-3.9-2.724-6.8c-.059-.147-.337-.1-.37-.015l-1.933,4.862-2.335,5.908a1.588,1.588,0,0,1-1.19.67l-3.333-.069a1.262,1.262,0,0,1-.826-.59l-.5-1.529-5.125-13.7-1.065-2.689c-.061-.153.245-.475.385-.476l3.845-.019a1.424,1.424,0,0,1,1.109.842l.706,2.073,3.143,8.4c.047.125.32.121.371-.007l3.173-7.95.962-2.447a1.5,1.5,0,0,1,1.245-.915l3.258-.007a1.432,1.432,0,0,1,1.081.85l1.236,3.25,2.856,7.12.146.363c.027.065.261-.2.3-.322l2.439-6.537,1.382-3.81a1.427,1.427,0,0,1,1.245-.92Z" transform="translate(-524.656 -190.121)" fill="#fff"/><path d="M408.675,213.724l2.323-.055c.155,0,.446.308.447.481l.012,4.421c0,.154-.289.469-.432.465l-2.453-.07-9.742-.018-2.337-.073a.86.86,0,0,0-.674.667l.065,2.776.048,6.24a1.5,1.5,0,0,1-.117.6c-.1.141-.5.208-.7.205l-4.448-.06.013-1.887.007-21.232-.041-2.832,2.43.077,21.008,0,2.019-.07c.111,0,.411.02.422.1s.034.318.036.427l.052,4.14a.812.812,0,0,1-.642.658l-2.329-.068-15.259-.011-2.281-.094c-.094,0-.27.34-.27.441l.024,4.165c0,.251.4.689.638.683l2.107-.056Z" transform="translate(-312.234 -162.53)" fill="#fff"/><path d="M682.6,94.986c-2.6,0-4.84-.854-5.643-3.53a9.226,9.226,0,0,1-.183-4.38c.506-2.618,2.76-3.957,5.343-3.949l6.675.019,2.121.007-.585-1.989-1.994-.468-6.857.026-4.043.078.007-5.052,2.045.11,6.43-.019c2.889-.009,6.769.033,8.479,2.587a7.944,7.944,0,0,1,1.234,4.282l.024,9.531.052,2.443c.014.691-1.634.306-2.929.305Zm8.309-4.638.026-2.279c.048,0-.286-.288-.415-.287l-5.891.053-2.252.018c-.525,0-.99.721-.95,1.271a1.223,1.223,0,0,0,1.15,1.128l4.219-.024Z" transform="translate(-540.781 -60.544)" fill="#fff"/><path d="M581.283,251.828c-.961,3.239-3.841,4.042-6.867,4.06l-3.994.024a11.282,11.282,0,0,1-3.815-.526c-2.759-.965-3.893-3.417-3.893-6.227V243.15c0-2.27.569-4.713,2.579-5.979a6.876,6.876,0,0,1,3.578-1.088l6.66,0a7.192,7.192,0,0,1,3.3.912c2.163,1.18,2.878,3.585,2.878,5.931v5.793a11.2,11.2,0,0,1-.423,3.106m-6.718-.692a3.026,3.026,0,0,0,1.838-.677,2.863,2.863,0,0,0,.471-1.719l0-5.824c0-.456-.207-1.367-.58-1.6a3.944,3.944,0,0,0-1.825-.515l-4.549-.007a2.128,2.128,0,0,0-2.406,2.109l-.005,6.05a2.123,2.123,0,0,0,2.24,2.188Z" transform="translate(-449.761 -188.694)" fill="#fff"/><path d="M582.99,84.031a8.285,8.285,0,0,0-.162-1.523c-.316-1.715-3.015-1.442-4.248-1.455L573.389,81l.082,2.046.022,9.982.05,1.995c0,.128-.355.381-.495.38l-3.8-.021a.74.74,0,0,1-.638-.794V77.055a.887.887,0,0,1,.854-.887l9.123.018a27.065,27.065,0,0,1,4.315.356,5.879,5.879,0,0,1,4.8,5.955l.041,5.64.03,6.649a3.536,3.536,0,0,1-.037.426c-.021.119-.357.178-.521.179l-3.625.022c-.255,0-.671-.329-.667-.564l.048-2.728Z" transform="translate(-454.471 -60.879)" fill="#fff"/><path d="M794.552,81.019l-5.52-.041a2.649,2.649,0,0,0-.46.057c-.13.036-.162.393-.161.57l.032,6.075.038,7.225c0,.173-.207.451-.324.451l-3.92-.014c-.253,0-.675-.337-.666-.566l.1-2.473.006-13.051-.081-2.515a.776.776,0,0,1,.58-.616l8.71.026a25.646,25.646,0,0,1,5.147.4,5.466,5.466,0,0,1,4.193,3.693,26.632,26.632,0,0,1,.637,3.166l-4.126.123a1.032,1.032,0,0,1-1-.938c-.249-1.607-1.67-1.564-3.181-1.575" transform="translate(-626.286 -60.841)" fill="#fff"/><path d="M530.947,228.771c.005.193.011.549-.071.572a2.449,2.449,0,0,1-.541.077l-3.623,0h-.446c-.127,0-.213-.393-.211-.521l.026-2.057,0-21.229-.006-2.127,4.446.009c.115,0,.434.219.43.327l-.1,2.9.01,18.564Z" transform="translate(-420.46 -162.638)" fill="#fff"/><path d="M537.129,94.7a.9.9,0,0,1-.666.579l-4.313.006.087-2.424,0-13.713-.09-2.493a1.252,1.252,0,0,1,.078-.455.865.865,0,0,1,.552-.191l3.68-.022a.879.879,0,0,1,.635.649l-.048,2.061-.005,13.714c0,.737.041,1.241.095,2.289" transform="translate(-425.326 -60.736)" fill="#fff"/><path d="M537.086,46.886l-4.937-.013.05-4.859,4.888-.069Z" transform="translate(-425.331 -33.526)" fill="#fff"/></g></svg>