<svg xmlns="http://www.w3.org/2000/svg" xmlns:xlink="http://www.w3.org/1999/xlink" width="179.143" height="161.959" viewBox="0 0 179.143 161.959"><defs><clipPath id="a"><rect width="179.143" height="161.959" fill="none"/></clipPath><clipPath id="c"><rect width="28.366" height="36.363" fill="none"/></clipPath><clipPath id="d"><rect width="14.297" height="10.95" fill="none"/></clipPath></defs><g transform="translate(10 2.1)"><g transform="translate(-10 -2.1)" clip-path="url(#a)"><g clip-path="url(#a)"><path d="M59.189,128.749c1.578-.911,1.575-2.389-.007-3.3a6.321,6.321,0,0,0-5.72,0c-1.578.911-1.575,2.389.006,3.3a6.323,6.323,0,0,0,5.721,0" transform="translate(-33.684 -80.382)" fill="#d1d8dc"/><path d="M59.878,95.85A4.652,4.652,0,1,1,55.226,91.2a4.652,4.652,0,0,1,4.652,4.652" transform="translate(-32.584 -58.758)" fill="#e5e8eb"/><path d="M15.447,255.913c-7.081,0-12.848-3.334-12.856-7.423h0l-2.591,0,5.17-3.869,5.186,3.876-2.591,0h0c0,2.441,3.448,4.428,7.675,4.431a12.024,12.024,0,0,0,4.02-.662l3.18,2.377a19.888,19.888,0,0,1-7.195,1.273" transform="translate(0 -157.606)" fill="#1890ff"/><path d="M30.316,237.67c4.227,0,7.67,1.991,7.675,4.431l-2.59,0,5.186,3.876,5.17-3.869-2.591,0c-.009-4.088-5.776-7.418-12.856-7.423a19.894,19.894,0,0,0-7.195,1.273l3.18,2.377a12.011,12.011,0,0,1,4.02-.662" transform="translate(-14.893 -151.203)"/><path d="M263.806,10.017,248.467,1.161c-4.686-2.705-8.484-.523-8.484,4.875s3.8,11.966,8.484,14.672l15.339,8.856c4.686,2.705,8.484.522,8.484-4.875s-3.8-11.967-8.484-14.672m0,17.418-15.339-8.856A14.671,14.671,0,0,1,241.831,7.1c0-4.215,2.977-5.926,6.636-3.814l15.339,8.856a14.671,14.671,0,0,1,6.635,11.476c0,4.215-2.977,5.925-6.635,3.813" transform="translate(-154.619 0)" fill="#e5e8eb"/><path d="M303.563,48.287c0,2.661-1.873,3.737-4.183,2.4a9.235,9.235,0,0,1-4.183-7.234c0-2.661,1.873-3.737,4.183-2.4a9.234,9.234,0,0,1,4.183,7.234" transform="translate(-190.193 -26.081)" fill="#d1d8dc"/><path d="M453.844,301.334a15.416,15.416,0,0,0-2.965-.708,10.609,10.609,0,0,0-.366-1.013l-4.23,0a10.662,10.662,0,0,0-.37,1.014,15.431,15.431,0,0,0-2.968.712c-.526-.211-1.028-.4-1.5-.566l-3,1.729c.287.273.615.563.98.867a5.15,5.15,0,0,0-1.234,1.714c-.631.066-1.218.137-1.756.214l-.005,2.442c.537.076,1.124.147,1.755.211a5.105,5.105,0,0,0,1.226,1.712c-.367.3-.7.594-.984.868l2.988,1.725c.475-.166.978-.356,1.5-.568a15.414,15.414,0,0,0,2.965.708,10.524,10.524,0,0,0,.366,1.013l4.23,0a10.745,10.745,0,0,0,.37-1.014,15.423,15.423,0,0,0,2.968-.712c.525.211,1.028.4,1.5.566l3-1.729c-.287-.273-.615-.563-.98-.867a5.148,5.148,0,0,0,1.234-1.714c.631-.065,1.218-.137,1.756-.213l0-2.443c-.538-.076-1.125-.146-1.755-.211a5.1,5.1,0,0,0-1.226-1.712c.367-.3.7-.594.983-.868l-2.988-1.725c-.474.166-.977.356-1.5.568m-.121,8.26a11.814,11.814,0,0,1-10.69.007c-2.949-1.7-2.943-4.466.012-6.172a11.815,11.815,0,0,1,10.69-.008c2.949,1.7,2.943,4.466-.012,6.172" transform="translate(-281.19 -193.037)" fill="#1890ff"/><path d="M333.434,441.514c-2.384-1.376-2.388-3.613-.01-4.986a9.558,9.558,0,0,1,8.635.006c2.383,1.376,2.388,3.613.01,4.986a9.557,9.557,0,0,1-8.635-.006m6.594-3.807a5.057,5.057,0,0,0-4.569,0c-1.258.726-1.255,1.909.006,2.638a5.055,5.055,0,0,0,4.568,0c1.258-.726,1.256-1.91-.005-2.638" transform="translate(-213.674 -280.589)" fill="#1890ff"/><path d="M426.28,148.932a8.307,8.307,0,0,0,.47,1.581,5.715,5.715,0,0,0-.376.446l1.146,1.982c.181-.022.374-.056.575-.1a8.345,8.345,0,0,0,1.137,1.2c.043.3.091.59.141.857l1.621.936c.051-.208.1-.44.141-.694a2.784,2.784,0,0,0,1.137.114q.3.417.575.765l1.146-.658c-.11-.272-.236-.567-.376-.88a2.763,2.763,0,0,0,.47-1.038q.363.134.673.226V151.8q-.309-.266-.673-.551a8.327,8.327,0,0,0-.47-1.581,5.762,5.762,0,0,0,.376-.446l-1.146-1.982c-.181.022-.374.056-.575.1a8.328,8.328,0,0,0-1.137-1.2c-.043-.3-.09-.59-.141-.857l-1.621-.936c-.051.208-.1.441-.141.694a2.789,2.789,0,0,0-1.137-.115c-.2-.277-.394-.534-.575-.765l-1.146.658c.11.272.236.567.376.88a2.756,2.756,0,0,0-.47,1.038c-.242-.09-.467-.165-.673-.226v1.867c.206.177.431.361.673.551m3.9-1.235a4.586,4.586,0,0,1,2.077,3.592c0,1.321-.93,1.856-2.077,1.193a4.585,4.585,0,0,1-2.077-3.592c0-1.321.93-1.856,2.077-1.193" transform="translate(-274.215 -92.884)" fill="#d1d8dc"/><path d="M119.555,397.746a9.163,9.163,0,0,1-8.291-.006c-2.292-1.323-2.3-3.466-.01-4.786a9.161,9.161,0,0,1,8.291.006c2.292,1.323,2.3,3.466.01,4.786" transform="translate(-70.577 -252.54)" fill="#10bf1c"/><path d="M156.907,417.718l-12.732-7.351c-.66-.381-.578-1.047.185-1.487a2.862,2.862,0,0,1,2.575-.107l12.733,7.351c.66.381.577,1.047-.185,1.487a2.862,2.862,0,0,1-2.575.107m-10.693-1.393h0c.762-.44.845-1.106.185-1.487l-4.985-2.878a2.863,2.863,0,0,0-2.575.107c-.762.44-.845,1.106-.185,1.487l4.985,2.878a2.862,2.862,0,0,0,2.575-.107" transform="translate(-89.046 -263.203)" fill="#243c67" opacity="0.2"/><path d="M129.641,265.7l-3.729,2.153,86.223,49.781,3.729-2.153Z" transform="translate(-81.124 -171.19)" fill="#243c67" opacity="0.2"/><path d="M202.193,73.161,125.025,28.607c-2.34-1.351-4.48-1.459-6.14-.555l0-.006-3.83,2.211.006.009c-2.039,1.156-3.335,3.862-3.335,7.725V86.305c0,7.027,4.272,15.189,9.542,18.232l77.168,44.553c2.381,1.374,4.553,1.458,6.225.5l.006.01,3.882-2.241-.009-.015c1.958-1.2,3.2-3.864,3.2-7.639V91.392c0-7.026-4.272-15.189-9.542-18.232" transform="translate(-71.982 -17.696)" fill="#1890ff"/><path d="M198.433,153.017l-77.168-44.553c-5.27-3.042-9.542-11.205-9.542-18.232V41.919c0-7.026,4.272-10.256,9.542-7.213l77.168,44.553c5.27,3.043,9.542,11.205,9.542,18.232V145.8c0,7.027-4.272,10.256-9.542,7.214" transform="translate(-71.981 -21.622)" fill="#a9dfff"/><path d="M249.213,144.244,226.04,130.866a7.966,7.966,0,0,1-3.326-6.356c0-2.45,1.489-3.576,3.326-2.515l23.172,13.379a7.966,7.966,0,0,1,3.327,6.356c0,2.45-1.489,3.576-3.327,2.515" transform="translate(-143.493 -78.343)" fill="#1890ff"/><path d="M146.849,82.118l-4.212-2.432,1.949-.772c.264-.1.3-.542.074-.974s-.619-.7-.883-.6l-3.257,1.29c-.006,0-.008.011-.014.014a.3.3,0,0,0-.112.1c-.012.017-.03.025-.04.045a.579.579,0,0,0-.056.26,1.1,1.1,0,0,0,.056.325c.01.031.028.06.04.091a1.419,1.419,0,0,0,.112.233c.006.01.008.021.014.03l3.257,5.053a1.248,1.248,0,0,0,.4.4.424.424,0,0,0,.479.021c.223-.175.19-.65-.074-1.061l-1.95-3.025,4.213,2.432c.346.2.627.039.627-.36a1.382,1.382,0,0,0-.627-1.084" transform="translate(-90.393 -49.817)" fill="#fff"/><path d="M184.039,103.029c-.346-.2-.627-.039-.627.36,0,1.152-.813,1.621-1.812,1.044a4.011,4.011,0,0,1-1.814-3.137c0-.949.556-1.422,1.309-1.24a.969.969,0,0,0,.1.784,1.307,1.307,0,0,0,.479.533.471.471,0,0,0,.4.063l1.106-.437a.418.418,0,0,0,.222-.423,1.31,1.31,0,0,0-.222-.679l-1.106-1.716c-.264-.409-.659-.6-.883-.425-.187.147-.184.5-.027.856-1.484-.611-2.632.186-2.632,1.962a6.781,6.781,0,0,0,3.068,5.3c1.69.976,3.066.185,3.066-1.763a1.382,1.382,0,0,0-.627-1.084" transform="translate(-115.027 -62.941)" fill="#fff"/><path d="M337.107,190.654l1.651-.949c.245-.141.245-.6,0-1.021s-.641-.652-.886-.512l-1.651.949-1.651-2.856c-.245-.423-.641-.652-.886-.512s-.245.6,0,1.021l1.651,2.856-1.651.949c-.245.141-.245.6,0,1.021a1.276,1.276,0,0,0,.443.467.445.445,0,0,0,.443.044l1.651-.95,1.652,2.856a1.279,1.279,0,0,0,.443.467.445.445,0,0,0,.443.044c.245-.141.245-.6,0-1.021Z" transform="translate(-214.871 -119.653)" fill="#fff"/><path d="M164.065,339.969l-9.4,5.427,31.873,18.4,9.4-5.427Z" transform="translate(-99.649 -219.039)" fill="#243c67" opacity="0.2"/><path d="M169.594,154.423c-8.545,2.691-22.1-5.9-22.1-5.9l-7.52,4.342v32.131c0,14.062,17.658,39.041,22.105,41.61,2.358,1.36,8.436.71,13.623-2.306l7.519-4.341c4.591-2.663,8.481-7.18,8.481-13.779v-32.13s-13.56-7.061-22.1-19.621" transform="translate(-90.181 -95.689)" fill="#e5e8eb"/><path d="M162.074,166.627c-8.545,2.692-22.1-5.9-22.1-5.9v32.131c0,14.062,17.658,39.041,22.105,41.61s22.105-2.024,22.1-16.086V186.248s-13.56-7.061-22.105-19.621" transform="translate(-90.181 -103.553)" fill="#f5f5f5"/><path d="M193.331,250.915c0-6.89-4.846-15.269-10.824-18.722s-10.824-.666-10.824,6.221,4.846,15.268,10.825,18.719,10.824.665,10.824-6.219" transform="translate(-110.614 -148.646)" fill="#10bf1c"/><g transform="translate(57.71 77.835)" style="mix-blend-mode:multiply;isolation:isolate"><g clip-path="url(#c)"><path d="M186.389,254.206c-2.729,1.575-6.332,1.231-10.146-.971-7.722-4.458-14-15.323-14-24.217,0-4.38,1.5-7.657,4.216-9.228h0c2.728-1.575,6.331-1.23,10.147.971,7.721,4.46,14,15.324,14,24.22,0,4.378-1.5,7.655-4.217,9.225m-19.571-33.79h0c-2.486,1.437-3.855,4.491-3.855,8.6,0,8.664,6.12,19.247,13.642,23.59,3.581,2.066,6.927,2.411,9.422.97s3.856-4.49,3.856-8.6c0-8.665-6.121-19.25-13.641-23.593-3.582-2.066-6.929-2.411-9.424-.971" transform="translate(-162.24 -218.816)" fill="#d1d8dc"/></g></g><path d="M179.341,258.275c-2.729,1.576-6.332,1.231-10.146-.97-7.722-4.458-14-15.323-14-24.217,0-4.38,1.5-7.657,4.216-9.228h0c2.728-1.575,6.331-1.23,10.147.971,7.72,4.46,14,15.324,14,24.22,0,4.378-1.5,7.655-4.217,9.225m-19.57-33.789h0c-2.486,1.437-3.855,4.491-3.855,8.6,0,8.664,6.119,19.247,13.642,23.59,3.581,2.067,6.927,2.411,9.422.97s3.856-4.49,3.856-8.6c0-8.665-6.121-19.25-13.641-23.593-3.582-2.066-6.929-2.412-9.424-.971" transform="translate(-99.989 -143.603)" fill="#fff"/><g transform="translate(64.745 90.893)" opacity="0.75" style="mix-blend-mode:multiply;isolation:isolate"><g clip-path="url(#d)"><path d="M195.966,260.232c-.462-.8-1.213-1.233-1.674-.966l-6.526,3.755-3.729-6.451c-.463-.8-1.212-1.233-1.674-.967s-.462,1.129,0,1.929l4.566,7.9a2.43,2.43,0,0,0,.837.883.839.839,0,0,0,.837.084l7.363-4.236c.462-.266.462-1.129,0-1.929" transform="translate(-182.016 -255.525)" fill="#10bf1c"/></g></g><path d="M188.919,264.3c-.462-.8-1.213-1.233-1.674-.966l-6.526,3.755-3.729-6.451c-.462-.8-1.212-1.233-1.674-.967s-.462,1.129,0,1.929l4.567,7.9a2.425,2.425,0,0,0,.837.883.838.838,0,0,0,.837.084l7.363-4.237c.462-.266.462-1.129,0-1.929" transform="translate(-112.731 -167.254)" fill="#fff"/></g></g></g></svg>