<svg xmlns="http://www.w3.org/2000/svg" xmlns:xlink="http://www.w3.org/1999/xlink" width="203.569" height="184.042" viewBox="0 0 203.569 184.042"><defs><clipPath id="a"><rect width="203.569" height="184.042" fill="none"/></clipPath><clipPath id="c"><rect width="32.234" height="41.322" fill="none"/></clipPath><clipPath id="d"><rect width="16.246" height="12.443" fill="none"/></clipPath></defs><g transform="translate(10 2.1)"><g transform="translate(-10 -2.1)" clip-path="url(#a)"><g clip-path="url(#a)"><path d="M60.131,129.292c1.793-1.035,1.79-2.715-.008-3.753a7.182,7.182,0,0,0-6.5,0c-1.793,1.035-1.789,2.715.007,3.753a7.185,7.185,0,0,0,6.5,0" transform="translate(-31.148 -74.331)" fill="#d1d8dc"/><path d="M61.147,96.484A5.286,5.286,0,1,1,55.86,91.2a5.286,5.286,0,0,1,5.286,5.286" transform="translate(-30.131 -54.335)" fill="#e5e8eb"/><path d="M17.553,257.453c-8.046-.005-14.6-3.789-14.609-8.435h0l-2.945,0,5.875-4.4,5.893,4.4-2.944,0h0c.005,2.773,3.918,5.032,8.722,5.036a13.663,13.663,0,0,0,4.568-.753l3.614,2.7a22.6,22.6,0,0,1-8.176,1.446" transform="translate(0 -145.742)" fill="#1890ff"/><path d="M31.3,238.077c4.8,0,8.716,2.262,8.722,5.036l-2.943,0,5.893,4.4,5.875-4.4-2.944,0c-.01-4.646-6.563-8.429-14.609-8.435a22.606,22.606,0,0,0-8.176,1.447l3.614,2.7a13.649,13.649,0,0,1,4.568-.753" transform="translate(-13.772 -139.821)"/><path d="M267.055,11.383,249.624,1.319c-5.325-3.074-9.641-.594-9.641,5.54s4.316,13.6,9.641,16.672L267.055,33.6c5.325,3.074,9.641.593,9.641-5.54s-4.316-13.6-9.641-16.672m0,19.793L249.624,21.112a16.671,16.671,0,0,1-7.541-13.04c0-4.789,3.383-6.734,7.541-4.334L267.055,13.8a16.672,16.672,0,0,1,7.54,13.041c0,4.789-3.382,6.733-7.54,4.333" transform="translate(-142.98 0)" fill="#e5e8eb"/><path d="M304.7,49.351c0,3.024-2.128,4.247-4.754,2.731a10.494,10.494,0,0,1-4.753-8.22c0-3.024,2.128-4.247,4.753-2.731a10.493,10.493,0,0,1,4.754,8.22" transform="translate(-175.875 -24.118)" fill="#d1d8dc"/><path d="M456.218,301.568a17.518,17.518,0,0,0-3.37-.8,12.055,12.055,0,0,0-.416-1.152l-4.807,0a12.121,12.121,0,0,0-.42,1.152,17.532,17.532,0,0,0-3.373.809c-.6-.24-1.168-.455-1.706-.643l-3.4,1.965c.326.311.7.64,1.114.985a5.852,5.852,0,0,0-1.4,1.947c-.717.075-1.384.156-2,.243l-.006,2.775c.611.086,1.278.167,1.994.24a5.8,5.8,0,0,0,1.394,1.945c-.417.345-.791.675-1.118.987l3.4,1.96c.539-.189,1.111-.4,1.709-.646a17.514,17.514,0,0,0,3.369.8,11.958,11.958,0,0,0,.416,1.151l4.807,0a12.2,12.2,0,0,0,.42-1.152,17.528,17.528,0,0,0,3.373-.809c.6.24,1.168.455,1.706.643l3.4-1.965c-.326-.311-.7-.64-1.114-.985a5.85,5.85,0,0,0,1.4-1.948c.717-.074,1.384-.156,2-.243l.005-2.776c-.611-.086-1.278-.166-1.994-.24a5.8,5.8,0,0,0-1.394-1.946c.417-.346.791-.675,1.118-.987l-3.395-1.96c-.539.189-1.111.4-1.709.646m-.138,9.387a13.425,13.425,0,0,1-12.148.008c-3.351-1.934-3.344-5.074.014-7.013a13.426,13.426,0,0,1,12.148-.009c3.351,1.935,3.344,5.075-.014,7.014" transform="translate(-260.023 -178.506)" fill="#1890ff"/><path d="M333.678,442.334c-2.709-1.564-2.714-4.106-.011-5.665a10.861,10.861,0,0,1,9.813.007c2.708,1.564,2.713,4.105.011,5.665a10.861,10.861,0,0,1-9.813-.006m7.493-4.326a5.746,5.746,0,0,0-5.192,0c-1.429.825-1.426,2.17.007,3a5.745,5.745,0,0,0,5.191,0c1.43-.825,1.427-2.17-.006-3" transform="translate(-197.59 -259.467)" fill="#1890ff"/><path d="M426.372,149.582a9.443,9.443,0,0,0,.534,1.8,6.5,6.5,0,0,0-.427.506l1.3,2.252c.206-.025.425-.063.654-.115a9.483,9.483,0,0,0,1.291,1.361c.049.345.1.671.161.974l1.842,1.063c.057-.236.111-.5.16-.788a3.164,3.164,0,0,0,1.292.13q.343.474.654.869l1.3-.748c-.125-.31-.268-.644-.427-1a3.14,3.14,0,0,0,.534-1.179q.412.153.765.257V152.84q-.352-.3-.765-.626a9.466,9.466,0,0,0-.534-1.8,6.544,6.544,0,0,0,.427-.506l-1.3-2.252c-.206.025-.425.063-.654.115a9.463,9.463,0,0,0-1.292-1.361c-.049-.345-.1-.671-.16-.974l-1.842-1.063c-.057.237-.111.5-.161.789a3.169,3.169,0,0,0-1.291-.13c-.229-.315-.448-.606-.654-.869l-1.3.748c.125.31.268.644.427,1a3.132,3.132,0,0,0-.534,1.179c-.275-.1-.531-.188-.765-.257v2.122c.234.2.49.411.765.626m4.436-1.4a5.211,5.211,0,0,1,2.36,4.081c0,1.5-1.057,2.109-2.36,1.356a5.21,5.21,0,0,1-2.36-4.081c0-1.5,1.057-2.109,2.36-1.356" transform="translate(-253.572 -85.891)" fill="#d1d8dc"/><path d="M120.92,398.535a10.413,10.413,0,0,1-9.421-.006c-2.6-1.5-2.61-3.939-.011-5.439a10.41,10.41,0,0,1,9.421.006c2.6,1.5,2.61,3.939.011,5.439" transform="translate(-65.264 -233.529)" fill="#10bf1c"/><path d="M159.457,418.973l-14.468-8.353c-.75-.433-.656-1.19.21-1.69a3.252,3.252,0,0,1,2.926-.122l14.469,8.353c.75.433.656,1.19-.21,1.69a3.252,3.252,0,0,1-2.926.122m-12.151-1.582h0c.866-.5.96-1.257.21-1.69l-5.665-3.27a3.254,3.254,0,0,0-2.926.121c-.866.5-.96,1.257-.21,1.69l5.664,3.27a3.252,3.252,0,0,0,2.926-.121" transform="translate(-82.343 -243.39)" fill="#243c67" opacity="0.2"/><path d="M130.149,265.7l-4.237,2.446,97.979,56.568,4.237-2.446Z" transform="translate(-75.017 -158.304)" fill="#243c67" opacity="0.2"/><path d="M214.529,79.391l-87.69-50.628c-2.658-1.535-5.091-1.658-6.977-.63l0-.007-4.352,2.513.006.011c-2.317,1.314-3.789,4.389-3.789,8.779v54.9c0,7.985,4.855,17.26,10.843,20.718l87.69,50.628c2.706,1.562,5.174,1.657,7.074.568l.007.012,4.411-2.547-.01-.017c2.225-1.363,3.634-4.391,3.634-8.68v-54.9c0-7.984-4.855-17.26-10.843-20.717" transform="translate(-66.563 -16.364)" fill="#1890ff"/><path d="M210.255,169.3l-87.69-50.628c-5.988-3.457-10.843-12.733-10.843-20.717v-54.9c0-7.984,4.855-11.654,10.843-8.2l87.69,50.628c5.988,3.458,10.843,12.733,10.843,20.718v54.9c0,7.985-4.855,11.655-10.843,8.2" transform="translate(-66.563 -19.995)" fill="#a9dfff"/><path d="M252.826,147.332l-26.332-15.2c-2.088-1.205-3.78-4.439-3.78-7.222s1.692-4.063,3.78-2.858l26.332,15.2c2.088,1.205,3.78,4.439,3.78,7.222s-1.692,4.063-3.78,2.858" transform="translate(-132.691 -72.446)" fill="#1890ff"/><path d="M147.742,82.772l-4.786-2.764,2.215-.878c.3-.118.338-.616.084-1.107s-.7-.8-1-.677l-3.7,1.466c-.007,0-.009.012-.016.015a.346.346,0,0,0-.127.118c-.014.019-.034.029-.045.051a.658.658,0,0,0-.064.3,1.25,1.25,0,0,0,.064.37c.011.035.032.068.045.1a1.613,1.613,0,0,0,.127.265c.007.011.009.023.016.034l3.7,5.742a1.418,1.418,0,0,0,.459.459.481.481,0,0,0,.544.024c.254-.2.216-.738-.084-1.205l-2.216-3.437,4.787,2.764c.394.227.712.044.712-.409a1.571,1.571,0,0,0-.712-1.232" transform="translate(-83.588 -46.067)" fill="#fff"/><path d="M184.79,103.757c-.394-.227-.712-.044-.712.409,0,1.309-.924,1.842-2.059,1.186a4.558,4.558,0,0,1-2.062-3.565c0-1.078.631-1.616,1.488-1.409a1.1,1.1,0,0,0,.11.89,1.485,1.485,0,0,0,.544.606.535.535,0,0,0,.459.071l1.257-.5a.475.475,0,0,0,.253-.481,1.488,1.488,0,0,0-.253-.772l-1.257-1.949c-.3-.465-.749-.681-1-.483-.213.167-.209.572-.03.973-1.687-.694-2.991.211-2.991,2.229a7.706,7.706,0,0,0,3.486,6.028c1.921,1.109,3.483.211,3.483-2a1.571,1.571,0,0,0-.712-1.232" transform="translate(-106.368 -58.203)" fill="#fff"/><path d="M337.6,191.327l1.876-1.079c.278-.16.278-.679,0-1.16s-.729-.741-1.007-.582l-1.876,1.079-1.876-3.245c-.278-.481-.729-.741-1.007-.581s-.279.679,0,1.16l1.876,3.245-1.876,1.079c-.279.16-.279.679,0,1.16a1.45,1.45,0,0,0,.5.531.506.506,0,0,0,.5.051l1.876-1.079,1.877,3.246a1.453,1.453,0,0,0,.5.531.506.506,0,0,0,.5.051c.278-.16.278-.679,0-1.16Z" transform="translate(-198.696 -110.646)" fill="#fff"/><path d="M165.347,339.969l-10.682,6.167,36.218,20.91,10.681-6.167Z" transform="translate(-92.148 -202.55)" fill="#243c67" opacity="0.2"/><path d="M173.634,155.228c-9.71,3.058-25.118-6.71-25.118-6.71l-8.545,4.934v36.512c0,15.98,20.066,44.364,25.119,47.283,2.68,1.545,9.586.806,15.481-2.621l8.545-4.933c5.217-3.026,9.638-8.159,9.638-15.658V177.524s-15.409-8.024-25.118-22.3" transform="translate(-83.392 -88.486)" fill="#e5e8eb"/><path d="M165.088,167.432c-9.71,3.059-25.118-6.708-25.118-6.708v36.512c0,15.98,20.066,44.364,25.119,47.283s25.119-2.3,25.118-18.279V189.728s-15.409-8.024-25.119-22.3" transform="translate(-83.392 -95.758)" fill="#f5f5f5"/><path d="M196.283,253.669c0-7.829-5.507-17.351-12.3-21.274s-12.3-.757-12.3,7.069,5.507,17.35,12.3,21.272,12.3.756,12.3-7.066" transform="translate(-102.287 -137.456)" fill="#10bf1c"/><g transform="translate(65.579 88.448)" style="mix-blend-mode:multiply;isolation:isolate"><g clip-path="url(#c)"><path d="M189.682,259.031c-3.1,1.79-7.2,1.4-11.529-1.1-8.775-5.066-15.915-17.412-15.913-27.519,0-4.977,1.7-8.7,4.791-10.486h0c3.1-1.79,7.195-1.4,11.53,1.1,8.773,5.068,15.911,17.414,15.913,27.522,0,4.975-1.7,8.7-4.792,10.483m-22.239-38.4h0c-2.825,1.633-4.38,5.1-4.381,9.775,0,9.846,6.954,21.871,15.5,26.807,4.069,2.348,7.871,2.74,10.707,1.1s4.381-5.1,4.382-9.771c0-9.846-6.955-21.874-15.5-26.81-4.07-2.347-7.874-2.74-10.709-1.1" transform="translate(-162.24 -218.816)" fill="#d1d8dc"/></g></g><path d="M182.634,263.1c-3.1,1.791-7.2,1.4-11.529-1.1-8.775-5.066-15.915-17.412-15.913-27.519,0-4.977,1.7-8.7,4.791-10.486h0c3.1-1.79,7.195-1.4,11.53,1.1,8.773,5.068,15.911,17.414,15.912,27.522,0,4.975-1.7,8.7-4.792,10.483m-22.239-38.4h0c-2.825,1.633-4.38,5.1-4.38,9.775,0,9.846,6.954,21.871,15.5,26.807,4.069,2.348,7.871,2.74,10.707,1.1s4.381-5.1,4.382-9.771c0-9.846-6.955-21.874-15.5-26.81-4.07-2.347-7.874-2.741-10.709-1.1" transform="translate(-92.462 -132.793)" fill="#fff"/><g transform="translate(73.573 103.286)" opacity="0.75" style="mix-blend-mode:multiply;isolation:isolate"><g clip-path="url(#d)"><path d="M197.868,260.874c-.525-.909-1.379-1.4-1.9-1.1l-7.416,4.267-4.237-7.33c-.526-.909-1.377-1.4-1.9-1.1s-.525,1.283,0,2.192l5.189,8.975a2.762,2.762,0,0,0,.951,1,.953.953,0,0,0,.952.095l8.367-4.814c.525-.3.525-1.283,0-2.192" transform="translate(-182.016 -255.525)" fill="#10bf1c"/></g></g><path d="M190.821,264.943c-.525-.909-1.379-1.4-1.9-1.1l-7.416,4.267-4.238-7.33c-.525-.909-1.377-1.4-1.9-1.1s-.525,1.283,0,2.192l5.189,8.976a2.756,2.756,0,0,0,.951,1,.953.953,0,0,0,.951.1l8.367-4.814c.525-.3.525-1.283,0-2.192" transform="translate(-104.245 -154.664)" fill="#fff"/></g></g></g></svg>