<svg xmlns="http://www.w3.org/2000/svg" xmlns:xlink="http://www.w3.org/1999/xlink" width="190" height="181.71" viewBox="0 0 190 181.71"><defs><clipPath id="a"><rect width="190" height="181.71" fill="none"/></clipPath><clipPath id="c"><rect width="8.063" height="18.027" fill="none"/></clipPath></defs><g clip-path="url(#a)"><g clip-path="url(#a)"><path d="M16.346,57.008c0-5.2-3.66-11.528-8.173-14.134S0,42.37,0,47.57,3.659,59.1,8.173,61.7s8.173.5,8.173-4.7" transform="translate(0 -24.07)" fill="#d1d8dc" opacity="0.1"/><path d="M17.086,61.041c-.349-.6-.916-.931-1.264-.73l-4.927,2.835L8.079,58.275c-.349-.6-.915-.93-1.264-.73s-.349.853,0,1.457l3.448,5.963a1.829,1.829,0,0,0,.632.667.632.632,0,0,0,.632.063l5.559-3.2c.349-.2.349-.852,0-1.456" transform="translate(-3.778 -33.139)" fill="#fff"/><path d="M48.339,380.675c-8.124,4.69-8.139,12.286-.034,16.964s21.26,4.67,29.383-.02,8.139-12.286.034-16.965l-14.709,8.492Z" transform="translate(-24.347 -219.433)" fill="#e5e8eb" opacity="0.1"/><path d="M56.659,369.085l14.674,8.472,14.709-8.492c-8.1-4.679-21.26-4.67-29.383.02" transform="translate(-32.662 -210.732)" fill="#f5f5f5" opacity="0.3"/><path d="M294.3,9.222c0,3.144-2.213,4.415-4.941,2.84a10.91,10.91,0,0,1-4.942-8.546c0-3.144,2.213-4.415,4.942-2.84A10.911,10.911,0,0,1,294.3,9.222" transform="translate(-163.957 0)" fill="#1890ff"/><path d="M288.467,42.712,256.984,24.536a3.41,3.41,0,0,1-1.423-2.719c0-1.048.637-1.53,1.423-1.076l31.483,18.177a3.41,3.41,0,0,1,1.423,2.719c0,1.048-.638,1.53-1.423,1.076m-7.8,1.188h0a3.408,3.408,0,0,0-1.423-2.719L256.984,28.331c-.786-.454-1.423.028-1.423,1.076a3.41,3.41,0,0,0,1.423,2.72l22.258,12.85c.786.454,1.423-.028,1.423-1.076m4.154,8.091L257.208,36.051c-.91-.526-1.647-.1-1.647.947a3.636,3.636,0,0,0,1.647,2.848l27.611,15.942c.91.525,1.647.1,1.647-.947a3.636,3.636,0,0,0-1.647-2.849" transform="translate(-147.321 -11.858)" fill="#e5e8eb" opacity="0.2"/><path d="M402.142,228.426a18.288,18.288,0,0,0-3.531-.843,12.725,12.725,0,0,0-.435-1.207l-5.038,0a12.705,12.705,0,0,0-.44,1.207,18.4,18.4,0,0,0-3.534.848c-.626-.252-1.224-.477-1.788-.674l-3.566,2.059c.341.325.732.671,1.167,1.032a6.123,6.123,0,0,0-1.469,2.04c-.751.078-1.45.163-2.091.254l-.006,2.908c.64.09,1.339.174,2.089.252a6.086,6.086,0,0,0,1.461,2.039c-.437.362-.829.708-1.172,1.034l3.558,2.054c.565-.2,1.163-.424,1.79-.676a18.347,18.347,0,0,0,3.531.843,12.616,12.616,0,0,0,.436,1.206l5.037,0a12.8,12.8,0,0,0,.44-1.207,18.374,18.374,0,0,0,3.534-.848c.626.252,1.224.477,1.788.674l3.566-2.059c-.341-.326-.732-.671-1.167-1.032a6.128,6.128,0,0,0,1.469-2.041c.751-.078,1.45-.163,2.091-.254l.005-2.908c-.64-.09-1.339-.174-2.09-.252a6.075,6.075,0,0,0-1.46-2.038c.437-.362.829-.708,1.171-1.034l-3.557-2.054c-.565.2-1.164.424-1.791.676M402,238.261a14.067,14.067,0,0,1-12.729.008c-3.511-2.027-3.5-5.317.015-7.349a14.067,14.067,0,0,1,12.729-.009c3.511,2.027,3.5,5.318-.015,7.349" transform="translate(-219.869 -130.497)" fill="#e5e8eb" opacity="0.1"/><path d="M337.471,395.456a9.893,9.893,0,0,0-1.91-.456,6.892,6.892,0,0,0-.236-.653l-2.726,0c-.085.2-.165.419-.238.653a9.981,9.981,0,0,0-1.912.459c-.338-.136-.662-.258-.967-.365l-1.93,1.114c.185.176.4.363.632.559a3.325,3.325,0,0,0-.795,1.1c-.406.042-.785.088-1.131.138l0,1.573c.346.049.725.094,1.131.136a3.29,3.29,0,0,0,.79,1.1c-.237.2-.449.383-.634.559l1.925,1.111c.306-.107.63-.23.969-.366a9.919,9.919,0,0,0,1.911.456,6.809,6.809,0,0,0,.236.653l2.726,0a6.855,6.855,0,0,0,.238-.653,9.978,9.978,0,0,0,1.913-.459c.338.136.662.258.967.365l1.93-1.114q-.278-.264-.632-.559a3.316,3.316,0,0,0,.795-1.1c.406-.042.785-.089,1.131-.138l0-1.574c-.346-.049-.725-.094-1.131-.136a3.3,3.3,0,0,0-.79-1.1c.236-.2.449-.383.634-.559l-1.925-1.111c-.306.107-.63.229-.969.366m-1.051,4.76a5.46,5.46,0,0,1-4.94,0c-1.362-.787-1.36-2.063.006-2.852a5.46,5.46,0,0,1,4.939,0c1.363.787,1.36,2.064-.005,2.852" transform="translate(-188.073 -227.326)" fill="#d1d8dc" opacity="0.1"/><path d="M31.528,247.09c-2.838-1.639-2.844-4.3-.012-5.936a11.381,11.381,0,0,1,10.282.007c2.838,1.638,2.843,4.3.012,5.936a11.379,11.379,0,0,1-10.282-.007m7.852-4.533a6.022,6.022,0,0,0-5.44,0c-1.5.865-1.5,2.274.006,3.141a6.021,6.021,0,0,0,5.44,0c1.5-.865,1.5-2.274-.006-3.141" transform="translate(-16.945 -138.31)" fill="#d1d8dc" opacity="0.1"/><path d="M190.575,69.265,151.058,46.45a13.689,13.689,0,0,1-5.4-6.657L143.1,33.342a13.691,13.691,0,0,0-5.4-6.657L104.394,7.456c-1.71-.987-3.257-1.088-4.389-.463l0-.008-1.5.865,0,.007c-1.16.643-1.883,2.048-1.883,4.069v71.6A13.861,13.861,0,0,0,102.9,94.38l86.181,49.757c1.747,1.008,3.325,1.095,4.463.425l0,0,1.466-.846h0l.053-.03-.005-.008c1.105-.666,1.791-2.047,1.791-4.013V80.122a13.861,13.861,0,0,0-6.278-10.857" transform="translate(-55.699 -3.805)" fill="#10bf1c"/><path d="M144.167,41.822,141.6,35.37a13.688,13.688,0,0,0-5.4-6.657L102.9,9.484c-3.467-2-6.278-.387-6.278,3.608v71.6A13.861,13.861,0,0,0,102.9,95.547L189.082,145.3c3.468,2,6.278.387,6.278-3.608V82.151a13.86,13.86,0,0,0-6.278-10.857L149.566,48.478a13.693,13.693,0,0,1-5.4-6.657" transform="translate(-55.699 -4.972)" fill="#8fff5e"/><path d="M197.014,97.2l-89.581-51.72V91.059l89.581,51.72Z" transform="translate(-61.931 -26.219)" fill="#fff"/><path d="M187.494,106.23,100.428,55.963a3.713,3.713,0,0,0-3.75-.3l-.02-.035-1.483.856.021.035c-1.271.694-2.1,2.328-2.1,4.717V111.9c0,4.3,2.613,9.289,5.836,11.15L186,173.318a3.682,3.682,0,0,0,3.829.259l.011.02,1.49-.86-.012-.021c1.222-.721,2.009-2.337,2.009-4.672V117.38c0-4.3-2.613-9.289-5.836-11.15" transform="translate(-53.669 -31.869)" fill="#10bf1c"/><path d="M186,174.462,98.937,124.194c-3.223-1.861-5.836-6.853-5.836-11.15V62.379c0-4.3,2.612-6.273,5.836-4.412L186,108.235c3.223,1.861,5.835,6.852,5.835,11.15V170.05c0,4.3-2.612,6.272-5.835,4.412" transform="translate(-53.669 -33.012)" fill="#50ff44"/><path d="M192.651,293.4,104.3,242.39c-.791-.457-.692-1.255.221-1.782a3.431,3.431,0,0,1,3.087-.128l88.351,51.009c.791.457.692,1.255-.222,1.782a3.43,3.43,0,0,1-3.087.128" transform="translate(-59.818 -138.449)" fill="#d1d8dc" opacity="0.1"/><path d="M155.447,326.673l-30.669-17.707c-2.851-1.646-2.494-4.521.8-6.422l1.635-.944c3.292-1.9,8.273-2.107,11.124-.461L169,318.845c2.851,1.646,2.494,4.522-.8,6.423l-1.635.944c-3.292,1.9-8.273,2.108-11.124.461" transform="translate(-70.82 -172.954)" fill="#d1d8dc" opacity="0.1"/><path d="M170.895,210.014a3.271,3.271,0,0,0-1.89-2.775l-30.669-17.707c-2.851-1.646-7.832-1.44-11.124.461l-1.635.944c-1.789,1.033-2.678,2.35-2.691,3.6h-.033v34.507h.035a3.272,3.272,0,0,0,1.89,2.776l30.669,17.707c2.851,1.646,7.832,1.44,11.124-.461l1.635-.944c1.788-1.033,2.678-2.35,2.69-3.6h.033V210.014Z" transform="translate(-70.82 -108.617)" fill="#1890ff"/><path d="M155.447,215.067,124.778,197.36c-2.851-1.646-2.494-4.521.8-6.422l1.635-.944c3.292-1.9,8.273-2.107,11.124-.461L169,207.24c2.851,1.646,2.494,4.522-.8,6.423l-1.635.944c-3.292,1.9-8.273,2.108-11.124.461" transform="translate(-70.82 -108.618)" fill="#a9dfff"/><path d="M149.267,197.536v0a8.186,8.186,0,0,0-7.6,0,3.343,3.343,0,0,0,.007,6.134,8.209,8.209,0,0,0,7.6,0,3.652,3.652,0,0,0,2.011-3.091,3.584,3.584,0,0,0-2.018-3.039" transform="translate(-80.506 -113.33)" fill="#1890ff"/><path d="M201.719,227.815a8.163,8.163,0,0,0-7.6,0,3.339,3.339,0,0,0,.007,6.129,8.207,8.207,0,0,0,7.6,0,3.65,3.65,0,0,0,2.009-3.059v-.032a3.594,3.594,0,0,0-2.019-3.041" transform="translate(-110.743 -130.785)" fill="#1890ff"/><path d="M160.78,134.2c-4.3-2.48-8.735-2.767-12.172-.783s-5.4,5.952-5.4,10.9v19.111c0,.008,0,.015,0,.023a2.159,2.159,0,0,0,1.262,1.734,6.734,6.734,0,0,0,6.1,0,2.147,2.147,0,0,0,1.252-1.722c0-.014,0-.027,0-.04V144.313c0-2.07.587-3.143,1.091-3.434s1.745-.264,3.556.782c4.77,2.755,8.954,9.987,8.954,15.48v19.111c0,.006,0,.012,0,.019a2.158,2.158,0,0,0,1.263,1.739,6.736,6.736,0,0,0,6.1,0,2.148,2.148,0,0,0,1.252-1.72c0-.014,0-.027,0-.042V157.141c0-8.57-5.825-18.647-13.262-22.941" transform="translate(-82.554 -76.156)" fill="#fff"/><g transform="translate(65.261 105.815)" style="mix-blend-mode:multiply;isolation:isolate"><g clip-path="url(#c)"><path d="M162.147,257.362a8.9,8.9,0,0,0-4.031-6.976c-2.227-1.284-4.032-.247-4.032,2.32a8.705,8.705,0,0,0,1.844,4.959v6.115a4.823,4.823,0,0,0,2.188,3.781c1.209.7,2.191.138,2.189-1.255v-6.116c1.108-.187,1.844-1.192,1.842-2.828" transform="translate(-154.084 -249.836)" fill="#bbc1c5"/></g></g></g></g></svg>