<svg xmlns="http://www.w3.org/2000/svg" xmlns:xlink="http://www.w3.org/1999/xlink" width="214" height="210.796" viewBox="0 0 214 210.796"><defs><clipPath id="a"><rect width="214" height="210.796" fill="none"/></clipPath></defs><g clip-path="url(#a)"><path d="M57.2,135.125c2.277-1.315,2.274-3.448-.01-4.766a9.12,9.12,0,0,0-8.255-.006c-2.277,1.315-2.273,3.448.009,4.767a9.127,9.127,0,0,0,8.256.005" transform="translate(-22.983 -62.956)" fill="#d1d8dc" opacity="0.1"/><path d="M58.95,102.521a6.714,6.714,0,1,1-6.714-6.714,6.714,6.714,0,0,1,6.714,6.714" transform="translate(-22.153 -46.623)" fill="#e5e8eb"/><path d="M161.273,393.981c5.138-2.966,5.13-7.779-.023-10.752s-13.487-2.98-18.623-.014-5.127,7.78.021,10.754,13.488,2.978,18.626.012" transform="translate(-67.535 -185.406)" fill="#fff" opacity="0.1"/><path d="M165.119,346.117v-4.43c-.009-1.944-1.3-3.886-3.87-5.37-5.149-2.973-13.487-2.98-18.623-.013-2.572,1.485-3.855,3.434-3.846,5.383h0v4.429h0c.008,1.942,1.3,3.886,3.868,5.369,5.151,2.973,13.488,2.979,18.626.013,2.573-1.485,3.853-3.433,3.846-5.382" transform="translate(-67.534 -162.577)" fill="#10bf1c"/><path d="M161.273,347.07c5.138-2.966,5.13-7.78-.023-10.752s-13.487-2.98-18.623-.013-5.127,7.779.021,10.754,13.488,2.978,18.626.012" transform="translate(-67.535 -162.577)" fill="#50ff44"/><path d="M156.374,349.162a12.135,12.135,0,0,1-5.927-1.415c-1.684-.973-2.611-2.3-2.61-3.727s.922-2.743,2.6-3.71a13.1,13.1,0,0,1,11.833.008c1.684.973,2.612,2.295,2.612,3.724s-.922,2.743-2.6,3.71a12.1,12.1,0,0,1-5.907,1.409m-.039-9.231a10.993,10.993,0,0,0-5.38,1.285,2.941,2.941,0,0,0,.013,5.625,11.931,11.931,0,0,0,10.79.006,2.939,2.939,0,0,0-.014-5.623,11.053,11.053,0,0,0-5.409-1.293" transform="translate(-71.943 -164.922)" fill="#10bf1c"/><path d="M156.374,341.024a12.134,12.134,0,0,1-5.927-1.415c-1.684-.973-2.611-2.3-2.61-3.726s.922-2.743,2.6-3.71a13.1,13.1,0,0,1,11.833.008c1.684.973,2.612,2.295,2.612,3.724s-.922,2.743-2.6,3.71a12.1,12.1,0,0,1-5.907,1.409m-.039-9.231a10.987,10.987,0,0,0-5.38,1.285,2.941,2.941,0,0,0,.013,5.625,11.931,11.931,0,0,0,10.79.006,2.939,2.939,0,0,0-.014-5.623,11.047,11.047,0,0,0-5.409-1.293" transform="translate(-71.943 -160.962)" fill="#fff"/><path d="M348.019,289.633c9.089-5.248,9.072-13.766-.038-19.026s-23.865-5.27-32.954-.023c-8.2,4.736-8.985,12.133-2.366,17.4a4.993,4.993,0,0,0-4.155.148,1.364,1.364,0,0,0,.006,2.584l.061.035a6.317,6.317,0,0,0-3.011.739l-14.886,8.594c-1.722.994-1.719,2.609.007,3.606h0a6.9,6.9,0,0,0,6.245,0l14.886-8.595a2.213,2.213,0,0,0,1.28-1.738l.061.035a4.946,4.946,0,0,0,4.475,0c1.135-.656,1.212-1.682.257-2.4,9.118,3.822,21.931,3.369,30.134-1.366m-30.386-1.505c-7.689-4.439-7.7-11.628-.033-16.057s20.123-4.421,27.812.019,7.7,11.628.032,16.057-20.122,4.421-27.811-.019" transform="translate(-140.825 -129.764)" fill="#e5e8eb" opacity="0.1"/><path d="M27.117,265.649l-5.269,5.98,8.235,4.754-11.491-1.059-5.269,5.98-1.833-6.634L0,273.612l10.358-3.042-1.833-6.634,8.234,4.754Z" transform="translate(0 -128.441)" fill="#d1d8dc" opacity="0.1"/><path d="M349.763,135.06c5.458-3.151,5.447-8.267-.023-11.425s-14.332-3.164-19.79-.013-5.447,8.267.023,11.425,14.332,3.164,19.79.013" transform="translate(-158.577 -59.011)" fill="#d1d8dc" opacity="0.1"/><path d="M356.283,134.712c0-.488-.688-.885-1.532-.885l-11.934-.006-.007-3.937c0-.488-.687-.884-1.532-.885s-1.529.394-1.528.882l.008,4.821a.769.769,0,0,0,.449.625,2.22,2.22,0,0,0,1.083.259l13.465.007c.846,0,1.53-.394,1.529-.882" transform="translate(-165.334 -62.776)" fill="#fff"/><path d="M143.505,228.835l31.869,18.4c-17.56,10.138-46.063,10.118-63.663-.043s-17.634-26.618-.074-36.756,46.062-10.119,63.663.043Zm42.635-18.349-31.794,18.356,31.869,18.4c17.56-10.138,17.526-26.594-.074-36.756" transform="translate(-47.928 -98.712)" fill="#d1d8dc" opacity="0.2"/><path d="M161.595,157.9,175.3,149.99V129.1c-17.6-10.162-46.1-10.181-63.663-.043-8.806,5.084-13.183,11.757-13.143,18.428h-.005v20.888h.005c.04,6.632,4.443,13.262,13.217,18.327,17.6,10.162,46.1,10.182,63.663.043V165.858Z" transform="translate(-47.928 -59.111)" fill="#a9dfff"/><path d="M175.374,173.095v20.887c-17.56,10.138-46.063,10.119-63.663-.043-8.774-5.065-13.178-11.7-13.217-18.327h-.005V154.724h.005c.039,6.632,4.443,13.262,13.217,18.328,17.6,10.162,46.1,10.181,63.663.043m-13.78-7.956,13.705-7.913V136.339L143.506,154.7Z" transform="translate(-47.928 -66.348)" fill="#1890ff"/><path d="M252.293,154.512c-.113-6.575-4.5-13.136-13.2-18.158L207.3,154.71v6.252l7.248,4.185,13.78,7.955-.029,14.619L239.165,194c8.523-4.921,12.864-11.331,13.1-17.787h.047v-21.7Z" transform="translate(-100.878 -66.355)" fill="#f5f5f5"/><path d="M252.293,171.725c.116,6.728-4.248,13.471-13.128,18.6l-31.869-18.4v6.252l7.248,4.185,13.78,7.955-.029,14.619,10.87,6.276c8.523-4.921,12.864-11.331,13.1-17.787h.047v-21.7Z" transform="translate(-100.878 -83.568)" fill="#dbe2e6"/><path d="M282.5,171.725c.116,6.728-4.248,13.471-13.128,18.6V211.21c8.523-4.921,12.864-11.331,13.1-17.787h.047v-21.7Z" transform="translate(-131.087 -83.568)" fill="#e5e8eb"/><path d="M249.635,161.352c0,3.812-1.878,7.528-5.44,10.743a.522.522,0,1,0,.7.775c3.789-3.418,5.789-7.4,5.785-11.52,0-4.092-1.994-8.055-5.748-11.466l-.879.507c.029.058.031.125.082.171,3.594,3.231,5.5,6.961,5.5,10.79" transform="translate(-118.75 -72.939)" fill="#d1d8dc"/><path d="M126.675,166.222c-6.618-3.818-10.263-8.865-10.264-14.2,0-5.324,3.622-10.347,10.2-14.147,13.811-7.971,36.308-7.959,50.151.035a.523.523,0,0,0,.522-.906c-14.128-8.155-37.1-8.169-51.2-.035-6.915,4-10.725,9.34-10.724,15.053,0,5.73,3.831,11.1,10.786,15.11,7.076,4.085,16.367,6.129,25.653,6.129,9.255,0,18.5-2.031,25.544-6.094a.5.5,0,0,0,.175-.228l-.948-.547c-13.833,7.836-36.142,7.784-49.9-.165" transform="translate(-56.142 -63.688)" fill="#1890ff"/><path d="M151.806,165.119c-9.286,0-18.577-2.044-25.653-6.129-6.955-4.014-10.785-9.38-10.786-15.11,0-5.713,3.808-11.057,10.724-15.053,14.1-8.134,37.067-8.12,51.2.035,6.955,4.016,10.785,9.382,10.785,15.112,0,5.711-3.807,11.057-10.722,15.051-7.039,4.063-16.289,6.094-25.544,6.094m-.17-41.354c-9.068,0-18.126,1.989-25.022,5.968-6.579,3.8-10.2,8.824-10.2,14.147,0,5.34,3.646,10.386,10.264,14.2,13.838,8,36.339,8.01,50.153.034,6.578-3.8,10.2-8.821,10.2-14.145,0-5.34-3.645-10.386-10.263-14.206-6.931-4-16.034-6-25.129-6" transform="translate(-56.142 -59.728)" fill="#fff"/><path d="M136.388,81.007V71.032a.027.027,0,0,1,0-.014v-.013c.021-4.389,2.931-8.774,8.74-12.125,11.625-6.713,30.452-6.729,42.051-.03,5.808,3.353,8.7,7.754,8.683,12.155h0v10h0c-.018,4.386-2.928,8.775-8.733,12.123-11.63,6.712-30.454,6.726-42.057.029-5.81-3.354-8.7-7.752-8.683-12.152" transform="translate(-66.37 -26.198)" fill="#10bf1c"/><path d="M145.075,83.158c-11.6-6.7-11.582-17.566.052-24.278s30.452-6.729,42.051-.03,11.577,17.565-.046,24.282-30.456,6.723-42.056.027" transform="translate(-66.371 -26.198)" fill="#50ff44"/><path d="M128.251,56.595V46.62a.035.035,0,0,1,0-.014v-.013c.021-4.389,2.93-8.774,8.74-12.125,11.625-6.713,30.452-6.729,42.051-.03,5.808,3.353,8.7,7.754,8.683,12.155h0v10h0c-.018,4.386-2.928,8.775-8.733,12.123-11.63,6.712-30.454,6.726-42.057.029-5.81-3.354-8.7-7.752-8.683-12.152" transform="translate(-62.41 -14.318)" fill="#10bf1c"/><path d="M136.937,58.746c-11.6-6.7-11.582-17.566.052-24.278s30.452-6.729,42.051-.03S190.617,52,178.993,58.719s-30.456,6.723-42.056.027" transform="translate(-62.411 -14.318)" fill="#50ff44"/><path d="M136.388,32.182V22.207a.027.027,0,0,1,0-.014V22.18c.021-4.389,2.931-8.774,8.74-12.125,11.625-6.713,30.452-6.729,42.051-.03,5.808,3.353,8.7,7.754,8.683,12.155h0v10h0c-.018,4.386-2.928,8.775-8.733,12.123-11.63,6.712-30.454,6.726-42.057.029-5.81-3.354-8.7-7.751-8.683-12.152" transform="translate(-66.37 -2.438)" fill="#10bf1c"/><path d="M145.075,34.333c-11.6-6.7-11.582-17.566.052-24.278s30.452-6.729,42.051-.03,11.577,17.565-.046,24.282-30.456,6.723-42.056.027" transform="translate(-66.371 -2.438)" fill="#50ff44"/><path d="M156.049,35.252c-9.01-5.2-8.995-13.652.041-18.87s23.668-5.223,32.682-.022,8.995,13.655-.04,18.869-23.668,5.228-32.683.023" transform="translate(-72.656 -6.066)" fill="#8fff5e"/><path d="M194.421,26.225a.833.833,0,1,0-.833-1.442l-1.6.926a10.666,10.666,0,0,0-9.268.21,3.545,3.545,0,0,0-1.957,2.475c-.18,1.188.384,2.443,1.766,3.936,1.017,1.131,1.464,1.979,1.366,2.592-.069.436-.457.859-1.153,1.261a9.057,9.057,0,0,1-8.054-.007,2.4,2.4,0,0,1-1.431-1.85,2.384,2.384,0,0,1,1.421-1.842.833.833,0,0,0-.835-1.442,3.9,3.9,0,0,0-2.253,3.283A3.419,3.419,0,0,0,172.77,36.8l-.9.518a.833.833,0,1,0,.835,1.442l1.6-.927a10.166,10.166,0,0,0,4.412.967,9.876,9.876,0,0,0,4.849-1.177,3.554,3.554,0,0,0,1.965-2.442c.243-1.52-.9-2.993-1.78-3.977-.991-1.071-1.445-1.935-1.35-2.565.069-.451.453-.882,1.143-1.28a9.049,9.049,0,0,1,8.059,0,2.4,2.4,0,0,1,1.429,1.85,2.382,2.382,0,0,1-1.42,1.84.833.833,0,1,0,.833,1.442,3.9,3.9,0,0,0,2.253-3.282,3.42,3.42,0,0,0-1.179-2.475Z" transform="translate(-83.438 -12.005)" fill="#4bfb1c"/><path d="M194.421,18.088a.833.833,0,1,0-.833-1.442l-1.6.926a10.664,10.664,0,0,0-9.268.21,3.544,3.544,0,0,0-1.957,2.475c-.18,1.188.384,2.443,1.766,3.936,1.017,1.131,1.464,1.979,1.366,2.592-.069.436-.457.859-1.153,1.261a9.057,9.057,0,0,1-8.054-.007,2.4,2.4,0,0,1-1.431-1.85,2.383,2.383,0,0,1,1.421-1.842.833.833,0,0,0-.835-1.442,3.9,3.9,0,0,0-2.253,3.283,3.419,3.419,0,0,0,1.181,2.476l-.9.518a.833.833,0,0,0,.835,1.442l1.6-.927a10.166,10.166,0,0,0,4.412.967,9.876,9.876,0,0,0,4.849-1.177,3.554,3.554,0,0,0,1.965-2.442c.243-1.52-.9-2.993-1.78-3.977-.991-1.071-1.445-1.935-1.35-2.565.069-.451.453-.882,1.143-1.28a9.049,9.049,0,0,1,8.059,0,2.4,2.4,0,0,1,1.429,1.85,2.383,2.383,0,0,1-1.42,1.84.833.833,0,1,0,.833,1.442A3.9,3.9,0,0,0,194.7,21.08a3.42,3.42,0,0,0-1.179-2.475Z" transform="translate(-83.438 -8.046)" fill="#fff"/><path d="M195.7,23.668c0,4.223-2.815,8.172-7.922,11.118-10.323,5.963-27.1,5.975-37.4.026C145.3,31.88,142.5,27.945,142.5,23.737s2.815-8.172,7.922-11.122c10.323-5.959,27.1-5.97,37.4-.025,5.079,2.933,7.877,6.867,7.877,11.076Zm-44.8,10.24h0c10.015,5.78,26.326,5.77,36.359-.026,4.771-2.753,7.4-6.382,7.4-10.214v0c0-3.82-2.613-7.433-7.355-10.173-10.013-5.777-26.322-5.766-36.357.025-4.771,2.756-7.4,6.385-7.4,10.218s2.612,7.432,7.353,10.171" transform="translate(-69.346 -3.96)" fill="#10bf1c"/><path d="M195.7,15.53c0,4.223-2.815,8.172-7.922,11.118-10.323,5.963-27.1,5.975-37.4.026C145.3,23.742,142.5,19.808,142.5,15.6s2.815-8.173,7.922-11.123c10.323-5.959,27.1-5.97,37.4-.025,5.079,2.934,7.877,6.867,7.877,11.076ZM150.9,25.77h0c10.015,5.78,26.326,5.77,36.359-.026,4.771-2.754,7.4-6.381,7.4-10.214v0c0-3.82-2.613-7.433-7.355-10.173C177.29-.422,160.98-.412,150.945,5.381c-4.771,2.755-7.4,6.384-7.4,10.218s2.612,7.432,7.353,10.171" transform="translate(-69.346 0)" fill="#fff"/></g></svg>