<svg xmlns="http://www.w3.org/2000/svg" xmlns:xlink="http://www.w3.org/1999/xlink" width="180.094" height="177.398" viewBox="0 0 180.094 177.398"><defs><clipPath id="a"><rect width="180.094" height="177.398" fill="none"/></clipPath></defs><g clip-path="url(#a)"><path d="M55.619,134.213c1.916-1.106,1.913-2.9-.009-4.011a7.675,7.675,0,0,0-6.947,0c-1.916,1.106-1.913,2.9.008,4.011a7.681,7.681,0,0,0,6.948,0" transform="translate(-26.825 -73.478)" fill="#d1d8dc" opacity="0.1"/><path d="M56.822,101.457a5.65,5.65,0,1,1-5.65-5.65,5.65,5.65,0,0,1,5.65,5.65" transform="translate(-25.855 -54.416)" fill="#e5e8eb"/><path d="M157.709,391.924c4.324-2.5,4.317-6.547-.019-9.049a17.317,17.317,0,0,0-15.673-.012c-4.324,2.5-4.315,6.547.017,9.05a17.327,17.327,0,0,0,15.675.01" transform="translate(-78.823 -216.394)" fill="#fff" opacity="0.1"/><path d="M160.945,344.21v-3.728c-.007-1.636-1.092-3.27-3.257-4.519a17.316,17.316,0,0,0-15.673-.011c-2.165,1.25-3.244,2.89-3.236,4.53h0v3.728h0c.007,1.634,1.091,3.27,3.255,4.518a17.324,17.324,0,0,0,15.675.011c2.165-1.25,3.243-2.889,3.236-4.529" transform="translate(-78.822 -189.75)" fill="#10bf1c"/><path d="M157.709,345.012c4.324-2.5,4.317-6.547-.019-9.049a17.317,17.317,0,0,0-15.673-.011c-4.324,2.5-4.315,6.547.017,9.05a17.327,17.327,0,0,0,15.675.01" transform="translate(-78.823 -189.75)" fill="#50ff44"/><path d="M155.022,347.536a10.212,10.212,0,0,1-4.988-1.191,3.33,3.33,0,0,1-.011-6.258,11.021,11.021,0,0,1,9.958.007,3.328,3.328,0,0,1,.012,6.257,10.185,10.185,0,0,1-4.971,1.186m-.033-7.769a9.251,9.251,0,0,0-4.527,1.081,2.475,2.475,0,0,0,.011,4.734,10.041,10.041,0,0,0,9.08.005,2.474,2.474,0,0,0-.012-4.732,9.3,9.3,0,0,0-4.552-1.088" transform="translate(-83.967 -192.487)" fill="#10bf1c"/><path d="M155.022,339.4a10.212,10.212,0,0,1-4.988-1.191,3.33,3.33,0,0,1-.011-6.258,11.021,11.021,0,0,1,9.958.007,3.328,3.328,0,0,1,.012,6.257,10.185,10.185,0,0,1-4.971,1.186m-.033-7.769a9.246,9.246,0,0,0-4.527,1.081,2.475,2.475,0,0,0,.011,4.734,10.041,10.041,0,0,0,9.08.005,2.474,2.474,0,0,0-.012-4.732,9.3,9.3,0,0,0-4.552-1.088" transform="translate(-83.967 -187.864)" fill="#fff"/><path d="M338.729,285.992c7.649-4.416,7.634-11.585-.032-16.011s-20.084-4.435-27.733-.019c-6.9,3.985-7.562,10.211-1.991,14.641a4.2,4.2,0,0,0-3.5.125,1.148,1.148,0,0,0,0,2.175l.051.029a5.316,5.316,0,0,0-2.534.622l-12.527,7.233c-1.449.837-1.447,2.2.006,3.035h0a5.809,5.809,0,0,0,5.255,0l12.527-7.233a1.862,1.862,0,0,0,1.077-1.463l.051.029a4.162,4.162,0,0,0,3.766,0c.955-.552,1.02-1.415.216-2.019,7.674,3.216,18.457,2.835,25.36-1.15m-25.572-1.267c-6.47-3.736-6.483-9.786-.028-13.513s16.935-3.72,23.406.016,6.483,9.786.027,13.513-16.934,3.72-23.405-.016" transform="translate(-164.362 -151.453)" fill="#e5e8eb" opacity="0.1"/><path d="M22.821,265.377l-4.434,5.033,6.93,4-9.671-.891-4.434,5.033L9.67,272.97,0,272.079l8.717-2.56-1.543-5.583,6.93,4Z" transform="translate(0 -149.908)" fill="#d1d8dc" opacity="0.1"/><path d="M345.976,132.874c4.593-2.652,4.584-6.957-.019-9.615S333.9,120.6,329.3,123.248s-4.584,6.957.019,9.615,12.061,2.663,16.654.011" transform="translate(-185.081 -68.874)" fill="#d1d8dc" opacity="0.1"/><path d="M353.663,133.807c0-.411-.579-.745-1.29-.744l-10.043,0-.006-3.313c0-.411-.578-.744-1.29-.744s-1.287.332-1.286.742l.007,4.057a.647.647,0,0,0,.378.526,1.868,1.868,0,0,0,.911.218l11.332.006c.712,0,1.287-.332,1.287-.743" transform="translate(-192.968 -73.268)" fill="#fff"/><path d="M136.373,224.717,163.192,240.2c-14.778,8.532-38.765,8.515-53.576-.036s-14.84-22.4-.063-30.932,38.764-8.516,53.576.036Zm35.88-15.442L145.5,224.723l26.819,15.484c14.778-8.532,14.749-22.381-.063-30.932" transform="translate(-55.939 -115.21)" fill="#d1d8dc" opacity="0.2"/><path d="M151.6,152.13l11.534-6.659V127.893c-14.812-8.552-38.8-8.568-53.577-.036-7.411,4.278-11.094,9.894-11.06,15.508h0v17.578h0c.033,5.581,3.739,11.161,11.123,15.423,14.812,8.552,38.8,8.568,53.577.036V158.825Z" transform="translate(-55.939 -68.991)" fill="#a9dfff"/><path d="M163.193,167.271v17.578c-14.778,8.532-38.765,8.516-53.577-.036-7.384-4.263-11.09-9.842-11.123-15.423h0V151.811h0c.033,5.581,3.739,11.161,11.123,15.424,14.812,8.552,38.8,8.568,53.577.036m-11.6-6.7,11.534-6.659V136.339l-26.757,15.448Z" transform="translate(-55.939 -77.437)" fill="#1890ff"/><path d="M245.164,151.635c-.1-5.533-3.79-11.055-11.111-15.281L207.3,151.8v5.261l6.1,3.522,11.6,6.695-.025,12.3,9.148,5.282c7.173-4.141,10.826-9.536,11.025-14.969h.04V151.635Z" transform="translate(-117.738 -77.445)" fill="#f5f5f5"/><path d="M245.164,171.725c.1,5.662-3.575,11.336-11.048,15.651L207.3,171.892v5.261l6.1,3.522,11.6,6.695-.025,12.3,9.148,5.282c7.173-4.141,10.826-9.536,11.025-14.969h.04V171.725Z" transform="translate(-117.738 -97.535)" fill="#dbe2e6"/><path d="M280.422,171.725c.1,5.662-3.575,11.336-11.048,15.651v17.578c7.173-4.141,10.826-9.536,11.025-14.969h.04V171.725Z" transform="translate(-152.997 -97.535)" fill="#e5e8eb"/><path d="M248.745,159.535c0,3.208-1.58,6.336-4.578,9.041a.439.439,0,1,0,.588.652c3.188-2.876,4.872-6.229,4.868-9.695,0-3.444-1.678-6.778-4.837-9.649l-.74.427c.024.049.026.105.069.144,3.025,2.719,4.625,5.858,4.629,9.08" transform="translate(-138.598 -85.13)" fill="#d1d8dc"/><path d="M124.883,160.622c-5.569-3.213-8.637-7.46-8.638-11.954s3.048-8.708,8.585-11.906c11.622-6.708,30.556-6.7,42.205.029a.44.44,0,0,0,.439-.762c-11.89-6.863-31.218-6.875-43.084-.029-5.82,3.362-9.025,7.86-9.025,12.668s3.224,9.338,9.077,12.716c5.955,3.438,13.774,5.158,21.588,5.158,7.789,0,15.573-1.71,21.5-5.129a.425.425,0,0,0,.147-.192l-.8-.46c-11.641,6.594-30.416,6.55-42-.139" transform="translate(-65.525 -74.333)" fill="#1890ff"/><path d="M146.032,158.4c-7.815,0-15.633-1.72-21.588-5.158-5.853-3.378-9.076-7.894-9.077-12.716s3.2-9.305,9.025-12.668c11.866-6.845,31.194-6.833,43.084.029,5.853,3.38,9.076,7.9,9.076,12.718,0,4.806-3.2,9.305-9.023,12.666-5.924,3.419-13.708,5.129-21.5,5.129m-.143-34.8c-7.631,0-15.254,1.674-21.058,5.022-5.537,3.2-8.586,7.426-8.585,11.906s3.068,8.74,8.638,11.954c11.646,6.729,30.582,6.741,42.207.029,5.536-3.2,8.584-7.424,8.583-11.9s-3.067-8.741-8.637-11.956c-5.833-3.368-13.494-5.052-21.147-5.052" transform="translate(-65.525 -69.711)" fill="#fff"/><path d="M136.387,76.7V68.307a.023.023,0,0,1,0-.012v-.011c.018-3.693,2.466-7.384,7.355-10.2,9.783-5.65,25.627-5.663,35.388-.025,4.888,2.822,7.325,6.526,7.307,10.23h0V76.7h0c-.016,3.691-2.464,7.385-7.35,10.2-9.787,5.649-25.629,5.66-35.394.024-4.89-2.822-7.322-6.524-7.307-10.227" transform="translate(-77.463 -30.577)" fill="#10bf1c"/><path d="M143.7,78.513c-9.763-5.636-9.747-14.783.044-20.432s25.627-5.663,35.388-.025,9.743,14.782-.039,20.434-25.63,5.658-35.393.023" transform="translate(-77.464 -30.577)" fill="#50ff44"/><path d="M128.25,52.29V43.9a.029.029,0,0,1,0-.012v-.011c.018-3.693,2.466-7.384,7.355-10.2,9.783-5.65,25.627-5.663,35.388-.025,4.888,2.822,7.325,6.526,7.307,10.23h0v8.417h0c-.016,3.691-2.464,7.385-7.35,10.2-9.787,5.649-25.629,5.66-35.394.024-4.89-2.822-7.322-6.524-7.307-10.227" transform="translate(-72.841 -16.712)" fill="#10bf1c"/><path d="M135.561,54.1c-9.763-5.636-9.747-14.783.044-20.432s25.627-5.663,35.388-.025,9.743,14.782-.039,20.434-25.63,5.658-35.393.023" transform="translate(-72.842 -16.712)" fill="#50ff44"/><path d="M136.387,27.877V19.482a.023.023,0,0,1,0-.012V19.46c.018-3.693,2.466-7.384,7.355-10.2,9.783-5.65,25.627-5.663,35.388-.025,4.888,2.822,7.325,6.526,7.307,10.23h0v8.417h0c-.016,3.691-2.464,7.385-7.35,10.2-9.787,5.649-25.629,5.66-35.394.024-4.89-2.822-7.322-6.523-7.307-10.227" transform="translate(-77.463 -2.846)" fill="#10bf1c"/><path d="M143.7,29.688c-9.763-5.636-9.747-14.783.044-20.432S169.37,3.593,179.13,9.23s9.743,14.782-.039,20.434-25.63,5.658-35.393.023" transform="translate(-77.464 -2.846)" fill="#50ff44"/><path d="M154.98,31.642c-7.583-4.379-7.57-11.489.035-15.88s19.918-4.4,27.5-.018,7.57,11.492-.033,15.88-19.918,4.4-27.505.019" transform="translate(-84.799 -7.08)" fill="#8fff5e"/><path d="M190.782,25.979a.7.7,0,1,0-.7-1.214l-1.349.779a8.976,8.976,0,0,0-7.8.177,2.983,2.983,0,0,0-1.647,2.083c-.151,1,.323,2.056,1.487,3.313.856.952,1.232,1.665,1.15,2.181-.058.367-.385.723-.97,1.061a7.622,7.622,0,0,1-6.778-.006,2.017,2.017,0,0,1-1.2-1.557,2.007,2.007,0,0,1,1.2-1.55.7.7,0,0,0-.7-1.213,3.284,3.284,0,0,0-1.9,2.763,2.877,2.877,0,0,0,.994,2.084l-.753.436a.7.7,0,1,0,.7,1.214l1.347-.78a8.555,8.555,0,0,0,3.713.814,8.311,8.311,0,0,0,4.081-.99,2.991,2.991,0,0,0,1.654-2.055c.2-1.279-.754-2.519-1.5-3.347-.834-.9-1.216-1.628-1.136-2.158.058-.379.381-.742.962-1.077a7.616,7.616,0,0,1,6.782,0,2.019,2.019,0,0,1,1.2,1.557,2,2,0,0,1-1.195,1.549.7.7,0,1,0,.7,1.214,3.283,3.283,0,0,0,1.9-2.762,2.878,2.878,0,0,0-.992-2.083Z" transform="translate(-97.384 -14.012)" fill="#4bfb1c"/><path d="M190.782,17.842a.7.7,0,1,0-.7-1.214l-1.349.779a8.974,8.974,0,0,0-7.8.177,2.983,2.983,0,0,0-1.647,2.083c-.151,1,.323,2.056,1.487,3.313.856.952,1.232,1.665,1.15,2.181-.058.367-.385.723-.97,1.061a7.622,7.622,0,0,1-6.778-.006,2.017,2.017,0,0,1-1.2-1.557,2.005,2.005,0,0,1,1.2-1.55.7.7,0,0,0-.7-1.213,3.284,3.284,0,0,0-1.9,2.763,2.877,2.877,0,0,0,.994,2.084l-.753.436a.7.7,0,0,0,.7,1.214l1.347-.78a8.556,8.556,0,0,0,3.713.814,8.311,8.311,0,0,0,4.081-.99,2.991,2.991,0,0,0,1.654-2.055c.2-1.279-.754-2.519-1.5-3.347-.834-.9-1.216-1.628-1.136-2.158.058-.379.381-.742.962-1.077a7.616,7.616,0,0,1,6.782,0,2.019,2.019,0,0,1,1.2,1.557,2.005,2.005,0,0,1-1.195,1.549.7.7,0,1,0,.7,1.214,3.283,3.283,0,0,0,1.9-2.762,2.878,2.878,0,0,0-.992-2.083Z" transform="translate(-97.384 -9.39)" fill="#fff"/><path d="M187.272,21.207c0,3.554-2.369,6.877-6.667,9.356-8.687,5.018-22.807,5.028-31.477.022-4.274-2.467-6.627-5.778-6.627-9.32s2.369-6.877,6.667-9.36c8.688-5.015,22.808-5.024,31.476-.021,4.274,2.469,6.629,5.779,6.629,9.321Zm-37.7,8.618h0c8.428,4.865,22.155,4.856,30.6-.022,4.015-2.317,6.226-5.371,6.228-8.6v0c0-3.215-2.2-6.256-6.19-8.561-8.426-4.862-22.152-4.853-30.6.021-4.015,2.319-6.226,5.373-6.227,8.6s2.2,6.255,6.188,8.56" transform="translate(-80.937 -4.622)" fill="#10bf1c"/><path d="M187.272,13.069c0,3.554-2.369,6.877-6.667,9.356-8.687,5.018-22.807,5.028-31.477.022-4.274-2.467-6.627-5.778-6.627-9.32s2.369-6.878,6.667-9.36c8.688-5.015,22.808-5.024,31.476-.021,4.274,2.469,6.629,5.779,6.629,9.321Zm-37.7,8.618h0c8.428,4.865,22.155,4.856,30.6-.022,4.015-2.317,6.226-5.37,6.228-8.6v0c0-3.215-2.2-6.256-6.19-8.561-8.426-4.862-22.152-4.853-30.6.022-4.015,2.319-6.226,5.372-6.227,8.6s2.2,6.255,6.188,8.559" transform="translate(-80.937 0)" fill="#fff"/></g></svg>