<svg xmlns="http://www.w3.org/2000/svg" xmlns:xlink="http://www.w3.org/1999/xlink" width="257.677" height="232.959" viewBox="0 0 257.677 232.959"><defs><clipPath id="a"><rect width="257.677" height="232.959" fill="none"/></clipPath><clipPath id="c"><rect width="40.802" height="52.305" fill="none"/></clipPath><clipPath id="d"><rect width="20.565" height="15.75" fill="none"/></clipPath></defs><g clip-path="url(#a)"><g clip-path="url(#a)"><path d="M62.217,130.5c2.27-1.31,2.266-3.437-.01-4.75a9.091,9.091,0,0,0-8.227-.006c-2.27,1.31-2.265,3.437.009,4.751a9.1,9.1,0,0,0,8.228.006" transform="translate(-25.531 -60.927)" fill="#d1d8dc"/><path d="M63.957,97.889A6.691,6.691,0,1,1,57.265,91.2a6.691,6.691,0,0,1,6.691,6.691" transform="translate(-24.698 -44.537)" fill="#e5e8eb"/><path d="M22.218,260.864c-10.185-.007-18.48-4.8-18.492-10.677h0l-3.727,0,7.436-5.565L14.9,250.2l-3.727,0h0c.007,3.51,4.959,6.369,11.04,6.374a17.3,17.3,0,0,0,5.783-.953l4.575,3.419a28.606,28.606,0,0,1-10.349,1.831" transform="translate(0 -119.461)" fill="#1890ff"/><path d="M33.472,238.98c6.08,0,11.033,2.864,11.04,6.374l-3.726,0,7.459,5.575,7.436-5.565-3.726,0c-.012-5.88-8.308-10.67-18.492-10.677a28.616,28.616,0,0,0-10.349,1.831l4.575,3.419a17.278,17.278,0,0,1,5.783-.953" transform="translate(-11.288 -114.608)"/><path d="M274.25,14.409,252.186,1.67c-6.74-3.891-12.2-.752-12.2,7.013s5.463,17.212,12.2,21.1L274.25,42.525c6.74,3.891,12.2.751,12.2-7.013s-5.463-17.213-12.2-21.1m0,25.053L252.186,26.724c-5.263-3.039-9.545-10.443-9.545-16.506s4.282-8.524,9.545-5.486L274.25,17.471c5.263,3.038,9.544,10.444,9.544,16.507s-4.281,8.522-9.544,5.484" transform="translate(-117.197 0)" fill="#e5e8eb"/><path d="M307.23,51.709c0,3.828-2.694,5.376-6.017,3.457a13.283,13.283,0,0,1-6.016-10.4c0-3.828,2.694-5.376,6.016-3.457a13.282,13.282,0,0,1,6.017,10.4" transform="translate(-144.161 -19.769)" fill="#d1d8dc"/><path d="M461.477,302.088a22.173,22.173,0,0,0-4.265-1.019,15.25,15.25,0,0,0-.526-1.458l-6.085,0a15.338,15.338,0,0,0-.532,1.458A22.193,22.193,0,0,0,445.8,302.1c-.756-.3-1.478-.576-2.16-.814l-4.308,2.487c.412.393.884.81,1.41,1.247a7.407,7.407,0,0,0-1.774,2.465c-.907.095-1.752.2-2.525.307l-.007,3.513c.773.109,1.617.211,2.524.3a7.344,7.344,0,0,0,1.764,2.463c-.528.437-1,.855-1.415,1.249l4.3,2.481c.683-.239,1.406-.513,2.163-.817A22.169,22.169,0,0,0,450.034,318a15.151,15.151,0,0,0,.526,1.457l6.085,0a15.452,15.452,0,0,0,.532-1.458,22.189,22.189,0,0,0,4.269-1.024c.756.3,1.478.576,2.16.814l4.308-2.487c-.412-.393-.884-.81-1.41-1.247a7.4,7.4,0,0,0,1.774-2.465c.907-.094,1.752-.2,2.526-.307l.007-3.513c-.773-.109-1.618-.21-2.524-.3A7.34,7.34,0,0,0,466.522,305c.528-.437,1-.855,1.415-1.249l-4.3-2.482c-.682.239-1.406.512-2.163.817M461.3,313.97a16.993,16.993,0,0,1-15.377.01c-4.242-2.448-4.233-6.423.018-8.878a16.994,16.994,0,0,1,15.377-.011c4.242,2.449,4.233,6.424-.018,8.878" transform="translate(-213.134 -146.317)" fill="#1890ff"/><path d="M334.219,444.15c-3.429-1.98-3.435-5.2-.014-7.171a13.748,13.748,0,0,1,12.421.008c3.428,1.98,3.435,5.2.014,7.171a13.747,13.747,0,0,1-12.421-.008m9.485-5.476a7.273,7.273,0,0,0-6.572,0c-1.809,1.045-1.806,2.747.008,3.794a7.272,7.272,0,0,0,6.571,0c1.81-1.045,1.806-2.747-.008-3.794" transform="translate(-161.959 -212.678)" fill="#1890ff"/><path d="M426.576,151.022a11.945,11.945,0,0,0,.676,2.274,8.213,8.213,0,0,0-.541.641l1.649,2.85c.261-.032.538-.08.827-.145a12,12,0,0,0,1.635,1.723c.062.436.13.849.2,1.233l2.331,1.346c.073-.3.141-.633.2-1a4,4,0,0,0,1.635.164q.434.6.827,1.1l1.648-.947c-.159-.392-.339-.815-.541-1.265a3.974,3.974,0,0,0,.676-1.493q.522.193.968.325v-2.686q-.445-.383-.968-.793a11.976,11.976,0,0,0-.676-2.274,8.287,8.287,0,0,0,.541-.641l-1.648-2.85c-.261.032-.538.08-.827.145a11.979,11.979,0,0,0-1.635-1.723c-.062-.436-.13-.849-.2-1.233l-2.331-1.346c-.073.3-.141.634-.2,1a4.012,4.012,0,0,0-1.635-.165c-.289-.4-.566-.767-.827-1.1l-1.649.947c.158.392.339.815.541,1.265a3.963,3.963,0,0,0-.676,1.493c-.348-.129-.672-.238-.969-.325v2.686c.3.255.621.52.969.793m5.615-1.776a6.6,6.6,0,0,1,2.987,5.166c0,1.9-1.337,2.669-2.987,1.717a6.6,6.6,0,0,1-2.988-5.166c0-1.9,1.337-2.669,2.988-1.717" transform="translate(-207.847 -70.403)" fill="#d1d8dc"/><path d="M123.944,400.281a13.18,13.18,0,0,1-11.925-.008c-3.3-1.9-3.3-4.986-.014-6.885a13.177,13.177,0,0,1,11.925.008c3.3,1.9,3.3,4.986.014,6.885" transform="translate(-53.495 -191.418)" fill="#10bf1c"/><path d="M165.1,421.752l-18.314-10.574c-.95-.548-.831-1.506.266-2.139a4.117,4.117,0,0,1,3.7-.154l18.314,10.574c.95.548.83,1.506-.266,2.139a4.116,4.116,0,0,1-3.7.154m-15.381-2h0c1.1-.633,1.216-1.591.266-2.139l-7.17-4.14a4.118,4.118,0,0,0-3.7.154c-1.1.633-1.216,1.591-.266,2.139l7.17,4.14a4.116,4.116,0,0,0,3.7-.154" transform="translate(-67.495 -199.5)" fill="#243c67" opacity="0.2"/><path d="M131.276,265.7l-5.363,3.1,124.021,71.6,5.364-3.1Z" transform="translate(-61.49 -129.757)" fill="#243c67" opacity="0.2"/><path d="M241.854,93.193l-111-64.085c-3.365-1.943-6.444-2.1-8.831-.8l-.006-.009-5.508,3.18.008.013c-2.932,1.663-4.8,5.555-4.8,11.112V112.1c0,10.107,6.145,21.848,13.725,26.224l111,64.085c3.425,1.977,6.55,2.1,8.954.719l.009.015,5.584-3.224-.013-.022c2.817-1.725,4.6-5.557,4.6-10.987V119.416c0-10.107-6.145-21.847-13.725-26.224" transform="translate(-54.56 -13.413)" fill="#1890ff"/><path d="M236.445,205.385l-111-64.085c-7.58-4.376-13.725-16.117-13.725-26.224V45.583c0-10.107,6.145-14.752,13.725-10.376l111,64.084c7.58,4.377,13.725,16.117,13.725,26.224v69.493c0,10.107-6.145,14.752-13.725,10.376" transform="translate(-54.56 -16.389)" fill="#a9dfff"/><path d="M260.829,154.173,227.5,134.929c-2.643-1.526-4.784-5.618-4.784-9.142s2.142-5.143,4.784-3.617l33.331,19.244c2.643,1.526,4.785,5.618,4.785,9.142s-2.142,5.143-4.785,3.617" transform="translate(-108.763 -59.382)" fill="#1890ff"/><path d="M149.721,84.221l-6.058-3.5,2.8-1.111c.38-.15.427-.779.106-1.4s-.891-1.007-1.27-.857l-4.685,1.856c-.009,0-.012.015-.02.019a.438.438,0,0,0-.161.15c-.017.024-.043.036-.057.064a.833.833,0,0,0-.081.375,1.582,1.582,0,0,0,.081.468c.014.045.04.086.057.13a2.04,2.04,0,0,0,.161.336c.009.014.012.03.02.043l4.685,7.268a1.8,1.8,0,0,0,.581.581.609.609,0,0,0,.689.031c.321-.252.274-.935-.106-1.526l-2.8-4.351,6.059,3.5c.5.288.9.056.9-.518a1.988,1.988,0,0,0-.9-1.559" transform="translate(-68.515 -37.76)" fill="#fff"/><path d="M186.453,105.37c-.5-.288-.9-.056-.9.518,0,1.657-1.169,2.331-2.606,1.5a5.77,5.77,0,0,1-2.61-4.513c0-1.365.8-2.045,1.883-1.783a1.394,1.394,0,0,0,.139,1.127,1.88,1.88,0,0,0,.689.767.678.678,0,0,0,.581.09l1.591-.629a.6.6,0,0,0,.32-.609,1.884,1.884,0,0,0-.32-.977l-1.591-2.468c-.38-.589-.949-.862-1.27-.612-.269.212-.265.723-.038,1.231-2.135-.878-3.786.268-3.786,2.822a9.754,9.754,0,0,0,4.412,7.63c2.431,1.4,4.409.267,4.409-2.536a1.988,1.988,0,0,0-.9-1.559" transform="translate(-87.187 -47.707)" fill="#fff"/><path d="M338.688,192.82l2.375-1.366c.352-.2.352-.859,0-1.468s-.923-.938-1.275-.736l-2.374,1.366-2.375-4.108c-.352-.609-.922-.938-1.274-.736s-.353.86,0,1.468l2.375,4.108-2.375,1.366c-.353.2-.353.86,0,1.468a1.835,1.835,0,0,0,.637.672.64.64,0,0,0,.637.064l2.375-1.366,2.376,4.109a1.839,1.839,0,0,0,.637.672.641.641,0,0,0,.638.064c.352-.2.352-.86,0-1.468Z" transform="translate(-162.866 -90.693)" fill="#fff"/><path d="M168.186,339.969l-13.521,7.806,45.845,26.468,13.52-7.806Z" transform="translate(-75.531 -166.025)" fill="#243c67" opacity="0.2"/><path d="M182.581,157.011c-12.291,3.871-31.795-8.493-31.795-8.493l-10.817,6.245V200.98c0,20.227,25.4,56.155,31.8,59.851,3.392,1.956,12.134,1.021,19.6-3.318l10.816-6.245c6.6-3.83,12.2-10.327,12.2-19.82V185.233s-19.5-10.156-31.795-28.222" transform="translate(-68.354 -72.529)" fill="#e5e8eb"/><path d="M171.765,169.215c-12.291,3.873-31.795-8.491-31.795-8.491v46.217c0,20.227,25.4,56.155,31.8,59.851s31.8-2.911,31.795-23.138V197.437s-19.5-10.156-31.8-28.222" transform="translate(-68.354 -78.49)" fill="#f5f5f5"/><path d="M202.822,259.771c0-9.91-6.971-21.963-15.569-26.929s-15.569-.958-15.569,8.948,6.971,21.961,15.57,26.925,15.568.957,15.568-8.945" transform="translate(-83.842 -112.669)" fill="#10bf1c"/><g transform="translate(83.009 111.957)" style="mix-blend-mode:multiply;isolation:isolate"><g clip-path="url(#c)"><path d="M196.976,269.72c-3.926,2.266-9.108,1.77-14.594-1.4-11.108-6.412-20.145-22.04-20.142-34.833,0-6.3,2.154-11.013,6.064-13.274h0c3.924-2.266,9.107-1.77,14.595,1.4,11.105,6.415,20.14,22.042,20.142,34.837,0,6.3-2.155,11.011-6.066,13.27m-28.15-48.6h0c-3.575,2.067-5.545,6.46-5.545,12.373,0,12.463,8.8,27.684,19.623,33.932,5.15,2.972,9.963,3.469,13.553,1.4S202,262.361,202,256.45c0-12.463-8.8-27.688-19.621-33.935-5.152-2.971-9.966-3.468-13.555-1.4" transform="translate(-162.239 -218.817)" fill="#d1d8dc"/></g></g><path d="M189.928,273.789c-3.925,2.267-9.108,1.771-14.593-1.4-11.108-6.412-20.145-22.04-20.142-34.833,0-6.3,2.154-11.013,6.065-13.274h0c3.924-2.266,9.107-1.77,14.595,1.4,11.1,6.415,20.14,22.042,20.141,34.837,0,6.3-2.155,11.011-6.066,13.269m-28.15-48.6h0c-3.575,2.067-5.545,6.46-5.545,12.373,0,12.463,8.8,27.684,19.622,33.932,5.15,2.973,9.963,3.468,13.553,1.4s5.546-6.458,5.546-12.369c0-12.463-8.8-27.688-19.621-33.935-5.152-2.971-9.966-3.469-13.555-1.4" transform="translate(-75.789 -108.847)" fill="#fff"/><g transform="translate(93.128 130.739)" opacity="0.75" style="mix-blend-mode:multiply;isolation:isolate"><g clip-path="url(#d)"><path d="M202.082,262.3c-.665-1.15-1.745-1.774-2.408-1.39l-9.387,5.4-5.364-9.279c-.666-1.151-1.743-1.773-2.408-1.391s-.665,1.624,0,2.774l6.568,11.361a3.5,3.5,0,0,0,1.2,1.27,1.207,1.207,0,0,0,1.2.12l10.591-6.094c.665-.382.665-1.623,0-2.774" transform="translate(-182.016 -255.525)" fill="#10bf1c"/></g></g><path d="M195.035,266.365c-.665-1.151-1.745-1.774-2.408-1.39l-9.387,5.4-5.364-9.279c-.665-1.151-1.743-1.773-2.408-1.391s-.665,1.624,0,2.774l6.569,11.362a3.488,3.488,0,0,0,1.2,1.269,1.206,1.206,0,0,0,1.2.121l10.591-6.094c.665-.382.665-1.624,0-2.774" transform="translate(-85.447 -126.774)" fill="#fff"/></g></g></svg>