<svg xmlns="http://www.w3.org/2000/svg" xmlns:xlink="http://www.w3.org/1999/xlink" width="236.372" height="254.114" viewBox="0 0 236.372 254.114"><defs><clipPath id="a"><rect width="236.372" height="254.114" fill="none"/></clipPath></defs><g clip-path="url(#a)"><path d="M362.063,310.648c2.67-1.542,2.666-4.044-.012-5.589a10.7,10.7,0,0,0-9.68-.007c-2.67,1.542-2.665,4.043.011,5.59a10.7,10.7,0,0,0,9.681.006" transform="translate(-139.447 -120.95)" opacity="0.2"/><path d="M364.412,278.209a7.873,7.873,0,1,1-7.873-7.873,7.873,7.873,0,0,1,7.873,7.873" transform="translate(-138.768 -107.593)" fill="#e5e8eb"/><path d="M81.98,51.727c0-7.391-5.2-16.386-11.617-20.089s-11.617-.715-11.617,6.676S63.947,54.7,70.363,58.4s11.617.715,11.617-6.676" transform="translate(-23.381 -11.959)" fill="#1890ff"/><path d="M80.27,50.832c-.5-.858-1.3-1.324-1.8-1.037l-7,4.03-4-6.923c-.5-.858-1.3-1.323-1.8-1.038s-.5,1.212,0,2.07l4.9,8.477a2.6,2.6,0,0,0,.9.948.9.9,0,0,0,.9.089l7.9-4.546c.5-.285.5-1.211,0-2.069" transform="translate(-25.989 -18.22)"/><path d="M353.962,123.135c1.418,3.079.045,6.5-4.145,8.919s-10.116,3.212-15.449,2.394l-3.522,7.558c9.848,1.512,20.8.037,28.534-4.43s10.292-10.788,7.674-16.474Z" transform="translate(-131.676 -48.198)"/><path d="M318.512,110.669c6.252-3.61,16.378-3.617,22.616-.015a9.652,9.652,0,0,1,4.118,4.138l13.092-2.033c-1.289-2.8-3.825-5.445-7.624-7.639-11.52-6.651-30.219-6.638-41.765.028h0Z" transform="translate(-122.961 -39.855)" fill="#d1d8dc"/><path d="M312.751,127.037c-6.238-3.6-6.226-9.447.026-13.057l-9.563-5.522c-11.546,6.667-11.569,17.462-.049,24.113a38.261,38.261,0,0,0,13.231,4.4l3.522-7.558a20.72,20.72,0,0,1-7.167-2.378" transform="translate(-117.226 -43.166)" fill="#1890ff"/><path d="M81.38,336.891a25.981,25.981,0,0,0-5.018-1.2,18.1,18.1,0,0,0-.619-1.715l-7.16,0a18.079,18.079,0,0,0-.626,1.716,26.16,26.16,0,0,0-5.023,1.206c-.89-.358-1.739-.678-2.541-.958l-5.069,2.926c.485.463,1.04.954,1.659,1.468a8.708,8.708,0,0,0-2.088,2.9c-1.067.111-2.061.232-2.971.361l-.009,4.134c.91.128,1.9.248,2.971.358a8.641,8.641,0,0,0,2.076,2.9c-.621.514-1.178,1.005-1.665,1.469l5.057,2.919c.8-.281,1.654-.6,2.545-.961a25.981,25.981,0,0,0,5.018,1.2,18.031,18.031,0,0,0,.619,1.715l7.16,0a18.178,18.178,0,0,0,.626-1.716,26.157,26.157,0,0,0,5.023-1.205c.889.358,1.739.678,2.541.958l5.069-2.926c-.485-.463-1.04-.954-1.659-1.467a8.711,8.711,0,0,0,2.088-2.9c1.067-.111,2.061-.232,2.971-.361l.008-4.134c-.91-.128-1.9-.248-2.97-.358a8.64,8.64,0,0,0-2.076-2.9c.621-.515,1.178-1.006,1.665-1.469l-5.057-2.92c-.8.281-1.654.6-2.545.961m-.205,13.98c-5,2.888-13.1,2.893-18.093.012s-4.981-7.558.021-10.446,13.1-2.893,18.093-.012,4.981,7.558-.021,10.446" transform="translate(-20.662 -132.922)" fill="#e5e8eb"/><path d="M3.03,235.051c-4.034-2.329-4.042-6.115-.017-8.438a16.175,16.175,0,0,1,14.614.01c4.034,2.329,4.042,6.114.017,8.438a16.175,16.175,0,0,1-14.614-.01m11.16-6.443a8.556,8.556,0,0,0-7.732-.005c-2.129,1.229-2.126,3.232.009,4.464a8.556,8.556,0,0,0,7.732.005c2.129-1.229,2.125-3.232-.009-4.464" transform="translate(14.708 -71.499)" fill="#d1d8dc"/><path d="M228.108,289.091l0,0c.305-9.406-10.152-21.963-30.527-33.721-29.445-17-61.766-22.053-76.3-13.653-4.585,2.646-6.844,6.315-6.877,10.63l0,0,0,0c-.305,9.406,10.152,21.963,30.527,33.721,29.445,17,61.766,22.053,76.3,13.653,4.585-2.646,6.843-6.315,6.877-10.63Z" transform="translate(-45.529 -94.617)" opacity="0.2"/><path d="M179.052,132.184c-56.984-31.385-65.068,10.311-65.068,51.625h0c-.305,9.424,10.176,22.009,30.6,33.8,29.514,17.04,61.911,22.1,76.484,13.686,5.162-2.98,7.381-7.257,6.8-12.284l.1.034c0-31.95,7.161-55.971-48.924-86.861" transform="translate(-45.364 -48.236)" fill="#50ff44"/><path d="M175.054,160.213a27.96,27.96,0,0,0,13.539,3.091,55.919,55.919,0,0,0,17.161-3.038l6.833-2.744c8.542-4.219,15.3-4.7,17.719-3.065-.7-.69-1.446-1.383-2.2-2.078-3.905-.5-9.831.885-16.048,3.958l-6.751,2.711a54.563,54.563,0,0,1-16.714,2.959,26.668,26.668,0,0,1-12.916-2.934c-11.519-6.295-13.119-24.382-7.232-37.667-.47-.041-.919-.053-1.376-.076-5.878,13.783-4.014,32.325,7.985,38.883" transform="translate(-65.209 -48.289)"/><path d="M207.268,61.142l-.048-.01a32.107,32.107,0,0,0,4.146-14.724,34.29,34.29,0,0,0-68.579,0c0,17.728,5.407,39.869,21.632,42.626-1.406,8.729.852,17.509,6.739,20.726,8.164,4.463,21.586.957,29.342-2.717,1.111-.526,2.119-.99,3.082-1.421,5.423-2.418,8.712-3.148,12.091-.252-14.151-13.743-10.869-39.537-8.405-44.23" transform="translate(-56.829 -4.823)" fill="#ebebeb"/><path d="M204.5,125.041c-8.919,6.919-18.292,10.23-25.753,9a1.144,1.144,0,0,0-.276.007,31.381,31.381,0,0,0-.354,4.691c21.433-5.118,26.92-14.107,26.383-13.694" transform="translate(-70.891 -49.76)" fill="#10bf1c"/><path d="M244.079,30.219c-2.319-2.32-3.947-2.8-5.357-2.351-6.694,6.685-12.967,10.763-18.657,13.047-3.776,3.937-3.989,8.094-2.214,11.447,2.755,5.2,3.98,12.273,2.449,16.865l5.395-3.578A15.273,15.273,0,0,1,232,57.24c3.8-2.194,6.877-.426,6.877,3.949a10.861,10.861,0,0,1-.589,2.8c3.314-8.669,12.054-27.509,5.792-33.771" transform="translate(-86.276 -11.031)" fill="#495b62"/><path d="M145.126,28.819s1.822-7.9,11.006-2.081c12.3,7.791,31.063,12.144,53.171-10.05C213.3,12.674,197.886,0,177.214,0c-29.654,0-40.237,19.267-32.088,28.819" transform="translate(-56.703)" fill="#495b62"/><path d="M144.614,231.271c19.916,11.5,41.929,17.9,58.732,17.9,7.646,0,14.213-1.325,19.012-4.1a14.716,14.716,0,0,0,5.957-5.956c.043-1.831.082-3.639.105-5.426-.007.036-.04.059-.04.1-.033,4.252-2.268,7.69-6.641,10.211-14.992,8.667-47.882,2.729-76.506-13.8-18.942-10.931-30.234-23.1-30.513-32.76-.12,1.628-.225,3.266-.3,4.92,3.145,9.094,13.9,19.507,30.2,28.914" transform="translate(-45.538 -78.579)"/></g></svg>