<svg xmlns="http://www.w3.org/2000/svg" xmlns:xlink="http://www.w3.org/1999/xlink" width="152.366" height="145.719" viewBox="0 0 152.366 145.719"><defs><clipPath id="a"><rect width="152.366" height="145.719" fill="none"/></clipPath><clipPath id="c"><rect width="6.466" height="14.456" fill="none"/></clipPath></defs><g clip-path="url(#a)"><g clip-path="url(#a)"><path d="M13.108,53.986A14.471,14.471,0,0,0,6.554,42.652C2.935,40.562,0,42.249,0,46.418A14.471,14.471,0,0,0,6.554,57.753c3.619,2.09,6.554.4,6.554-3.766" transform="translate(0 -27.573)" fill="#d1d8dc" opacity="0.1"/><path d="M15,60.337c-.28-.484-.735-.747-1.014-.585l-3.951,2.274L7.777,58.119c-.28-.484-.734-.746-1.014-.585s-.28.684,0,1.168l2.765,4.782a1.467,1.467,0,0,0,.507.535.507.507,0,0,0,.507.051L15,61.5c.28-.161.28-.683,0-1.168" transform="translate(-4.327 -37.962)" fill="#fff"/><path d="M47.13,380.671c-6.515,3.761-6.527,9.852-.028,13.6s17.049,3.745,23.563-.016,6.527-9.852.028-13.6l-11.8,6.81Z" transform="translate(-27.89 -251.366)" fill="#e5e8eb" opacity="0.1"/><path d="M56.659,368.388l11.768,6.794,11.8-6.81c-6.5-3.752-17.049-3.745-23.563.016" transform="translate(-37.415 -241.4)" fill="#f5f5f5" opacity="0.3"/><path d="M292.346,7.4c0,2.521-1.774,3.541-3.963,2.277A8.749,8.749,0,0,1,284.42,2.82c0-2.521,1.774-3.541,3.963-2.277A8.749,8.749,0,0,1,292.346,7.4" transform="translate(-187.817 0)" fill="#1890ff"/><path d="M281.949,38.326,256.7,23.75a2.734,2.734,0,0,1-1.141-2.181c0-.841.511-1.227,1.141-.863l25.247,14.576a2.734,2.734,0,0,1,1.142,2.181c0,.841-.511,1.227-1.142.863m-6.257.953h0a2.733,2.733,0,0,0-1.141-2.181L256.7,26.793c-.63-.364-1.141.022-1.141.863a2.734,2.734,0,0,0,1.141,2.181l17.849,10.3c.63.364,1.141-.022,1.141-.863m3.332,6.489L256.882,32.984c-.73-.422-1.321-.082-1.321.759a2.916,2.916,0,0,0,1.321,2.284l22.142,12.784c.73.421,1.321.081,1.321-.759a2.916,2.916,0,0,0-1.321-2.284" transform="translate(-168.76 -13.583)" fill="#e5e8eb" opacity="0.2"/><path d="M398.036,228.02a14.665,14.665,0,0,0-2.831-.676,10.2,10.2,0,0,0-.349-.968l-4.04,0a10.192,10.192,0,0,0-.353.968,14.759,14.759,0,0,0-2.834.68c-.5-.2-.981-.382-1.434-.541l-2.86,1.651c.274.261.587.538.936.828a4.91,4.91,0,0,0-1.178,1.636c-.6.063-1.163.131-1.677.2l0,2.332c.513.072,1.074.14,1.676.2a4.881,4.881,0,0,0,1.171,1.635c-.351.29-.665.568-.939.829l2.853,1.647c.453-.158.933-.34,1.436-.542a14.714,14.714,0,0,0,2.831.676,10.117,10.117,0,0,0,.349.967l4.039,0a10.255,10.255,0,0,0,.353-.968,14.734,14.734,0,0,0,2.834-.68c.5.2.981.382,1.434.54l2.86-1.651c-.274-.261-.587-.538-.936-.828a4.914,4.914,0,0,0,1.178-1.636c.6-.062,1.163-.131,1.677-.2l0-2.332c-.513-.072-1.074-.14-1.676-.2a4.872,4.872,0,0,0-1.171-1.634c.351-.29.665-.568.939-.829l-2.853-1.647c-.453.159-.933.34-1.436.542m-.116,7.887a11.28,11.28,0,0,1-10.208.007c-2.816-1.625-2.81-4.264.012-5.893a11.28,11.28,0,0,1,10.208-.007c2.816,1.626,2.81,4.264-.012,5.894" transform="translate(-251.866 -149.488)" fill="#e5e8eb" opacity="0.1"/><path d="M335.249,395.237a7.932,7.932,0,0,0-1.532-.366,5.518,5.518,0,0,0-.189-.524h-2.186c-.068.161-.132.336-.191.524a8,8,0,0,0-1.534.368c-.271-.109-.531-.207-.776-.292l-1.547.893c.148.141.318.291.506.448a2.667,2.667,0,0,0-.638.885c-.326.034-.629.071-.907.11l0,1.262c.278.039.581.076.907.109a2.638,2.638,0,0,0,.634.884c-.19.157-.36.307-.508.449l1.544.891c.245-.086.505-.184.777-.293a7.955,7.955,0,0,0,1.532.366,5.458,5.458,0,0,0,.189.524l2.186,0a5.5,5.5,0,0,0,.191-.524,8,8,0,0,0,1.534-.368c.271.109.531.207.776.292l1.547-.894q-.223-.212-.507-.448a2.659,2.659,0,0,0,.638-.885c.326-.034.629-.071.907-.11l0-1.262c-.278-.039-.581-.076-.907-.109a2.645,2.645,0,0,0-.634-.885c.19-.157.36-.307.508-.448l-1.544-.891c-.245.086-.505.184-.777.293m-.843,3.817a4.378,4.378,0,0,1-3.961,0,1.207,1.207,0,0,1,0-2.287,4.378,4.378,0,0,1,3.961,0,1.207,1.207,0,0,1,0,2.287" transform="translate(-215.443 -260.408)" fill="#d1d8dc" opacity="0.1"/><path d="M31.106,245.671c-2.276-1.314-2.28-3.449-.01-4.76a9.126,9.126,0,0,1,8.246.006c2.276,1.314,2.28,3.449.01,4.76a9.125,9.125,0,0,1-8.245-.005m6.3-3.635a4.829,4.829,0,0,0-4.362,0,1.33,1.33,0,0,0,.005,2.519,4.828,4.828,0,0,0,4.362,0,1.33,1.33,0,0,0-.005-2.518" transform="translate(-19.412 -158.438)" fill="#d1d8dc" opacity="0.1"/><path d="M171.966,56.853l-31.689-18.3a10.977,10.977,0,0,1-4.329-5.338l-2.055-5.174a10.979,10.979,0,0,0-4.329-5.338L102.855,7.287a3.562,3.562,0,0,0-3.52-.372l0-.006-1.2.694,0,.005a3.492,3.492,0,0,0-1.51,3.263V68.287a11.115,11.115,0,0,0,5.035,8.707l69.111,39.9a3.527,3.527,0,0,0,3.579.341l0,0,1.176-.679h0l.042-.024,0-.007A3.54,3.54,0,0,0,177,113.311V65.56a11.115,11.115,0,0,0-5.035-8.707" transform="translate(-63.805 -4.359)" fill="#10bf1c"/><path d="M134.75,35.246,132.7,30.073a10.977,10.977,0,0,0-4.329-5.338L101.658,9.314c-2.78-1.606-5.035-.31-5.035,2.893V69.624a11.116,11.116,0,0,0,5.035,8.707l69.111,39.9c2.781,1.605,5.035.31,5.035-2.893V67.587a11.114,11.114,0,0,0-5.035-8.707l-31.689-18.3a10.981,10.981,0,0,1-4.329-5.338" transform="translate(-63.805 -5.696)" fill="#8fff5e"/><path d="M179.271,86.959,107.433,45.483V82.032l71.838,41.476Z" transform="translate(-70.943 -30.035)" fill="#fff"/><path d="M168.8,96.139,98.977,55.828a2.978,2.978,0,0,0-3.007-.241l-.016-.028-1.189.686.017.028c-1.019.556-1.681,1.867-1.681,3.783v40.63c0,3.446,2.1,7.449,4.68,8.941L167.6,149.939a2.953,2.953,0,0,0,3.07.208l.009.016,1.2-.69-.009-.017c.98-.578,1.611-1.874,1.611-3.746v-40.63c0-3.446-2.1-7.449-4.68-8.941" transform="translate(-61.479 -36.507)" fill="#10bf1c"/><path d="M167.6,151.249,97.781,110.938c-2.585-1.492-4.68-5.5-4.68-8.942V61.367c0-3.446,2.095-5.03,4.68-3.538L167.6,98.14c2.584,1.492,4.679,5.5,4.679,8.941v40.63c0,3.446-2.095,5.03-4.679,3.538" transform="translate(-61.479 -37.817)" fill="#50ff44"/><path d="M175.046,282.856,104.2,241.95c-.634-.366-.555-1.006.178-1.429a2.751,2.751,0,0,1,2.475-.1L177.7,281.324c.634.366.555,1.006-.178,1.429a2.751,2.751,0,0,1-2.475.1" transform="translate(-68.523 -158.598)" fill="#d1d8dc" opacity="0.1"/><path d="M148.991,321.4,124.4,307.2c-2.287-1.32-2-3.626.641-5.15l1.311-.757c2.64-1.524,6.634-1.69,8.921-.37l24.594,14.2c2.286,1.32,2,3.626-.641,5.15l-1.311.757c-2.64,1.524-6.634,1.69-8.92.37" transform="translate(-81.126 -198.124)" fill="#d1d8dc" opacity="0.1"/><path d="M161.379,205.737a2.623,2.623,0,0,0-1.516-2.225l-24.594-14.2c-2.287-1.32-6.28-1.154-8.921.37l-1.311.757a3.644,3.644,0,0,0-2.158,2.89h-.026V221h.028a2.624,2.624,0,0,0,1.516,2.226l24.594,14.2c2.286,1.32,6.28,1.154,8.921-.37l1.311-.757a3.643,3.643,0,0,0,2.157-2.89h.026V205.737Z" transform="translate(-81.126 -124.424)" fill="#1890ff"/><path d="M148.991,209.789,124.4,195.59c-2.287-1.32-2-3.626.641-5.15l1.311-.757c2.64-1.524,6.634-1.69,8.921-.37l24.594,14.2c2.286,1.32,2,3.626-.641,5.15l-1.311.757c-2.64,1.524-6.634,1.69-8.92.37" transform="translate(-81.126 -124.425)" fill="#a9dfff"/><path d="M147.363,197.35h0a6.564,6.564,0,0,0-6.1,0,2.681,2.681,0,0,0,.005,4.919,6.583,6.583,0,0,0,6.1,0,2.929,2.929,0,0,0,1.613-2.479,2.874,2.874,0,0,0-1.618-2.437" transform="translate(-92.222 -129.823)" fill="#1890ff"/><path d="M199.816,227.629a6.546,6.546,0,0,0-6.1,0,2.677,2.677,0,0,0,.005,4.915,6.582,6.582,0,0,0,6.1,0,2.927,2.927,0,0,0,1.611-2.453v-.025a2.882,2.882,0,0,0-1.619-2.439" transform="translate(-126.859 -149.818)" fill="#1890ff"/><path d="M157.3,133.785c-3.446-1.989-7-2.219-9.761-.628s-4.329,4.773-4.329,8.738v15.326c0,.006,0,.012,0,.019a1.731,1.731,0,0,0,1.012,1.391,5.4,5.4,0,0,0,4.888,0,1.722,1.722,0,0,0,1-1.381c0-.011,0-.021,0-.032V141.9c0-1.66.471-2.521.875-2.754s1.4-.212,2.852.627c3.825,2.209,7.18,8.009,7.18,12.414v15.326c0,.005,0,.01,0,.015a1.731,1.731,0,0,0,1.012,1.394,5.4,5.4,0,0,0,4.888,0,1.723,1.723,0,0,0,1-1.379c0-.011,0-.022,0-.033V152.183c0-6.873-4.671-14.954-10.635-18.4" transform="translate(-94.568 -87.239)" fill="#fff"/><g transform="translate(52.334 84.856)" style="mix-blend-mode:multiply;isolation:isolate"><g clip-path="url(#c)"><path d="M160.55,255.872a7.135,7.135,0,0,0-3.233-5.594c-1.786-1.029-3.233-.2-3.233,1.861a6.981,6.981,0,0,0,1.478,3.977v4.9a3.867,3.867,0,0,0,1.755,3.032c.969.561,1.757.11,1.755-1.007v-4.9c.889-.15,1.478-.956,1.477-2.268" transform="translate(-154.084 -249.836)" fill="#bbc1c5"/></g></g></g></g></svg>