<svg xmlns="http://www.w3.org/2000/svg" width="1366" height="824" viewBox="0 0 1366 824"><g transform="translate(0 -1616)"><rect width="1366" height="824" transform="translate(0 1616)" fill="#1890ff"/><text transform="translate(683 1778)" fill="#e7ebfd" font-size="24" font-family="SegoeUI-Bold, Segoe UI" font-weight="700"><tspan x="-151.523" y="0">Сценарии использования</tspan><tspan fill="#1890ff" font-family="SegoeUI, Segoe UI" font-weight="400"><tspan x="-152.156" y="30">Зачем это вашему бизнесу?</tspan></tspan></text><g transform="translate(0 -21)"><text transform="translate(228 1933)" fill="#fff" font-size="24" font-family="SegoeUI-Bold, Segoe UI" font-weight="700"><tspan x="367.209" y="26">ВЭД и Импорт</tspan><tspan font-size="16" font-family="SegoeUI, Segoe UI" font-weight="400"><tspan x="147.512" y="54">Оплата поставщикам в Китае, Турции, ОАЭ и Европе за считанные часы без </tspan><tspan y="54">SWIFT.</tspan></tspan><tspan font-family="SegoeUI, Segoe UI" font-weight="400"><tspan x="452" y="82"></tspan><tspan x="452" y="110"></tspan><tspan x="452" y="138"></tspan><tspan x="452" y="166"></tspan></tspan><tspan x="351.629" y="194">Защита капитала</tspan><tspan font-size="16" font-family="SegoeUI, Segoe UI" font-weight="400"><tspan x="210.488" y="222">Диверсификация активов компании в стейблкоины </tspan><tspan y="222">(USDT/USDC).</tspan></tspan><tspan font-family="SegoeUI, Segoe UI" font-weight="400"><tspan x="452" y="250"></tspan><tspan x="452" y="278"></tspan><tspan x="452" y="306"></tspan><tspan x="452" y="334"></tspan></tspan><tspan x="331.484" y="362">Выплаты партнерам</tspan><tspan font-size="16" font-family="SegoeUI, Segoe UI" font-weight="400"><tspan x="199.945" y="390">Трансграничные переводы фрилансерам и удаленным сотрудникам.</tspan></tspan></text></g><g transform="translate(656 1845.985)"><path d="M45.308,15.128v-.141a23.435,23.435,0,0,0-43.746,0v.141a23.013,23.013,0,0,0,0,16.67v.109a23.529,23.529,0,0,0,20.2,14.983h.109a1.562,1.562,0,0,0,1.562-1.562V43.766a1.562,1.562,0,0,0-.531-.906,26.107,26.107,0,0,1-7.046-10.03h6.015a1.562,1.562,0,1,0,0-3.125H14.858a25.185,25.185,0,0,1-.8-6.249,25.841,25.841,0,0,1,.781-6.249H32.028a25.841,25.841,0,0,1,.781,6.249,1.562,1.562,0,1,0,3.125,0,29.439,29.439,0,0,0-.671-6.244l7.483,0a20.139,20.139,0,0,1,1,6.249,1.562,1.562,0,0,0,3.125,0A23.06,23.06,0,0,0,45.308,15.128ZM18.748,43.25a20.436,20.436,0,0,1-13.3-10.421H12.5a28.888,28.888,0,0,0,6.249,10.39ZM4.14,29.7a19.764,19.764,0,0,1-1.016-6.249,20.139,20.139,0,0,1,1-6.249h7.484a29.45,29.45,0,0,0-.672,6.249,28.591,28.591,0,0,0,.7,6.249ZM12.5,14.081H5.437A20.311,20.311,0,0,1,18.748,3.707,28.529,28.529,0,0,0,12.5,14.081Zm3.359,0a26.185,26.185,0,0,1,7.577-10.5,26.185,26.185,0,0,1,7.593,10.5Zm18.514,0A28.528,28.528,0,0,0,28.122,3.707,20.311,20.311,0,0,1,41.434,14.081Z" transform="translate(0)" fill="#1890ff"/><path d="M22,19h6.249v4.687a1.562,1.562,0,0,1-1.562,1.562H23.562A1.562,1.562,0,0,1,22,23.687Z" transform="translate(12.372 10.704)" fill="#1890ff"/><path d="M34.186,39.873h-12.5A4.687,4.687,0,0,1,17,35.186v-12.5A4.687,4.687,0,0,1,21.687,18h12.5a4.687,4.687,0,0,1,4.687,4.687v12.5a4.687,4.687,0,0,1-4.687,4.687Zm-12.5-18.748a1.562,1.562,0,0,0-1.562,1.562v12.5a1.562,1.562,0,0,0,1.562,1.562h12.5a1.562,1.562,0,0,0,1.562-1.562v-12.5a1.562,1.562,0,0,0-1.562-1.562Z" transform="translate(9.56 10.142)" fill="#1890ff"/><path d="M24.125,29.125H22.562a1.562,1.562,0,1,1,0-3.125h1.562a1.562,1.562,0,0,1,0,3.125Z" transform="translate(11.809 14.641)" fill="#1890ff"/></g><g transform="translate(653 2012.902)"><path d="M27,59.078a2.2,2.2,0,0,1-.591-.092A34.209,34.209,0,0,1,3,26.493V11.078A1.846,1.846,0,0,1,4.846,9.232,29.077,29.077,0,0,0,25.6.629,2.086,2.086,0,0,1,27,0h0a1.846,1.846,0,0,1,1.348.5A29.225,29.225,0,0,0,49.154,9.232,1.846,1.846,0,0,1,51,11.078V26.493A34.209,34.209,0,0,1,27.591,59.078a2.2,2.2,0,0,1-.591,0ZM6.692,12.924V26.549A30.517,30.517,0,0,0,27,55.275,30.517,30.517,0,0,0,47.308,26.493V12.924A32.714,32.714,0,0,1,27,4.395,32.769,32.769,0,0,1,6.692,12.924Z" transform="translate(0 0)" fill="#1890ff"/><path d="M14,10h6.7v5.33A1.374,1.374,0,0,1,19.33,16.7H15.374A1.374,1.374,0,0,1,14,15.33Z" transform="translate(9.648 8.705)" fill="#1890ff"/><path d="M31.49,32.464H14.4c-2.977-.009-5.387-2.037-5.4-4.542V13.542c.011-2.5,2.421-4.533,5.4-4.542H31.49c2.977.009,5.387,2.037,5.4,4.542v14.38C36.877,30.427,34.467,32.455,31.49,32.464ZM14.4,12.352a1.317,1.317,0,0,0-1.414,1.19v14.38a1.317,1.317,0,0,0,1.414,1.19H31.49a1.317,1.317,0,0,0,1.414-1.19V13.542a1.317,1.317,0,0,0-1.414-1.19Z" transform="translate(4.056 8.807)" fill="#1890ff"/></g><g transform="translate(648.222 2187.375)"><path d="M27.875,22.11a5.979,5.979,0,0,1-3.308-1.016L14.82,14.6a1.993,1.993,0,0,1,2.192-3.308l9.766,6.5a1.993,1.993,0,0,0,2.192,0l9.766-6.5A1.993,1.993,0,0,1,40.929,14.6l-9.746,6.5a5.979,5.979,0,0,1-3.308,1.016Z" transform="translate(13.979 4.023)" fill="#1890ff"/><path d="M47.868,42.875H15.979A5.979,5.979,0,0,1,10,36.9V12.979A5.979,5.979,0,0,1,15.979,7H47.868a5.979,5.979,0,0,1,5.979,5.979V36.9a5.979,5.979,0,0,1-5.979,5.979ZM15.979,10.986a1.993,1.993,0,0,0-1.993,1.993V36.9a1.993,1.993,0,0,0,1.993,1.993H47.868A1.993,1.993,0,0,0,49.861,36.9V12.979a1.993,1.993,0,0,0-1.993-1.993Z" transform="translate(9.931 0)" fill="#1890ff"/><path d="M9.979,20.986H5.993a1.993,1.993,0,0,1,0-3.986H9.979a1.993,1.993,0,0,1,0,3.986Z" transform="translate(3.972 9.931)" fill="#1890ff"/><path d="M11.965,16.986H3.993a1.993,1.993,0,0,1,0-3.986h7.972a1.993,1.993,0,0,1,0,3.986Z" transform="translate(1.986 5.958)" fill="#1890ff"/><path d="M13.951,12.986H1.993A1.993,1.993,0,1,1,1.993,9H13.951a1.993,1.993,0,1,1,0,3.986Z" transform="translate(0 1.986)" fill="#1890ff"/></g></g></svg>