<svg xmlns="http://www.w3.org/2000/svg" xmlns:xlink="http://www.w3.org/1999/xlink" width="205" height="192.593" viewBox="0 0 205 192.593"><defs><clipPath id="a"><rect width="205" height="192.593" fill="none"/></clipPath></defs><g clip-path="url(#a)"><path d="M28.544,117.872c2.212-1.276,2.208-3.348-.01-4.627a8.855,8.855,0,0,0-8.015-.005c-2.211,1.276-2.207,3.347.009,4.628a8.86,8.86,0,0,0,8.016,0" transform="translate(-9.462 -56.319)" fill="#d1d8dc" opacity="0.2"/><path d="M30.195,85.239a6.518,6.518,0,1,1-6.518-6.518,6.518,6.518,0,0,1,6.518,6.518" transform="translate(-8.606 -39.485)" fill="#e5e8eb"/><path d="M381.825,265.762c4.989-2.88,4.98-7.553-.022-10.439s-13.094-2.893-18.081-.013-4.978,7.553.02,10.441,13.1,2.891,18.084.012" transform="translate(-180.561 -126.976)" fill="#d1d8dc" opacity="0.2"/><path d="M385.56,217.925v-4.3c-.009-1.887-1.26-3.773-3.758-5.213-5-2.887-13.094-2.893-18.081-.013-2.5,1.442-3.743,3.334-3.734,5.226h0v4.3h0c.008,1.886,1.259,3.773,3.755,5.213,5,2.886,13.1,2.892,18.084.012,2.5-1.442,3.742-3.333,3.734-5.225" transform="translate(-180.561 -103.446)" fill="#10bf1c"/><path d="M381.825,218.851c4.989-2.88,4.98-7.553-.022-10.439s-13.094-2.893-18.081-.013-4.978,7.553.02,10.44,13.1,2.891,18.084.012" transform="translate(-180.561 -103.446)" fill="#50ff44"/><path d="M377.332,221.022a11.784,11.784,0,0,1-5.755-1.374,3.842,3.842,0,0,1-.012-7.22,12.715,12.715,0,0,1,11.489.008,3.84,3.84,0,0,1,.014,7.218,11.75,11.75,0,0,1-5.735,1.368m-.037-8.963a10.673,10.673,0,0,0-5.223,1.248,2.856,2.856,0,0,0,.012,5.462,11.585,11.585,0,0,0,10.476.006,2.854,2.854,0,0,0-.014-5.46,10.728,10.728,0,0,0-5.252-1.255" transform="translate(-185.104 -105.863)" fill="#10bf1c"/><path d="M377.332,212.885a11.785,11.785,0,0,1-5.755-1.375,3.842,3.842,0,0,1-.012-7.22,12.715,12.715,0,0,1,11.489.008,3.84,3.84,0,0,1,.014,7.218,11.745,11.745,0,0,1-5.735,1.369m-.037-8.963a10.667,10.667,0,0,0-5.223,1.248,2.856,2.856,0,0,0,.012,5.462,11.583,11.583,0,0,0,10.476.006,2.854,2.854,0,0,0-.014-5.46,10.734,10.734,0,0,0-5.252-1.256" transform="translate(-185.104 -101.781)" fill="#fff"/><path d="M182.451,352.41c1.174,2.549.037,5.381-3.432,7.385a20.5,20.5,0,0,1-12.791,1.982l-2.916,6.257c8.154,1.252,17.218.031,23.624-3.668s8.521-8.932,6.353-13.639Z" transform="translate(-81.914 -175.916)" fill="#e5e8eb" opacity="0.1"/><path d="M149.334,338.483c5.177-2.989,13.56-2.995,18.725-.013a8,8,0,0,1,3.41,3.427l10.839-1.684A14.8,14.8,0,0,0,176,333.889c-9.537-5.507-25.019-5.5-34.579.023Z" transform="translate(-70.932 -165.403)" fill="#d1d8dc" opacity="0.2"/><path d="M142.085,353.466c-5.165-2.982-5.155-7.822.022-10.811l-7.918-4.571c-9.56,5.519-9.578,14.458-.04,19.964a31.676,31.676,0,0,0,10.954,3.645l2.916-6.258a17.156,17.156,0,0,1-5.934-1.969" transform="translate(-63.704 -169.575)" fill="#f5f5f5" opacity="0.3"/><path d="M176.021,10.853c0,3.7-2.6,5.2-5.815,3.342a12.838,12.838,0,0,1-5.815-10.057c0-3.7,2.6-5.2,5.815-3.342a12.838,12.838,0,0,1,5.815,10.057" transform="translate(-82.455 0)" fill="#10bf1c"/><path d="M241.2,44.443,204.149,23.052a4.011,4.011,0,0,1-1.675-3.2c0-1.233.75-1.8,1.675-1.266L241.2,39.976a4.012,4.012,0,0,1,1.675,3.2c0,1.233-.75,1.8-1.675,1.266m-9.181,1.4h0a4.011,4.011,0,0,0-1.675-3.2L204.149,27.518c-.925-.534-1.675.033-1.675,1.266a4.013,4.013,0,0,0,1.675,3.2l26.193,15.123c.925.534,1.675-.033,1.675-1.266m4.889,9.522L204.412,36.6c-1.07-.618-1.938-.12-1.938,1.114a4.28,4.28,0,0,0,1.938,3.352l32.493,18.76c1.071.619,1.938.12,1.938-1.113a4.279,4.279,0,0,0-1.938-3.352" transform="translate(-101.556 -9.221)" fill="#e5e8eb" opacity="0.2"/><path d="M2.509,275.57c-3.34-1.928-3.346-5.062-.014-6.986a13.392,13.392,0,0,1,12.1.008c3.339,1.928,3.346,5.061.014,6.985a13.39,13.39,0,0,1-12.1-.008m9.24-5.335a7.084,7.084,0,0,0-6.4,0c-1.763,1.018-1.759,2.676.007,3.7a7.085,7.085,0,0,0,6.4,0c1.763-1.018,1.759-2.676-.007-3.7" transform="translate(0 -133.993)" fill="#d1d8dc" opacity="0.2"/><path d="M200.195,105.564l-90.1-52.022c-2.629-1.518-5.009-1.665-6.733-.677h0l-6.948,4.011.007.013c-1.77.971-2.875,3.106-2.875,6.183v50.7c0,6.064,4.267,13.442,9.53,16.481l90.1,52.022c2.58,1.49,4.912,1.644,6.628.717l.01.017,7.18-4.145-.005-.01c1.689-1.006,2.736-3.111,2.736-6.107v-50.7c0-6.064-4.267-13.442-9.53-16.481" transform="translate(-46.918 -26.201)" fill="#e5e8eb"/><path d="M193.175,113.693l-90.1-52.022c-5.263-3.039-9.53-.587-9.53,5.476v50.7c0,6.063,4.267,13.442,9.53,16.481l90.1,52.022c5.263,3.039,9.53.587,9.53-5.477v-50.7c0-6.063-4.267-13.442-9.53-16.481" transform="translate(-46.918 -30.279)" fill="#f5f5f5"/><path d="M202.706,130.15c-.012-6.05-4.261-13.4-9.506-16.44-.007,0-.014-.011-.022-.015l-90.1-52.022c-.007,0-.014-.005-.021-.01-5.246-3.015-9.494-.573-9.506,5.463.008,4.04,1.935,8.634,4.764,12.154h0l-.018.017,43.1,53.911c3.722,4.656,9.756,8.14,13.478,7.781l43.213-4.158-.018-.033h0c2.767-.307,4.64-2.671,4.648-6.646" transform="translate(-46.92 -30.281)" fill="#a9dfff"/><path d="M203.08,105.564l-90.1-52.022c-2.629-1.518-5.009-1.665-6.733-.677h0l-6.947,4.011.007.013c1.718-.943,4.063-.791,6.655.706l90.1,52.022c5.264,3.039,9.53,10.418,9.53,16.481l7.018-4.052c0-6.064-4.266-13.442-9.53-16.481" transform="translate(-49.804 -26.201)" fill="#1890ff"/><path d="M281.19,271.861l-13.972-8.067a4.01,4.01,0,0,1-1.675-3.2c0-1.233.75-1.8,1.675-1.266L281.19,267.4a4.008,4.008,0,0,1,1.675,3.2c0,1.233-.75,1.8-1.675,1.266m-3.977,4.4h0a4.01,4.01,0,0,0-1.675-3.2l-8.32-4.8c-.925-.534-1.675.033-1.675,1.266a4.011,4.011,0,0,0,1.675,3.2l8.32,4.8c.925.534,1.675-.033,1.675-1.266" transform="translate(-133.191 -129.972)" fill="#d1d8dc"/><path d="M203.788,293.571l-81.83-47.244c-1.241-.717-1.085-1.967.347-2.794a5.377,5.377,0,0,1,4.839-.2l81.83,47.245c1.24.716,1.085,1.967-.347,2.794a5.377,5.377,0,0,1-4.839.2" transform="translate(-60.751 -121.807)" fill="#d1d8dc" opacity="0.2"/><path d="M63.447,242.9l-10.526,6.077,35.7,20.612,10.526-6.077Z" transform="translate(-26.544 -121.835)" fill="#d1d8dc" opacity="0.2"/><path d="M76.839,145.292C70.7,141.746,65.134,141.4,61.1,143.7h0l-10.538,6.084v0c-4.043,2.313-6.545,7.293-6.545,14.391,0,14.176,9.976,31.428,22.281,38.532,6.144,3.547,11.705,3.893,15.736,1.587h0l.014-.008.008,0,10.515-6.071h0c4.043-2.312,6.545-7.292,6.545-14.391,0-14.176-9.975-31.428-22.281-38.532" transform="translate(-22.079 -71.346)" fill="#10bf1c"/><path d="M88.582,196.03c0,14.176-9.975,19.908-22.281,12.8S44.02,184.478,44.02,170.3,54,150.393,66.3,157.5s22.281,24.356,22.281,38.532" transform="translate(-22.079 -77.468)" fill="#50ff44"/><path d="M63.606,203.04c3.093,5.73,7.552,10.8,12.519,13.669s9.426,2.945,12.519.787A30.784,30.784,0,0,0,78.561,201.59c2.906.512,5.005-1.427,5.005-5.173a16.428,16.428,0,0,0-7.441-12.868c-4.109-2.372-7.441-.458-7.441,4.276,0,3.746,2.1,8.108,5.006,10.953-4.733-1.716-8.56-.013-10.084,4.262" transform="translate(-31.903 -91.553)" fill="#fff"/><path d="M70.841,209.494c-9.8-5.657-17.769-19.442-17.769-30.729s7.972-15.867,17.769-10.211S88.611,188,88.611,199.283s-7.971,15.868-17.769,10.211m0-39.929c-9.314-5.378-16.891-1.023-16.891,9.706s7.577,23.833,16.891,29.211,16.891,1.023,16.891-9.706-7.577-23.833-16.891-29.211" transform="translate(-26.62 -83.327)" fill="#fff"/></g></svg>