<svg xmlns="http://www.w3.org/2000/svg" xmlns:xlink="http://www.w3.org/1999/xlink" width="1366" height="784" viewBox="0 0 1366 784"><defs><clipPath id="a"><rect width="179.143" height="161.959" fill="none"/></clipPath><clipPath id="c"><rect width="28.366" height="36.363" fill="none"/></clipPath><clipPath id="d"><rect width="14.297" height="10.95" fill="none"/></clipPath><clipPath id="e"><rect width="178.256" height="167.467" fill="none"/></clipPath><clipPath id="f"><rect width="180.094" height="177.398" fill="none"/></clipPath><clipPath id="g"><rect width="152.366" height="145.719" fill="none"/></clipPath><clipPath id="i"><rect width="6.466" height="14.456" fill="none"/></clipPath></defs><g transform="translate(0 -1616)"><rect width="1366" height="784" transform="translate(0 1616)" fill="#1890ff"/><text transform="translate(683 1724)" fill="#e7ebfd" font-size="24" font-family="SegoeUI-Bold, Segoe UI" font-weight="700"><tspan x="-181.271" y="0">Ваши гарантии и безопасность</tspan></text><text transform="translate(231 1754)" fill="#fff" font-size="14" font-family="SegoeUI, Segoe UI"><tspan x="5.008" y="15">Наш пункт обмена электронных валют – система, созданная на базе современного программного обеспечения и содержащая весь набор </tspan><tspan x="213.727" y="43">необходимых функций для удобной и безопасной конвертации наиболее </tspan></text><g transform="translate(139 1936)"><g transform="translate(0 81)" fill="#fff" stroke="rgba(24,144,255,0.35)" stroke-width="1" opacity="0.1"><rect width="260" height="303" rx="30" stroke="none"/><rect x="0.5" y="0.5" width="259" height="302" rx="29.5" fill="none"/></g><g transform="translate(50.428 2.1)"><g transform="translate(-10 -2.1)" clip-path="url(#a)"><g clip-path="url(#a)"><path d="M59.189,128.749c1.578-.911,1.575-2.389-.007-3.3a6.321,6.321,0,0,0-5.72,0c-1.578.911-1.575,2.389.006,3.3a6.323,6.323,0,0,0,5.721,0" transform="translate(-33.684 -80.382)" fill="#d1d8dc"/><path d="M59.878,95.85A4.652,4.652,0,1,1,55.226,91.2a4.652,4.652,0,0,1,4.652,4.652" transform="translate(-32.584 -58.758)" fill="#e5e8eb"/><path d="M15.447,255.913c-7.081,0-12.848-3.334-12.856-7.423h0l-2.591,0,5.17-3.869,5.186,3.876-2.591,0h0c0,2.441,3.448,4.428,7.675,4.431a12.024,12.024,0,0,0,4.02-.662l3.18,2.377a19.888,19.888,0,0,1-7.195,1.273" transform="translate(0 -157.606)" fill="#1890ff"/><path d="M30.316,237.67c4.227,0,7.67,1.991,7.675,4.431l-2.59,0,5.186,3.876,5.17-3.869-2.591,0c-.009-4.088-5.776-7.418-12.856-7.423a19.894,19.894,0,0,0-7.195,1.273l3.18,2.377a12.011,12.011,0,0,1,4.02-.662" transform="translate(-14.893 -151.203)"/><path d="M263.806,10.017,248.467,1.161c-4.686-2.705-8.484-.523-8.484,4.875s3.8,11.966,8.484,14.672l15.339,8.856c4.686,2.705,8.484.522,8.484-4.875s-3.8-11.967-8.484-14.672m0,17.418-15.339-8.856A14.671,14.671,0,0,1,241.831,7.1c0-4.215,2.977-5.926,6.636-3.814l15.339,8.856a14.671,14.671,0,0,1,6.635,11.476c0,4.215-2.977,5.925-6.635,3.813" transform="translate(-154.619 0)" fill="#e5e8eb"/><path d="M303.563,48.287c0,2.661-1.873,3.737-4.183,2.4a9.235,9.235,0,0,1-4.183-7.234c0-2.661,1.873-3.737,4.183-2.4a9.234,9.234,0,0,1,4.183,7.234" transform="translate(-190.193 -26.081)" fill="#d1d8dc"/><path d="M453.844,301.334a15.416,15.416,0,0,0-2.965-.708,10.609,10.609,0,0,0-.366-1.013l-4.23,0a10.662,10.662,0,0,0-.37,1.014,15.431,15.431,0,0,0-2.968.712c-.526-.211-1.028-.4-1.5-.566l-3,1.729c.287.273.615.563.98.867a5.15,5.15,0,0,0-1.234,1.714c-.631.066-1.218.137-1.756.214l-.005,2.442c.537.076,1.124.147,1.755.211a5.105,5.105,0,0,0,1.226,1.712c-.367.3-.7.594-.984.868l2.988,1.725c.475-.166.978-.356,1.5-.568a15.414,15.414,0,0,0,2.965.708,10.524,10.524,0,0,0,.366,1.013l4.23,0a10.745,10.745,0,0,0,.37-1.014,15.423,15.423,0,0,0,2.968-.712c.525.211,1.028.4,1.5.566l3-1.729c-.287-.273-.615-.563-.98-.867a5.148,5.148,0,0,0,1.234-1.714c.631-.065,1.218-.137,1.756-.213l0-2.443c-.538-.076-1.125-.146-1.755-.211a5.1,5.1,0,0,0-1.226-1.712c.367-.3.7-.594.983-.868l-2.988-1.725c-.474.166-.977.356-1.5.568m-.121,8.26a11.814,11.814,0,0,1-10.69.007c-2.949-1.7-2.943-4.466.012-6.172a11.815,11.815,0,0,1,10.69-.008c2.949,1.7,2.943,4.466-.012,6.172" transform="translate(-281.19 -193.037)" fill="#1890ff"/><path d="M333.434,441.514c-2.384-1.376-2.388-3.613-.01-4.986a9.558,9.558,0,0,1,8.635.006c2.383,1.376,2.388,3.613.01,4.986a9.557,9.557,0,0,1-8.635-.006m6.594-3.807a5.057,5.057,0,0,0-4.569,0c-1.258.726-1.255,1.909.006,2.638a5.055,5.055,0,0,0,4.568,0c1.258-.726,1.256-1.91-.005-2.638" transform="translate(-213.674 -280.589)" fill="#1890ff"/><path d="M426.28,148.932a8.307,8.307,0,0,0,.47,1.581,5.715,5.715,0,0,0-.376.446l1.146,1.982c.181-.022.374-.056.575-.1a8.345,8.345,0,0,0,1.137,1.2c.043.3.091.59.141.857l1.621.936c.051-.208.1-.44.141-.694a2.784,2.784,0,0,0,1.137.114q.3.417.575.765l1.146-.658c-.11-.272-.236-.567-.376-.88a2.763,2.763,0,0,0,.47-1.038q.363.134.673.226V151.8q-.309-.266-.673-.551a8.327,8.327,0,0,0-.47-1.581,5.762,5.762,0,0,0,.376-.446l-1.146-1.982c-.181.022-.374.056-.575.1a8.328,8.328,0,0,0-1.137-1.2c-.043-.3-.09-.59-.141-.857l-1.621-.936c-.051.208-.1.441-.141.694a2.789,2.789,0,0,0-1.137-.115c-.2-.277-.394-.534-.575-.765l-1.146.658c.11.272.236.567.376.88a2.756,2.756,0,0,0-.47,1.038c-.242-.09-.467-.165-.673-.226v1.867c.206.177.431.361.673.551m3.9-1.235a4.586,4.586,0,0,1,2.077,3.592c0,1.321-.93,1.856-2.077,1.193a4.585,4.585,0,0,1-2.077-3.592c0-1.321.93-1.856,2.077-1.193" transform="translate(-274.215 -92.884)" fill="#d1d8dc"/><path d="M119.555,397.746a9.163,9.163,0,0,1-8.291-.006c-2.292-1.323-2.3-3.466-.01-4.786a9.161,9.161,0,0,1,8.291.006c2.292,1.323,2.3,3.466.01,4.786" transform="translate(-70.577 -252.54)" fill="#10bf1c"/><path d="M156.907,417.718l-12.732-7.351c-.66-.381-.578-1.047.185-1.487a2.862,2.862,0,0,1,2.575-.107l12.733,7.351c.66.381.577,1.047-.185,1.487a2.862,2.862,0,0,1-2.575.107m-10.693-1.393h0c.762-.44.845-1.106.185-1.487l-4.985-2.878a2.863,2.863,0,0,0-2.575.107c-.762.44-.845,1.106-.185,1.487l4.985,2.878a2.862,2.862,0,0,0,2.575-.107" transform="translate(-89.046 -263.203)" fill="#243c67" opacity="0.2"/><path d="M129.641,265.7l-3.729,2.153,86.223,49.781,3.729-2.153Z" transform="translate(-81.124 -171.19)" fill="#243c67" opacity="0.2"/><path d="M202.193,73.161,125.025,28.607c-2.34-1.351-4.48-1.459-6.14-.555l0-.006-3.83,2.211.006.009c-2.039,1.156-3.335,3.862-3.335,7.725V86.305c0,7.027,4.272,15.189,9.542,18.232l77.168,44.553c2.381,1.374,4.553,1.458,6.225.5l.006.01,3.882-2.241-.009-.015c1.958-1.2,3.2-3.864,3.2-7.639V91.392c0-7.026-4.272-15.189-9.542-18.232" transform="translate(-71.982 -17.696)" fill="#1890ff"/><path d="M198.433,153.017l-77.168-44.553c-5.27-3.042-9.542-11.205-9.542-18.232V41.919c0-7.026,4.272-10.256,9.542-7.213l77.168,44.553c5.27,3.043,9.542,11.205,9.542,18.232V145.8c0,7.027-4.272,10.256-9.542,7.214" transform="translate(-71.981 -21.622)" fill="#a9dfff"/><path d="M249.213,144.244,226.04,130.866a7.966,7.966,0,0,1-3.326-6.356c0-2.45,1.489-3.576,3.326-2.515l23.172,13.379a7.966,7.966,0,0,1,3.327,6.356c0,2.45-1.489,3.576-3.327,2.515" transform="translate(-143.493 -78.343)" fill="#1890ff"/><path d="M146.849,82.118l-4.212-2.432,1.949-.772c.264-.1.3-.542.074-.974s-.619-.7-.883-.6l-3.257,1.29c-.006,0-.008.011-.014.014a.3.3,0,0,0-.112.1c-.012.017-.03.025-.04.045a.579.579,0,0,0-.056.26,1.1,1.1,0,0,0,.056.325c.01.031.028.06.04.091a1.419,1.419,0,0,0,.112.233c.006.01.008.021.014.03l3.257,5.053a1.248,1.248,0,0,0,.4.4.424.424,0,0,0,.479.021c.223-.175.19-.65-.074-1.061l-1.95-3.025,4.213,2.432c.346.2.627.039.627-.36a1.382,1.382,0,0,0-.627-1.084" transform="translate(-90.393 -49.817)" fill="#fff"/><path d="M184.039,103.029c-.346-.2-.627-.039-.627.36,0,1.152-.813,1.621-1.812,1.044a4.011,4.011,0,0,1-1.814-3.137c0-.949.556-1.422,1.309-1.24a.969.969,0,0,0,.1.784,1.307,1.307,0,0,0,.479.533.471.471,0,0,0,.4.063l1.106-.437a.418.418,0,0,0,.222-.423,1.31,1.31,0,0,0-.222-.679l-1.106-1.716c-.264-.409-.659-.6-.883-.425-.187.147-.184.5-.027.856-1.484-.611-2.632.186-2.632,1.962a6.781,6.781,0,0,0,3.068,5.3c1.69.976,3.066.185,3.066-1.763a1.382,1.382,0,0,0-.627-1.084" transform="translate(-115.027 -62.941)" fill="#fff"/><path d="M337.107,190.654l1.651-.949c.245-.141.245-.6,0-1.021s-.641-.652-.886-.512l-1.651.949-1.651-2.856c-.245-.423-.641-.652-.886-.512s-.245.6,0,1.021l1.651,2.856-1.651.949c-.245.141-.245.6,0,1.021a1.276,1.276,0,0,0,.443.467.445.445,0,0,0,.443.044l1.651-.95,1.652,2.856a1.279,1.279,0,0,0,.443.467.445.445,0,0,0,.443.044c.245-.141.245-.6,0-1.021Z" transform="translate(-214.871 -119.653)" fill="#fff"/><path d="M164.065,339.969l-9.4,5.427,31.873,18.4,9.4-5.427Z" transform="translate(-99.649 -219.039)" fill="#243c67" opacity="0.2"/><path d="M169.594,154.423c-8.545,2.691-22.1-5.9-22.1-5.9l-7.52,4.342v32.131c0,14.062,17.658,39.041,22.105,41.61,2.358,1.36,8.436.71,13.623-2.306l7.519-4.341c4.591-2.663,8.481-7.18,8.481-13.779v-32.13s-13.56-7.061-22.1-19.621" transform="translate(-90.181 -95.689)" fill="#e5e8eb"/><path d="M162.074,166.627c-8.545,2.692-22.1-5.9-22.1-5.9v32.131c0,14.062,17.658,39.041,22.105,41.61s22.105-2.024,22.1-16.086V186.248s-13.56-7.061-22.105-19.621" transform="translate(-90.181 -103.553)" fill="#f5f5f5"/><path d="M193.331,250.915c0-6.89-4.846-15.269-10.824-18.722s-10.824-.666-10.824,6.221,4.846,15.268,10.825,18.719,10.824.665,10.824-6.219" transform="translate(-110.614 -148.646)" fill="#10bf1c"/><g transform="translate(57.71 77.835)" style="mix-blend-mode:multiply;isolation:isolate"><g clip-path="url(#c)"><path d="M186.389,254.206c-2.729,1.575-6.332,1.231-10.146-.971-7.722-4.458-14-15.323-14-24.217,0-4.38,1.5-7.657,4.216-9.228h0c2.728-1.575,6.331-1.23,10.147.971,7.721,4.46,14,15.324,14,24.22,0,4.378-1.5,7.655-4.217,9.225m-19.571-33.79h0c-2.486,1.437-3.855,4.491-3.855,8.6,0,8.664,6.12,19.247,13.642,23.59,3.581,2.066,6.927,2.411,9.422.97s3.856-4.49,3.856-8.6c0-8.665-6.121-19.25-13.641-23.593-3.582-2.066-6.929-2.411-9.424-.971" transform="translate(-162.24 -218.816)" fill="#d1d8dc"/></g></g><path d="M179.341,258.275c-2.729,1.576-6.332,1.231-10.146-.97-7.722-4.458-14-15.323-14-24.217,0-4.38,1.5-7.657,4.216-9.228h0c2.728-1.575,6.331-1.23,10.147.971,7.72,4.46,14,15.324,14,24.22,0,4.378-1.5,7.655-4.217,9.225m-19.57-33.789h0c-2.486,1.437-3.855,4.491-3.855,8.6,0,8.664,6.119,19.247,13.642,23.59,3.581,2.067,6.927,2.411,9.422.97s3.856-4.49,3.856-8.6c0-8.665-6.121-19.25-13.641-23.593-3.582-2.066-6.929-2.412-9.424-.971" transform="translate(-99.989 -143.603)" fill="#fff"/><g transform="translate(64.745 90.893)" opacity="0.75" style="mix-blend-mode:multiply;isolation:isolate"><g clip-path="url(#d)"><path d="M195.966,260.232c-.462-.8-1.213-1.233-1.674-.966l-6.526,3.755-3.729-6.451c-.463-.8-1.212-1.233-1.674-.967s-.462,1.129,0,1.929l4.566,7.9a2.43,2.43,0,0,0,.837.883.839.839,0,0,0,.837.084l7.363-4.236c.462-.266.462-1.129,0-1.929" transform="translate(-182.016 -255.525)" fill="#10bf1c"/></g></g><path d="M188.919,264.3c-.462-.8-1.213-1.233-1.674-.966l-6.526,3.755-3.729-6.451c-.462-.8-1.212-1.233-1.674-.967s-.462,1.129,0,1.929l4.567,7.9a2.425,2.425,0,0,0,.837.883.838.838,0,0,0,.837.084l7.363-4.237c.462-.266.462-1.129,0-1.929" transform="translate(-112.731 -167.254)" fill="#fff"/></g></g></g><g transform="translate(28 193)"><text fill="#fff" font-size="18" font-family="SegoeUI-Bold, Segoe UI" font-weight="700"><tspan x="18.938" y="19">Лицензированный </tspan><tspan x="66.649" y="41">партнер</tspan><tspan font-size="16"><tspan x="102.5" y="63"></tspan></tspan><tspan font-size="14" font-family="SegoeUI, Segoe UI" font-weight="400"><tspan x="13.585" y="85">Работаем в правовом поле, </tspan><tspan x="34.229" y="107">имеем официальную </tspan><tspan x="0.6" y="129">лицензию Кыргызстана (можно </tspan><tspan x="52.611" y="151">указать номер).</tspan></tspan></text></g></g><g transform="translate(415 1933.266)"><g transform="translate(0 83.734)" fill="#fff" stroke="rgba(24,144,255,0.35)" stroke-width="1" opacity="0.1"><rect width="260" height="303" rx="30" stroke="none"/><rect x="0.5" y="0.5" width="259" height="302" rx="29.5" fill="none"/></g><g transform="translate(28 195.734)"><text fill="#fff" font-size="18" font-family="SegoeUI-Bold, Segoe UI" font-weight="700"><tspan x="70.965" y="19">Оплата </tspan><tspan x="53.716" y="41">по безналу</tspan><tspan font-size="16"><tspan x="102.5" y="63"></tspan></tspan><tspan font-size="14" font-family="SegoeUI, Segoe UI" font-weight="400"><tspan x="18.302" y="85">Принимаем и отправляем </tspan><tspan x="11.603" y="107">платежи с расчетных счетов </tspan><tspan x="2.35" y="129">юрлиц. Никаких сомнительных </tspan><tspan x="52.611" y="151">P2P </tspan><tspan y="151">переводов.</tspan></tspan></text></g><g transform="translate(41.372)"><g clip-path="url(#e)"><path d="M27.281,117.143c1.923-1.11,1.92-2.911-.009-4.024a7.7,7.7,0,0,0-6.969,0c-1.922,1.109-1.919,2.911.008,4.024a7.7,7.7,0,0,0,6.97,0" transform="translate(-10.688 -63.62)" fill="#d1d8dc" opacity="0.2"/><path d="M28.494,84.389a5.668,5.668,0,1,1-5.668-5.668,5.668,5.668,0,0,1,5.668,5.668" transform="translate(-9.722 -44.603)" fill="#e5e8eb"/><path d="M378.976,264.117c4.338-2.5,4.331-6.568-.02-9.078a17.374,17.374,0,0,0-15.722-.011c-4.337,2.5-4.329,6.567.017,9.079a17.383,17.383,0,0,0,15.725.01" transform="translate(-203.968 -143.437)" fill="#d1d8dc" opacity="0.2"/><path d="M382.223,216.4v-3.74c-.008-1.641-1.1-3.28-3.268-4.533a17.371,17.371,0,0,0-15.722-.011c-2.172,1.254-3.254,2.9-3.247,4.545h0V216.4h0c.007,1.64,1.095,3.281,3.265,4.533a17.379,17.379,0,0,0,15.725.011c2.172-1.254,3.254-2.9,3.247-4.543" transform="translate(-203.968 -116.857)" fill="#10bf1c"/><path d="M378.976,217.206c4.338-2.5,4.331-6.568-.02-9.078a17.371,17.371,0,0,0-15.722-.011c-4.337,2.5-4.329,6.567.017,9.078a17.382,17.382,0,0,0,15.725.01" transform="translate(-203.968 -116.857)" fill="#50ff44"/><path d="M376.251,219.723a10.247,10.247,0,0,1-5-1.195,3.341,3.341,0,0,1-.011-6.278,11.057,11.057,0,0,1,9.99.007,3.339,3.339,0,0,1,.012,6.276,10.217,10.217,0,0,1-4.987,1.19m-.033-7.793a9.28,9.28,0,0,0-4.542,1.085,2.483,2.483,0,0,0,.011,4.749,10.073,10.073,0,0,0,9.11.005,2.482,2.482,0,0,0-.012-4.747,9.328,9.328,0,0,0-4.567-1.092" transform="translate(-209.1 -119.587)" fill="#10bf1c"/><path d="M376.251,211.585a10.247,10.247,0,0,1-5-1.2,3.341,3.341,0,0,1-.011-6.278,11.056,11.056,0,0,1,9.99.007,3.339,3.339,0,0,1,.012,6.276,10.213,10.213,0,0,1-4.987,1.19m-.033-7.794a9.276,9.276,0,0,0-4.542,1.085,2.483,2.483,0,0,0,.011,4.749,10.072,10.072,0,0,0,9.11.005,2.482,2.482,0,0,0-.012-4.747,9.333,9.333,0,0,0-4.567-1.092" transform="translate(-209.1 -114.976)" fill="#fff"/><path d="M179.955,352.19c1.021,2.217.032,4.679-2.984,6.421a17.825,17.825,0,0,1-11.122,1.723l-2.535,5.441c7.09,1.089,14.972.027,20.542-3.189s7.409-7.767,5.524-11.86Z" transform="translate(-92.533 -198.721)" fill="#e5e8eb" opacity="0.1"/><path d="M148.3,337.346c4.5-2.6,11.791-2.6,16.282-.011a6.952,6.952,0,0,1,2.965,2.98l9.425-1.464a12.87,12.87,0,0,0-5.489-5.5c-8.293-4.788-21.755-4.779-30.068.02Z" transform="translate(-80.127 -186.845)" fill="#d1d8dc" opacity="0.2"/><path d="M140.118,351.459c-4.491-2.593-4.483-6.8.019-9.4l-6.885-3.975c-8.313,4.8-8.328,12.572-.035,17.359a27.543,27.543,0,0,0,9.525,3.169l2.536-5.441a14.917,14.917,0,0,1-5.16-1.712" transform="translate(-71.962 -191.559)" fill="#f5f5f5" opacity="0.3"/><path d="M174.5,9.437c0,3.217-2.264,4.518-5.056,2.906A11.163,11.163,0,0,1,164.391,3.6c0-3.217,2.264-4.518,5.056-2.906A11.163,11.163,0,0,1,174.5,9.437" transform="translate(-93.144 0)" fill="#10bf1c"/><path d="M236.146,41.043l-32.216-18.6a3.488,3.488,0,0,1-1.456-2.782c0-1.072.652-1.565,1.456-1.1l32.216,18.6a3.488,3.488,0,0,1,1.457,2.783c0,1.072-.652,1.565-1.457,1.1m-7.983,1.216h0a3.487,3.487,0,0,0-1.457-2.782L203.93,26.327c-.8-.464-1.456.029-1.456,1.1a3.489,3.489,0,0,0,1.456,2.783l22.776,13.15c.8.464,1.457-.029,1.457-1.1m4.251,8.28L204.16,34.226c-.931-.537-1.686-.1-1.686.969a3.722,3.722,0,0,0,1.686,2.915l28.254,16.312c.931.538,1.685.1,1.685-.968a3.721,3.721,0,0,0-1.685-2.915" transform="translate(-114.722 -10.417)" fill="#e5e8eb" opacity="0.2"/><path d="M2.182,274.47c-2.9-1.677-2.91-4.4-.012-6.075a11.645,11.645,0,0,1,10.521.007c2.9,1.676,2.909,4.4.012,6.074a11.643,11.643,0,0,1-10.521-.007m8.034-4.639a6.16,6.16,0,0,0-5.566,0c-1.533.885-1.53,2.327.007,3.214a6.161,6.161,0,0,0,5.566,0c1.533-.885,1.53-2.327-.007-3.214" transform="translate(0 -151.364)" fill="#d1d8dc" opacity="0.2"/><path d="M186.281,98.607l-78.35-45.235c-2.286-1.32-4.355-1.448-5.855-.589h0l-6.041,3.488.007.011c-1.539.845-2.5,2.7-2.5,5.376v44.088c0,5.273,3.71,11.689,8.287,14.331l78.35,45.235c2.243,1.3,4.271,1.43,5.763.623l.009.015,6.243-3.6,0-.009c1.468-.875,2.379-2.7,2.379-5.31V112.938c0-5.273-3.71-11.689-8.287-14.331" transform="translate(-53 -29.598)" fill="#e5e8eb"/><path d="M180.177,106.736,101.827,61.5c-4.577-2.642-8.287-.511-8.287,4.762v44.088c0,5.272,3.71,11.688,8.287,14.331l78.35,45.235c4.577,2.642,8.287.511,8.287-4.762V121.068c0-5.272-3.71-11.689-8.287-14.331" transform="translate(-53 -34.204)" fill="#f5f5f5"/><path d="M188.465,121.047c-.01-5.261-3.7-11.65-8.266-14.3l-.019-.013L101.83,61.5l-.019-.009c-4.562-2.622-8.256-.5-8.266,4.75a17.977,17.977,0,0,0,4.143,10.568h0l-.016.015L135.145,123.7c3.236,4.048,8.483,7.078,11.72,6.766l37.575-3.616-.016-.029h0c2.406-.267,4.035-2.323,4.041-5.779" transform="translate(-53.003 -34.206)" fill="#a9dfff"/><path d="M189.54,98.607,111.19,53.372c-2.286-1.32-4.355-1.448-5.854-.589h0l-6.041,3.488.007.011c1.494-.82,3.533-.687,5.787.614l78.35,45.236c4.577,2.642,8.287,9.058,8.287,14.331l6.1-3.523c0-5.273-3.71-11.689-8.287-14.331" transform="translate(-56.26 -29.598)" fill="#1890ff"/><path d="M279.149,270.2,267,263.186a3.487,3.487,0,0,1-1.456-2.782c0-1.072.652-1.565,1.456-1.1l12.149,7.015a3.486,3.486,0,0,1,1.457,2.782c0,1.072-.652,1.565-1.457,1.1m-3.459,3.828h0a3.487,3.487,0,0,0-1.456-2.782L267,267.069c-.8-.464-1.456.029-1.456,1.1A3.488,3.488,0,0,0,267,270.953l7.234,4.176c.8.464,1.456-.029,1.456-1.1" transform="translate(-150.457 -146.822)" fill="#d1d8dc"/><path d="M193,286.954l-71.154-41.081c-1.079-.623-.944-1.711.3-2.43a4.676,4.676,0,0,1,4.207-.174l71.154,41.081c1.078.622.943,1.71-.3,2.429a4.676,4.676,0,0,1-4.207.174" transform="translate(-68.627 -137.598)" fill="#d1d8dc" opacity="0.2"/><path d="M62.073,242.9l-9.153,5.284,31.044,17.923,9.153-5.284Z" transform="translate(-29.985 -137.63)" fill="#d1d8dc" opacity="0.2"/><path d="M72.557,144.895c-5.342-3.084-10.178-3.385-13.683-1.38h0l-9.163,5.29h0c-3.515,2.011-5.691,6.341-5.691,12.514,0,12.327,8.674,27.328,19.374,33.505,5.342,3.084,10.178,3.385,13.683,1.38h0l.013-.007.007,0,9.143-5.279h0c3.515-2.011,5.691-6.341,5.691-12.514,0-12.327-8.674-27.328-19.374-33.505" transform="translate(-24.942 -80.595)" fill="#10bf1c"/><path d="M82.769,190.6c0,12.327-8.674,17.311-19.374,11.134S44.02,180.56,44.02,168.233s8.674-17.311,19.374-11.134S82.769,178.278,82.769,190.6" transform="translate(-24.942 -87.51)" fill="#50ff44"/><path d="M63.606,200.364c2.69,4.982,6.567,9.393,10.886,11.886s8.2,2.561,10.886.684A26.768,26.768,0,0,0,76.61,199.1c2.527.445,4.352-1.241,4.352-4.5a14.285,14.285,0,0,0-6.47-11.189c-3.573-2.063-6.47-.4-6.47,3.718a14.411,14.411,0,0,0,4.353,9.524c-4.116-1.492-7.444-.011-8.768,3.706" transform="translate(-36.039 -103.422)" fill="#fff"/><path d="M68.523,203.837c-8.519-4.919-15.451-16.906-15.451-26.72s6.932-13.8,15.451-8.879,15.451,16.906,15.451,26.72-6.931,13.8-15.451,8.879m0-34.72c-8.1-4.676-14.687-.889-14.687,8.44s6.589,20.724,14.687,25.4,14.687.889,14.687-8.44-6.589-20.724-14.687-25.4" transform="translate(-30.071 -94.129)" fill="#fff"/></g></g></g><g transform="translate(691 1940.355)"><g transform="translate(0 76.645)" fill="#fff" stroke="rgba(24,144,255,0.35)" stroke-width="1" opacity="0.1"><rect width="260" height="303" rx="30" stroke="none"/><rect x="0.5" y="0.5" width="259" height="302" rx="29.5" fill="none"/></g><g transform="translate(28 188.645)"><text fill="#fff" font-size="18" font-family="SegoeUI-Bold, Segoe UI" font-weight="700"><tspan x="35.672" y="19">100% «Чистая» </tspan><tspan x="39.021" y="41">криптовалюта</tspan><tspan font-size="16"><tspan x="102.5" y="63"></tspan></tspan><tspan font-size="14" font-family="SegoeUI, Segoe UI" font-weight="400"><tspan x="5.539" y="85">Проверка каждой транзакции </tspan><tspan x="25.777" y="107">через </tspan><tspan y="107">AML-</tspan><tspan y="107">сервисы. Вы </tspan><tspan x="4.404" y="129">получаете актив без «черной» </tspan><tspan x="74.585" y="151">истории.</tspan></tspan></text></g><g transform="translate(39.953)"><g clip-path="url(#f)"><path d="M55.619,134.213c1.916-1.106,1.913-2.9-.009-4.011a7.675,7.675,0,0,0-6.947,0c-1.916,1.106-1.913,2.9.008,4.011a7.681,7.681,0,0,0,6.948,0" transform="translate(-26.825 -73.478)" fill="#d1d8dc" opacity="0.1"/><path d="M56.822,101.457a5.65,5.65,0,1,1-5.65-5.65,5.65,5.65,0,0,1,5.65,5.65" transform="translate(-25.855 -54.416)" fill="#e5e8eb"/><path d="M157.709,391.924c4.324-2.5,4.317-6.547-.019-9.049a17.317,17.317,0,0,0-15.673-.012c-4.324,2.5-4.315,6.547.017,9.05a17.327,17.327,0,0,0,15.675.01" transform="translate(-78.823 -216.394)" fill="#fff" opacity="0.1"/><path d="M160.945,344.21v-3.728c-.007-1.636-1.092-3.27-3.257-4.519a17.316,17.316,0,0,0-15.673-.011c-2.165,1.25-3.244,2.89-3.236,4.53h0v3.728h0c.007,1.634,1.091,3.27,3.255,4.518a17.324,17.324,0,0,0,15.675.011c2.165-1.25,3.243-2.889,3.236-4.529" transform="translate(-78.822 -189.75)" fill="#10bf1c"/><path d="M157.709,345.012c4.324-2.5,4.317-6.547-.019-9.049a17.317,17.317,0,0,0-15.673-.011c-4.324,2.5-4.315,6.547.017,9.05a17.327,17.327,0,0,0,15.675.01" transform="translate(-78.823 -189.75)" fill="#50ff44"/><path d="M155.022,347.536a10.212,10.212,0,0,1-4.988-1.191,3.33,3.33,0,0,1-.011-6.258,11.021,11.021,0,0,1,9.958.007,3.328,3.328,0,0,1,.012,6.257,10.185,10.185,0,0,1-4.971,1.186m-.033-7.769a9.251,9.251,0,0,0-4.527,1.081,2.475,2.475,0,0,0,.011,4.734,10.041,10.041,0,0,0,9.08.005,2.474,2.474,0,0,0-.012-4.732,9.3,9.3,0,0,0-4.552-1.088" transform="translate(-83.967 -192.487)" fill="#10bf1c"/><path d="M155.022,339.4a10.212,10.212,0,0,1-4.988-1.191,3.33,3.33,0,0,1-.011-6.258,11.021,11.021,0,0,1,9.958.007,3.328,3.328,0,0,1,.012,6.257,10.185,10.185,0,0,1-4.971,1.186m-.033-7.769a9.246,9.246,0,0,0-4.527,1.081,2.475,2.475,0,0,0,.011,4.734,10.041,10.041,0,0,0,9.08.005,2.474,2.474,0,0,0-.012-4.732,9.3,9.3,0,0,0-4.552-1.088" transform="translate(-83.967 -187.864)" fill="#fff"/><path d="M338.729,285.992c7.649-4.416,7.634-11.585-.032-16.011s-20.084-4.435-27.733-.019c-6.9,3.985-7.562,10.211-1.991,14.641a4.2,4.2,0,0,0-3.5.125,1.148,1.148,0,0,0,0,2.175l.051.029a5.316,5.316,0,0,0-2.534.622l-12.527,7.233c-1.449.837-1.447,2.2.006,3.035h0a5.809,5.809,0,0,0,5.255,0l12.527-7.233a1.862,1.862,0,0,0,1.077-1.463l.051.029a4.162,4.162,0,0,0,3.766,0c.955-.552,1.02-1.415.216-2.019,7.674,3.216,18.457,2.835,25.36-1.15m-25.572-1.267c-6.47-3.736-6.483-9.786-.028-13.513s16.935-3.72,23.406.016,6.483,9.786.027,13.513-16.934,3.72-23.405-.016" transform="translate(-164.362 -151.453)" fill="#e5e8eb" opacity="0.1"/><path d="M22.821,265.377l-4.434,5.033,6.93,4-9.671-.891-4.434,5.033L9.67,272.97,0,272.079l8.717-2.56-1.543-5.583,6.93,4Z" transform="translate(0 -149.908)" fill="#d1d8dc" opacity="0.1"/><path d="M345.976,132.874c4.593-2.652,4.584-6.957-.019-9.615S333.9,120.6,329.3,123.248s-4.584,6.957.019,9.615,12.061,2.663,16.654.011" transform="translate(-185.081 -68.874)" fill="#d1d8dc" opacity="0.1"/><path d="M353.663,133.807c0-.411-.579-.745-1.29-.744l-10.043,0-.006-3.313c0-.411-.578-.744-1.29-.744s-1.287.332-1.286.742l.007,4.057a.647.647,0,0,0,.378.526,1.868,1.868,0,0,0,.911.218l11.332.006c.712,0,1.287-.332,1.287-.743" transform="translate(-192.968 -73.268)" fill="#fff"/><path d="M136.373,224.717,163.192,240.2c-14.778,8.532-38.765,8.515-53.576-.036s-14.84-22.4-.063-30.932,38.764-8.516,53.576.036Zm35.88-15.442L145.5,224.723l26.819,15.484c14.778-8.532,14.749-22.381-.063-30.932" transform="translate(-55.939 -115.21)" fill="#d1d8dc" opacity="0.2"/><path d="M151.6,152.13l11.534-6.659V127.893c-14.812-8.552-38.8-8.568-53.577-.036-7.411,4.278-11.094,9.894-11.06,15.508h0v17.578h0c.033,5.581,3.739,11.161,11.123,15.423,14.812,8.552,38.8,8.568,53.577.036V158.825Z" transform="translate(-55.939 -68.991)" fill="#a9dfff"/><path d="M163.193,167.271v17.578c-14.778,8.532-38.765,8.516-53.577-.036-7.384-4.263-11.09-9.842-11.123-15.423h0V151.811h0c.033,5.581,3.739,11.161,11.123,15.424,14.812,8.552,38.8,8.568,53.577.036m-11.6-6.7,11.534-6.659V136.339l-26.757,15.448Z" transform="translate(-55.939 -77.437)" fill="#1890ff"/><path d="M245.164,151.635c-.1-5.533-3.79-11.055-11.111-15.281L207.3,151.8v5.261l6.1,3.522,11.6,6.695-.025,12.3,9.148,5.282c7.173-4.141,10.826-9.536,11.025-14.969h.04V151.635Z" transform="translate(-117.738 -77.445)" fill="#f5f5f5"/><path d="M245.164,171.725c.1,5.662-3.575,11.336-11.048,15.651L207.3,171.892v5.261l6.1,3.522,11.6,6.695-.025,12.3,9.148,5.282c7.173-4.141,10.826-9.536,11.025-14.969h.04V171.725Z" transform="translate(-117.738 -97.535)" fill="#dbe2e6"/><path d="M280.422,171.725c.1,5.662-3.575,11.336-11.048,15.651v17.578c7.173-4.141,10.826-9.536,11.025-14.969h.04V171.725Z" transform="translate(-152.997 -97.535)" fill="#e5e8eb"/><path d="M248.745,159.535c0,3.208-1.58,6.336-4.578,9.041a.439.439,0,1,0,.588.652c3.188-2.876,4.872-6.229,4.868-9.695,0-3.444-1.678-6.778-4.837-9.649l-.74.427c.024.049.026.105.069.144,3.025,2.719,4.625,5.858,4.629,9.08" transform="translate(-138.598 -85.13)" fill="#d1d8dc"/><path d="M124.883,160.622c-5.569-3.213-8.637-7.46-8.638-11.954s3.048-8.708,8.585-11.906c11.622-6.708,30.556-6.7,42.205.029a.44.44,0,0,0,.439-.762c-11.89-6.863-31.218-6.875-43.084-.029-5.82,3.362-9.025,7.86-9.025,12.668s3.224,9.338,9.077,12.716c5.955,3.438,13.774,5.158,21.588,5.158,7.789,0,15.573-1.71,21.5-5.129a.425.425,0,0,0,.147-.192l-.8-.46c-11.641,6.594-30.416,6.55-42-.139" transform="translate(-65.525 -74.333)" fill="#1890ff"/><path d="M146.032,158.4c-7.815,0-15.633-1.72-21.588-5.158-5.853-3.378-9.076-7.894-9.077-12.716s3.2-9.305,9.025-12.668c11.866-6.845,31.194-6.833,43.084.029,5.853,3.38,9.076,7.9,9.076,12.718,0,4.806-3.2,9.305-9.023,12.666-5.924,3.419-13.708,5.129-21.5,5.129m-.143-34.8c-7.631,0-15.254,1.674-21.058,5.022-5.537,3.2-8.586,7.426-8.585,11.906s3.068,8.74,8.638,11.954c11.646,6.729,30.582,6.741,42.207.029,5.536-3.2,8.584-7.424,8.583-11.9s-3.067-8.741-8.637-11.956c-5.833-3.368-13.494-5.052-21.147-5.052" transform="translate(-65.525 -69.711)" fill="#fff"/><path d="M136.387,76.7V68.307a.023.023,0,0,1,0-.012v-.011c.018-3.693,2.466-7.384,7.355-10.2,9.783-5.65,25.627-5.663,35.388-.025,4.888,2.822,7.325,6.526,7.307,10.23h0V76.7h0c-.016,3.691-2.464,7.385-7.35,10.2-9.787,5.649-25.629,5.66-35.394.024-4.89-2.822-7.322-6.524-7.307-10.227" transform="translate(-77.463 -30.577)" fill="#10bf1c"/><path d="M143.7,78.513c-9.763-5.636-9.747-14.783.044-20.432s25.627-5.663,35.388-.025,9.743,14.782-.039,20.434-25.63,5.658-35.393.023" transform="translate(-77.464 -30.577)" fill="#50ff44"/><path d="M128.25,52.29V43.9a.029.029,0,0,1,0-.012v-.011c.018-3.693,2.466-7.384,7.355-10.2,9.783-5.65,25.627-5.663,35.388-.025,4.888,2.822,7.325,6.526,7.307,10.23h0v8.417h0c-.016,3.691-2.464,7.385-7.35,10.2-9.787,5.649-25.629,5.66-35.394.024-4.89-2.822-7.322-6.524-7.307-10.227" transform="translate(-72.841 -16.712)" fill="#10bf1c"/><path d="M135.561,54.1c-9.763-5.636-9.747-14.783.044-20.432s25.627-5.663,35.388-.025,9.743,14.782-.039,20.434-25.63,5.658-35.393.023" transform="translate(-72.842 -16.712)" fill="#50ff44"/><path d="M136.387,27.877V19.482a.023.023,0,0,1,0-.012V19.46c.018-3.693,2.466-7.384,7.355-10.2,9.783-5.65,25.627-5.663,35.388-.025,4.888,2.822,7.325,6.526,7.307,10.23h0v8.417h0c-.016,3.691-2.464,7.385-7.35,10.2-9.787,5.649-25.629,5.66-35.394.024-4.89-2.822-7.322-6.523-7.307-10.227" transform="translate(-77.463 -2.846)" fill="#10bf1c"/><path d="M143.7,29.688c-9.763-5.636-9.747-14.783.044-20.432S169.37,3.593,179.13,9.23s9.743,14.782-.039,20.434-25.63,5.658-35.393.023" transform="translate(-77.464 -2.846)" fill="#50ff44"/><path d="M154.98,31.642c-7.583-4.379-7.57-11.489.035-15.88s19.918-4.4,27.5-.018,7.57,11.492-.033,15.88-19.918,4.4-27.505.019" transform="translate(-84.799 -7.08)" fill="#8fff5e"/><path d="M190.782,25.979a.7.7,0,1,0-.7-1.214l-1.349.779a8.976,8.976,0,0,0-7.8.177,2.983,2.983,0,0,0-1.647,2.083c-.151,1,.323,2.056,1.487,3.313.856.952,1.232,1.665,1.15,2.181-.058.367-.385.723-.97,1.061a7.622,7.622,0,0,1-6.778-.006,2.017,2.017,0,0,1-1.2-1.557,2.007,2.007,0,0,1,1.2-1.55.7.7,0,0,0-.7-1.213,3.284,3.284,0,0,0-1.9,2.763,2.877,2.877,0,0,0,.994,2.084l-.753.436a.7.7,0,1,0,.7,1.214l1.347-.78a8.555,8.555,0,0,0,3.713.814,8.311,8.311,0,0,0,4.081-.99,2.991,2.991,0,0,0,1.654-2.055c.2-1.279-.754-2.519-1.5-3.347-.834-.9-1.216-1.628-1.136-2.158.058-.379.381-.742.962-1.077a7.616,7.616,0,0,1,6.782,0,2.019,2.019,0,0,1,1.2,1.557,2,2,0,0,1-1.195,1.549.7.7,0,1,0,.7,1.214,3.283,3.283,0,0,0,1.9-2.762,2.878,2.878,0,0,0-.992-2.083Z" transform="translate(-97.384 -14.012)" fill="#4bfb1c"/><path d="M190.782,17.842a.7.7,0,1,0-.7-1.214l-1.349.779a8.974,8.974,0,0,0-7.8.177,2.983,2.983,0,0,0-1.647,2.083c-.151,1,.323,2.056,1.487,3.313.856.952,1.232,1.665,1.15,2.181-.058.367-.385.723-.97,1.061a7.622,7.622,0,0,1-6.778-.006,2.017,2.017,0,0,1-1.2-1.557,2.005,2.005,0,0,1,1.2-1.55.7.7,0,0,0-.7-1.213,3.284,3.284,0,0,0-1.9,2.763,2.877,2.877,0,0,0,.994,2.084l-.753.436a.7.7,0,0,0,.7,1.214l1.347-.78a8.556,8.556,0,0,0,3.713.814,8.311,8.311,0,0,0,4.081-.99,2.991,2.991,0,0,0,1.654-2.055c.2-1.279-.754-2.519-1.5-3.347-.834-.9-1.216-1.628-1.136-2.158.058-.379.381-.742.962-1.077a7.616,7.616,0,0,1,6.782,0,2.019,2.019,0,0,1,1.2,1.557,2.005,2.005,0,0,1-1.195,1.549.7.7,0,1,0,.7,1.214,3.283,3.283,0,0,0,1.9-2.762,2.878,2.878,0,0,0-.992-2.083Z" transform="translate(-97.384 -9.39)" fill="#fff"/><path d="M187.272,21.207c0,3.554-2.369,6.877-6.667,9.356-8.687,5.018-22.807,5.028-31.477.022-4.274-2.467-6.627-5.778-6.627-9.32s2.369-6.877,6.667-9.36c8.688-5.015,22.808-5.024,31.476-.021,4.274,2.469,6.629,5.779,6.629,9.321Zm-37.7,8.618h0c8.428,4.865,22.155,4.856,30.6-.022,4.015-2.317,6.226-5.371,6.228-8.6v0c0-3.215-2.2-6.256-6.19-8.561-8.426-4.862-22.152-4.853-30.6.021-4.015,2.319-6.226,5.373-6.227,8.6s2.2,6.255,6.188,8.56" transform="translate(-80.937 -4.622)" fill="#10bf1c"/><path d="M187.272,13.069c0,3.554-2.369,6.877-6.667,9.356-8.687,5.018-22.807,5.028-31.477.022-4.274-2.467-6.627-5.778-6.627-9.32s2.369-6.878,6.667-9.36c8.688-5.015,22.808-5.024,31.476-.021,4.274,2.469,6.629,5.779,6.629,9.321Zm-37.7,8.618h0c8.428,4.865,22.155,4.856,30.6-.022,4.015-2.317,6.226-5.37,6.228-8.6v0c0-3.215-2.2-6.256-6.19-8.561-8.426-4.862-22.152-4.853-30.6.022-4.015,2.319-6.226,5.372-6.227,8.6s2.2,6.255,6.188,8.559" transform="translate(-80.937 0)" fill="#fff"/></g></g></g><g transform="translate(967 1944.141)"><g transform="translate(0 72.859)" fill="#fff" stroke="rgba(24,144,255,0.35)" stroke-width="1" opacity="0.1"><rect width="260" height="303" rx="30" stroke="none"/><rect x="0.5" y="0.5" width="259" height="302" rx="29.5" fill="none"/></g><g transform="translate(28 184.859)"><text fill="#fff" font-size="18" font-family="SegoeUI-Bold, Segoe UI" font-weight="700"><tspan x="39.438" y="19">Бухгалтерская </tspan><tspan x="54.217" y="41">отчетность</tspan><tspan font-size="16"><tspan x="102.5" y="63"></tspan></tspan><tspan font-size="14" font-family="SegoeUI, Segoe UI" font-weight="400"><tspan x="35.85" y="85">Предоставляем акты </tspan><tspan x="17.256" y="107">выполненных работ/услуг, </tspan><tspan x="6.834" y="129">счета-фактуры. У бухгалтерии </tspan><tspan x="40.915" y="151">не будет вопросов.</tspan></tspan></text></g><g transform="translate(53.817)"><g clip-path="url(#g)"><g clip-path="url(#g)"><path d="M13.108,53.986A14.471,14.471,0,0,0,6.554,42.652C2.935,40.562,0,42.249,0,46.418A14.471,14.471,0,0,0,6.554,57.753c3.619,2.09,6.554.4,6.554-3.766" transform="translate(0 -27.573)" fill="#d1d8dc" opacity="0.1"/><path d="M15,60.337c-.28-.484-.735-.747-1.014-.585l-3.951,2.274L7.777,58.119c-.28-.484-.734-.746-1.014-.585s-.28.684,0,1.168l2.765,4.782a1.467,1.467,0,0,0,.507.535.507.507,0,0,0,.507.051L15,61.5c.28-.161.28-.683,0-1.168" transform="translate(-4.327 -37.962)" fill="#fff"/><path d="M47.13,380.671c-6.515,3.761-6.527,9.852-.028,13.6s17.049,3.745,23.563-.016,6.527-9.852.028-13.6l-11.8,6.81Z" transform="translate(-27.89 -251.366)" fill="#e5e8eb" opacity="0.1"/><path d="M56.659,368.388l11.768,6.794,11.8-6.81c-6.5-3.752-17.049-3.745-23.563.016" transform="translate(-37.415 -241.4)" fill="#f5f5f5" opacity="0.3"/><path d="M292.346,7.4c0,2.521-1.774,3.541-3.963,2.277A8.749,8.749,0,0,1,284.42,2.82c0-2.521,1.774-3.541,3.963-2.277A8.749,8.749,0,0,1,292.346,7.4" transform="translate(-187.817 0)" fill="#1890ff"/><path d="M281.949,38.326,256.7,23.75a2.734,2.734,0,0,1-1.141-2.181c0-.841.511-1.227,1.141-.863l25.247,14.576a2.734,2.734,0,0,1,1.142,2.181c0,.841-.511,1.227-1.142.863m-6.257.953h0a2.733,2.733,0,0,0-1.141-2.181L256.7,26.793c-.63-.364-1.141.022-1.141.863a2.734,2.734,0,0,0,1.141,2.181l17.849,10.3c.63.364,1.141-.022,1.141-.863m3.332,6.489L256.882,32.984c-.73-.422-1.321-.082-1.321.759a2.916,2.916,0,0,0,1.321,2.284l22.142,12.784c.73.421,1.321.081,1.321-.759a2.916,2.916,0,0,0-1.321-2.284" transform="translate(-168.76 -13.583)" fill="#e5e8eb" opacity="0.2"/><path d="M398.036,228.02a14.665,14.665,0,0,0-2.831-.676,10.2,10.2,0,0,0-.349-.968l-4.04,0a10.192,10.192,0,0,0-.353.968,14.759,14.759,0,0,0-2.834.68c-.5-.2-.981-.382-1.434-.541l-2.86,1.651c.274.261.587.538.936.828a4.91,4.91,0,0,0-1.178,1.636c-.6.063-1.163.131-1.677.2l0,2.332c.513.072,1.074.14,1.676.2a4.881,4.881,0,0,0,1.171,1.635c-.351.29-.665.568-.939.829l2.853,1.647c.453-.158.933-.34,1.436-.542a14.714,14.714,0,0,0,2.831.676,10.117,10.117,0,0,0,.349.967l4.039,0a10.255,10.255,0,0,0,.353-.968,14.734,14.734,0,0,0,2.834-.68c.5.2.981.382,1.434.54l2.86-1.651c-.274-.261-.587-.538-.936-.828a4.914,4.914,0,0,0,1.178-1.636c.6-.062,1.163-.131,1.677-.2l0-2.332c-.513-.072-1.074-.14-1.676-.2a4.872,4.872,0,0,0-1.171-1.634c.351-.29.665-.568.939-.829l-2.853-1.647c-.453.159-.933.34-1.436.542m-.116,7.887a11.28,11.28,0,0,1-10.208.007c-2.816-1.625-2.81-4.264.012-5.893a11.28,11.28,0,0,1,10.208-.007c2.816,1.626,2.81,4.264-.012,5.894" transform="translate(-251.866 -149.488)" fill="#e5e8eb" opacity="0.1"/><path d="M335.249,395.237a7.932,7.932,0,0,0-1.532-.366,5.518,5.518,0,0,0-.189-.524h-2.186c-.068.161-.132.336-.191.524a8,8,0,0,0-1.534.368c-.271-.109-.531-.207-.776-.292l-1.547.893c.148.141.318.291.506.448a2.667,2.667,0,0,0-.638.885c-.326.034-.629.071-.907.11l0,1.262c.278.039.581.076.907.109a2.638,2.638,0,0,0,.634.884c-.19.157-.36.307-.508.449l1.544.891c.245-.086.505-.184.777-.293a7.955,7.955,0,0,0,1.532.366,5.458,5.458,0,0,0,.189.524l2.186,0a5.5,5.5,0,0,0,.191-.524,8,8,0,0,0,1.534-.368c.271.109.531.207.776.292l1.547-.894q-.223-.212-.507-.448a2.659,2.659,0,0,0,.638-.885c.326-.034.629-.071.907-.11l0-1.262c-.278-.039-.581-.076-.907-.109a2.645,2.645,0,0,0-.634-.885c.19-.157.36-.307.508-.448l-1.544-.891c-.245.086-.505.184-.777.293m-.843,3.817a4.378,4.378,0,0,1-3.961,0,1.207,1.207,0,0,1,0-2.287,4.378,4.378,0,0,1,3.961,0,1.207,1.207,0,0,1,0,2.287" transform="translate(-215.443 -260.408)" fill="#d1d8dc" opacity="0.1"/><path d="M31.106,245.671c-2.276-1.314-2.28-3.449-.01-4.76a9.126,9.126,0,0,1,8.246.006c2.276,1.314,2.28,3.449.01,4.76a9.125,9.125,0,0,1-8.245-.005m6.3-3.635a4.829,4.829,0,0,0-4.362,0,1.33,1.33,0,0,0,.005,2.519,4.828,4.828,0,0,0,4.362,0,1.33,1.33,0,0,0-.005-2.518" transform="translate(-19.412 -158.438)" fill="#d1d8dc" opacity="0.1"/><path d="M171.966,56.853l-31.689-18.3a10.977,10.977,0,0,1-4.329-5.338l-2.055-5.174a10.979,10.979,0,0,0-4.329-5.338L102.855,7.287a3.562,3.562,0,0,0-3.52-.372l0-.006-1.2.694,0,.005a3.492,3.492,0,0,0-1.51,3.263V68.287a11.115,11.115,0,0,0,5.035,8.707l69.111,39.9a3.527,3.527,0,0,0,3.579.341l0,0,1.176-.679h0l.042-.024,0-.007A3.54,3.54,0,0,0,177,113.311V65.56a11.115,11.115,0,0,0-5.035-8.707" transform="translate(-63.805 -4.359)" fill="#10bf1c"/><path d="M134.75,35.246,132.7,30.073a10.977,10.977,0,0,0-4.329-5.338L101.658,9.314c-2.78-1.606-5.035-.31-5.035,2.893V69.624a11.116,11.116,0,0,0,5.035,8.707l69.111,39.9c2.781,1.605,5.035.31,5.035-2.893V67.587a11.114,11.114,0,0,0-5.035-8.707l-31.689-18.3a10.981,10.981,0,0,1-4.329-5.338" transform="translate(-63.805 -5.696)" fill="#8fff5e"/><path d="M179.271,86.959,107.433,45.483V82.032l71.838,41.476Z" transform="translate(-70.943 -30.035)" fill="#fff"/><path d="M168.8,96.139,98.977,55.828a2.978,2.978,0,0,0-3.007-.241l-.016-.028-1.189.686.017.028c-1.019.556-1.681,1.867-1.681,3.783v40.63c0,3.446,2.1,7.449,4.68,8.941L167.6,149.939a2.953,2.953,0,0,0,3.07.208l.009.016,1.2-.69-.009-.017c.98-.578,1.611-1.874,1.611-3.746v-40.63c0-3.446-2.1-7.449-4.68-8.941" transform="translate(-61.479 -36.507)" fill="#10bf1c"/><path d="M167.6,151.249,97.781,110.938c-2.585-1.492-4.68-5.5-4.68-8.942V61.367c0-3.446,2.095-5.03,4.68-3.538L167.6,98.14c2.584,1.492,4.679,5.5,4.679,8.941v40.63c0,3.446-2.095,5.03-4.679,3.538" transform="translate(-61.479 -37.817)" fill="#50ff44"/><path d="M175.046,282.856,104.2,241.95c-.634-.366-.555-1.006.178-1.429a2.751,2.751,0,0,1,2.475-.1L177.7,281.324c.634.366.555,1.006-.178,1.429a2.751,2.751,0,0,1-2.475.1" transform="translate(-68.523 -158.598)" fill="#d1d8dc" opacity="0.1"/><path d="M148.991,321.4,124.4,307.2c-2.287-1.32-2-3.626.641-5.15l1.311-.757c2.64-1.524,6.634-1.69,8.921-.37l24.594,14.2c2.286,1.32,2,3.626-.641,5.15l-1.311.757c-2.64,1.524-6.634,1.69-8.92.37" transform="translate(-81.126 -198.124)" fill="#d1d8dc" opacity="0.1"/><path d="M161.379,205.737a2.623,2.623,0,0,0-1.516-2.225l-24.594-14.2c-2.287-1.32-6.28-1.154-8.921.37l-1.311.757a3.644,3.644,0,0,0-2.158,2.89h-.026V221h.028a2.624,2.624,0,0,0,1.516,2.226l24.594,14.2c2.286,1.32,6.28,1.154,8.921-.37l1.311-.757a3.643,3.643,0,0,0,2.157-2.89h.026V205.737Z" transform="translate(-81.126 -124.424)" fill="#1890ff"/><path d="M148.991,209.789,124.4,195.59c-2.287-1.32-2-3.626.641-5.15l1.311-.757c2.64-1.524,6.634-1.69,8.921-.37l24.594,14.2c2.286,1.32,2,3.626-.641,5.15l-1.311.757c-2.64,1.524-6.634,1.69-8.92.37" transform="translate(-81.126 -124.425)" fill="#a9dfff"/><path d="M147.363,197.35h0a6.564,6.564,0,0,0-6.1,0,2.681,2.681,0,0,0,.005,4.919,6.583,6.583,0,0,0,6.1,0,2.929,2.929,0,0,0,1.613-2.479,2.874,2.874,0,0,0-1.618-2.437" transform="translate(-92.222 -129.823)" fill="#1890ff"/><path d="M199.816,227.629a6.546,6.546,0,0,0-6.1,0,2.677,2.677,0,0,0,.005,4.915,6.582,6.582,0,0,0,6.1,0,2.927,2.927,0,0,0,1.611-2.453v-.025a2.882,2.882,0,0,0-1.619-2.439" transform="translate(-126.859 -149.818)" fill="#1890ff"/><path d="M157.3,133.785c-3.446-1.989-7-2.219-9.761-.628s-4.329,4.773-4.329,8.738v15.326c0,.006,0,.012,0,.019a1.731,1.731,0,0,0,1.012,1.391,5.4,5.4,0,0,0,4.888,0,1.722,1.722,0,0,0,1-1.381c0-.011,0-.021,0-.032V141.9c0-1.66.471-2.521.875-2.754s1.4-.212,2.852.627c3.825,2.209,7.18,8.009,7.18,12.414v15.326c0,.005,0,.01,0,.015a1.731,1.731,0,0,0,1.012,1.394,5.4,5.4,0,0,0,4.888,0,1.723,1.723,0,0,0,1-1.379c0-.011,0-.022,0-.033V152.183c0-6.873-4.671-14.954-10.635-18.4" transform="translate(-94.568 -87.239)" fill="#fff"/><g transform="translate(52.334 84.856)" style="mix-blend-mode:multiply;isolation:isolate"><g clip-path="url(#i)"><path d="M160.55,255.872a7.135,7.135,0,0,0-3.233-5.594c-1.786-1.029-3.233-.2-3.233,1.861a6.981,6.981,0,0,0,1.478,3.977v4.9a3.867,3.867,0,0,0,1.755,3.032c.969.561,1.757.11,1.755-1.007v-4.9c.889-.15,1.478-.956,1.477-2.268" transform="translate(-154.084 -249.836)" fill="#bbc1c5"/></g></g></g></g></g></g></g></svg>